<?xml version="1.0" encoding="utf-8" ?>
<svg baseProfile="full" height="300mm" version="1.1" viewBox="0,0,200,300" width="200mm" xmlns="http://www.w3.org/2000/svg" xmlns:ev="http://www.w3.org/2001/xml-events" xmlns:xlink="http://www.w3.org/1999/xlink"><defs /><rect fill="#222222" height="300" width="200" x="0" y="0" /><text fill="#FFFFFF" style="font-size:12px; font-family:Arial; font-weight:bold;" x="10" y="20">Over 10km Runs</text><text fill="#FFFFFF" style="font-size:4px; font-family:Arial" x="10" y="280">ATHLETE</text><text fill="#FFFFFF" style="font-size:9px; font-family:Arial" x="10" y="290">lihsiaofei</text><text fill="#FFFFFF" style="font-size:4px; font-family:Arial" x="120" y="280">STATISTICS</text><text fill="#FFFFFF" style="font-size:3px; font-family:Arial" x="120" y="285">Number: 4</text><text fill="#FFFFFF" style="font-size:3px; font-family:Arial" x="120" y="290">Weekly: 1.3</text><text fill="#FFFFFF" style="font-size:3px; font-family:Arial" x="141" y="285">Total: 53.7 km</text><text fill="#FFFFFF" style="font-size:3px; font-family:Arial" x="141" y="290">Avg: 13.4 km</text><text fill="#FFFFFF" style="font-size:3px; font-family:Arial" x="167" y="285">Min: 12.2 km</text><text fill="#FFFFFF" style="font-size:3px; font-family:Arial" x="167" y="290">Max: 15.1 km</text><polyline fill="none" points="72.70964459888637,97.71959716221318 70.89327079430223,82.9025582880713 71.80145769566298,52.28057277249172 67.26052318513393,45.365911262109876 56.816373804584146,37.95733733847737 47.73450477980077,38.945147674530745 40.92310301028192,44.378101884853095 36.382168497890234,66.60377719206735 35.928075045347214,96.73179560201243 41.831289913505316,106.60980455391109 60.90321486629546,109.0793044893071 67.71461663581431,105.12810415076092 72.255551148206,80.43304858217016 73.16373804956675,53.2683809697628 68.6228035390377,42.40248268842697 52.729532742872834,37.46343211457133 40.92310301028192,42.89638754399493 36.382168497890234,55.7379008163698 35.928075045347214,68.08548622392118 36.83626194857061,90.8049831497483 38.19854230247438,102.6586027443409 44.10175717063248,108.58540457533672 63.17368212155998,109.0793044893071 70.89327079430223,98.70739857247099 72.70964459888637,72.530611326918 73.61783150210977,53.2683809697628 69.07689698971808,41.90857779653743 62.26549522019923,37.95733733847737 45.46403752267361,39.93295786250383 39.56082265637815,45.365911262109876 36.382168497890234,69.0732920607552 35.47398159280419,76.97573344409466 35.47398159280419,94.2622910598293 37.744448851794004,101.17690145643428 50.91315893828869,111.54880349896848 65.89824283123016,107.59760463936254 69.98508389294147,101.17690145643428 73.61783150210977,81.91475451551378 74.07192495279014,58.207419742364436 72.255551148206,48.32933850912377 65.44414937868714,38.945147674530745 54.545906549319625,36.47562155732885 40.92310301028192,42.89638754399493 36.382168497890234,49.811051634605974 37.290355399250984,68.08548622392118 36.382168497890234,97.22569639980793 47.73450477980077,109.57320436416194 62.71958866901696,109.57320436416194 70.89327079430223,101.17690145643428 72.70964459888637,82.4086564197205 74.07192495279014,52.28057277249172 65.89824283123016,39.439052786212415 55.0,36.47562155732885 42.73947681672871,42.40248268842697 37.290355399250984,52.28057277249172 37.744448851794004,81.42085257451981 39.56082265637815,103.15250309929252 47.73450477980077,109.57320436416194 63.17368212155998,109.0793044893071 71.34736424684525,101.17690145643428 73.61783150210977,79.93914653034881 74.98011185601354,66.10987410834059 71.34736424684525,44.87200659280643 63.62777557224035,37.95733733847737 52.729532742872834,36.47562155732885 40.92310301028192,44.87200659280643 37.290355399250984,62.652551483828574 36.83626194857061,93.76839004037902 40.01491610892117,104.14030370023102 48.64269168116152,110.06710420176387 64.53596247546375,109.0793044893071 70.4391773417592,104.63420394435525 74.52601840347052,85.86596871819347 74.52601840347052,78.95134231587872 74.98011185601354,54.25618901895359 69.07689698971808,41.41467286925763 55.454093450680375,36.96952685387805 42.28538336418569,42.89638754399493 37.290355399250984,53.762285012286156 36.382168497890234,82.4086564197205 36.83626194857061,99.69519983697683 45.00994407199323,109.0793044893071 56.362280352041125,111.54880349896848 66.35233628191054,107.59760463936254 73.61783150210977,93.76839004037902 74.07192495279014,62.652551483828574 71.34736424684525,45.365911262109876 59.99502796307206,37.46343211457133 47.2804113291204,38.45124252466485 37.290355399250984,50.79886019974947 36.382168497890234,80.9269505967386 35.928075045347214,96.23789476789534 38.19854230247438,103.15250309929252 54.545906549319625,111.05490377079695 65.44414937868714,108.09150462504476 73.16373804956675,89.81718055903912 74.52601840347052,61.17084123613313 69.53099044039845,44.378101884853095 54.545906549319625,36.96952685387805 44.55585062131286,40.426862901076674 37.290355399250984,53.762285012286156 37.290355399250984,83.39646011777222 37.744448851794004,101.17690145643428 44.10175717063248,109.0793044893071 57.724560705944896,111.54880349896848 69.53099044039845,105.62200432317331 74.07192495279014,86.35987032670528 74.98011185601354,55.7379008163698 70.4391773417592,43.39029236091301 59.086841059848666,37.46343211457133 45.91813097335398,39.93295786250383 38.19854230247438,48.32933850912377 36.83626194857061,71.54280600696802 36.382168497890234,99.20129922404885 41.831289913505316,107.59760463936254 51.821345841512084,111.05490377079695 68.16871008649468,107.59760463936254 74.52601840347052,95.74399389512837 74.52601840347052,67.59158324962482 74.52601840347052,51.29276442853734 60.90321486629546,37.46343211457133 48.18859823048115,38.945147674530745 42.28538336418569,43.39029236091301 37.744448851794004,67.59158324962482 38.19854230247438,95.25009298650548 42.73947681672871,107.59760463936254 55.454093450680375,111.54880349896848 68.16871008649468,108.09150462504476 74.52601840347052,95.74399389512837 75.43420530669391,64.62816463317722 75.43420530669391,58.207419742364436 74.07192495279014,47.835434060543776 68.6228035390377,42.40248268842697 53.183626195415854,36.96952685387805 40.01491610892117,45.365911262109876 36.382168497890234,65.61597098596394 36.382168497890234,94.2622910598293 41.831289913505316,107.10370461456478 51.367252388969064,111.54880349896848 65.44414937868714,110.56100400490686 74.52601840347052,96.73179560201243 74.98011185601354,64.1342614009045 76.3423922099173,52.774476889986545 65.44414937868714,38.945147674530745 51.367252388969064,36.96952685387805 39.56082265637815,46.35372049268335 38.19854230247438,70.55500053940341 37.744448851794004,99.69519983697683 40.92310301028192,106.60980455391109 50.91315893828869,112.53660284681246 62.26549522019923,112.04270319081843 70.89327079430223,105.62200432317331 75.43420530669391,87.34767343476415 75.88829875737429,53.2683809697628 70.4391773417592,41.41467286925763 58.63274760916829,36.96952685387805 45.46403752267361,40.92076790332794 38.19854230247438,54.750092988368124 38.6526357550174,82.4086564197205 38.6526357550174,99.20129922404885 47.2804113291204,110.06710420176387 60.90321486629546,113.03050246275961 70.4391773417592,108.09150462504476 75.88829875737429,95.25009298650548 75.43420530669391,66.10987410834059 72.255551148206,43.88419714104384 60.90321486629546,36.47562155732885 44.55585062131286,40.426862901076674 36.83626194857061,60.18303421838209 37.744448851794004,86.85377189842984 40.92310301028192,104.14030370023102 50.91315893828869,112.53660284681246 62.26549522019923,113.5244020447135 73.61783150210977,104.63420394435525 76.3423922099173,81.91475451551378 75.88829875737429,52.28057277249172 70.4391773417592,41.41467286925763 57.724560705944896,36.96952685387805 41.831289913505316,44.378101884853095 38.19854230247438,69.56719492422417 39.10672920756042,99.20129922404885 46.82631787844002,110.56100400490686 61.35730831697583,114.01830158941448 73.61783150210977,105.12810415076092 77.70467256382108,91.29888439085335 76.79648566059768,70.06109774950892 74.98011185601354,46.847625052090734 64.53596247546375,36.47562155732885 53.637719644233584,36.96952685387805 39.56082265637815,48.32933850912377 38.19854230247438,55.7379008163698 37.290355399250984,79.44524444174021 37.744448851794004,100.18910041311756 47.2804113291204,111.05490377079695 57.27046725526452,113.03050246275961 70.89327079430223,106.60980455391109 75.88829875737429,96.73179560201243 76.3423922099173,69.56719492422417 73.61783150210977,47.341529574710876 65.89824283123016,38.945147674530745 56.362280352041125,35.981716223061085 40.01491610892117,43.88419714104384 36.382168497890234,62.652551483828574 35.01988814398646,91.29888439085335 36.382168497890234,102.6586027443409 40.92310301028192,109.0793044893071 50.91315893828869,114.01830158941448 64.53596247546375,112.04270319081843 73.16373804956675,100.68300095293671 74.07192495279014,70.55500053940341 74.98011185601354,52.28057277249172 67.71461663581431,39.93295786250383 57.724560705944896,35.48781085247174 41.37719646282494,41.90857779653743 34.56579469144344,63.64035813184455 34.56579469144344,91.79278559470549 37.744448851794004,105.12810415076092 51.821345841512084,114.51220109593123 65.44414937868714,111.54880349896848 74.52601840347052,95.74399389512837 74.98011185601354,76.97573344409466 74.52601840347052,56.23180467588827 71.34736424684525,44.378101884853095 63.17368212155998,37.95733733847737 55.0,35.981716223061085 37.744448851794004,44.87200659280643 33.65760779008269,58.70132341608405 34.11170124076307,73.51841650065035 34.56579469144344,99.20129922404885 41.37719646282494,110.56100400490686 57.724560705944896,115.00610056659207 68.16871008649468,109.0793044893071 74.52601840347052,96.23789476789534 74.98011185601354,67.59158324962482 74.07192495279014,48.823242920450866 67.71461663581431,39.439052786212415 61.35730831697583,35.48781085247174 49.55087858438492,34.99390544462949 36.382168497890234,48.32933850912377 34.56579469144344,67.09768023947254 34.56579469144344,95.74399389512837 44.55585062131286,111.05490377079695 59.086841059848666,114.51220109593123 71.34736424684525,105.12810415076092 74.98011185601354,83.39646011777222 75.88829875737429,59.6891306550242 71.34736424684525,42.40248268842697 64.99005592800677,37.46343211457133 53.183626195415854,36.47562155732885 42.73947681672871,39.93295786250383 34.56579469144344,53.762285012286156 35.47398159280419,84.87816538801417 40.01491610892117,107.59760463936254 55.90818690136075,114.51220109593123 69.53099044039845,109.0793044893071 74.98011185601354,87.84157493384555 75.43420530669391,68.08548622392118 74.52601840347052,49.31714729592204 67.26052318513393,38.945147674530745 57.27046725526452,34.5 40.92310301028192,42.40248268842697 34.11170124076307,56.23180467588827 32.29532743617892,82.9025582880713 33.65760779008269,102.16470235120505 43.64766371808946,112.53660284681246 64.08186902292073,114.01830158941448 73.16373804956675,106.60980455391109 75.88829875737429,95.25009298650548 75.88829875737429,79.93914653034881 75.88829875737429,56.23180467588827 71.34736424684525,41.90857779653743 57.724560705944896,35.48781085247174 44.10175717063248,39.93295786250383 36.382168497890234,66.10987410834059 35.47398159280419,91.29888439085335 37.744448851794004,106.11590445740148 45.91813097335398,113.03050246275961 63.17368212155998,113.5244020447135 71.80145769566298,107.10370461456478 74.98011185601354,86.35987032670528 74.98011185601354,63.64035813184455 74.98011185601354,53.2683809697628 63.62777557224035,38.945147674530745 52.27543929219246,35.981716223061085 36.382168497890234,48.823242920450866 35.01988814398646,67.59158324962482 35.01988814398646,81.91475451551378 34.56579469144344,100.68300095293671 42.73947681672871,111.54880349896848 57.27046725526452,115.5 68.16871008649468,111.05490377079695 73.61783150210977,100.68300095293671 75.43420530669391,71.04890329251066 75.88829875737429,64.1342614009045 70.4391773417592,43.88419714104384 52.729532742872834,37.46343211457133 41.831289913505316,42.89638754399493 36.83626194857061,49.31714729592204 37.290355399250984,59.6891306550242 35.47398159280419,85.86596871819347 35.47398159280419,98.21349788550287 39.56082265637815,108.58540457533672 47.73450477980077,114.01830158941448 62.71958866901696,114.01830158941448 71.80145769566298,106.11590445740148 74.98011185601354,82.4086564197205 75.43420530669391,63.146454826928675 74.07192495279014,50.30495593557134 59.086841059848666,38.945147674530745 47.2804113291204,40.426862901076674 39.56082265637815,48.32933850912377 35.928075045347214,58.207419742364436 35.01988814398646,85.86596871819347 35.47398159280419,97.22569639980793 38.6526357550174,107.59760463936254 48.64269168116152,114.01830158941448 63.17368212155998,114.01830158941448 72.70964459888637,103.15250309929252 75.43420530669391,73.51841650065035 75.88829875737429,55.24399692052975 69.98508389294147,45.365911262109876 56.816373804584146,38.945147674530745 46.372224425897,40.92076790332794 36.382168497890234,53.2683809697628 35.47398159280419,56.23180467588827" stroke="#4dd2ff" stroke-linecap="round" stroke-linejoin="round" stroke-width="0.5"><title>2024-05-10 12.2km</title><desc>9223370321510435007</desc></polyline><polyline fill="none" points="114.35330948117189,110.04273850205936 115.18649373878725,110.04273850205936 116.81663685152307,109.6096545389737 118.410554561764,108.58600012815441 119.5335420393385,107.48360085888999 121.2361359570641,105.90874078130582 122.86627906979993,104.49136270952295 124.20661896234378,103.94015910217422 125.29338103765622,102.52277576446068 127.21332737035118,101.06601671644603 128.55366726289503,99.56988163336064 130.36493738810532,98.27060300207813 131.1981216459535,97.08943784516305 132.90071556344628,96.10513153625652 134.16860465123318,94.72709963170928 136.41457960638218,93.74278893400333 138.51565295178443,92.404123450513 140.4718246869743,91.06545458440087 141.37745974957943,90.55360971239861 143.44230769225396,89.80552785599139 145.21735241496935,88.38810670483508 147.20974955288693,87.20691951544723 147.8980322002899,86.53757893905276 149.6368515205104,84.84453723568004 151.12209302326664,83.23023661901243 152.28130590333603,81.53718434571056 153.15071556344628,80.11974107191782 153.6940966011025,79.92287365059019 154.70840787119232,77.91482177382568 155.57781753130257,75.8280146989855 156.5196779964026,73.78057335270569 157.67889087670483,71.81187228733324 158.76565295178443,69.68566691805609 159.81618962436914,67.63820182930795 160.32334525953047,65.90572518765111 161.59123434708454,63.74012141651474 162.4606440071948,62.04700684623094 162.96779964212328,60.82638600768405 163.83720930246636,59.72388734854758 165.06887298752554,57.91263456895831 166.59033989254385,55.86512396775652 168.22048300527968,53.89635630918201 169.9230769232381,52.045708036690485 171.73434704821557,50.39193176815752 173.47316636843607,48.58064707220183 175.46556350612082,47.084363737521926 177.34928443655372,45.78495635892614 179.37790697673336,44.28866512485547 181.5152057246305,42.949874647310935 183.54382826481014,41.6110807848745 185.31887298752554,40.58729495917214 185.5,40.23290709673893 185.17397137754597,39.95727192872437 184.1958855097182,39.99664839010802 181.9861359570641,40.429789271816844 179.77638640417717,40.82355340232607 177.4941860465333,41.53232809930341 175.13953488366678,42.122972955490695 172.85733452579007,42.75299340914353 170.72003577812575,43.65864649816649 168.43783542024903,44.32804126403062 166.26431127008982,44.91868300185888 163.9821109122131,45.62745221759542 161.62745974957943,46.218092506052926 159.4177101966925,46.76935618088464 157.2441860465333,47.399371106672334 155.65026833629236,47.67500240096706 153.65787119837478,47.47812291968148 151.9915026833769,47.517498821776826 149.6368515205104,48.02938528283266 147.9342576030176,48.46251959420624 145.6882826476358,49.21065984296729 143.55098389973864,49.998174752516206 141.70348837203346,50.706937169859884 139.6024150266312,51.573201058316045 137.5013416816946,52.63634116668254 135.182915921323,53.778230016934685 133.08184257592075,54.723239617218496 131.1256708407309,55.86512396775652 129.89400715567172,57.24325697409222 128.40876565291546,57.63700860296376 127.93783542024903,57.873259439802496 127.68425760278478,58.66076146796695 127.39445438282564,59.05451204298879 126.85107334516943,59.25138722063275 126.23524150275625,59.33013727123034 125.47450804989785,60.235762011492625 123.80813953489996,61.37763447672478 122.5402504473459,62.992001692415215 122.10554561717436,64.09449354864773 121.19991055456921,65.19698310995591 119.24373881937936,66.53571734938305 117.46869409666397,68.03194573026849 116.7079606440384,69.01630420205765 114.93291592109017,70.55189976541442 113.41144901607186,72.44185742427362 112.75939177093096,74.13493876744178 111.67262969585136,75.35552893677959 110.51341681578197,76.57611629372695 109.53533094818704,78.70229400522658 108.30366726289503,80.19848801990156 107.72406082274392,82.28527787796338 106.67352415015921,83.70271535744541 106.09391771024093,85.75011835474288 105.07960644015111,88.15186947761686 105.18828264740296,89.52991848470992 104.75357781746425,90.31737345078727 104.5,91.22294521488948 104.78980321995914,93.54592657502508 104.64490160997957,95.94764235714683 104.82602862245403,98.11311446665786 105.33318425761536,100.63292541643023 105.6229874775745,100.94790094241034 106.02146690525115,102.9558655199944 106.78220035764389,104.53073437389685 107.76028622547165,106.30245623950032 109.53533094818704,108.07417218113551 111.41905187815428,109.64902582290233 112.90429338114336,109.80651092965854 113.77370304102078,109.8852534655307 115.5849731664639,109.96399598958669 117.68604651163332,108.82222824465134 119.20751341688447,107.79857231263304 120.33050089445896,106.3811992960691 122.03309481218457,104.68822100176476 123.6270125224255,104.05827420917922 124.46019678004086,103.58581362318364 125.72808586759493,101.93219825482811 127.06842576037161,101.10538863533293 127.82915921299718,99.92422979796538 129.60420393547975,98.62495203560684 130.5822898033075,97.20755447936244 132.321109123528,96.26262066853815 133.04561717342585,95.31768517251476 134.82066189637408,94.09714099590201 136.84928443655372,93.30969164767885 138.80545617174357,91.89227987168124 140.97898032190278,90.55360971239861 143.11627906979993,89.64803680422483 144.42039356008172,88.78183518280275 145.07245080498978,88.19124235623167 147.06484794267453,86.97068176150788 147.7893559928052,86.26196786772925 149.70930232550018,84.45080583155504 151.2669946332462,82.6790108915884 152.46243291604333,80.749716328457 153.15071556344628,79.76537966082105 154.09257602854632,78.66292042151326 154.7808586761821,77.24546945665497 155.50536672607996,75.5130242377636 156.41100178891793,73.34745974611724 157.57021466898732,71.26063467774657 158.69320214679465,69.25254996318836 159.52638640441,67.12633432043367 160.46824686951004,65.19698310995591 161.3376565296203,63.77949610960786 162.13461538450792,61.850132707710145 163.004025044851,60.235762011492625 164.38059033965692,58.46388607067638 165.68470483017154,56.534503304428654 167.16994633269496,54.723239617218496 168.6914132379461,52.911969735258026 169.95930232550018,51.651952250744216 171.66189624322578,49.91942331427708 173.07468694099225,48.58064707220183 174.95840787119232,47.084363737521926 177.13193202158436,45.62745221759542 179.26923076924868,44.09178438453819 181.26162790693343,42.83174591319403 183.36270125210285,41.72920979128685 185.42754919501022,40.469165698072175 185.39132379251532,39.99664839010802 183.94230769225396,39.95727192872437 181.66010733461007,40.35103641054593 179.45035778172314,40.74480059964117 177.05948121636175,41.37482269309112 174.81350626121275,42.280478139116894 172.56753130583093,43.10737958500977 170.39400715567172,43.57989411716699 168.22048300527968,44.209912837453885 165.79338103765622,44.879306906485 163.58363148476928,45.43057197507005 161.04785330966115,46.09996450104518 158.51207513408735,47.00561186589766 157.28041144902818,47.20249152291217 155.65026833629236,47.59625061726547 154.201252236031,47.20249152291217 152.06395348836668,47.28124336517067 150.2164579606615,47.55687472096179 147.8980322002899,48.2656404057052 146.52146690525115,48.81690194903058 144.13059033988975,49.407538680243306 141.84838998201303,50.47068313611089 139.63864042935893,51.29757179299486 137.428890876472,52.40008799379575 135.2191413238179,53.50260189923574 133.15429338114336,54.48698737521772 131.16189624322578,55.707622824411374 129.74910554569215,57.24325697409222 128.62611806811765,57.558258300618036 127.86538461525925,57.75513403455261 127.5755813953001,58.582011317805154 126.99597495538183,59.13326212283573 126.12656529527158,59.29076224734308 125.14847942744382,60.39326180820353 123.69946332718246,61.25950985305826 122.21422182465903,63.22825014058617 121.85196779947728,64.29136685296544 120.87388193211518,65.39385600452079 119.13506261166185,66.45696837012656 118.08452593930997,67.40195534817758 116.56305903405882,68.97692989837378 114.71556350635365,70.63064813587698 113.33899821108207,72.48123147050501 112.5782647584565,74.29243443120504 111.09302325570025,75.74926710114232 110.22361359582283,77.40296419561491 109.28175313048996,78.97790900972905 108.05008944543079,80.82846318290103 107.4704830055125,82.91525055925013 106.52862254041247,84.0177009490144 106.09391771024093,85.63199916612939 105.6229874775745,87.36441129277227 105.00715563516133,88.54559813113883 105.04338103742339,90.00239160476485 104.64490160997957,91.41980843700003 104.75357781746425,93.58529905273463 104.60867620748468,95.9082700550498 104.6811270127073,98.46746360554243 104.93470482993871,99.21553323167609 105.36940966011025,101.4203638805775 106.09391771024093,103.62518535478739 107.14445438282564,105.63313978651422 108.37611806811765,107.01114332702127 109.86135957064107,108.42851465867716 111.56395348836668,109.8852534655307 113.26654740609229,109.92462472897023" stroke="#4dd2ff" stroke-linecap="round" stroke-linejoin="round" stroke-width="0.5"><title>2024-04-26 13.1km</title><desc>9223370322705658065</desc></polyline><polyline fill="none" points="26.855932203354314,256.53285193792544 28.04817127576098,255.66900071894634 30.215878679882735,253.8627617888851 30.86619090102613,253.03817239881027 33.14228367526084,251.2711908017227 34.334522747667506,250.7214619886945 35.7796610170044,249.03300563027733 36.50223015178926,248.44400795688853 38.95896520954557,246.04874398867832 39.75379125773907,245.89167711962364 40.9460303299129,244.20320532878395 42.46342551289126,243.37860086539877 43.222123104380444,242.3969272073591 44.41436217655428,241.57231992523884 46.94335414818488,240.4335744199634 49.03880463866517,238.62728341238108 51.3510258696042,237.5277989062306 52.86842105258256,237.09585793863516 54.42194469226524,236.11417260800954 55.397413023980334,235.25028800824657 56.84255129331723,234.34713441657368 57.81801962526515,233.64031748531852 58.251561106182635,233.1298380024091 59.40767172165215,232.03034205638687 60.6360392505303,230.69523676019162 62.2256913469173,228.8496444717748 63.38180196261965,227.16111822007224 64.21275646751747,225.8260006190685 64.57404103456065,224.92283091685385 66.16369313118048,221.6635534998204 67.17528991959989,219.34670551831368 68.22301516495645,217.61888007025118 69.30686886701733,215.49835929649998 69.55976806418039,214.673710030067 69.84879571804777,213.65271391664282 71.47457627113909,210.98240705914213 72.05263157887384,209.41163201374002 72.6306868866086,208.3906257294584 73.85905441571958,206.70203408191446 75.23193577164784,204.69927885080688 76.49643175723031,203.16775502069504 77.58028545929119,201.6754967610177 78.70026761805639,200.26177452056436 80.21766280080192,198.80877827474615 81.51828724332154,197.3950483611261 82.42149866186082,196.53110043980996 83.5053523639217,195.62788064754568 85.05887600337155,194.2534127822437 87.66012488841079,192.56477593653835 89.141391614452,191.54373708509956 90.15298840310425,190.83686287759338 92.14005352347158,189.619466191245 92.9710080283694,189.14821510770707 94.81355932191946,187.97008555900538 95.24710080260411,187.02758002761402 92.82649420155212,187.42029087009723 90.94781445129775,187.8915434955561 89.141391614452,188.20571167900926 86.64852809975855,188.99113131975173 85.45628902758472,189.38384070209577 83.8305084744934,189.8158206853841 82.38537020492367,190.71905041765422 80.28991971444339,191.0724877184839 79.02542372886091,191.3866540095769 77.36351471883245,191.74009086366277 74.25646743969992,192.68258798474562 71.36619090102613,193.46800096749212 69.59589652088471,194.2141422192508 68.1146297948435,194.449765553436 66.16369313118048,195.03882342897123 63.670829616254196,194.88174139303737 61.71989295259118,194.96028241689783 59.299286351306364,195.4315283143369 56.192239072173834,196.33474844237207 55.21677074045874,196.60964121832512 53.049063336336985,197.51285933173494 51.42328278324567,198.062643514073 49.942016056971624,198.53388664350496 47.48528099898249,199.7512627815595 46.076271186582744,200.4973951567954 44.30597680644132,201.32206655561458 42.06601248891093,202.46089637064142 40.98215878661722,203.44264424027642 40.331846565473825,204.1887714008335 38.63380909897387,204.85635796689894 37.00802854588255,206.38787690072786 36.1048171275761,206.8198429767217 35.52676181960851,207.3303478837479 34.55129348789342,208.11573908492574 32.67261373763904,209.96140381100122 31.841659232741222,211.5714464969351 30.36039250646718,213.3385608693061 28.987511150771752,214.0454049630498 27.47011596779339,215.380552337243 26.20561998221092,216.59788964912877 24.977252453332767,217.93303057205048 23.423728813650087,219.73939233203419 22.086975914426148,222.2918495061749 20.641837645089254,223.54843927713227 20.027653880650178,225.35478183667874 18.582515611080453,227.23965444442 17.787689562886953,229.04598438343965 17.245762711856514,230.53816532704514 15.872881355928257,233.71885274650413 15.258697591489181,235.21102049289038 15.114183764439076,237.3314621465688 14.78902765410021,240.82624556106748 14.5,244.16393847885774 14.897413024213165,245.89167711962364 15.222569134784862,247.54087691617315 16.125780553091317,250.40733098160126 17.31801962526515,252.6847765520797 19.052185548469424,254.72661596044782 20.46119536133483,255.82606468189624 21.653434433508664,256.76844747987343 23.676628010580316,257.1218405958498 25.91659232834354,257.0040429166984 28.951382694067433,255.27634060711716 29.890722569078207,254.2161568479496 31.58876003557816,252.4884454239509 33.033898305147886,251.54605499375612 34.1900089206174,250.95706012137816 35.418376449495554,249.34713745425688 36.61061552190222,248.56180754411616 39.21186440670863,245.9702105599281 40.25958965206519,245.14560885404353 41.596342551289126,243.7712698179239 42.46342551289126,243.37860086539877 43.3305084744934,242.31839323602617 46.293041926808655,240.78697846012074 47.41302408557385,240.08017014351208 48.388492417288944,239.53042968807858 49.942016056971624,238.31314521547756 52.07359500438906,237.17439268622547 54.096788581693545,236.23197494400665 54.74710080283694,235.64296300141723 56.445138269336894,234.62200741219567 57.27609277423471,234.1900640691165 59.33541480824351,232.06960980821168 61.647636039182544,229.39939604038955 62.876003568060696,227.35745875909925 64.35727029433474,225.5511230469565 65.22435325593688,223.7447811588936 65.87466547708027,222.21331254625693 66.63336306856945,220.13207885387237 67.8617305974476,218.05083696206566 68.80107047269121,216.12666263530264 69.45138269406743,214.87005521022365 69.84879571804777,213.45636828400893 70.78813559329137,211.9641390905599 71.36619090102613,210.8645990927762 71.76360392477363,209.4509014468058 73.78679750231095,206.58422516088467 74.5454950935673,205.6024831304676 75.99063336290419,203.56045386201004 77.61641391599551,201.51841669893474 78.48349687759764,200.37958485182025 79.49509366624989,199.35856110812165 80.90410347888246,198.14118406490888 83.0356824262999,195.9813146632223 84.84210526291281,194.64611825160682 86.82917038351297,193.1538359145634 88.45495093637146,191.93644456932088 89.68331846548244,191.0724877184839 91.23684210516512,190.24780031529372 93.69357716315426,188.75550555015798 95.17484388919547,187.9308145287796 95.28322925954126,187.06685112501145 93.65744870644994,187.22393548538093 91.92328278324567,187.53810406592675 90.18911685980856,188.00935658626258 88.8162355038803,188.4020666986762 86.86529884021729,188.99113131975173 84.76984834950417,189.85509157538763 83.64986619073898,189.93363334669266 80.94023193558678,191.11175851509324 78.70026761805639,191.62227860523853 75.30419268505648,192.3684224646131 71.79973238171078,193.42873034608783 70.35459411237389,193.82143642872688 68.43978590541519,194.449765553436 66.48884924175218,194.88174139303737 64.68242640490644,194.84247087681433 63.670829616254196,194.72465931045008 62.0811775198672,194.88174139303737 60.16636931314133,195.31371687937644 58.721231043571606,195.51006925632828 57.67350579821505,195.90277379131294 56.1199821587652,196.33474844237207 54.349687778623775,196.96307457712828 52.543264942010865,197.70921089113108 49.942016056971624,198.53388664350496 47.95495093660429,199.55491198139498 46.76271186443046,200.18323428518488 44.88403211394325,201.04717623244505 42.138269402319565,202.38235646215617 40.51248884922825,203.9531524114136 38.995093666249886,204.8956277385878 37.91123996418901,205.32759503484704 37.188670829636976,206.42714655864984 35.81578947370872,207.13399990089238 33.46743978583254,208.74405120502342 32.16681534354575,210.27555886673508 31.408117751823738,212.3568313922733 28.662355040200055,214.2810194507183 27.867528992006555,214.90932423758204 25.880463871639222,217.02984737581573 24.760481712874025,217.9722993716423 23.3153434433043,219.85719831922324 21.7256913469173,222.64526568129077 20.099910793825984,225.1977088158019 18.727029437897727,226.96477760796552 18.004460303345695,228.9674484274583 17.209634255152196,230.57743318975554 16.161909009795636,232.38375171713415 15.54772524535656,234.58273985024425 15.078055307734758,236.11417260800954 14.78902765410021,237.99900683193118 14.825156110571697,239.53042968807858 14.680642283754423,240.86551265916205 14.608385370345786,243.1429993538477 14.75289919716306,245.45974298898363 15.439339875010774,248.16914215133875 16.34255129355006,251.03559280899935 17.534790365723893,253.2345033226884 19.19669937551953,254.84441414722824 21.183764495886862,256.4543200672779 22.086975914426148,257.0040429166984 24.65209634252824,257.1218405958498 25.555307760834694,257.2003723673406 27.578501338139176,256.14019246795215 28.662355040200055,255.39413867128314 29.457181088160723,254.5695516707201 31.986173059791327,252.0957829488907 32.88938447809778,251.54605499375612 34.55129348789342,250.5251301311655 35.418376449495554,249.30787098649307 37.08028545929119,248.01207591261482 38.20026761828922,246.6377443317615 40.18733273865655,245.26340917655034 42.06601248891093,243.61420227197232 42.96922390721738,242.71106297636288 43.90856378246099,241.729388078209 42.2105263157282,242.23985925287707 40.98215878661722,243.26080012283637 40.115075825247914,243.84980357345194 38.12801070464775,245.06707529115374 37.00802854588255,246.51994431568892 35.74353256006725,247.65867670456646 35.27386262267828,248.24767525336938 34.40677966107614,249.19007156562293 33.2506690453738,250.40733098160126 32.275200713658705,251.15339181848685 30.974576271139085,252.5277116553625 29.926851025782526,253.62716495161294 29.05976806418039,254.25542295110063 27.397859054384753,255.39413867128314 26.530776092782617,256.10092650490697 25.880463871639222,256.14019246795215 24.9049955396913,256.3757881849597 23.243086529895663,257.6322969017492 21.653434433508664,258.88880263105966 20.280553077580407,259.9489770165237 18.65477252448909,261.04841487362864 16.414808206958696,262.5797709346807 17.39027653867379,262.30491248125327 19.847011596895754,260.4986962310504" stroke="#4dd2ff" stroke-linecap="round" stroke-linejoin="round" stroke-width="0.5"><title>2024-04-12 15.1km</title><desc>9223370323917503807</desc></polyline><polyline fill="none" points="114.27211796236224,260.09011801192537 116.15415549604222,259.9721097656293 116.58847184991464,259.69675708850264 118.32573726540431,258.55600875764503 119.37533512082882,257.57260305131786 121.04021447733976,255.84180457147886 122.27077747997828,254.85839382337872 122.9222520107869,254.6223749720084 124.11662198393606,253.79630816355348 124.80428954423405,252.93090345783276 125.23860589810647,252.49820057454053 125.67292225221172,252.14417067961767 126.32439678302035,251.79014054790605 126.90348525485024,251.3181000042241 128.24262734595686,249.70529163681203 128.71313672931865,249.2332492339483 129.61796246655285,248.83988024335122 130.19705093838274,248.13181532357703 130.9209115281701,247.14839025275433 132.15147453080863,246.59767141504562 133.49061662214808,245.26020899534342 134.7211796247866,244.43412757723127 136.63941018772312,243.64738217109698 138.3766756032128,242.46726186931483 139.4262734586373,241.48382627466344 140.62064343178645,241.09045152520412 141.7064343164675,240.34303869583528 143.7332439678721,239.43827438508742 144.34852546919137,238.96622282639146 144.92761394102126,238.65152155343094 147.13538874010555,237.27470128407003 148.18498659529723,236.21258034359198 149.27077747997828,235.11111933930079 150.13941018795595,234.20634608523687 151.11662198393606,233.2622332147148 152.2024128686171,231.61003163881833 152.56434316351078,230.508561056311 153.2520107240416,230.1545164535928 154.0482573728077,228.73833567462862 155.0978552279994,226.69273452620837 155.67694369982928,225.31588314753026 156.3284182306379,223.46696280423203 156.76273458451033,222.83754163913545 157.7037533512339,221.30332441304927 158.0294906166382,220.59522265463602 159.15147453104146,218.70694666699274 159.51340482593514,217.84148458761047 159.62198391440324,216.85800323373405 160.0924932975322,216.07121683476726 160.49061662191525,215.52046565929777 160.85254691704176,214.89103504281957 161.1420911529567,214.10424571926706 161.64879356580786,212.68802198892809 162.95174262742512,210.7603780432255 163.7841823056806,209.81622334453277 164.58042895467952,208.5966876987368 165.77479892759584,206.94440911422134 166.4262734586373,206.0395877029805 167.5482573728077,204.54466198160662 168.77882037544623,203.1284126652754 169.14075067010708,202.69566906252294 169.6112600537017,202.3022654801316 170.04557640757412,201.86952120173373 171.56568364612758,200.3352431806561 171.92761394102126,199.9418378432456 172.86863270774484,198.95832321993657 173.30294906161726,198.52557620653533 174.49731903499924,197.54205895058112 176.5965147453826,196.20447254829924 178.04423592495732,195.10292826616205 179.9986595173832,193.88335870718583 181.44638069695793,193.135879200825 182.2064343164675,192.66378633698332 183.6903485255316,191.64091701986035 185.24664879357442,190.81475189703633 185.5,190.3819982224959 185.0294906166382,190.02792677099933 183.50938337808475,190.30331569819828 182.82171581778675,190.3819982224959 181.59115281514823,190.57870448206086 179.781501340447,190.972116781777 178.15281501342542,191.404869973514 176.95844504027627,191.9163051074429 175.98123324406333,192.34905752693885 174.28016085806303,192.89983282148023 173.15817694365978,193.25390235093073 171.71045576408505,193.84401770695695 170.95040214480832,193.96204069905798 168.56166219851002,194.47347336096573 167.8016085792333,194.55215526506072 165.59383378038183,195.26029187548556 163.0603217156604,195.96842753811507 161.54021447733976,196.36183583000093 160.99731903499924,196.47985826060176 160.1286863272544,196.7945846132352 159.11528150131926,196.99128848852706 158.46380697051063,197.1879922907974 157.124664879404,197.54205895058112 155.74932975880802,198.0141474615666 153.469168900745,197.54205895058112 152.05764075065963,197.8174439664872 151.44235924934037,197.8174439664872 149.41554959793575,198.2108508835372 148.07640750682913,198.76162007590756 146.08579088491388,199.35172928860993 144.8914209115319,199.70579450033256 143.76943699736148,200.0598594751791 142.53887399472296,200.53194573969813 141.67024128697813,200.964691112109 141.16353887412697,201.1613934370689 139.71581769455224,201.67281913990155 139.10053619300015,201.86952120173373 137.72520107240416,202.61698836949654 136.85656836465932,202.97105139613268 134.86595174274407,203.9545585604792 133.563002680894,204.4659815635241 132.44101876672357,205.09542458085343 131.3914209115319,205.84288719156757 130.77613941021264,206.23628814148833 129.97989276144654,207.4558292273723 128.4959785521496,207.92790889315074 127.91689008055255,208.3606482167961 127.55495978565887,209.34414536345867 126.54155495995656,209.69820388869266 125.02144772117026,210.83905752535793 123.53753351210617,211.78321039912407 122.34316353895701,213.31745522588608 121.58310991968028,215.08773219090654 120.4249329760205,216.14989552728366 118.54289544257335,217.4087530170509 117.63806970510632,217.92016301694093 116.4075067024678,219.41505095199682 115.35790884727612,220.39852755362517 114.99597855238244,220.75257868287736 113.69302949076518,222.36547527406947 112.96916890097782,224.17506072024116 112.02815013402142,225.59125370980473 111.0147453083191,226.37802595546236 110.50804289570078,227.2828125919914 109.92895442363806,228.65965885369224 109.4222520107869,229.32841145980638 108.58981233253144,230.46922277877457 108.19168900814839,231.964075267897 107.17828418244608,233.93098000533064 106.41823056316935,235.2291331278975 105.91152815008536,236.8419856026594 105.36863270774484,238.37615778608597 105.07908847206272,239.16291102705873 105.26005361950956,240.06767580850283 104.78954423591495,241.24780146000558 104.57238605921157,242.15256267780205 104.89812332438305,243.25400902947877 104.75335120642558,245.6535806460597 104.75335120642558,247.03037912145373 104.86193029489368,249.3905967483297 105.00670241285115,250.33468085253844 105.65817694389261,252.1835073462571 106.41823056316935,254.30768300654017 107.54021447733976,256.31384108171915 109.16890080436133,258.08397424660507 111.12332439702004,259.5000765172008 112.20911528146826,260.16879016163875 114.45308311004192,260.09011801192537 115.03217158187181,260.2474622995651 116.84182305634022,259.4607403941336 118.36193029512651,258.43800016943715 119.33914209110662,257.4939305158914 120.5335120644886,255.99915012164274 121.61930294916965,255.13374901699717 122.66890080436133,254.22900998589466 123.75469168904237,253.83564470746205 124.5509383380413,253.12758646981092 125.60053619300015,251.75080385204637 126.17962466506287,251.47544689883944 127.69973190361634,249.90197584714042 128.3150134049356,249.2332492339483 129.29222520114854,248.76120641006855 129.83512064348906,248.3678370687412 130.7037533512339,247.06971616813098 132.0790884718299,246.40098597697215 133.05630026804283,245.22087181411916 134.46782841836102,244.59147651813691 135.84316353895701,243.8440686322283 137.5804289544467,242.86063559557078 138.7024128686171,241.8772007317457 139.60723860608414,241.4051513481827 140.65683646127582,240.97243904334027 141.9235924934037,240.14635093376273 143.15415549604222,239.83165036237915 143.84182305657305,239.20224865840282 145.0,238.21880699758185 146.19436997338198,237.6287411240337 147.5335120644886,236.76330998615595 148.25737265427597,236.0552289118932 149.5965147453826,234.59972595097497 150.06702412874438,234.08833206852432 150.8270777480211,233.22289514180738 151.33378016087227,232.6328236987174 152.38337801629677,230.70525239990093 152.7091152817011,230.11517814989202 153.28820375329815,229.91848658700474 154.2654155495111,227.99090540254838 154.8445040215738,227.00744290987495 155.24262734595686,226.61405740113696 155.93029490625486,224.41109314828645 156.25603217165917,223.6243179786834 156.87131367297843,222.48349190485897 157.63136729225516,221.06729059887584 157.95710455765948,220.47720560291782 158.7171581769362,218.9823206681467 159.29624664899893,217.60544922936242 159.94772117957473,215.9138594144897 160.74396782857366,214.53697999197175 161.28686327091418,213.27811567048775 161.57640750682913,212.4913239487505 162.1916890081484,211.4684929616924 162.80697050946765,210.32764068213874 164.18230563029647,208.39998813770944 164.54423592495732,207.80988901626552 165.0147453083191,207.18044922786066 165.95576407504268,206.0395877029805 167.15013404842466,204.54466198160662 168.01876675593667,203.40379477362148 169.90080428961664,201.98754240365815 170.9865951742977,200.76798871401115 171.96380697051063,199.66645393299405 173.48391420929693,198.5649168587115 174.56970509397797,197.6600811178214 175.14879356557503,197.22733304245048 177.32037533516996,195.65370069394703 178.8766756032128,194.51281431457028 180.07104557636194,193.72599468840053 182.0978552279994,192.4670808526571 182.74932975880802,192.07366966461996 183.61796246655285,191.52289350982755 185.21045576408505,190.57870448206086 185.24664879357442,189.87056160534848 184.55898123327643,189.87056160534848 183.54557640757412,190.10660933627514 182.96648793574423,190.1852918898221 180.90348525485024,190.6180457251321 179.6729222519789,190.85409312255797 177.3927613941487,191.6015758528083 175.58310991968028,192.34905752693885 173.55630026804283,192.8211506716907 172.65147453080863,193.25390235093073 170.15415549604222,193.96204069905798 167.72922252002172,194.55215526506072 165.34048257372342,195.14226917290944 162.91554959793575,195.85040499348543 160.81635388731956,196.44051745324396 159.5495978554245,196.7945846132352 159.22386058978736,196.87326617215876 158.46380697051063,197.14865153626306 157.812332439702,197.30601453705458 156.1112600537017,197.8174439664872 155.35120643442497,197.58139967583702 153.14343163534068,197.3453552798892 151.44235924934037,197.7387625479605 149.30697050946765,198.25019155908376 148.4383378017228,198.48623555136146 146.9544235926587,198.8403013422503 145.79624664899893,199.27304809825728 144.13136729225516,199.78447562639485 143.44369973195717,199.98117839021143 141.67024128697813,200.84666968201054 139.53485254687257,201.55479786772048 138.0509383380413,202.38094621998607 135.80697050946765,203.24643358640606 134.35924932989292,203.99389880907256 133.09249329776503,204.5840021862532 131.0294906166382,205.84288719156757 130.05227882042527,207.10176920169033 129.50938337808475,207.4558292273723 128.3150134049356,207.61318916277378 127.80831099208444,208.08526868818444 127.4101876677014,208.91140684412676 126.14343163534068,209.5408445734065 125.45576407527551,210.32764068213874 123.71849865978584,211.42915326883667 122.66890080436133,212.57000317366328 121.65549597865902,214.69433782159467 120.75067024142481,215.9138594144897 120.24396782834083,216.42527085903566 119.15817694389261,216.85800323373405 118.32573726540431,217.4087530170509 117.42091152840294,218.1955374275567 115.79222520114854,219.80844181205612 114.59785522799939,220.83125667943386 113.07774798944592,223.11291349094245 112.24530831119046,224.76514159311773 111.77479892782867,225.43389912034036 110.21849865978584,227.36148961770232 109.13270777487196,229.131719604542 108.73458445048891,229.6824566150608 107.7211796247866,232.160766070534 106.63538873987272,233.89164198213257 105.94772117980756,235.85853955644416 105.26005361950956,237.86476755229523 104.97050938359462,238.92688517755596 104.86193029489368,240.61840144000598 104.6085790884681,242.42792448055116 104.71715817716904,243.52937025931897 104.6447721181903,244.86683705227915 104.53619302948937,246.95170501930988 104.71715817716904,248.44651096040616 105.04289544257335,250.37401765369577 105.187667560298,250.96406932003447 105.2962466487661,251.5934570392128 105.76675603236072,252.7342203729786 106.85254691680893,255.01573966586147 108.08310991968028,256.7465408463904 109.60321715846658,258.24131913037854 110.39946380699985,258.79202585539315 111.05093833780847,259.4607403941336 111.593833780149,259.8147653962369 113.43967828410678,259.8147653962369 114.99597855238244,260.01144585065776 116.04557640757412,259.7754292966565 117.45710455765948,258.8706981978612 117.60187667561695,258.5166725644667" stroke="#4dd2ff" stroke-linecap="round" stroke-linejoin="round" stroke-width="0.5"><title>2024-04-08 13.3km</title><desc>9223370324272004907</desc></polyline></svg>