<?xml version="1.0" encoding="utf-8" ?>
<svg baseProfile="full" height="300mm" version="1.1" viewBox="0,0,200,300" width="200mm" xmlns="http://www.w3.org/2000/svg" xmlns:ev="http://www.w3.org/2001/xml-events" xmlns:xlink="http://www.w3.org/1999/xlink"><defs /><rect fill="#222222" height="300" width="200" x="0" y="0" /><text fill="#FFFFFF" style="font-size:12px; font-family:Arial; font-weight:bold;" x="10" y="20">Over 10km Runs</text><text fill="#FFFFFF" style="font-size:4px; font-family:Arial" x="10" y="280">ATHLETE</text><text fill="#FFFFFF" style="font-size:9px; font-family:Arial" x="10" y="290">lihsiaofei</text><text fill="#FFFFFF" style="font-size:4px; font-family:Arial" x="120" y="280">STATISTICS</text><text fill="#FFFFFF" style="font-size:3px; font-family:Arial" x="120" y="285">Number: 5</text><text fill="#FFFFFF" style="font-size:3px; font-family:Arial" x="120" y="290">Weekly: 1.2</text><text fill="#FFFFFF" style="font-size:3px; font-family:Arial" x="141" y="285">Total: 67.2 km</text><text fill="#FFFFFF" style="font-size:3px; font-family:Arial" x="141" y="290">Avg: 13.4 km</text><text fill="#FFFFFF" style="font-size:3px; font-family:Arial" x="167" y="285">Min: 12.2 km</text><text fill="#FFFFFF" style="font-size:3px; font-family:Arial" x="167" y="290">Max: 15.1 km</text><polyline fill="none" points="22.621983914054,101.0688278224261 23.554959785426036,101.24365481507266 24.71313672931865,100.71917364222463 25.09919571049977,100.5093810094113 26.064343163510785,99.88000254987855 26.611260053585283,99.49538196570938 27.222520107170567,98.69117427399033 28.509383377968334,97.53730866368278 28.95978552266024,97.08275476758718 29.98927613941487,96.27854295278667 31.533512064255774,95.54426139986026 32.65951742627658,94.18059261882445 33.81769436981995,93.30644388587098 34.58981233241502,92.29242932106717 35.201072386000305,91.66303987149149 35.90884718496818,91.27841257111868 36.58445040206425,90.78888646149426 36.8418230562238,90.15949500084389 37.26005361939315,89.73990022594808 38.38605898106471,89.21540623129113 38.93297587125562,88.62097899714718 39.70509383373428,87.81675272042048 40.99195710453205,87.0474915173254 42.21447721181903,86.55796100595035 43.01876675605308,86.24326255120104 44.20911528146826,85.15929959568894 45.302949061617255,84.4250006909715 46.300268096500076,83.93546745114145 47.201072386000305,83.44593370193616 48.809651474584825,82.74659889106988 49.646112600457855,82.01229622084065 50.83646112610586,81.45282675058115 51.833780160872266,80.75348897717777 52.541554959723726,79.98421622582828 53.95710455754306,78.58553527350887 54.56836461124476,78.02606172830565 55.53351206437219,76.94207984121749 56.69168900803197,75.12378203507978 57.367292225244455,74.45940223755315 57.656836461042985,73.82998893223703 58.33243967825547,72.53619227130548 58.65415549604222,71.83684124340652 59.39410187653266,70.19336223544087 60.166219839127734,68.54987748584244 60.3592493297765,68.0952955839748 60.906166219851,67.29103421999025 61.26005361927673,66.45180350448936 61.64611260057427,65.71747540027718 62.73994638072327,63.93410237468197 62.83646112610586,63.339643197046826 62.93297587137204,62.675246756494744 63.06166219827719,62.32556404254865 63.479892761446536,61.66116616962245 64.05898123327643,60.78695701240213 64.28418230556417,60.40230446853093 64.63806970510632,59.388218981417594 65.15281501342542,58.19928838478518 66.37533512059599,56.48582429724047 67.24396782845724,55.22694874511217 67.43699731910601,54.842291654320434 68.30563002673443,53.8281941798632 69.01340482593514,52.91900148172863 69.78552278818097,51.8699308000505 71.00804289546795,50.436197084171 71.2654155496275,50.086505270941416 71.8445040214574,49.596936295652995 72.3592493297765,49.03742827125825 73.06702412862796,48.3380423047638 74.03217158187181,47.42883899345179 74.80428954411764,46.69448118971195 75.89812332438305,45.75030518558924 76.2520107239252,45.47054896844202 77.7319034851389,44.456431286467705 78.56836461124476,43.792008171149064 78.9544235925423,43.47728110468597 80.53083109925501,42.393219596880954 82.01072386058513,41.553944455314195 82.7506702413084,41.134306322812336 84.23056300275493,40.19011915565352 85.96782841824461,39.14102007981273 85.77479892759584,38.79131986777065 85.03485254698899,38.72137979415129 84.58445040229708,38.826289900694974 83.36193029489368,39.10605007028789 81.75335120642558,39.38581007349421 81.0455764074577,39.63059993981733 79.9517426273087,39.91035963091417 79.30831099196803,40.15514922409784 77.281501340447,40.574788230413105 75.7050938338507,41.134306322812336 73.61394101870246,42.00855200961814 71.52278820378706,42.53309864155017 69.36729222512804,43.0576446884661 67.5013404826168,43.58219015024952 65.44235924922395,44.17667429969879 64.2198391421698,44.456431286467705 63.80160857900046,44.66624891728861 62.6112600537017,44.980975188082084 62.16085790877696,45.22576214198489 61.74262734595686,45.435579429613426 61.19571045588236,45.435579429613426 59.908847185084596,45.75030518558924 59.16890080436133,45.85521372410585 57.27077747986186,45.50551850476768 56.62734584452119,45.610427097883075 56.14477211795747,45.64539662367315 55.404825737234205,45.75030518558924 54.3431635388406,45.96012223922298 53.217158176819794,46.3797560656094 52.026809651521035,46.659511741803726 51.51206434308551,46.86932838984649 50.80428954423405,46.97423667871044 49.774798927479424,47.25399200129323 49.292225201032124,47.603685920650605 48.680965147330426,47.813502147386316 47.49061662191525,48.233134320093086 46.300268096500076,48.757674009451875 44.72386058967095,49.352151616913034 44.27345844497904,49.492028591776034 43.85522788204253,49.80675163315027 42.79356568364892,50.296320390101755 41.34584450395778,50.99570344455424 39.38337801606394,51.939868918358115 38.32171581767034,52.534342503524385 37.517426273436286,53.16378430410987 36.55227882030886,54.24782098620199 35.42627345852088,54.56254084527609 34.686327077797614,55.01713582550292 34.300268096500076,55.8563869423233 33.592493297648616,56.066199487569975 32.62734584440477,56.870480043959105 31.887399463681504,57.534884683642304 31.018766756053083,57.95450818302925 30.15013404819183,58.89865968792583 29.860589812276885,59.458155981759774 29.378016085829586,60.61211498605553 28.573726541362703,61.696134502097266 27.383378016063944,62.5703419696365 26.19302949064877,63.30467498677899 25.613941018818878,63.654356972896494 24.841823056223802,64.63346515133162 23.87667560321279,65.47269911077456 23.233243967872113,66.20702759712003 22.107238605851308,67.46587376386742 21.238605897990055,69.28420116874622 20.273458444979042,70.54303910100134 19.276139410212636,71.59206813803758 18.600536192883737,73.16560730760102 17.50670241273474,74.56430437322706 17.02412868628744,75.75319360941648 16.316353887319565,77.64142328008893 15.576407506596297,78.55056819645688 15.126005361787975,80.33388581417967 14.64343163522426,81.48779361200286 14.35388739942573,82.43189788699965 14.450402144691907,83.69070064020343 14.225201072287746,84.14526747341733 14.0,85.05439982228563 14.096514745266177,86.83769278906402 14.06434316339437,88.86574324336834 14.06434316339437,90.15949500084389 14.193029490532354,91.10358187620295 14.4825737264473,92.60712373018032 14.868632707744837,94.00576300217654 15.351206434192136,95.22956895496463 15.83378016075585,96.24357719058753 16.573726541362703,97.53730866368278 17.281501340446994,98.48138073715381 18.15013404819183,99.32055432355264 18.69705093826633,99.77510605807765 20.24128686322365,100.96393159564468 22.396782841766253,101.13875862720306 23.68364611256402,101.27862020584871 25.131367292138748,100.57931189742521 26.12868632702157,99.94993353134487 27.061662198393606,99.0757955154404 28.38069705083035,97.78206827200484 29.828418230521493,96.41840597582632 30.246648793458007,96.10371411553933 31.372654155478813,95.75405624619452 32.20911528146826,94.70508107924252 33.17426273447927,93.7260354802711 34.364611259894446,92.7469878444681 34.78284182306379,92.04766685736831 36.03753351198975,91.27841257111868 36.80965147446841,90.54412321571726 37.35656836454291,89.73990022594808 38.836461125989445,88.93567586163408 39.02949061663821,88.51607999554835 40.28418230568059,87.53702151932521 41.378016085829586,86.9775586182368 41.89276139403228,86.83769278906402 43.75871313677635,85.7886977448361 44.62734584440477,84.84460020545521 46.010723860468715,84.25016744949971 46.75067024119198,83.76063402771251 47.619302949053235,83.37600026768632 48.45576407504268,83.16619990230538 49.83914209110662,82.04726304070209 50.25737265415955,81.76752840945846 51.28686327079777,81.2779924046481 52.541554959723726,80.40381970064482 53.34584450395778,79.4597113559721 54.79356568364892,77.88619323805324 55.66219839139376,76.94207984121749 56.530831099138595,75.2286840226152 57.109919570968486,74.38946746735019 57.68900804291479,73.89992378550232 58.42895442363806,72.64109483585344 58.87935656832997,71.76690608341596 59.29758713126648,70.82278040624806 60.166219839127734,68.96949115928146 61.002680965233594,67.53580956329824 61.292225201032124,66.66161132371053 61.77479892759584,65.64753933052998 62.38605898129754,64.59849703713553 62.90080428950023,63.12983389614965 63.02949061663821,62.675246756494744 63.99463806976564,60.85689380482654 64.2520107239252,60.472241318115266 64.54155495984014,59.598029951244825 65.3458445040742,58.02444539649878 66.3109919570852,56.625699150637956 67.21179624658544,55.33185516981757 68.33780160860624,53.8281941798632 69.6890080429148,52.114714168419596 70.84718498657458,50.6809811987041 72.3592493297765,49.24724385840818 73.4209115280537,48.12822631196468 74.03217158187181,47.638655298243975 75.28686327079777,46.48466446361272 75.6729222520953,46.20490868345951 76.0911528149154,45.89018323170603 77.02412868628744,45.1907925849664 78.4075067024678,44.17667429969879 80.08042895444669,42.88279607114964 81.1099195710849,42.183400951937074 82.81501340481918,41.16927618155023 84.61662198381964,40.08520935339038 85.87131367309485,39.350840082159266 86.0,39.03611004349659 85.03485254698899,38.79131986777065 84.3592493297765,38.966170006315224 82.49329758714885,39.280900091835065 81.23860589810647,39.49072003181209 79.79088471853174,39.770479806145886 78.9222520107869,40.22508908450254 77.02412868628744,40.994426862191176 75.76943699736148,41.34412543583312 75.1260053620208,41.62388410771382 74.48257372656371,41.76376338113914 72.80965147446841,42.183400951937074 70.7506702413084,42.74291713052662 68.75603217154276,43.23249324070639 67.53351206437219,43.547220470994944 66.3431635388406,43.89691714651417 64.63806970510632,44.421461672201985 63.51206434320193,44.841096871561604 63.126005362020805,44.911036035075085 61.80697050935123,45.365640344214626 61.26005361927673,45.47054896844202 60.906166219851,45.50551850476768 59.42627345840447,45.82024421382812 58.6863270776812,45.71533566751168 57.23860589810647,45.64539662367315 56.56300268089399,45.64539662367315 55.179624664830044,45.85521372410585 54.43967828422319,46.030061236262554 53.47453083109576,46.309817120520165 52.83109919575509,46.449695000308566 51.44772117957473,46.90429782209685 50.03217158163898,47.3589002044755 49.356568364659324,47.56871654043789 48.48793565679807,47.813502147386316 47.58713136729784,48.19816498667933 45.72117962455377,48.96748972145724 44.56300268089399,49.42209010946681 42.697050938149914,50.36625874234596 40.83109919575509,51.205518158036284 39.02949061663821,52.114714168419596 37.74262734584045,52.95397046417929 37.42091152817011,53.338629099336686 36.52010723866988,54.24782098620199 36.06970509374514,54.56254084527609 35.13672922248952,54.63247856317321 34.58981233241502,55.5066991589556 33.91420911520254,56.10116823599674 33.46380697039422,56.10116823599674 32.53083109902218,57.01035478289123 31.05093833769206,57.98947679111734 29.828418230521493,59.598029951244825 29.02412868628744,61.24154597692541 28.73458445025608,61.90594444249291 28.348525469191372,62.220659177575726 27.865951742511243,62.32556404254865 26.804289544234052,62.81511976936599 25.22788203752134,64.2837838929845 23.68364611256402,65.78741145963431 22.589812332415022,66.8364511016116 21.56032171577681,68.65478093927959 20.59517426264938,70.26329762928071 19.501340482383966,71.27735967256012 18.92225201067049,72.71102986580809 17.764075066894293,74.35450007842155 17.056300268042833,75.82312817676575 16.573726541362703,76.90711264204583 15.930294906022027,78.02606172830565 15.479892761213705,79.35481031180825 15.415549597819336,79.8093813341693 14.546916890074499,81.83746208288358 14.4825737264473,82.8514991789998 14.450402144691907,83.55083383395686 14.096514745266177,84.45996733140782 14.28954423579853,85.64883156225551 14.193029490532354,87.53702151932521 14.06434316339437,88.760844296281 14.160857908893377,89.21540623129113 14.160857908893377,89.94969766013674 14.225201072287746,90.8937849564536 14.4825737264473,92.43229352880735 15.061662198393606,94.39038807316683 15.962466487893835,96.38344022398815 16.44504021445755,97.25758324115304 17.31367292208597,98.44641513854731 18.954423592309467,99.88000254987855 20.24128686322365,100.85903534543468 22.042895442340523,101.0338624160504 22.461126005277038,101.0688278224261 23.68364611256402,101.20868942173547 25.3887399462983,100.33455374394543 26.804289544234052,99.4604164424527 27.126005361787975,99.28558878737385 27.28686327068135,98.44641513854731 27.576407506596297,98.20165587580414 28.026809651288204,97.85199956528959 29.120643431553617,96.90792622914887 29.892761394032277,96.27854295278667 30.407506702351384,95.96385099904728 31.758713136659935,95.19460311485454 31.855227882042527,95.19460311485454" stroke="#4dd2ff" stroke-linecap="round" stroke-linejoin="round" stroke-width="0.5"><title>2024-05-13 13.6km</title><desc>9223370321247039907</desc></polyline><polyline fill="none" points="165.74190630950034,90.19519747747108 164.1273518167436,77.02449625590816 164.93462906219065,49.80495357513428 160.89824282936752,43.65858778869733 151.61455449275672,37.0731887454167 143.5417820252478,37.95124237705022 137.48720267415047,42.78053500875831 133.45081644318998,62.536690837237984 133.0471778176725,89.31715164612979 138.29447992146015,98.09760404797271 155.24730210378766,100.29271510150284 161.30188145302236,96.78053702320904 165.3382676858455,74.82937651732937 166.14554493129253,50.683005306404084 162.10915870033205,41.02442905632779 147.9818068817258,36.63416187977418 137.48720267415047,41.46345559461042 133.45081644318998,52.87813405925408 133.0471778176725,63.85376553237438 133.85445506498218,84.04887391114607 135.06537093408406,94.58542466163635 140.31267303973436,99.85369295580313 157.26549521833658,100.29271510150284 164.1273518167436,91.07324317563325 165.74190630950034,67.80498784594238 166.54918355681002,50.683005306404084 162.51279732212424,40.58540248591453 156.45821797288954,37.0731887454167 141.52358890883625,38.82929587783292 136.27628680504858,43.65858778869733 133.45081644318998,64.73181516490877 132.64353919401765,71.75620750617236 132.64353919401765,87.1220364975743 134.66173231042922,93.26835685037076 146.36725238896906,102.48782533220947 159.68732696026564,98.97564856847748 163.32007456943393,93.26835685037076 166.54918355681002,76.14644845807925 166.95282217860222,55.07326199300587 165.3382676858455,46.29274534154683 159.28368833474815,37.95124237705022 149.59636137634516,35.75610805116594 137.48720267415047,41.46345559461042 133.45081644318998,47.60982367536053 134.25809368863702,63.85376553237438 133.45081644318998,89.75617457740009 143.5417820252478,100.73173721227795 156.86185659468174,100.73173721227795 164.1273518167436,93.26835685037076 165.74190630950034,76.58547237329185 166.95282217860222,49.80495357513428 159.68732696026564,38.390269143506885 150.0,35.75610805116594 139.10175716876984,41.02442905632779 134.25809368863702,49.80495357513428 134.66173231042922,75.70742451073602 136.27628680504858,95.02444719942287 143.5417820252478,100.73173721227795 157.26549521833658,100.29271510150284 164.53099044039845,93.26835685037076 166.54918355681002,74.39035247126594 167.7600994259119,62.097665874287486 164.53099044039845,43.219561415724456 157.66913384199142,37.0731887454167 147.9818068817258,35.75610805116594 137.48720267415047,43.219561415724456 134.25809368863702,59.0244902074337 133.85445506498218,86.68301336886361 136.67992542870343,95.90249217813835 144.34905927069485,101.17075929045677 158.4764110893011,100.29271510150284 163.72371319122612,96.34151461720467 167.35646080225706,79.65863886056468 167.35646080225706,73.5123042804189 167.7600994259119,51.561056905891746 162.51279732212424,40.1463758838363 150.4036386217922,36.195134981535375 138.698118545115,41.46345559461042 134.25809368863702,51.12203112244606 133.45081644318998,76.58547237329185 133.85445506498218,91.95128874387592 141.1199502851814,100.29271510150284 151.21091586723924,102.48782533220947 160.09096558205783,98.97564856847748 166.54918355681002,86.68301336886361 166.95282217860222,59.0244902074337 164.53099044039845,43.65858778869733 154.44002485647798,36.63416187977418 143.13814340345562,37.512215577065945 134.25809368863702,48.4878757330589 133.45081644318998,75.26840053033084 133.0471778176725,88.8781286822632 135.06537093408406,95.02444719942287 149.59636137634516,102.04880335181952 159.28368833474815,99.41467077797279 166.14554493129253,83.17082716338336 167.35646080225706,57.707414431963116 162.91643594577909,42.78053500875831 149.59636137634516,36.195134981535375 140.71631166152656,39.26832257863134 134.25809368863702,51.12203112244606 134.25809368863702,77.4635201045312 134.66173231042922,93.26835685037076 140.31267303973436,100.29271510150284 152.42183173820376,102.48782533220947 162.91643594577909,97.21955939847976 166.95282217860222,80.09766251267865 167.7600994259119,52.87813405925408 163.72371319122612,41.90248209843412 153.6327476091683,36.63416187977418 141.92722753062844,38.82929587783292 135.06537093408406,46.29274534154683 133.85445506498218,66.92693867301568 133.45081644318998,91.51226597698405 138.29447992146015,98.97564856847748 147.17452963627875,102.04880335181952 161.70552007481456,98.97564856847748 167.35646080225706,88.43910568440333 167.35646080225706,63.41474066628143 167.35646080225706,48.92690171394497 155.24730210378766,36.63416187977418 143.94542064890265,37.95124237705022 138.698118545115,41.90248209843412 134.66173231042922,63.41474066628143 135.06537093408406,88.0000826548785 139.10175716876984,98.97564856847748 150.4036386217922,102.48782533220947 161.70552007481456,99.41467077797279 167.35646080225706,88.43910568440333 168.16373804956675,60.78059078520164 168.16373804956675,55.07326199300587 166.95282217860222,45.85371916508302 162.10915870033205,41.02442905632779 148.38544550724328,36.195134981535375 136.67992542870343,43.65858778869733 133.45081644318998,61.65864087641239 133.45081644318998,87.1220364975743 138.29447992146015,98.53662632405758 146.7708910126239,102.48782533220947 159.28368833474815,101.60978133790195 167.35646080225706,89.31715164612979 167.7600994259119,60.341565689537674 168.97101529687643,50.24397945776582 159.28368833474815,37.95124237705022 146.7708910126239,36.195134981535375 136.27628680504858,44.5366404382512 135.06537093408406,66.04888936830685 134.66173231042922,91.95128874387592 137.48720267415047,98.09760404797271 146.36725238896906,103.36586919706315 156.45821797288954,102.92684728093445 164.1273518167436,97.21955939847976 168.16373804956675,80.97570971958339 168.5673766732216,50.683005306404084 163.72371319122612,40.1463758838363 153.22910898551345,36.195134981535375 141.52358890883625,39.707349247299135 135.06537093408406,52.00008265627548 135.4690095577389,76.58547237329185 135.4690095577389,91.51226597698405 143.13814340345562,101.17075929045677 155.24730210378766,103.80489107826725 163.72371319122612,99.41467077797279 168.5673766732216,88.0000826548785 168.16373804956675,62.097665874287486 165.3382676858455,42.34150856966153 155.24730210378766,35.75610805116594 140.71631166152656,39.26832257863134 133.85445506498218,56.82936374982819 134.66173231042922,80.53668613173068 137.48720267415047,95.90249217813835 146.36725238896906,103.36586919706315 156.45821797288954,104.2439129287377 166.54918355681002,96.34151461720467 168.97101529687643,76.14644845807925 168.5673766732216,49.80495357513428 163.72371319122612,40.1463758838363 152.42183173820376,36.195134981535375 138.29447992146015,42.78053500875831 135.06537093408406,65.17083993274719 135.8726481832564,91.51226597698405 142.73450477980077,101.60978133790195 155.65094072557986,104.6829347461462 166.54918355681002,96.78053702320904 170.18193116784096,84.48789723636582 169.37465392053127,65.60986466659233 167.7600994259119,44.97566671296954 158.4764110893011,35.75610805116594 148.78908412717283,36.195134981535375 136.27628680504858,46.29274534154683 135.06537093408406,52.87813405925408 134.25809368863702,73.95132839307189 134.66173231042922,92.39031147863716 143.13814340345562,102.04880335181952 152.01819311641157,103.80489107826725 164.1273518167436,98.09760404797271 168.5673766732216,89.31715164612979 168.97101529687643,65.17083993274719 166.54918355681002,45.414692955091596 159.68732696026564,37.95124237705022 151.21091586723924,35.31708108680323 136.67992542870343,42.34150856966153 133.45081644318998,59.0244902074337 132.23990057222545,84.48789723636582 133.45081644318998,94.58542466163635 137.48720267415047,100.29271510150284 146.36725238896906,104.6829347461462 158.4764110893011,102.92684728093445 166.14554493129253,92.82933418033645 166.95282217860222,66.04888936830685 167.7600994259119,49.80495357513428 161.30188145302236,38.82929587783292 152.42183173820376,34.87805409077555 137.89084129966795,40.58540248591453 131.8362619485706,59.90254056174308 131.8362619485706,84.92692052898929 134.66173231042922,96.78053702320904 147.17452963627875,105.12195652956143 159.28368833474815,102.48782533220947 167.35646080225706,88.43910568440333 167.7600994259119,71.75620750617236 167.35646080225706,53.317159711848944 164.53099044039845,42.78053500875831 157.26549521833658,37.0731887454167 150.0,35.31708108680323 134.66173231042922,43.219561415724456 131.02898470312357,55.5122874812223 131.43262332491577,68.68303688941523 131.8362619485706,91.51226597698405 137.89084129966795,101.60978133790195 152.42183173820376,105.56097828177735 161.70552007481456,100.29271510150284 167.35646080225706,88.8781286822632 167.7600994259119,63.41474066628143 166.95282217860222,46.731771484948695 161.30188145302236,38.390269143506885 155.65094072557986,34.87805409077555 145.15633651800454,34.43902706215158 133.45081644318998,46.29274534154683 131.8362619485706,62.975715768523514 131.8362619485706,88.43910568440333 140.71631166152656,102.04880335181952 153.6327476091683,105.12195652956143 164.53099044039845,96.78053702320904 167.7600994259119,77.4635201045312 168.5673766732216,56.39033835986629 164.53099044039845,41.02442905632779 158.88004971295595,36.63416187977418 148.38544550724328,35.75610805116594 139.10175716876984,38.82929587783292 131.8362619485706,51.12203112244606 132.64353919401765,78.78059145621955 136.67992542870343,98.97564856847748 150.80727724544704,105.12195652956143 162.91643594577909,100.29271510150284 167.7600994259119,81.41473327437416 168.16373804956675,63.85376553237438 167.35646080225706,47.17079759621993 160.89824282936752,37.95124237705022 152.01819311641157,34.0 137.48720267415047,41.02442905632779 131.43262332491577,53.317159711848944 129.81806883215904,77.02449625590816 131.02898470312357,94.14640208985656 139.90903441421688,103.36586919706315 158.07277246564627,104.6829347461462 166.14554493129253,98.09760404797271 168.5673766732216,88.0000826548785 168.5673766732216,74.39035247126594 168.5673766732216,53.317159711848944 164.53099044039845,40.58540248591453 152.42183173820376,34.87805409077555 140.31267303973436,38.82929587783292 133.45081644318998,62.097665874287486 132.64353919401765,84.48789723636582 134.66173231042922,97.65858174022287 141.92722753062844,103.80489107826725 157.26549521833658,104.2439129287377 164.93462906219065,98.53662632405758 167.7600994259119,80.09766251267865 167.7600994259119,59.90254056174308 167.7600994259119,50.683005306404084 157.66913384199142,37.95124237705022 147.5781682599336,35.31708108680323 133.45081644318998,46.731771484948695 132.23990057222545,63.41474066628143 132.23990057222545,76.14644845807925 131.8362619485706,92.82933418033645 139.10175716876984,102.48782533220947 152.01819311641157,106.0 161.70552007481456,102.04880335181952 166.54918355681002,92.82933418033645 168.16373804956675,66.48791403742507 168.5673766732216,60.341565689537674 163.72371319122612,42.34150856966153 147.9818068817258,36.63416187977418 138.29447992146015,41.46345559461042 133.85445506498218,47.17079759621993 134.25809368863702,56.39033835986629 132.64353919401765,79.65863886056468 132.64353919401765,90.63422034261748 136.27628680504858,99.85369295580313 143.5417820252478,104.6829347461462 156.86185659468174,104.6829347461462 164.93462906219065,97.65858174022287 167.7600994259119,76.58547237329185 168.16373804956675,59.46351540181786 166.95282217860222,48.04884972050786 153.6327476091683,37.95124237705022 143.13814340345562,39.26832257863134 136.27628680504858,46.29274534154683 133.0471778176725,55.07326199300587 132.23990057222545,79.65863886056468 132.64353919401765,89.75617457740009 135.4690095577389,98.97564856847748 144.34905927069485,104.6829347461462 157.26549521833658,104.6829347461462 165.74190630950034,95.02444719942287 168.16373804956675,68.68303688941523 168.5673766732216,52.439108374062926 163.32007456943393,43.65858778869733 151.61455449275672,37.95124237705022 142.33086615614593,39.707349247299135 133.45081644318998,50.683005306404084 132.64353919401765,53.317159711848944" stroke="#4dd2ff" stroke-linecap="round" stroke-linejoin="round" stroke-width="0.5"><title>2024-05-10 12.2km</title><desc>9223370321510435007</desc></polyline><polyline fill="none" points="22.758497316623107,181.14910089070327 23.49910554557573,181.14910089070327 24.948121645720676,180.76413736797986 26.364937388221733,179.85422233611462 27.36314847948961,178.8743118745333 28.876565295038745,177.47443625004962 30.325581395300105,176.21454463066766 31.516994633246213,175.72458586856374 32.48300536675379,174.46468956841272 34.189624329213984,173.1697926368215 35.38103756692726,171.83989478519652 36.991055456222966,170.68498044629814 37.73166368517559,169.63505586233805 39.245080500957556,168.7601169210975 40.37209302326664,167.535199672624 42.368515205569565,166.6602568302187 44.23613595706411,165.47033195599215 45.97495527728461,164.28040407499066 46.77996422175784,163.82543085544603 48.615384615259245,163.16046920532244 50.19320214667823,161.90053929318674 51.96422182477545,160.85059512482258 52.57602862245403,160.25562572359922 54.1216457959963,158.75069976504892 55.441860465100035,157.31576588356984 56.472271914128214,155.81083052951726 57.24508050084114,154.55088095279643 57.72808586759493,154.3758876893844 58.62969588546548,152.59095268783858 59.40250447229482,150.73601306576165 60.239713774528354,148.91606520238565 61.27012522367295,147.1661086998356 62.23613595706411,145.27614837157307 63.16994633281138,143.45617940381635 63.62075134168845,141.9162001667719 64.74776386399753,139.9912190368923 65.52057245082688,138.4862283077382 65.97137745970394,137.4012320068141 66.74418604653329,136.4212331986928 67.83899821108207,134.81123072793707 69.19141323794611,132.99122130466276 70.64042933797464,131.2412056081521 72.15384615387302,129.59618492148002 73.76386404281948,128.1261615716794 75.30948121636175,126.5161307308299 77.08050089445896,125.18610110000009 78.75491949915886,124.03107231901959 80.55813953478355,122.70103566651233 82.45796064415481,121.51099968646304 84.2611806797795,120.32096069765976 85.83899821108207,119.41092885259422 86.0,119.09591741929762 85.71019677992444,118.85090838104952 84.8407871198142,118.88590968007338 82.87656529515516,119.2709237971576 80.91234347037971,119.62093635761994 78.88372093020007,120.25095831046929 76.79069767438341,120.77597596042324 74.76207513408735,121.33599414143828 72.86225402506534,122.14101910946192 70.83363148476928,122.73603667912539 68.90161001787055,123.26105155717232 66.8729874775745,123.89106863786583 64.77996422175784,124.4160822275735 62.8157423970988,124.9060943830118 60.88372093020007,125.46610765036894 59.46690518781543,125.71111324528465 57.69588550971821,125.53610926194233 56.21466905192938,125.57111006378545 54.1216457959963,126.02612025139388 52.60822898033075,126.41112852815422 50.611806797795,127.07614208263112 48.71198568865657,127.77615533553762 47.06976744183339,128.40616637319908 45.20214669033885,129.17617871850962 43.334525939193554,130.12119214815903 41.27370304102078,131.13620445950073 39.40608228975907,131.97621299306047 37.66726296953857,132.99122130466276 36.572450804989785,134.21622842139914 35.252236136002466,134.56622986929142 34.83363148465287,134.77623061314807 34.60822898033075,135.47623241593828 34.3506261180155,135.82623292706558 33.867620751378126,136.00123308500042 33.320214669103734,136.07123312997282 32.6440071555553,136.87623289908515 31.162790697650053,137.89123064596788 30.035778175340965,139.32622372655896 29.649373881984502,140.306216487661 28.844364937511273,141.28620720884646 27.105545617174357,142.47619319942896 25.527728085871786,143.80617398244794 24.851520572439767,144.68115929071791 23.27370304102078,146.04613312482252 21.92128801427316,147.72609548823675 21.341681574238464,149.2310566821543 20.37567084073089,150.31602572157863 19.34525939170271,151.40099226107122 18.475849731708877,153.29092800462968 17.381037567043677,154.62087823988986 16.865831842529587,156.4758025581832 15.932021466782317,157.73574698437005 15.416815742384642,159.55566075976822 14.51520572451409,161.69055064677377 14.611806797794998,162.9154830975167 14.225402504438534,163.61544306736323 14.0,164.4203957465361 14.257602862198837,166.48526806669543 14.128801431157626,168.62012653966667 14.28980321995914,170.5449906370195 14.740608228836209,172.78482259236625 14.998211091151461,173.06480083768838 15.352415026747622,174.8496582399821 16.02862254017964,176.24954166566022 16.898032200406305,177.8244055462128 18.475849731708877,179.39926416100934 20.15026833617594,180.7991340647859 21.47048300539609,180.93912082636962 22.243291592109017,181.00911419157637 23.85330948117189,181.07910754627665 25.720930232433602,180.06420288412482 27.073345259414054,179.15428650009562 28.071556350565515,177.89439937425777 29.58497316634748,176.3895297793497 31.001788908732124,175.82957707479363 31.742397137684748,175.40961210947717 32.86940966011025,173.93973178204033 34.06082289805636,173.20478989806725 34.73703041148838,172.15487093152478 36.31484794267453,170.99995736495475 37.1842576029012,169.74004842608701 38.72987477632705,168.90010726090986 39.37388193199877,168.06016459778766 40.951699463417754,166.97523644077592 42.754919499042444,166.27528146459372 44.493738819262944,165.0153598859324 46.425760286161676,163.82543085544603 48.325581395300105,163.02047715929803 49.48479427548591,162.250520162459 50.06440071540419,161.72554876108188 51.83542039350141,160.6406060102163 52.479427549173124,160.0106381046353 54.18604651163332,158.40071629468002 55.57066189625766,156.82578745918 56.63327370304614,155.11085895862198 57.24508050084114,154.23589303181507 58.08228980319109,153.25592926357058 58.6940966011025,151.99597285035998 59.338103756541386,150.45602154466906 60.14311270136386,148.53107532986905 61.17352415015921,146.67611971352017 62.171735241427086,144.89115552281146 62.912343470496126,143.00118606258184 63.74955277284607,141.28620720884646 64.522361359559,140.02621876407648 65.23076923075132,138.31122907350073 66.00357781758066,136.87623289908515 67.22719141305424,135.30123206280405 68.38640429335646,133.58622515946627 69.7066189624602,131.97621299306047 71.05903398932423,130.36619532020995 72.18604651163332,129.2461797784199 73.69946332741529,127.70615405711578 74.95527728076559,126.5161307308299 76.62969588546548,125.18610110000009 78.56171735236421,123.89106863786583 80.46153846150264,122.52603056401131 82.23255813948344,121.40599636727711 84.10017889086157,120.42596425890224 85.9355992844794,119.30592506492394 85.90339892660268,118.88590968007338 84.61538461537566,118.85090838104952 82.5867620750796,119.20092125379597 80.62254025042057,119.55093386632507 78.4973166368436,120.11095350494725 76.50089445442427,120.91598056809744 74.50447227188852,121.65100407553837 72.57245080498978,122.07101699302439 70.64042933797464,122.63103363328264 68.48300536675379,123.22605058352929 66.51878354197834,123.71606397780124 64.26475849736016,124.31107955647167 62.01073345250916,125.11609943633084 60.91592128796037,125.29110357590253 59.46690518781543,125.6411116597883 58.17889087658841,125.29110357590253 56.27906976744998,125.36110521346563 54.636851520626806,125.60611086306744 52.57602862245403,126.23612480502925 51.35241502686404,126.72613506577909 49.22719141317066,127.2511454935302 47.1985688728746,128.19616278764443 45.23434704821557,128.93117492710007 43.27012522355653,129.91118932780228 41.3059033988975,130.89120168818044 39.47048300539609,131.76621100018383 37.69946332729887,132.85122028834303 36.443649373948574,134.21622842139914 35.4454382826807,134.49622960053966 34.769230769132264,134.6712302529195 34.51162790693343,135.40623228249024 33.99642218241934,135.8962329980568 33.22361359570641,136.03623310872354 32.354203935479745,137.01623271839344 31.066189624136314,137.78623098047683 29.74597495526541,139.53622234717477 29.423971377313137,140.4812149803911 28.554561717435718,141.4612053373421 27.008944543777034,142.406194106763 26.075134168146178,143.24618253170047 24.722719141398557,144.64615990966558 23.080500894458964,146.11613167630276 21.856887298752554,147.76109464044566 21.180679785320535,149.37105282771518 19.8604651162168,150.6660152009863 19.087656529503874,152.13596817385405 18.250447227153927,153.53591911974945 17.155635062605143,155.18085616256576 16.64042933820747,157.03577827487607 15.803220035857521,158.01573417687905 15.416815742384642,159.4506659254257 14.998211091151461,160.99058781578788 14.450805008877069,162.04053167210077 14.483005366637371,163.33545920421602 14.128801431157626,164.59538527729455 14.225402504438534,166.52026582462713 14.096601073397323,168.5851289378188 14.161001789034344,170.85996764936135 14.386404293356463,171.52491842812742 14.772808586712927,173.48476789385313 15.416815742384642,175.444609204249 16.350626118131913,177.22945758799324 17.445438282680698,178.45434962399304 18.765652951668017,179.71423525214777 20.279069767449982,181.00911419157637 21.792486583115533,181.04411087019253" stroke="#4dd2ff" stroke-linecap="round" stroke-linejoin="round" stroke-width="0.5"><title>2024-04-26 13.1km</title><desc>9223370322705658065</desc></polyline><polyline fill="none" points="124.98305084754247,178.02920172261656 126.04281891183928,177.26133397241938 127.96966993773822,175.65578825681587 128.54772524535656,174.9228199100762 130.5709188224282,173.35216960153775 131.63068688684143,172.86352176775108 132.91525423747953,171.36267167140613 133.55753791274037,170.8391181839106 135.74130240862723,168.7099946566159 136.44781445141416,168.57037966192001 137.50758251571096,167.06951584783383 138.85637823387515,166.33653410259285 139.53077609289903,165.46393529544002 140.59054415707942,164.7309510446794 142.83853702060878,163.7187328177679 144.70115967886522,162.11314081100863 146.75646743981633,161.1358212500054 148.10526315798052,160.75187372326036 149.48617305990774,159.87926454047556 150.35325602139346,159.11136711845757 151.63782337203156,158.30856392584974 152.5049063337501,157.68028220918495 152.8902765387902,157.22652266881778 153.91793041932397,156.2491929390526 155.0098126673838,155.06243267576792 156.42283675295766,153.42190619715257 157.45049063349143,151.92099397341372 158.1891168600414,150.7342227725312 158.5102586975554,149.93140525944182 159.92328278336208,147.03426977765048 160.82247992872726,144.9748493496445 161.75379125785548,143.4390045069158 162.71721677074675,141.5540971524606 162.94201605720446,140.82107558232383 163.19892952719238,139.9135234814894 164.6440677966457,137.53991738593322 165.15789473685436,136.1436729011184 165.67172167706303,135.23611175952828 166.76360392512288,133.7351414061559 167.9839429082349,131.95491453408613 169.10793933994137,130.59356001843116 170.07136485283263,129.26710823204485 171.06690454948694,128.01046624052105 172.4157002675347,126.71891402202891 173.57181088312063,125.46226520990604 174.3746654773131,124.69431150206947 175.33809099020436,123.89144946451415 176.71900089201517,122.66970025090268 179.03122212307062,121.16868972138036 180.34790365735535,120.26109963122872 181.24710080295336,119.6327670023311 183.01338090992067,118.55063661446911 183.75200713647064,118.13174676243216 185.3898305085022,117.08452049692278 185.7752007135423,116.24673780234298 183.62355040141847,116.5958141067822 181.95361284562387,117.01470532940584 180.34790365735535,117.29396593690035 178.13202497770544,117.99211672871024 177.07225691352505,118.34119173520594 175.62711864407174,118.72517394259921 174.34255129343364,119.52804481572821 172.4799286351772,119.84221130533842 171.35593220347073,120.12147023074795 169.87867975025438,120.4356363232655 167.11685994639993,121.27341154203168 164.54772524535656,121.97155641557765 162.97413024085108,122.63479308379465 161.65744870656636,122.84423604753101 159.92328278336208,123.36784304797766 157.70740410347935,123.22821457160171 155.97323818027508,123.29802881504293 153.82158786791842,123.71691405720776 151.0597680642968,124.51977639325196 150.19268510257825,124.76412552740658 148.26583407679573,125.56698607266298 146.82069580745883,126.0556831236463 145.50401427294128,126.47456590537331 143.3202497770544,127.55667802807875 142.06779661029577,128.2199068060727 140.4942016057903,128.95294804946752 138.50312221248168,129.9652412183641 137.5396966993576,130.83790599138592 136.96164139162283,131.5011301341001 135.45227475475986,132.09454041504068 134.00713648542296,133.45589057845064 133.2042818913469,133.8398604237882 132.6904549509054,134.29364256333793 131.82337198930327,134.99176807550248 130.15343443362508,136.6323589431122 129.4148082070751,138.06350799728534 128.09812667255756,139.63427632831736 126.87778768967837,140.26258218940347 125.52899197151419,141.44937985535944 124.40499553980771,142.53145746592782 123.31311329186428,143.71824939738144 121.93220339005347,145.3239042951609 120.7439785907045,147.59275511663873 119.45941124018282,148.70972380193416 118.91347011609469,150.31536163261626 117.628902765573,151.99080395064084 116.92239072266966,153.59643056307686 116.44067796634044,154.9228136240563 115.22033898311201,157.7500913302647 114.6743978591403,159.07646266039228 114.54594112408813,160.96129968587775 114.25691347033717,164.06777383209555 114.0,167.03461198121659 114.35325602150988,168.57037966192001 114.64228367549367,170.03633503662422 115.44513826945331,172.58429420590983 116.50490633375011,174.6086902685347 118.04638715437613,176.42365863153827 119.29884032125119,177.40094638391747 120.358608385548,178.23861998211942 122.15700267616194,178.55274719634326 124.14808206970338,178.44803814819898 126.84567350591533,176.91230276189162 127.68064228375442,175.96991719820653 129.19000892073382,174.43417371017858 130.4745762712555,173.59649332778645 131.50223015167285,173.07294233012362 132.59411239961628,171.64189995935885 133.6538804640295,170.94382892810972 135.96610169496853,168.64018716441933 136.89741302409675,167.90720787030295 138.0856378233293,166.68557317150407 138.85637823387515,166.33653410259285 139.62711864418816,165.39412732093479 142.26048171287403,164.03286974233924 143.25602140952833,163.40459568315418 144.12310437113047,162.91593750054017 145.50401427294128,161.83390685822815 147.39875111507718,160.82168238778831 149.19714540592395,159.98397772802855 149.7752007136587,159.46041155682178 151.2845673506381,158.55289547753637 152.02319357718807,158.16894583922112 153.85370205179788,156.28409760730574 155.90900981263258,153.9105742581305 157.00089206069242,152.0955188969965 158.31757359497715,150.48988715285668 159.08831400540657,148.88424991903594 159.66636931314133,147.52294448556495 160.34076717216522,145.67295898124576 161.43264942010865,143.8229661885416 162.26761819806416,142.11258900916437 162.84567350591533,140.9956046313455 163.19892952719238,139.7389940302528 164.0338983051479,138.41256808053004 164.54772524535656,137.43519919359824 164.9009812666336,136.17857906385325 166.6993755575968,133.63042236526962 167.37377341650426,132.75776278265403 168.65834076714236,130.94262565515237 170.10347903659567,129.12748151016422 170.87421944690868,128.1151865349675 171.77341659227386,127.20760987390531 173.02586975914892,126.12549694659538 174.92060660128482,124.20561303399154 176.52631578943692,123.0187717792287 178.29259589652065,121.69229859075858 179.73773416585755,120.61017295051715 180.82961641380098,119.84221130533842 182.2105263157282,119.10915583584574 184.39429081173148,117.78267160014366 185.71097234613262,117.04961291450309 185.80731489742175,116.28164544448373 184.36217662808485,116.42127598702791 182.82069580745883,116.70053694749367 181.27921498659998,117.11942807669402 180.05887600360438,117.46850373217603 178.3247100804001,117.99211672871024 176.46208742191084,118.7600814003672 175.46654772525653,118.82989630819065 173.05798394279554,119.87711868010228 171.06690454948694,120.33091431579669 168.04817127564456,120.99415330190095 164.93309545051306,121.93664919654839 163.64852809987497,122.28572126998915 161.94647636055015,122.84423604753101 160.21231043711305,123.22821457160171 158.60660124884453,123.19330744608305 157.70740410347935,123.0885860537528 156.29438001778908,123.22821457160171 154.59232827834785,123.61219278170029 153.30776092782617,123.7867282278894 152.37644959858153,124.1357989256503 150.9955396966543,124.51977639325196 149.42194469226524,125.07828851303202 147.81623550411314,125.74152079215855 145.50401427294128,126.47456590537331 143.73773416597396,127.38214398350101 142.67796610167716,127.94065269795828 141.00802854588255,128.70860109553905 138.56735057989135,129.89542796640308 137.12221231055446,131.29169103238382 135.77341659239028,132.12944687876734 134.809991079499,132.51341780877556 134.16770740412176,133.49079694104148 132.94736842112616,134.11911102302838 130.859946476412,135.55026773782447 129.7038358609425,136.9116078815714 129.0294380018022,138.76162790425587 126.58876003581099,140.47201728954678 125.88224799302407,141.03051043342566 124.11596788594034,142.915419889614 123.12042818928603,143.75315499701537 121.83586083864793,145.42862072822754 120.42283675295766,147.90690282784635 118.97769848362077,150.17574116960168 117.75735950050876,151.74646898487117 117.11507582524791,153.52662082444294 116.40856378246099,154.95771839091321 115.47725245321635,156.5633348597039 114.93131132924464,158.51799097802723 114.5138269404415,159.87926454047556 114.25691347033717,161.55467273949762 114.2890276539838,162.91593750054017 114.16057091893163,164.10267791926162 114.09634255140554,166.12711053679232 114.22479928645771,168.18643821246224 114.83496877795551,170.59479302345426 115.63782337214798,173.14274916358409 116.69759143632837,175.09733628685353 118.17484388954472,176.52836813087924 119.94112399651203,177.95939561535488 120.7439785907045,178.44803814819898 123.0240856379969,178.55274719634326 123.82694023207296,178.62255321542034 125.62533452291973,177.6801710826403 126.58876003581099,177.01701215229696 127.29527207859792,176.28404592955485 129.54326494212728,174.08514039905276 130.34611953620333,173.59649332778645 131.82337198930327,172.68900456104893 132.59411239961628,171.60699643247062 134.07136485283263,170.45517858900712 135.06690454960335,169.23355051715043 136.83318465668708,168.01191926805768 138.50312221248168,166.5459575751156 139.30597680655774,165.74316709014238 140.14094558439683,164.87056718065287 138.63157894730102,165.32431933589396 137.5396966993576,166.23182233143598 136.768956289161,166.75538095418597 135.00267618207727,167.8374002588389 134.00713648542296,169.12883939172025 132.88314005360007,170.14104595963727 132.46565566479694,170.6646002252237 131.6949152542511,171.50228583611897 130.66726137383375,172.58429420590983 129.80017841223162,173.247459394217 128.6440677966457,174.46907702702447 127.71275646751747,175.44636884587817 126.94201605720446,176.0048204009945 125.4647636039881,177.01701215229696 124.6940231936751,177.64526800438762 124.11596788594034,177.6801710826403 123.24888492422178,177.88958949776134 121.77163247112185,179.00648613492376 120.358608385548,180.12338011650718 119.13826940231957,181.06575734802755 117.69313113298267,182.04303544326103 115.70205173967406,183.40424083085964 116.56913470115978,183.1599222055811 118.75289919727948,181.5543966498517" stroke="#4dd2ff" stroke-linecap="round" stroke-linejoin="round" stroke-width="0.5"><title>2024-04-12 15.1km</title><desc>9223370323917503807</desc></polyline><polyline fill="none" points="22.6863270776812,261.19121601060033 24.359249329776503,261.08631979164784 24.74530831107404,260.8415618564468 26.28954423603136,259.8275633401063 27.222520107286982,258.9534249344724 28.702412868617103,257.41493739685393 29.796246648882516,256.54079450963764 30.375335120712407,256.3309999751218 31.436997319106013,255.59671836759662 32.048257372691296,254.82746974029578 32.434316353988834,254.4428449551342 32.82037533528637,254.12815171520924 33.39946380699985,253.81345826480538 33.914209115318954,253.39386667040526 35.104557640850544,251.96025923272828 35.52278820367064,251.54066598572535 36.32707774802111,251.19100466073724 36.84182305634022,250.56161362095736 37.48525469179731,249.68745800244506 38.57908847194631,249.19793014667812 39.76943699736148,248.00907466252102 40.86327077751048,247.27478006863385 42.568364611361176,246.57545081872377 44.11260053620208,245.52645499492064 45.04557640757412,244.65229002191336 46.10723860596772,244.3026235779398 47.07238605909515,243.63825661852024 48.873994638212025,242.83402167560416 49.420911528286524,242.4144202901225 49.935656836489215,242.13468582526548 51.898123324499466,240.9108455858368 52.83109919575509,239.9667380831961 53.7962466487661,238.9876616349211 54.568364611361176,238.18341874243924 55.4369973189896,237.3442073019687 56.402144772117026,235.87558367894962 56.723860589787364,234.89649871669826 57.33512064348906,234.58179240318714 58.04289544245694,233.3229650440917 58.97587131371256,231.50465291217552 59.490616622031666,230.28078502000426 60.06970509397797,228.63730027043493 60.455764075159095,228.07781479033292 61.292225201032124,226.71406614492298 61.58176943694707,226.08464235966676 62.57908847194631,224.40617481511435 62.900804289616644,223.63687518899678 62.99731903499924,222.76266954108723 63.415549597819336,222.06330385312322 63.769436997245066,221.5737472526962 64.09115281514823,221.01425337139517 64.34852546919137,220.3148850837897 64.7989276139997,219.0560195457074 65.95710455765948,217.34255826062872 66.69705093838274,216.50330963957822 67.40482573735062,215.41927795441006 68.46648793562781,213.95058587929816 69.04557640757412,213.1463001804077 70.04289544245694,211.81747731697396 71.13672922260594,210.55858903579065 71.45844504015986,210.173928055563 71.8766756033292,209.8242359823489 72.26273458451033,209.43957440153463 73.61394101881888,208.0757717161323 73.9356568363728,207.72607808286557 74.77211796236224,206.85184286214644 75.15817694365978,206.467178850231 76.2198391421698,205.59294128938927 78.08579088468105,204.40397559848498 79.37265415547881,203.42482512549032 81.10991957096849,202.34076329527306 82.39678284176625,201.67633706738707 83.07238605909515,201.25669896617183 84.3914209115319,200.34748179544113 85.77479892759584,199.61311279734946 86.0,199.22844286443433 85.58176943694707,198.91371268531657 84.23056300263852,199.1585028428235 83.61930294916965,199.22844286443433 82.52546916902065,199.40329287291388 80.91689008043613,199.75299269490642 79.4691689008614,200.13766219865647 78.40750670235138,200.59227120660944 77.53887399460655,200.97694002394564 76.02680965163745,201.46651806353475 75.02949061663821,201.78124653417035 73.74262734584045,202.3057935172692 73.06702412874438,202.4107028435974 70.94369973195717,202.86530965418206 70.26809651474468,202.93524912447901 68.30563002685085,203.56470388930757 66.05361930292565,204.19415781166754 64.7024128686171,204.5438540710893 64.2198391421698,204.6487628982868 63.44772117969114,204.9285196561832 62.5469168900745,205.10336754532182 61.96782841824461,205.278215369588 60.77747989282943,205.59294128938927 59.55495978554245,206.01257552136667 57.528150134021416,205.59294128938927 56.27345844509546,205.83772797021084 55.72654155502096,205.83772797021084 53.924932975904085,206.18742300756276 52.734584450372495,206.67699562301277 50.96514745312743,207.20153714541811 49.90348525473382,207.51626177807339 48.90616621973459,207.83098620013334 47.812332439702004,208.25061843529693 47.04021447733976,208.6352809885284 46.58981233241502,208.81012749962974 45.302949061850086,209.26472812434076 44.756032171542756,209.43957440153463 43.53351206437219,210.10398966175853 42.761394102009945,210.41871235211147 40.99195710464846,211.29294094265788 39.833780160872266,211.74753916755435 38.836461125989445,212.30704407187295 37.90348525461741,212.97145528139663 37.35656836454291,213.32114501463366 36.64879356569145,214.40518153543235 35.329758713021874,214.82480790500995 34.81501340481918,215.20946508157067 34.493297587148845,216.0836847675091 33.592493297648616,216.39840345660923 32.241286863340065,217.41249557808624 30.922252010786906,218.25174257697654 29.8605898123933,219.61551575633348 29.184986595297232,221.18909528077347 28.155495978542604,222.13324046868365 26.48257372668013,223.2522249040485 25.678284182329662,223.70681157062063 24.584450402180664,225.03560084622586 23.651474530925043,225.90980226988904 23.32975871313829,226.2245143847831 22.171581769478507,227.65820024360437 21.52815013413783,229.26672064021113 20.69168900803197,230.5255588531436 19.790884718648158,231.22491196039482 19.340482573839836,232.0291667484271 18.82573726552073,233.2530300921644 18.37533512059599,233.84747685314505 17.635388739872724,234.86153135891072 17.281501340446994,236.19028912702925 16.380697050946765,237.9386488936143 15.705093833850697,239.09256278033718 15.25469168892596,240.52620942456997 14.77211796247866,241.88991803207318 14.514745308435522,242.58925424626796 14.675603217328899,243.3934896075516 14.257372654159553,244.4424901866587 14.0643431636272,245.24672238025232 14.353887399542145,246.22578580398113 14.225201072404161,248.35873835204984 14.225201072404161,249.58255921906675 14.321715817786753,251.68053044294356 14.450402144808322,252.51971631337074 15.029490616754629,254.16311764111742 15.705093833850697,256.05127378358156 16.702412868733518,257.8345254059823 18.15013404842466,259.4079771080869 19.887399463914335,260.6667346819304 20.85254691692535,261.2611468103423 22.84718498669099,261.19121601060033 23.361930295010097,261.33107759960694 24.970509383361787,260.6317692392331 26.321715817786753,259.7226668172516 27.19034852553159,258.8834937918873 28.252010723925196,257.55480010810425 29.21715817693621,256.7855546817591 30.150134048308246,255.98134220967768 31.115281501435675,255.63168418439454 31.82305630040355,255.0022990842699 32.75603217165917,253.77849231293658 33.27077747997828,253.53373057674617 34.621983914170414,252.1350896419026 35.16890080424491,251.54066598572535 36.037533512106165,251.12107236450538 36.52010723866988,250.77141072775703 37.29222520114854,249.6175254827831 38.51474530831911,249.02309864619747 39.38337801606394,247.97410827921703 40.63806970510632,247.41464579387684 41.860589812276885,246.7502832286409 43.404825737234205,245.8761205293995 44.402144772117026,245.0019562059897 45.206434316467494,244.5823567539337 46.13941018783953,244.1977235940867 47.265415549627505,243.4634230522206 48.35924932989292,243.18368921100046 48.9705093834782,242.6242210296623 49.999999999883585,241.75005066450103 51.06166219851002,241.22554766578833 52.252010723925196,240.4562755432271 52.89544235938229,239.8268701438792 54.08579088479746,238.53308973420644 54.50402144785039,238.07851739422767 55.17962466494646,237.309240126051 55.630026809638366,236.78473217663122 56.5630026810104,235.0713354665786 56.852546917041764,234.54682502211654 57.367292225244455,234.37198807732784 58.23592493298929,232.6585825800139 58.7506702413084,231.78439369765692 59.10455764073413,231.43471768990275 59.71581769443583,229.4765272428922 60.00536193023436,228.7771715365816 60.55227882030886,227.76310391540756 61.22788203752134,226.50425831010216 61.5174262735527,225.97973831370473 62.19302949064877,224.650951705029 62.707774798967876,223.42706598163932 63.28686327079777,221.9234305906284 63.99463806976564,220.69953777064802 64.47721179621294,219.58054726262344 64.73458445048891,218.8811768433079 65.28150134056341,217.97199374370393 65.82841823063791,216.9579028285516 67.05093833792489,215.24443390019587 67.37265415547881,214.7199013477657 67.79088471853174,214.16039931363775 68.62734584440477,213.1463001804077 69.68900804303121,211.81747731697396 70.46112600527704,210.80337313210475 72.13404825737234,209.5444821365527 73.09919571049977,208.4604344124673 73.96782841824461,207.48129238488036 75.31903485266957,206.50214831883204 76.28418230568059,205.69784988250467 76.79892761388328,205.31318492660648 78.72922252013814,203.91440061683534 80.11260053620208,202.90027939071297 81.17426273459569,202.2008841674542 82.97587131371256,201.08184964681277 83.55495978554245,200.73215081298258 84.32707774802111,200.24257200871943 85.74262734584045,199.40329287291388 85.77479892759584,198.77383253807784 85.16353887401056,198.77383253807784 84.26273458451033,198.98365274333628 83.74798927619122,199.05359279093682 81.91420911531895,199.43826286678086 80.82037533505354,199.64808277558768 78.79356568364892,200.31251186915324 77.18498659518082,200.97694002394564 75.38337801606394,201.39657837484265 74.5790884719463,201.78124653417035 72.3592493297765,202.4107028435974 70.2037533512339,202.93524912447901 68.08042895433027,203.45979482034454 65.92493297590408,204.0892488830723 64.05898123327643,204.6137932917627 62.93297587137204,204.9285196561832 62.64343163545709,204.99845881969668 61.96782841824461,205.24324581000837 61.3887399462983,205.38312403293094 59.876675603329204,205.83772797021084 59.20107238611672,205.62791082295007 57.23860589810647,205.4180935821205 55.72654155502096,205.76778893149458 53.82841823063791,206.22239249697304 53.05630026815925,206.4322093789815 51.73726541560609,206.74693452642532 50.70777479908429,207.13159830955556 49.227882037637755,207.58620055677602 48.61662198393606,207.761047457956 47.04021447733976,208.53037305065664 45.14209115272388,209.15982032683678 43.82305630040355,209.89417441777186 41.82841823063791,210.66349652124336 40.54155495984014,211.327910052496 39.41554959793575,211.85244638778386 37.581769437063485,212.97145528139663 36.71313672920223,214.0904615126201 36.230563002754934,214.40518153543235 35.16890080424491,214.545057033567 34.718498659553006,214.96468327837647 34.364611260127276,215.69902830588399 33.23860589810647,216.25852850967203 32.6273458446376,216.9579028285516 31.083109919680282,217.93702512784512 30.150134048308246,218.95111393212574 29.249329758808017,220.8394113969407 28.445040214573964,221.9234305906284 27.994638069649227,222.37801854134887 27.029490616638213,222.76266954108723 26.28954423603136,223.2522249040485 25.48525469179731,223.95158882447868 24.037533512106165,225.38528161071008 22.97587131371256,226.29445038171252 21.62466487940401,228.32258976972662 20.88471849868074,229.7912369716505 20.46648793586064,230.38568810696597 19.083109919680282,232.09910188239883 18.117962466552854,233.67263964848826 17.764075067127123,234.16218365781242 16.863270777626894,236.3651253959979 15.89812332438305,237.90368176187621 15.286863270797767,239.65203516127076 14.675603217328899,241.43534893536707 14.41823056305293,242.37945349115762 14.321715817786753,243.88302350221784 14.096514745382592,245.49148842715658 14.193029490648769,246.47055134162656 14.1286863272544,247.6594107131241 14.032171581755392,249.51262668380514 14.193029490648769,250.84134307591012 14.48257372668013,252.55468235883745 14.611260053585283,253.07917272890336 14.707774798967876,253.63862847926794 15.126005362020805,254.65264033153653 16.09115281503182,256.68065748075605 17.184986595180817,258.219147419004 18.5361930297222,259.547839226987 19.24396782857366,260.03735631587915 19.823056300287135,260.6317692392331 20.30563002685085,260.94645812996896 21.94638069695793,260.94645812996896 23.32975871313829,261.1212852005847 24.262734584510326,260.91149270811 25.5174262735527,260.1072872869845 25.64611260057427,259.7925978350686" stroke="#4dd2ff" stroke-linecap="round" stroke-linejoin="round" stroke-width="0.5"><title>2024-04-08 13.3km</title><desc>9223370324272004907</desc></polyline></svg>