<?xml version="1.0" encoding="utf-8" ?>
<svg baseProfile="full" height="300mm" version="1.1" viewBox="0,0,200,300" width="200mm" xmlns="http://www.w3.org/2000/svg" xmlns:ev="http://www.w3.org/2001/xml-events" xmlns:xlink="http://www.w3.org/1999/xlink"><defs /><rect fill="#222222" height="300" width="200" x="0" y="0" /><text fill="#FFFFFF" style="font-size:12px; font-family:Arial; font-weight:bold;" x="10" y="20">Over 10km Runs</text><text fill="#FFFFFF" style="font-size:4px; font-family:Arial" x="10" y="280">ATHLETE</text><text fill="#FFFFFF" style="font-size:9px; font-family:Arial" x="10" y="290">lihsiaofei</text><text fill="#FFFFFF" style="font-size:4px; font-family:Arial" x="120" y="280">STATISTICS</text><text fill="#FFFFFF" style="font-size:3px; font-family:Arial" x="120" y="285">Number: 3</text><text fill="#FFFFFF" style="font-size:3px; font-family:Arial" x="120" y="290">Weekly: 1.5</text><text fill="#FFFFFF" style="font-size:3px; font-family:Arial" x="141" y="285">Total: 41.4 km</text><text fill="#FFFFFF" style="font-size:3px; font-family:Arial" x="141" y="290">Avg: 13.8 km</text><text fill="#FFFFFF" style="font-size:3px; font-family:Arial" x="167" y="285">Min: 13.1 km</text><text fill="#FFFFFF" style="font-size:3px; font-family:Arial" x="167" y="290">Max: 15.1 km</text><polyline fill="none" points="24.35330948117189,110.04273850205936 25.18649373878725,110.04273850205936 26.81663685152307,109.6096545389737 28.410554561764002,108.58600012815441 29.5335420393385,107.48360085888999 31.236135957064107,105.90874078130582 32.86627906979993,104.49136270952295 34.20661896234378,103.94015910217422 35.29338103765622,102.52277576446068 37.21332737035118,101.06601671644603 38.55366726289503,99.56988163336064 40.36493738810532,98.27060300207813 41.198121645953506,97.08943784516305 42.90071556344628,96.10513153625652 44.16860465123318,94.72709963170928 46.414579606382176,93.74278893400333 48.51565295178443,92.404123450513 50.47182468697429,91.06545458440087 51.37745974957943,90.55360971239861 53.44230769225396,89.80552785599139 55.217352414969355,88.38810670483508 57.20974955288693,87.20691951544723 57.89803220028989,86.53757893905276 59.63685152051039,84.84453723568004 61.12209302326664,83.23023661901243 62.28130590333603,81.53718434571056 63.15071556344628,80.11974107191782 63.6940966011025,79.92287365059019 64.70840787119232,77.91482177382568 65.57781753130257,75.8280146989855 66.5196779964026,73.78057335270569 67.67889087670483,71.81187228733324 68.76565295178443,69.68566691805609 69.81618962436914,67.63820182930795 70.32334525953047,65.90572518765111 71.59123434708454,63.74012141651474 72.46064400719479,62.04700684623094 72.96779964212328,60.82638600768405 73.83720930246636,59.72388734854758 75.06887298752554,57.91263456895831 76.59033989254385,55.86512396775652 78.22048300527968,53.89635630918201 79.92307692323811,52.045708036690485 81.73434704821557,50.39193176815752 83.47316636843607,48.58064707220183 85.46556350612082,47.084363737521926 87.34928443655372,45.78495635892614 89.37790697673336,44.28866512485547 91.5152057246305,42.949874647310935 93.54382826481014,41.6110807848745 95.31887298752554,40.58729495917214 95.5,40.23290709673893 95.17397137754597,39.95727192872437 94.19588550971821,39.99664839010802 91.9861359570641,40.429789271816844 89.77638640417717,40.82355340232607 87.49418604653329,41.53232809930341 85.13953488366678,42.122972955490695 82.85733452579007,42.75299340914353 80.72003577812575,43.65864649816649 78.43783542024903,44.32804126403062 76.26431127008982,44.91868300185888 73.9821109122131,45.62745221759542 71.62745974957943,46.218092506052926 69.4177101966925,46.76935618088464 67.24418604653329,47.399371106672334 65.65026833629236,47.67500240096706 63.65787119837478,47.47812291968148 61.99150268337689,47.517498821776826 59.63685152051039,48.02938528283266 57.93425760301761,48.46251959420624 55.68828264763579,49.21065984296729 53.55098389973864,49.998174752516206 51.70348837203346,50.706937169859884 49.602415026631206,51.573201058316045 47.50134168169461,52.63634116668254 45.182915921323,53.778230016934685 43.081842575920746,54.723239617218496 41.12567084073089,55.86512396775652 39.894007155671716,57.24325697409222 38.40876565291546,57.63700860296376 37.93783542024903,57.873259439802496 37.68425760278478,58.66076146796695 37.39445438282564,59.05451204298879 36.851073345169425,59.25138722063275 36.23524150275625,59.33013727123034 35.47450804989785,60.235762011492625 33.808139534899965,61.37763447672478 32.5402504473459,62.992001692415215 32.10554561717436,64.09449354864773 31.199910554569215,65.19698310995591 29.24373881937936,66.53571734938305 27.468694096663967,68.03194573026849 26.707960644038394,69.01630420205765 24.93291592109017,70.55189976541442 23.411449016071856,72.44185742427362 22.75939177093096,74.13493876744178 21.672629695851356,75.35552893677959 20.513416815781966,76.57611629372695 19.53533094818704,78.70229400522658 18.303667262895033,80.19848801990156 17.724060822743922,82.28527787796338 16.67352415015921,83.70271535744541 16.09391771024093,85.75011835474288 15.07960644015111,88.15186947761686 15.188282647402957,89.52991848470992 14.753577817464247,90.31737345078727 14.5,91.22294521488948 14.78980321995914,93.54592657502508 14.64490160997957,95.94764235714683 14.826028622454032,98.11311446665786 15.333184257615358,100.63292541643023 15.622987477574497,100.94790094241034 16.021466905251145,102.9558655199944 16.782200357643887,104.53073437389685 17.760286225471646,106.30245623950032 19.53533094818704,108.07417218113551 21.419051878154278,109.64902582290233 22.90429338114336,109.80651092965854 23.77370304102078,109.8852534655307 25.584973166463897,109.96399598958669 27.68604651163332,108.82222824465134 29.207513416884467,107.79857231263304 30.330500894458964,106.3811992960691 32.03309481218457,104.68822100176476 33.6270125224255,104.05827420917922 34.46019678004086,103.58581362318364 35.72808586759493,101.93219825482811 37.06842576037161,101.10538863533293 37.82915921299718,99.92422979796538 39.604203935479745,98.62495203560684 40.5822898033075,97.20755447936244 42.321109123528004,96.26262066853815 43.04561717342585,95.31768517251476 44.82066189637408,94.09714099590201 46.84928443655372,93.30969164767885 48.80545617174357,91.89227987168124 50.97898032190278,90.55360971239861 53.11627906979993,89.64803680422483 54.42039356008172,88.78183518280275 55.072450804989785,88.19124235623167 57.06484794267453,86.97068176150788 57.78935599280521,86.26196786772925 59.709302325500175,84.45080583155504 61.26699463324621,82.6790108915884 62.462432916043326,80.749716328457 63.15071556344628,79.76537966082105 64.09257602854632,78.66292042151326 64.7808586761821,77.24546945665497 65.50536672607996,75.5130242377636 66.41100178891793,73.34745974611724 67.57021466898732,71.26063467774657 68.69320214679465,69.25254996318836 69.52638640441,67.12633432043367 70.46824686951004,65.19698310995591 71.33765652962029,63.77949610960786 72.13461538450792,61.850132707710145 73.004025044851,60.235762011492625 74.38059033965692,58.46388607067638 75.68470483017154,56.534503304428654 77.16994633269496,54.723239617218496 78.69141323794611,52.911969735258026 79.95930232550018,51.651952250744216 81.66189624322578,49.91942331427708 83.07468694099225,48.58064707220183 84.95840787119232,47.084363737521926 87.13193202158436,45.62745221759542 89.26923076924868,44.09178438453819 91.26162790693343,42.83174591319403 93.36270125210285,41.72920979128685 95.42754919501022,40.469165698072175 95.39132379251532,39.99664839010802 93.94230769225396,39.95727192872437 91.66010733461007,40.35103641054593 89.45035778172314,40.74480059964117 87.05948121636175,41.37482269309112 84.81350626121275,42.280478139116894 82.56753130583093,43.10737958500977 80.39400715567172,43.57989411716699 78.22048300527968,44.209912837453885 75.79338103765622,44.879306906485 73.58363148476928,45.43057197507005 71.04785330966115,46.09996450104518 68.51207513408735,47.00561186589766 67.28041144902818,47.20249152291217 65.65026833629236,47.59625061726547 64.201252236031,47.20249152291217 62.06395348836668,47.28124336517067 60.2164579606615,47.55687472096179 57.89803220028989,48.2656404057052 56.521466905251145,48.81690194903058 54.13059033988975,49.407538680243306 51.84838998201303,50.47068313611089 49.63864042935893,51.29757179299486 47.428890876471996,52.40008799379575 45.219141323817894,53.50260189923574 43.15429338114336,54.48698737521772 41.16189624322578,55.707622824411374 39.749105545692146,57.24325697409222 38.62611806811765,57.558258300618036 37.865384615259245,57.75513403455261 37.575581395300105,58.582011317805154 36.995974955381826,59.13326212283573 36.126565295271575,59.29076224734308 35.14847942744382,60.39326180820353 33.69946332718246,61.25950985305826 32.214221824659035,63.22825014058617 31.85196779947728,64.29136685296544 30.873881932115182,65.39385600452079 29.13506261166185,66.45696837012656 28.08452593930997,67.40195534817758 26.563059034058824,68.97692989837378 24.715563506353647,70.63064813587698 23.33899821108207,72.48123147050501 22.5782647584565,74.29243443120504 21.093023255700245,75.74926710114232 20.223613595822826,77.40296419561491 19.28175313048996,78.97790900972905 18.050089445430785,80.82846318290103 17.470483005512506,82.91525055925013 16.52862254041247,84.0177009490144 16.09391771024093,85.63199916612939 15.622987477574497,87.36441129277227 15.007155635161325,88.54559813113883 15.043381037423387,90.00239160476485 14.64490160997957,91.41980843700003 14.753577817464247,93.58529905273463 14.608676207484677,95.9082700550498 14.681127012707293,98.46746360554243 14.93470482993871,99.21553323167609 15.36940966011025,101.4203638805775 16.09391771024093,103.62518535478739 17.144454382825643,105.63313978651422 18.37611806811765,107.01114332702127 19.86135957064107,108.42851465867716 21.56395348836668,109.8852534655307 23.266547406092286,109.92462472897023" stroke="#4dd2ff" stroke-linecap="round" stroke-linejoin="round" stroke-width="0.5"><title>2024-04-26 13.1km</title><desc>9223370322705658065</desc></polyline><polyline fill="none" points="116.85593220335431,106.53285193792544 118.04817127576098,105.66900071894634 120.21587867988274,103.86276178888511 120.86619090102613,103.03817239881027 123.14228367526084,101.2711908017227 124.3345227476675,100.7214619886945 125.7796610170044,99.03300563027733 126.50223015178926,98.44400795688853 128.95896520954557,96.04874398867832 129.75379125773907,95.89167711962364 130.9460303299129,94.20320532878395 132.46342551289126,93.37860086539877 133.22212310438044,92.39692720735911 134.41436217655428,91.57231992523884 136.94335414818488,90.4335744199634 139.03880463866517,88.62728341238108 141.3510258696042,87.5277989062306 142.86842105258256,87.09585793863516 144.42194469226524,86.11417260800954 145.39741302398033,85.25028800824657 146.84255129331723,84.34713441657368 147.81801962526515,83.64031748531852 148.25156110618263,83.12983800240909 149.40767172165215,82.03034205638687 150.6360392505303,80.69523676019162 152.2256913469173,78.84964447177481 153.38180196261965,77.16111822007224 154.21275646751747,75.82600061906851 154.57404103456065,74.92283091685385 156.16369313118048,71.66355349982041 157.1752899195999,69.34670551831368 158.22301516495645,67.61888007025118 159.30686886701733,65.49835929649998 159.5597680641804,64.67371003006701 159.84879571804777,63.652713916642824 161.47457627113909,60.98240705914213 162.05263157887384,59.41163201374002 162.6306868866086,58.39062572945841 163.85905441571958,56.70203408191446 165.23193577164784,54.69927885080688 166.4964317572303,53.16775502069504 167.5802854592912,51.67549676101771 168.7002676180564,50.26177452056436 170.21766280080192,48.808778274746146 171.51828724332154,47.3950483611261 172.42149866186082,46.53110043980996 173.5053523639217,45.62788064754568 175.05887600337155,44.253412782243686 177.6601248884108,42.564775936538354 179.141391614452,41.543737085099565 180.15298840310425,40.836862877593376 182.14005352347158,39.61946619124501 182.9710080283694,39.148215107707074 184.81355932191946,37.97008555900538 185.2471008026041,37.02758002761402 182.82649420155212,37.42029087009723 180.94781445129775,37.89154349555611 179.141391614452,38.205711679009255 176.64852809975855,38.99113131975173 175.45628902758472,39.38384070209577 173.8305084744934,39.8158206853841 172.38537020492367,40.719050417654216 170.28991971444339,41.0724877184839 169.02542372886091,41.38665400957689 167.36351471883245,41.74009086366277 164.25646743969992,42.68258798474562 161.36619090102613,43.46800096749212 159.5958965208847,44.21414221925079 158.1146297948435,44.44976555343601 156.16369313118048,45.03882342897123 153.6708296162542,44.88174139303737 151.71989295259118,44.960282416897826 149.29928635130636,45.4315283143369 146.19223907217383,46.334748442372074 145.21677074045874,46.60964121832512 143.04906333633699,47.512859331734944 141.42328278324567,48.06264351407299 139.94201605697162,48.53388664350496 137.4852809989825,49.75126278155949 136.07627118658274,50.49739515679539 134.30597680644132,51.32206655561458 132.06601248891093,52.46089637064142 130.98215878661722,53.44264424027642 130.33184656547382,54.1887714008335 128.63380909897387,54.85635796689894 127.00802854588255,56.38787690072786 126.1048171275761,56.8198429767217 125.52676181960851,57.33034788374789 124.55129348789342,58.115739084925735 122.67261373763904,59.96140381100122 121.84165923274122,61.571446496935096 120.36039250646718,63.33856086930609 118.98751115077175,64.0454049630498 117.47011596779339,65.38055233724299 116.20561998221092,66.59788964912877 114.97725245333277,67.93303057205048 113.42372881365009,69.73939233203419 112.08697591442615,72.29184950617491 110.64183764508925,73.54843927713227 110.02765388065018,75.35478183667874 108.58251561108045,77.23965444442001 107.78768956288695,79.04598438343965 107.24576271185651,80.53816532704514 105.87288135592826,83.71885274650413 105.25869759148918,85.21102049289038 105.11418376443908,87.33146214656881 104.78902765410021,90.82624556106748 104.5,94.16393847885774 104.89741302421317,95.89167711962364 105.22256913478486,97.54087691617315 106.12578055309132,100.40733098160126 107.31801962526515,102.68477655207971 109.05218554846942,104.72661596044782 110.46119536133483,105.82606468189624 111.65343443350866,106.76844747987343 113.67662801058032,107.12184059584979 115.91659232834354,107.00404291669838 118.95138269406743,105.27634060711716 119.8907225690782,104.2161568479496 121.58876003557816,102.4884454239509 123.03389830514789,101.54605499375612 124.1900089206174,100.95706012137816 125.41837644949555,99.34713745425688 126.61061552190222,98.56180754411616 129.21186440670863,95.97021055992809 130.2595896520652,95.14560885404353 131.59634255128913,93.7712698179239 132.46342551289126,93.37860086539877 133.3305084744934,92.31839323602617 136.29304192680866,90.78697846012074 137.41302408557385,90.08017014351208 138.38849241728894,89.53042968807858 139.94201605697162,88.31314521547756 142.07359500438906,87.17439268622547 144.09678858169354,86.23197494400665 144.74710080283694,85.64296300141723 146.4451382693369,84.62200741219567 147.2760927742347,84.19006406911649 149.3354148082435,82.06960980821168 151.64763603918254,79.39939604038955 152.8760035680607,77.35745875909925 154.35727029433474,75.55112304695649 155.22435325593688,73.7447811588936 155.87466547708027,72.21331254625693 156.63336306856945,70.13207885387237 157.8617305974476,68.05083696206566 158.8010704726912,66.12666263530264 159.45138269406743,64.87005521022365 159.84879571804777,63.45636828400893 160.78813559329137,61.96413909055991 161.36619090102613,60.86459909277619 161.76360392477363,59.4509014468058 163.78679750231095,56.58422516088467 164.5454950935673,55.60248313046759 165.9906333629042,53.560453862010036 167.6164139159955,51.51841669893474 168.48349687759764,50.379584851820255 169.4950936662499,49.35856110812165 170.90410347888246,48.141184064908884 173.0356824262999,45.98131466322229 174.8421052629128,44.64611825160682 176.82917038351297,43.15383591456339 178.45495093637146,41.936444569320884 179.68331846548244,41.0724877184839 181.23684210516512,40.247800315293716 183.69357716315426,38.75550555015798 185.17484388919547,37.93081452877959 185.28322925954126,37.06685112501145 183.65744870644994,37.223935485380935 181.92328278324567,37.538104065926746 180.18911685980856,38.009356586262584 178.8162355038803,38.40206669867621 176.8652988402173,38.99113131975173 174.76984834950417,39.85509157538763 173.64986619073898,39.93363334669266 170.94023193558678,41.11175851509324 168.7002676180564,41.622278605238535 165.30419268505648,42.368422464613104 161.79973238171078,43.42873034608783 160.3545941123739,43.821436428726884 158.4397859054152,44.44976555343601 156.48884924175218,44.88174139303737 154.68242640490644,44.84247087681433 153.6708296162542,44.72465931045008 152.0811775198672,44.88174139303737 150.16636931314133,45.31371687937644 148.7212310435716,45.51006925632828 147.67350579821505,45.90277379131294 146.1199821587652,46.334748442372074 144.34968777862377,46.96307457712828 142.54326494201086,47.70921089113108 139.94201605697162,48.53388664350496 137.9549509366043,49.55491198139498 136.76271186443046,50.18323428518488 134.88403211394325,51.047176232445054 132.13826940231957,52.38235646215617 130.51248884922825,53.95315241141361 128.9950936662499,54.89562773858779 127.91123996418901,55.327595034847036 127.18867082963698,56.42714655864984 125.81578947370872,57.13399990089238 123.46743978583254,58.744051205023425 122.16681534354575,60.27555886673508 121.40811775182374,62.35683139227331 118.66235504020005,64.2810194507183 117.86752899200656,64.90932423758204 115.88046387163922,67.02984737581573 114.76048171287403,67.9722993716423 113.3153434433043,69.85719831922324 111.7256913469173,72.64526568129077 110.09991079382598,75.19770881580189 108.72702943789773,76.96477760796552 108.0044603033457,78.9674484274583 107.2096342551522,80.57743318975554 106.16190900979564,82.38375171713415 105.54772524535656,84.58273985024425 105.07805530773476,86.11417260800954 104.78902765410021,87.99900683193118 104.8251561105717,89.53042968807858 104.68064228375442,90.86551265916205 104.60838537034579,93.1429993538477 104.75289919716306,95.45974298898363 105.43933987501077,98.16914215133875 106.34255129355006,101.03559280899935 107.5347903657239,103.2345033226884 109.19669937551953,104.84441414722824 111.18376449588686,106.45432006727788 112.08697591442615,107.00404291669838 114.65209634252824,107.12184059584979 115.5553077608347,107.2003723673406 117.57850133813918,106.14019246795215 118.66235504020005,105.39413867128314 119.45718108816072,104.5695516707201 121.98617305979133,102.0957829488907 122.88938447809778,101.54605499375612 124.55129348789342,100.5251301311655 125.41837644949555,99.30787098649307 127.08028545929119,98.01207591261482 128.20026761828922,96.6377443317615 130.18733273865655,95.26340917655034 132.06601248891093,93.61420227197232 132.96922390721738,92.71106297636288 133.908563782461,91.72938807820901 132.2105263157282,92.23985925287707 130.98215878661722,93.26080012283637 130.1150758252479,93.84980357345194 128.12801070464775,95.06707529115374 127.00802854588255,96.51994431568892 125.74353256006725,97.65867670456646 125.27386262267828,98.24767525336938 124.40677966107614,99.19007156562293 123.2506690453738,100.40733098160126 122.2752007136587,101.15339181848685 120.97457627113909,102.52771165536251 119.92685102578253,103.62716495161294 119.05976806418039,104.25542295110063 117.39785905438475,105.39413867128314 116.53077609278262,106.10092650490697 115.88046387163922,106.14019246795215 114.9049955396913,106.37578818495967 113.24308652989566,107.63229690174921 111.65343443350866,108.88880263105966 110.28055307758041,109.94897701652371 108.65477252448909,111.04841487362864 106.4148082069587,112.57977093468071 107.39027653867379,112.30491248125327 109.84701159689575,110.49869623105042" stroke="#4dd2ff" stroke-linecap="round" stroke-linejoin="round" stroke-width="0.5"><title>2024-04-12 15.1km</title><desc>9223370323917503807</desc></polyline><polyline fill="none" points="24.272117962362245,260.09011801192537 26.154155496042222,259.9721097656293 26.58847184991464,259.69675708850264 28.325737265404314,258.55600875764503 29.375335120828822,257.57260305131786 31.04021447733976,255.84180457147886 32.27077747997828,254.85839382337872 32.922252010786906,254.6223749720084 34.11662198393606,253.79630816355348 34.80428954423405,252.93090345783276 35.23860589810647,252.49820057454053 35.67292225221172,252.14417067961767 36.32439678302035,251.79014054790605 36.90348525485024,251.3181000042241 38.24262734595686,249.70529163681203 38.71313672931865,249.2332492339483 39.617962466552854,248.83988024335122 40.197050938382745,248.13181532357703 40.92091152817011,247.14839025275433 42.15147453080863,246.59767141504562 43.49061662214808,245.26020899534342 44.7211796247866,244.43412757723127 46.639410187723115,243.64738217109698 48.37667560321279,242.46726186931483 49.4262734586373,241.48382627466344 50.62064343178645,241.09045152520412 51.706434316467494,240.34303869583528 53.73324396787211,239.43827438508742 54.34852546919137,238.96622282639146 54.927613941021264,238.65152155343094 57.135388740105554,237.27470128407003 58.18498659529723,236.21258034359198 59.27077747997828,235.11111933930079 60.139410187955946,234.20634608523687 61.11662198393606,233.2622332147148 62.2024128686171,231.61003163881833 62.564343163510785,230.508561056311 63.25201072404161,230.1545164535928 64.04825737280771,228.73833567462862 65.09785522799939,226.69273452620837 65.67694369982928,225.31588314753026 66.32841823063791,223.46696280423203 66.76273458451033,222.83754163913545 67.7037533512339,221.30332441304927 68.02949061663821,220.59522265463602 69.15147453104146,218.70694666699274 69.51340482593514,217.84148458761047 69.62198391440324,216.85800323373405 70.0924932975322,216.07121683476726 70.49061662191525,215.52046565929777 70.85254691704176,214.89103504281957 71.14209115295671,214.10424571926706 71.64879356580786,212.68802198892809 72.95174262742512,210.7603780432255 73.78418230568059,209.81622334453277 74.58042895467952,208.5966876987368 75.77479892759584,206.94440911422134 76.4262734586373,206.0395877029805 77.54825737280771,204.54466198160662 78.77882037544623,203.1284126652754 79.14075067010708,202.69566906252294 79.6112600537017,202.3022654801316 80.04557640757412,201.86952120173373 81.56568364612758,200.3352431806561 81.92761394102126,199.9418378432456 82.86863270774484,198.95832321993657 83.30294906161726,198.52557620653533 84.49731903499924,197.54205895058112 86.59651474538259,196.20447254829924 88.04423592495732,195.10292826616205 89.9986595173832,193.88335870718583 91.44638069695793,193.135879200825 92.2064343164675,192.66378633698332 93.69034852553159,191.64091701986035 95.24664879357442,190.81475189703633 95.5,190.3819982224959 95.02949061663821,190.02792677099933 93.50938337808475,190.30331569819828 92.82171581778675,190.3819982224959 91.59115281514823,190.57870448206086 89.781501340447,190.972116781777 88.15281501342542,191.404869973514 86.95844504027627,191.9163051074429 85.98123324406333,192.34905752693885 84.28016085806303,192.89983282148023 83.15817694365978,193.25390235093073 81.71045576408505,193.84401770695695 80.95040214480832,193.96204069905798 78.56166219851002,194.47347336096573 77.80160857923329,194.55215526506072 75.59383378038183,195.26029187548556 73.0603217156604,195.96842753811507 71.54021447733976,196.36183583000093 70.99731903499924,196.47985826060176 70.1286863272544,196.7945846132352 69.11528150131926,196.99128848852706 68.46380697051063,197.1879922907974 67.12466487940401,197.54205895058112 65.74932975880802,198.0141474615666 63.46916890074499,197.54205895058112 62.05764075065963,197.8174439664872 61.44235924934037,197.8174439664872 59.41554959793575,198.2108508835372 58.07640750682913,198.76162007590756 56.08579088491388,199.35172928860993 54.891420911531895,199.70579450033256 53.76943699736148,200.0598594751791 52.53887399472296,200.53194573969813 51.670241286978126,200.964691112109 51.16353887412697,201.1613934370689 49.71581769455224,201.67281913990155 49.10053619300015,201.86952120173373 47.72520107240416,202.61698836949654 46.856568364659324,202.97105139613268 44.86595174274407,203.9545585604792 43.56300268089399,204.4659815635241 42.44101876672357,205.09542458085343 41.391420911531895,205.84288719156757 40.776139410212636,206.23628814148833 39.979892761446536,207.4558292273723 38.49597855214961,207.92790889315074 37.91689008055255,208.3606482167961 37.554959785658866,209.34414536345867 36.54155495995656,209.69820388869266 35.02144772117026,210.83905752535793 33.537533512106165,211.78321039912407 32.343163538957015,213.31745522588608 31.583109919680282,215.08773219090654 30.4249329760205,216.14989552728366 28.542895442573354,217.4087530170509 27.638069705106318,217.92016301694093 26.4075067024678,219.41505095199682 25.35790884727612,220.39852755362517 24.99597855238244,220.75257868287736 23.693029490765184,222.36547527406947 22.96916890097782,224.17506072024116 22.028150134021416,225.59125370980473 21.014745308319107,226.37802595546236 20.508042895700783,227.2828125919914 19.92895442363806,228.65965885369224 19.422252010786906,229.32841145980638 18.589812332531437,230.46922277877457 18.191689008148387,231.964075267897 17.178284182446077,233.93098000533064 16.418230563169345,235.2291331278975 15.91152815008536,236.8419856026594 15.368632707744837,238.37615778608597 15.079088472062722,239.16291102705873 15.260053619509563,240.06767580850283 14.789544235914946,241.24780146000558 14.572386059211567,242.15256267780205 14.89812332438305,243.25400902947877 14.753351206425577,245.6535806460597 14.753351206425577,247.03037912145373 14.861930294893682,249.3905967483297 15.006702412851155,250.33468085253844 15.658176943892613,252.1835073462571 16.418230563169345,254.30768300654017 17.54021447733976,256.31384108171915 19.16890080436133,258.08397424660507 21.123324397020042,259.5000765172008 22.209115281468257,260.16879016163875 24.453083110041916,260.09011801192537 25.032171581871808,260.2474622995651 26.841823056340218,259.4607403941336 28.361930295126513,258.43800016943715 29.339142091106623,257.4939305158914 30.533512064488605,255.99915012164274 31.61930294916965,255.13374901699717 32.66890080436133,254.22900998589466 33.754691689042374,253.83564470746205 34.550938338041306,253.12758646981092 35.60053619300015,251.75080385204637 36.179624665062875,251.47544689883944 37.69973190361634,249.90197584714042 38.3150134049356,249.2332492339483 39.29222520114854,248.76120641006855 39.83512064348906,248.3678370687412 40.7037533512339,247.06971616813098 42.07908847182989,246.40098597697215 43.05630026804283,245.22087181411916 44.46782841836102,244.59147651813691 45.843163538957015,243.8440686322283 47.58042895444669,242.86063559557078 48.7024128686171,241.8772007317457 49.60723860608414,241.4051513481827 50.656836461275816,240.97243904334027 51.9235924934037,240.14635093376273 53.15415549604222,239.83165036237915 53.84182305657305,239.20224865840282 55.0,238.21880699758185 56.19436997338198,237.6287411240337 57.533512064488605,236.76330998615595 58.25737265427597,236.0552289118932 59.59651474538259,234.59972595097497 60.06702412874438,234.08833206852432 60.82707774802111,233.22289514180738 61.333780160872266,232.6328236987174 62.383378016296774,230.70525239990093 62.70911528170109,230.11517814989202 63.28820375329815,229.91848658700474 64.26541554951109,227.99090540254838 64.84450402157381,227.00744290987495 65.24262734595686,226.61405740113696 65.93029490625486,224.41109314828645 66.25603217165917,223.6243179786834 66.87131367297843,222.48349190485897 67.63136729225516,221.06729059887584 67.95710455765948,220.47720560291782 68.71715817693621,218.9823206681467 69.29624664899893,217.60544922936242 69.94772117957473,215.9138594144897 70.74396782857366,214.53697999197175 71.28686327091418,213.27811567048775 71.57640750682913,212.4913239487505 72.19168900814839,211.4684929616924 72.80697050946765,210.32764068213874 74.18230563029647,208.39998813770944 74.54423592495732,207.80988901626552 75.0147453083191,207.18044922786066 75.95576407504268,206.0395877029805 77.15013404842466,204.54466198160662 78.01876675593667,203.40379477362148 79.90080428961664,201.98754240365815 80.98659517429769,200.76798871401115 81.96380697051063,199.66645393299405 83.48391420929693,198.5649168587115 84.56970509397797,197.6600811178214 85.14879356557503,197.22733304245048 87.32037533516996,195.65370069394703 88.87667560321279,194.51281431457028 90.07104557636194,193.72599468840053 92.09785522799939,192.4670808526571 92.74932975880802,192.07366966461996 93.61796246655285,191.52289350982755 95.21045576408505,190.57870448206086 95.24664879357442,189.87056160534848 94.55898123327643,189.87056160534848 93.54557640757412,190.10660933627514 92.96648793574423,190.1852918898221 90.90348525485024,190.6180457251321 89.67292225197889,190.85409312255797 87.39276139414869,191.6015758528083 85.58310991968028,192.34905752693885 83.55630026804283,192.8211506716907 82.65147453080863,193.25390235093073 80.15415549604222,193.96204069905798 77.72922252002172,194.55215526506072 75.34048257372342,195.14226917290944 72.91554959793575,195.85040499348543 70.81635388731956,196.44051745324396 69.54959785542451,196.7945846132352 69.22386058978736,196.87326617215876 68.46380697051063,197.14865153626306 67.812332439702,197.30601453705458 66.1112600537017,197.8174439664872 65.35120643442497,197.58139967583702 63.143431635340676,197.3453552798892 61.44235924934037,197.7387625479605 59.30697050946765,198.25019155908376 58.43833780172281,198.48623555136146 56.95442359265871,198.8403013422503 55.79624664899893,199.27304809825728 54.13136729225516,199.78447562639485 53.44369973195717,199.98117839021143 51.670241286978126,200.84666968201054 49.53485254687257,201.55479786772048 48.050938338041306,202.38094621998607 45.80697050946765,203.24643358640606 44.35924932989292,203.99389880907256 43.09249329776503,204.5840021862532 41.02949061663821,205.84288719156757 40.05227882042527,207.10176920169033 39.50938337808475,207.4558292273723 38.3150134049356,207.61318916277378 37.808310992084444,208.08526868818444 37.41018766770139,208.91140684412676 36.143431635340676,209.5408445734065 35.45576407527551,210.32764068213874 33.71849865978584,211.42915326883667 32.66890080436133,212.57000317366328 31.65549597865902,214.69433782159467 30.750670241424814,215.9138594144897 30.24396782834083,216.42527085903566 29.158176943892613,216.85800323373405 28.325737265404314,217.4087530170509 27.42091152840294,218.1955374275567 25.79222520114854,219.80844181205612 24.59785522799939,220.83125667943386 23.077747989445925,223.11291349094245 22.245308311190456,224.76514159311773 21.77479892782867,225.43389912034036 20.218498659785837,227.36148961770232 19.13270777487196,229.131719604542 18.73458445048891,229.6824566150608 17.7211796247866,232.160766070534 16.635388739872724,233.89164198213257 15.947721179807559,235.85853955644416 15.260053619509563,237.86476755229523 14.970509383594617,238.92688517755596 14.861930294893682,240.61840144000598 14.608579088468105,242.42792448055116 14.71715817716904,243.52937025931897 14.644772118190303,244.86683705227915 14.536193029489368,246.95170501930988 14.71715817716904,248.44651096040616 15.042895442573354,250.37401765369577 15.187667560297996,250.96406932003447 15.2962466487661,251.5934570392128 15.766756032360718,252.7342203729786 16.852546916808933,255.01573966586147 18.083109919680282,256.7465408463904 19.603217158466578,258.24131913037854 20.399463806999847,258.79202585539315 21.050938337808475,259.4607403941336 21.593833780148998,259.8147653962369 23.439678284106776,259.8147653962369 24.99597855238244,260.01144585065776 26.045576407574117,259.7754292966565 27.457104557659477,258.8706981978612 27.60187667561695,258.5166725644667" stroke="#4dd2ff" stroke-linecap="round" stroke-linejoin="round" stroke-width="0.5"><title>2024-04-08 13.3km</title><desc>9223370324272004907</desc></polyline></svg>