<?xml version="1.0" encoding="utf-8" ?>
<svg baseProfile="full" height="300mm" version="1.1" viewBox="0,0,200,300" width="200mm" xmlns="http://www.w3.org/2000/svg" xmlns:ev="http://www.w3.org/2001/xml-events" xmlns:xlink="http://www.w3.org/1999/xlink"><defs /><rect fill="#222222" height="300" width="200" x="0" y="0" /><text fill="#FFFFFF" style="font-size:12px; font-family:Arial; font-weight:bold;" x="10" y="20">Over 10km Runs</text><text fill="#FFFFFF" style="font-size:4px; font-family:Arial" x="10" y="280">ATHLETE</text><text fill="#FFFFFF" style="font-size:9px; font-family:Arial" x="10" y="290">lihsiaofei</text><text fill="#FFFFFF" style="font-size:4px; font-family:Arial" x="120" y="280">STATISTICS</text><text fill="#FFFFFF" style="font-size:3px; font-family:Arial" x="120" y="285">Number: 9</text><text fill="#FFFFFF" style="font-size:3px; font-family:Arial" x="120" y="290">Weekly: 1.8</text><text fill="#FFFFFF" style="font-size:3px; font-family:Arial" x="141" y="285">Total: 111.7 km</text><text fill="#FFFFFF" style="font-size:3px; font-family:Arial" x="141" y="290">Avg: 12.4 km</text><text fill="#FFFFFF" style="font-size:3px; font-family:Arial" x="167" y="285">Min: 10.0 km</text><text fill="#FFFFFF" style="font-size:3px; font-family:Arial" x="167" y="290">Max: 15.1 km</text><polyline fill="none" points="20.042429656139575,83.36985245897085 20.983028137590736,83.05530424564495 21.778919160249643,82.6883309755649 22.526574363582768,82.11165792285465 23.057168378843926,81.48255897205672 24.238945957971737,80.27678284727153 25.131308619864285,79.64768062441726 25.782492183963768,79.43797963415273 26.50602947745938,78.54674903478008 27.543099598027766,77.7341544671799 28.121929432731122,77.15747331589228 29.0384100045776,76.13517259439686 29.37606074148789,76.00410818503588 29.95489057607483,75.55848882909049 30.123715944588184,75.0342300425109 30.702545779407956,74.56239646842005 31.401965162949637,74.3789054636145 31.932559178210795,73.64494048987399 32.24609200539999,73.35659668946755 32.897275569383055,73.01582643974689 33.23492630640976,72.80612150701927 34.56141134432983,72.28185862972168 35.81554265297018,71.31197025257279 37.04555605177302,70.65663875828614 37.55203215719666,70.3420792085526 37.93791871366557,70.13237268620287 38.29968736041337,70.18479932847549 39.071460473467596,69.68674591230229 39.8673514961265,69.00519799249014 40.95265743636992,68.37607566695078 41.531487271073274,68.03530060546473 42.3032603841275,67.24889536065166 43.05091558734421,66.46248836242012 43.460920053650625,66.0692842057324 43.82268870039843,65.7285069154168 44.763287181733176,64.47024945256999 45.19740955776069,63.31684283490176 45.510942384949885,63.290629004332004 45.75212148274295,63.028490591124864 46.08977221976966,62.39935760447406 46.47565877623856,61.53429791535018 46.90978115238249,60.8003062120988 47.488610986969434,59.253675836574985 47.97096918267198,58.257537427183706 48.69450647616759,56.97303900908446 48.93568557384424,56.39632391167106 49.683340777177364,54.849674221361056 49.73157659673598,54.27295565136592 50.40687807055656,53.329232320480514 50.961589995538816,52.07093061725027 51.49218401068356,51.10098665644182 52.28807503345888,49.84267700166674 52.915140687837265,48.92515671427827 53.807503349729814,47.85034419823205 54.506922733271495,46.90660367786768 55.5439928539563,45.622063910675934 56.6292987940833,44.52102609971189 57.159892809344456,43.94429063607822 58.02813756139949,43.26269296274404 58.87226440384984,42.34515555243706 59.69227333634626,41.74220109693124 60.99464046454523,40.82465972958016 61.983474765555,40.038193799817236 63.38231353275478,39.146863625210244 64.56409111211542,38.38660963662551 65.67351496207993,37.70500121865189 66.80705672164913,37.02339148276951 66.87941045104526,36.57772286600084 66.22822688706219,36.68258612061618 65.26351049577352,36.86609674117062 64.75703439034987,36.94474412073032 64.10585082625039,37.10203882722999 62.92407324700616,37.390412273525726 61.35640911129303,37.88851130695548 60.72934345691465,38.17688410994015 60.10227780265268,38.334178266639356 58.92050022329204,38.67498203218565 58.43814202770591,38.91092290764209 57.81107637332752,39.12064799768268 56.6292987940833,39.35658857485396 55.5439928539563,39.56631339984597 54.265743635594845,39.98576267543831 53.3733809737023,40.352780382178025 51.82983474759385,40.588720134837786 50.59982134879101,40.981952705042204 49.659222867456265,41.34896937475423 48.30861991958227,41.611123904935084 47.51272889680695,41.82084738870617 46.6203662349144,41.82084738870617 45.9209468512563,41.794631960074184 45.46270656550769,41.63733934718766 44.20857525675092,41.87327824017848 43.43680214381311,42.030570747796446 42.39973202312831,42.26650937757222 41.89325591782108,42.423801709664986 40.97677534609102,42.764601521979785 40.446181330946274,42.97432431965717 39.93970522552263,43.131616335973376 39.553818669053726,43.31512359980843 38.44439481908921,43.62970725825289 37.6726217061514,43.91807536527631 37.3108530594036,44.206443236529594 36.49084412679076,44.46859564201441 36.056721750763245,44.67831742609269 35.26083072798792,44.99289986831718 34.29611433669925,45.41234268795233 32.897275569383055,46.09393620569608 31.57079053146299,46.827958520530956 30.75078159896657,47.37847425378277 30.07548012502957,48.191138765367214 29.689593568560667,48.50571807342931 29.13488164357841,48.50571807342931 28.62840553827118,48.79408219267498 28.097811523010023,49.5805285917304 27.326038410072215,49.92132148667588 26.55426529701799,50.70776537168422 25.63778472528793,51.20584559161216 25.27601607865654,51.54663691564929 24.86601161235012,52.14957460522419 24.673068333999254,52.77872587781167 24.480125055881217,53.25058859566343 23.853059401502833,53.984596012713155 22.84010719077196,54.48267160420073 22.43010272446554,54.849674221361056 22.020098258159123,55.16424758924404 21.079499776707962,56.23903781230911 20.76596694951877,56.50118127223686 19.994193836464547,57.15653906951775 19.656543099554256,57.44489611449535 19.15006699413061,58.152680588827934 18.86065207689535,58.650750293338206 18.47476552031003,59.6731016933918 17.485931219300255,60.66923610432423 17.172398392111063,60.8003062120988 16.521214828127995,62.45178539620247 16.014738722587936,63.107132135512074 15.508262617280707,63.972187966806814 15.363555158604868,64.36539446140523 14.591782045550644,65.99064332182752 14.278249218477868,66.33142035888159 14.157659669523127,66.96054633150925 13.916480571730062,67.95666015986353 13.651183564099483,68.50714291064651 13.434122376027517,68.95277117489604 13.410004466306418,69.84402601438342 13.096471639233641,70.91877150212531 13.192943278234452,71.94108734163456 13.096471639233641,73.01582643974689 13.024117909721099,73.72357966721756 13.0,74.98180412105285 13.144707458675839,75.9516824077291 13.385886556468904,77.07883490403765 13.699419383658096,78.07492015892058 14.109423849964514,79.22827851917828 14.95355069229845,80.69618370596436 15.604734256397933,81.45634649143904 16.280035730218515,82.13787035475252 17.485931219300255,83.0815166074608 18.161232693237253,83.29121543193469 18.66770879854448,83.26500308571849 19.125949084409513,83.29121543193469 20.187137114815414,83.42227713399916 20.886556498357095,83.18636603528284 21.48950424301438,82.8456052809197 22.357748995069414,82.19029521281482 23.22599374712445,81.29907156672562 23.611880303709768,80.93209646985633 23.853059401502833,80.69618370596436 24.431889236322604,80.19814513073652 25.324251898215152,79.49040489335312 26.07190710143186,79.22827851917828 26.843680214486085,78.2059837988636 27.15721304155886,77.8914309811953 27.422510049073026,77.68172894691816 28.025457793613896,77.36717566181323 28.266636891523376,76.89534520817688 29.448414470767602,75.89925662250607 29.88253684679512,75.68955340402317 30.26842340338044,75.00801708272775 30.726663689129055,74.58860946129425 31.69138008041773,73.95949709418346 32.72845020098612,73.09446575731272 33.57257704332005,72.62262958858628 34.51317552477121,72.25564546542591 35.79142474324908,71.46924963005586 36.41849039751105,70.78770515453652 37.50379633763805,70.3420792085526 38.130861992016435,70.02751937831636 39.02322465390898,69.63431919598952 39.50558284949511,69.34597211700748 40.08441268419847,68.84791751630837 41.16971862432547,68.16636797573301 42.01384546677582,67.48481711815111 43.002679767785594,66.59355631720973 43.3885663242545,66.14792507214588 43.846806610003114,65.62365229826537 44.690933452453464,64.57510441259365 45.028584189363755,64.02461552471505 45.34211701655295,63.290629004332004 45.70388566318434,63.107132135512074 46.18624385877047,62.37314370559761 46.499776686076075,61.61293979291804 47.15096025005914,60.302239543467294 47.56096471636556,59.253675836574985 47.7056721750414,58.676964468788356 48.45332737825811,57.602181675989414 48.95980348368175,56.71089589991607 49.39392585970927,55.84582225710619 49.755694506457075,55.216676456679124 50.21393479243852,53.74866522382945 50.79276462702546,52.75251126391231 51.05806163465604,52.20200392085826 51.44394819124136,51.3107044956414 52.09513175522443,50.15725483634742 52.86690486827865,49.16109073054395 53.035730236792006,48.79408219267498 53.542206342099234,48.13870885336655 54.21750781615265,47.32604422100121 55.15810629748739,46.09393620569608 55.78517195174936,45.33369719731854 56.50870924512856,44.704532640316756 57.063421170110814,44.15401273200405 57.569897275650874,43.65592255041702 58.7757927646162,42.423801709664986 60.12639571237378,41.37518483650638 61.33229120145552,40.43142698396696 61.76641357759945,40.09062491636723 62.7070120589342,39.43523539887974 63.52702099154703,39.0682167368941 64.4676194729982,38.439040998899145 65.38410004461184,37.80986413793289 66.39705225545913,37.206901925907005 67.0,36.7088019294024 66.05940151854884,36.81366514507681 64.4676194729982,36.99717569738277 62.89995533716865,37.31176499338471 61.50111656985246,37.862295585888205 60.65698972763494,38.22931550332578 59.59580169711262,38.596335038600955 58.60696739621926,38.9371385507402 57.97990174195729,39.146863625210244 56.87047789199278,39.409019792830804 55.9298794104252,39.46145100297872 54.55515855294652,39.93333154331776 53.97632871824317,40.16927157659666 53.34926306386478,40.32656484437757 52.36042876285501,40.56250461455784 50.9133541759802,40.87709072913276 49.94863778469153,41.217892036540434 49.36980794998817,41.45383121017949 48.3568557392573,41.74220109693124 47.488610986969434,41.95192450276227 46.06565430993214,41.87327824017848 45.24564537743572,41.74220109693124 44.61857972305734,41.82084738870617 43.846806610003114,41.97813991969451 42.76150066987611,42.24029398206039 41.07324698532466,42.81703223314253 40.61500669934321,42.948108976735966 39.60205448861234,43.23647764130146 38.347923179971986,43.708353129040916 37.262617239844985,44.15401273200405 36.73202322470024,44.311304222123 36.056721750763245,44.599671771691646 34.850826261681505,45.17640616331482 33.69316659227479,45.753139611537335 32.897275569383055,46.146366421715356 32.41491737391334,46.40851738487254 31.739615899976343,46.749313345586415 31.257257704273798,47.090108976874035 30.75078159896657,47.352259238337865 30.50960250105709,47.71926927700406 30.07548012502957,48.16492381031276 29.37606074148789,48.55814793083118 28.86958463594783,48.61057778040413 28.363108530640602,49.52809888639604 27.63957123714499,49.71160282110213 26.843680214486085,50.47183239037986 26.144260830711573,50.89126869244501 25.49307726661209,51.38934865311603 24.841893702629022,52.4641503818857 24.648950424278155,52.88358431411325 24.311299687367864,53.591377943521366 23.90129522094503,53.93216696212767 23.22599374712445,54.35159914830001 22.671281822258607,54.58752953374642 21.875390799483284,55.11181871412555 21.51362215273548,55.55746390452259 21.15185350610409,56.003108531731414 20.163019205094315,56.99925330921542 19.632425189833157,57.523538904002635 19.101831174572,58.257537427183706 18.59535506926477,59.35853234754177 18.35417597135529,59.6731016933918 18.088878963841125,60.066312981187366 17.63063867809251,60.590594016277464 16.955337204155512,61.37701410750742 16.690040196408518,62.32071590219857 15.89414917374961,63.290629004332004" stroke="#4dd2ff" stroke-linecap="round" stroke-linejoin="round" stroke-width="0.5"><title>2024-05-24 12.1km</title><desc>9223370320293981307</desc></polyline><polyline fill="none" points="97.53887399460655,70.28113499539904 97.94906166230794,70.04510973350261 98.62466487940401,69.88775947125396 99.2520107239252,69.44193334708689 99.83109919575509,68.94365642403136 100.43431635387242,68.57650455689873 101.03753351210617,68.31425298930844 101.59249329764862,67.94710046725231 102.05093833780847,67.44882143347058 102.53351206437219,66.92431642723386 102.99195710453205,66.42603594908724 103.47453083109576,65.92775476735551 103.95710455765948,65.45569826188148 104.41554959793575,64.87873945312458 104.72922252013814,64.32800516471616 105.01876675605308,63.672367986349855 105.5013404826168,63.2003084635071 105.88739946379792,62.72824830911122 106.17694369982928,62.17751066412893 106.5147453083191,61.54809516001842 106.78016085794661,60.94490424837568 106.99731903488282,60.289260783349164 107.23860589810647,59.68606771953637 107.50402144773398,59.10909947627806 107.81769436993636,58.50590439478401 108.2520107239252,57.90270828208304 108.56568364612758,57.29951113808784 108.85522788204253,56.670086931757396 109.21715817705262,56.066887680324726 109.48257372656371,55.48991351830773 109.65147453092504,54.88671224907739 109.84450402157381,54.2572837381158 110.20643431635108,53.68030661655939 110.52010723866988,53.07710225324263 110.83378016087227,52.526349542546086 111.05093833780847,51.92314320610603 111.31635388743598,51.34616226705839 111.67828418232966,50.74295391267515 112.04021447733976,50.16597104337416 112.52278820390347,49.64144034322817 112.90884718496818,49.06445567225455 113.29490616626572,48.51369669687119 113.68096514756326,47.93671018135501 114.09115281503182,47.38594944521901 114.52546916890424,46.88764137160615 114.91152815020178,46.38933259397163 115.2975871313829,45.91724994487595 115.75603217165917,45.44516666393611 116.19034852553159,44.92062894409173 116.64879356580786,44.448544329294236 117.08310991968028,43.976459082769 117.56568364612758,43.55682722205529 118.02412868640386,43.05851373902988 118.50670241285115,42.58642663215869 118.98927613953128,42.088111778197344 119.44772117969114,41.74715910409577 120.02680965152103,41.43243326630909 120.60589812335093,41.03902557404945 121.0643431636272,40.6193902187224 121.57104557647835,40.22598161967471 122.05361930304207,39.806345297023654 122.56032171589322,39.46539041728829 123.09115281503182,39.20311720852624 123.62198391417041,38.862161745666526 124.15281501342542,38.59988808835624 124.70777479896788,38.31138684009784 125.26273458451033,37.94420309190173 125.81769437005278,37.57701896148501 126.39678284188267,37.26228940254077 126.92761394102126,36.947559562831884 126.73458445048891,36.5803743947763 126.10723860596772,36.68528448182042 125.50402144785039,36.79019453760702 124.85254691692535,36.89510456219432 124.15281501342542,37.05246954062022 123.45308311004192,37.20983444881858 122.75335120654199,37.3671992867603 122.10187667573337,37.52456405447447 121.42627345840447,37.786838511383394 120.77479892771225,38.07534018874867 120.17158176947851,38.31138684009784 119.49597855238244,38.46875118659227 118.86863270786125,38.626115462888265 118.3136729223188,38.78347966892761 117.75871313677635,38.91461645369418 117.1554959785426,39.07198053106549 116.57640750682913,39.255571865913225 116.02144772128668,39.41293579112971 115.44235924934037,39.570299646118656 114.83914209122304,39.72766343096737 114.21179624670185,39.91125442448538 113.56032171589322,40.068618057179265 112.98123324406333,40.22598161967471 112.37801608582959,40.409572353819385 111.7506702413084,40.6193902187224 111.09919571049977,40.80298074809252 110.49597855238244,40.98657118191477 109.86863270774484,41.14393433489022 109.28954423603136,41.37997893267311 108.71045576408505,41.51111475212383 108.08310991956387,41.64225052270922 107.50402144773398,41.799613383132964 106.85254691692535,41.7733862446039 106.24932975880802,41.64225052270922 105.62198391428683,41.56356906617293 105.04289544245694,41.64225052270922 104.41554959793575,41.69470481737517 103.69168900803197,41.82584051968297 103.0160857909359,42.061884661146905 102.38873994641472,42.27170154315536 101.73726541560609,42.48151830030838 101.13404825737234,42.66510786052095 100.50670241296757,42.822470264538424 99.87935656844638,43.00605964730494 99.2520107239252,43.24210299894912 98.67292225197889,43.504373204370495 98.06970509386156,43.740416222513886 97.41823056305293,44.0026860574726 96.83914209122304,44.23872874220251 96.30831099196803,44.47477126895683 95.80160857911687,44.71081363770645 95.24664879357442,44.973082751152106 94.66756032162812,45.26157855070778 94.04021447722334,45.5500741142605 93.46112600539345,45.838569441926666 92.88203753344715,46.12706453356077 92.30294906173367,46.41555938933743 91.69973190349992,46.67782723522396 91.19302949064877,47.04500189193641 90.7345844503725,47.41217616648646 90.32439678290393,47.93671018135501 89.89008042903151,48.35633683166816 89.3109919570852,48.51369669687119 88.70777479896788,48.69728311756626 88.44235924934037,49.300494969880674 87.86327077739406,49.61521378776524 87.28418230556417,49.90370579078444 86.84986595180817,50.428236100968206 86.31903485255316,50.79540685401298 85.76407506712712,51.05767144361744 85.40214477211703,51.451067962596426 85.06434316351078,51.92314320610603 84.82305630028713,52.44767051367671 84.60589812335093,53.05087595322402 84.17158176947851,53.49672278910293 83.76139410189353,53.995021527138306 83.20643431635108,54.33596236340236 82.67560321721248,54.65067668908159 82.19302949064877,55.07029535327456 81.78284182306379,55.48991351830773 81.34852546919137,55.93575727179996 80.91420911520254,56.40782651441987 80.45576407504268,56.80121706734644 79.99731903488282,57.22083317369106 79.58713136729784,57.6666747398267 79.2010723860003,58.16496758823632 78.88739946391433,58.663259732798906 78.67024128686171,59.21400286341668 78.42895442352165,59.79097093519522 78.06702412874438,60.289260783349164 77.58445040218066,60.65642127385945 77.1742627347121,61.076032795070205 76.93297587125562,61.5743208284548 76.73994638072327,62.12505941494601 76.37801608571317,62.649571555288276 75.96782841824461,63.1478573664499 75.63002680963837,63.61991695937468 75.36461126001086,64.24932876767707 75.24396782845724,64.87873945312458 75.00268096511718,65.45569826188148 74.6407506702235,65.92775476735551 74.30294906173367,66.42603594908724 74.13404825737234,67.02921749083907 74.01340482570231,67.55372234119568 73.86863270786125,67.99955085097463 73.69973190349992,68.4978291070438 73.38605898129754,69.10100710732513 73.36193029489368,69.80908431377611 73.28954423591495,70.49093509561499 73.04825737257488,71.04165976535296 73.04825737257488,71.59238357559661 73.09651474526618,72.16933140734909 73.07238605897874,72.82495279840077 73.09651474526618,73.45434818786453 73.09651474526618,74.05751771613723 73.12064343167003,74.66068621349405 73.09651474526618,75.26385367984767 73.14477211795747,75.86702011540183 73.24128686334006,76.47018552006921 73.36193029489368,77.04712537728483 73.53083109925501,77.62406429130351 73.69973190349992,78.22722669303766 73.94101876683999,78.83038806391414 74.18230562994722,79.3810997196997 74.47184986597858,79.95803481829353 74.76139410189353,80.48252045319532 75.09919571049977,81.00700530869653 75.43699731910601,81.47904101226595 75.87131367286202,81.87240361628938 76.37801608571317,82.26576578186359 76.90884718496818,82.58045519873849 77.41554959781934,82.97381657519145 77.87399463821203,83.3147294135124 78.5013404826168,83.3147294135124 79.12868632702157,83.26228130600066 79.75603217154276,83.34095346435788 80.3109919570852,83.4196256052528 80.86595174262766,83.10493693663739 81.39678284176625,82.79024798737373 81.90348525473382,82.50178287079325 82.45844504027627,82.18709338383633 82.89276139414869,81.74128279695287 83.20643431635108,81.24302323936718 83.59249329764862,80.84965993388323 83.97855227882974,80.48252045319532 84.4369973189896,80.11538059060695 84.84718498657458,79.69579170853831 85.35388739954215,79.40732406280586 85.90884718496818,79.19752926324145 86.36729222524446,78.80416367793805 86.68096514744684,78.27967554880888 87.09115281503182,77.80763556616148 87.64611260057427,77.54539085857687 88.12868632713798,77.09957440843573 88.5147453083191,76.60130829771515 89.02144772117026,76.12926607017289 89.52815013402142,75.84079550919705 89.96246648801025,75.49987545135082 90.30026809661649,74.92293306469219 90.75871313677635,74.50333800920635 91.31367292220239,74.26731557128369 91.72386058978736,73.95261874180869 92.0616621983936,73.48057297136984 92.49597855226602,73.13965063344222 93.00268096511718,72.82495279840077 93.55764075065963,72.56270438813954 94.11260053620208,72.4315801099292 94.69168900803197,72.2217811634182 95.22252010717057,71.85463270693435 95.68096514744684,71.43503400319605 96.187667560298,71.01543480055989 96.718498659553,70.72696005934267 97.24932975880802,70.49093509561499 97.78016085794661,70.15000986942323 98.33512064348906,69.9402095664409 98.86595174262766,69.78285925736418 99.32439678290393,69.41570826337556 99.75871313665994,69.0223317744676 100.24128686322365,68.7076302675996 100.77211796247866,68.44537879744894 101.32707774802111,68.10445159490337 101.80965147458483,67.78974926943192 102.19571045588236,67.31769525495474 102.60589812335093,66.81941533237114 103.04021447733976,66.42603594908724 103.45040214492474,66.00643079017755 103.8605898123933,65.56059976210236 104.24664879357442,65.11476817072253 104.58445040218066,64.61648513728869 104.84986595180817,64.0657504395349 105.09115281514823,63.515014882199466 105.52546916890424,63.25275955276447 105.83914209122304,62.85937619314063 106.10455764073413,62.3610899746418 106.36997319036163,61.810351756517775 106.68364611268044,61.25961267875391 106.90080428961664,60.60396979862708 107.1420911528403,59.97455148753943 107.38337801618036,59.39758371587959 107.62466487940401,58.846840871934546 107.9383378016064,58.32232307837694 108.30026809650008,57.7978045050404 108.5174262735527,57.247059163753875 108.80697050946765,56.670086931757396 109.14477211807389,56.171791972068604 109.38605898118112,55.64727020153077 109.5790884719463,55.07029535327456 109.74798927619122,54.44086716984748 110.08579088468105,53.83766410694807 110.44772117969114,53.23446001269622 110.73726541560609,52.683707547636004 110.97855227882974,52.15918059105752 111.14745308319107,51.608426447288366 111.43699731910601,51.11012433824362 111.7506702413084,50.61182152523543 112.04021447733976,50.113518008438405 112.45040214492474,49.66766689677024 112.78820375341456,49.14313545569894 113.1260053620208,48.61860323467408 113.58445040218066,48.04161689072498 114.04289544245694,47.43840288571664 114.5013404826168,46.835187849152135 114.95978552277666,46.28442539324169 115.41823056305293,45.733662077371264 115.94906166230794,45.20912478651735 116.50402144785039,44.60590593778761 117.05898123339284,43.976459082769 117.6139410189353,43.47814619258861 118.14477211807389,42.95360554763465 118.74798927619122,42.429064122756245 119.3753351207124,41.90452191772056 120.05093833780847,41.45866043015849 120.67828418232966,40.96034398296615 121.35388739942573,40.4357995937462 122.00536193035077,39.85879986468353 122.68096514756326,39.41293579112971 123.45308311004192,39.04575318968273 124.15281501342542,38.65234283544123 124.90080428961664,38.20647723678849 125.60053619311657,37.786838511383394 126.30026809650008,37.3671992867603 126.92761394102126,36.97378706015297 126.75871313689277,36.5803743947763 125.84182305634022,36.711511998670176 124.87667560321279,36.86887705899426 123.8632707776269,37.05246954062022 122.87399463809561,37.26228940254077 121.90884718496818,37.55079150898382 120.99195710464846,37.91797566675814 120.31635388743598,38.232704640569864 119.61662198393606,38.494978570815874 118.96514745312743,38.7047975747264 118.2654155496275,38.862161745666526 117.56568364612758,39.07198053106549 116.84182305634022,39.255571865913225 116.23860589810647,39.41293579112971 115.63538873998914,39.544072341843275 115.00804289546795,39.72766343096737 114.38069705106318,39.91125442448538 113.80160857911687,40.068618057179265 113.1260053620208,40.252208873222116 112.47453083109576,40.4357995937462 111.84718498669099,40.6193902187224 111.19571045576595,40.80298074809252 110.59249329764862,40.96034398296615 109.94101876672357,41.14393433489022 109.33780160860624,41.35375176297384 108.68632707779761,41.51111475212383 108.08310991956387,41.64225052270922 107.4557640751591,41.82584051968297 106.75603217165917,41.82584051968297 106.03217158175539,41.69470481737517 105.4048257372342,41.61602337253862 104.75335120654199,41.74715910409577 104.15013404830825,41.799613383132964 103.49865951749962,41.93074904649984 102.87131367297843,42.114338893356035 102.2198391421698,42.324155744194286 101.66487935662735,42.48151830030838 101.0616621983936,42.691334932722384 100.45844504027627,42.87492438365007 99.85522788204253,43.03228669415694 99.32439678290393,43.21587596763857 98.79356568376534,43.39946514554322 98.28686327091418,43.63550823397236 97.78016085794661,43.89777814690024 97.20107238611672,44.08136696991278 96.67024128686171,44.31740960199386 96.13941018772312,44.579679007903906 95.63270777475554,44.81572130648419 95.1260053620208,44.999309651815565 94.5951742627658,45.28780542986351 94.06434316351078,45.5500741142605 93.55764075065963,45.78611576350522 93.19571045588236,45.94347677528276 92.906166219851,46.07461089809658 92.56836461136118,46.23197178114788" stroke="#4dd2ff" stroke-linecap="round" stroke-linejoin="round" stroke-width="0.5"><title>2024-05-21 10.0km</title><desc>9223370320557594807</desc></polyline><polyline fill="none" points="31.658928571501747,136.75523428356973 31.46607142861467,136.78143763681874 30.74285714281723,137.33170760411303 30.308928571408615,137.96058651481871 29.826785714365542,138.48465141654015 28.91071428579744,138.5108546411211 28.45267857145518,138.8252931846946 28.283928571501747,139.2969504741195 27.584821428521536,139.5851851736079 27.150892857229337,139.92582587813376 26.64464285725262,140.52849708739086 25.800892857136205,141.05255817086436 25.198214285774156,141.62902446262888 24.764285714249127,142.59853382708388 24.016964285750873,143.54183767613722 23.65535714291036,143.90867738015368 23.31785714288708,144.27551670229877 22.425892857136205,144.69476117449813 21.654464285820723,145.45464050921146 20.545535714365542,146.52894987698528 20.135714285774156,146.89578647215967 19.14732142863795,148.10110402561259 18.71339285711292,148.72996372170746 18.52053571434226,149.2540126114909 18.03839285718277,150.06628685095347 17.65267857152503,150.38071508629946 17.21875,150.64273840154056 16.92946428572759,151.16678444770514 16.56785714288708,152.26727860892424 16.25446428579744,152.55550270248204 15.603571428568102,153.42017356926226 15.26607142854482,154.36344845953863 15.000892857089639,155.07090297096875 14.783928571501747,155.56874047982274 14.446428571362048,155.85696187414578 14.27767857152503,156.19758685454144 14.133035714388825,156.80023024443653 13.84375,157.84830325143412 13.602678571594879,158.50334729856695 13.337500000023283,158.89637314266292 13.337500000023283,159.63002021276043 13.096428571501747,160.65188323051552 13.072321428684518,161.07110822715913 13.16875000006985,161.77854927870794 13.096428571501747,162.7480032290623 13.048214285867289,163.5602463783871 13.0,164.60829929015017 13.120535714318976,165.05372083425755 13.241071428637952,166.04936695712968 13.313392857206054,166.75679802009836 13.578571428661235,167.70003722963156 14.036607142887078,169.0886903628707 14.615178571548313,170.1629277143511 15.217857142910361,171.13235861252178 15.458928571548313,171.39436650590505 16.42321428586729,172.154188295739 17.266964285750873,172.7830050905759 17.725000000093132,173.20221566420514 18.978571428684518,173.33321886623162 20.30446428572759,173.4642220196256 21.220535714412108,172.99261043968727 21.726785714388825,172.75680441319128 22.546428571571596,172.154188295739 22.81160714291036,171.8397794777993 23.800000000046566,170.84414970496437 24.836607142933644,169.8223162255308 25.246428571408615,169.5603071640653 25.873214285704307,169.48170440772083 26.18660714291036,169.1148913128418 26.69285714288708,168.5384699642018 27.102678571478464,168.0668517963204 27.584821428521536,167.80484143045032 27.946428571478464,167.54283086990472 28.259821428568102,167.20221685021534 28.958928571431898,166.23277514681104 29.77857142861467,165.8397574806877 30.501785714412108,164.8179094986408 31.44196428579744,164.37248765662662 31.82767857145518,163.8222598984139 32.21339285722934,163.45544091588818 32.64732142863795,163.193427123304 33.491071428521536,162.7480032290623 34.02142857154831,162.5121903513209 34.86517857154831,162.14537000580458 35.44375000009313,161.64754178369185 35.78125,161.3069220687321 36.383928571478464,160.8876973525039 36.938392857206054,160.67808480741223 37.63750000006985,160.28506094950717 38.2401785714319,160.0230448008515 39.20446428575087,159.60381855789456 39.879464285681024,159.02738166000927 41.157142857206054,158.2675315818633 41.71160714281723,158.0579174789309 42.02500000002328,157.6124870965141 42.89285714284051,156.59061526917503 43.49553571443539,155.93556766808615 44.48392857145518,154.8612869674398 44.797321428661235,154.25864026305499 45.11071428575087,153.55118412154843 45.44821428565774,153.39397145292605 46.19553571427241,152.31968300705194 46.48482142854482,151.6384252232092 47.063392857206054,150.17109629392507 47.81071428570431,148.59895137758576 48.07589285715949,148.23211655477644 48.63035714288708,147.07920462661423 49.32946428575087,145.87388357889722 49.47410714288708,145.48084321571514 49.78749999997672,144.5899501031672 50.41428571427241,143.3846205433074 50.77589285711292,142.78195421770215 51.089285714318976,141.73383641437977 51.54732142854482,140.9477460165217 52.15000000002328,140.13545076348237 52.87321428570431,139.06112190833664 53.258928571478464,138.48465141654015 54.05446428572759,137.46272413639235 54.48839285725262,136.86004768469138 55.13928571424913,136.15255662205163 55.40446428570431,135.81191227055388 56.07946428575087,135.1044191037654 56.730357142863795,134.4493315719301 57.62232142861467,133.55841057439102 58.10446428565774,133.06054197714548 59.261607142863795,132.06480267256848 59.62321428570431,131.8027655458427 60.44285714288708,131.22628318125498 61.62410714291036,130.3877616946993 62.8535714285681,129.39201483799843 63.745535714318976,128.89414035450318 64.75803571427241,128.29144924914 66.03571428568102,127.45292077914928 66.87946428568102,127.03365579585079 66.90357142861467,126.6405944210419 65.96339285722934,126.66679852630477 65.02321428561118,126.79781902360264 63.5526785714319,127.1384720884962 62.51607142854482,127.40051268355455 61.76874999993015,127.61014501928003 60.780357142793946,127.89838927728124 59.38214285718277,128.47487708603148 58.90000000002328,128.57969294991926 57.7910714285681,128.99895609376836 56.22410714288708,129.39201483799843 54.753571428591385,129.75886927044485 53.62053571420256,130.0733156228962 53.16249999997672,130.20433485356625 52.75267857150175,130.36155786609743 51.8125,130.51878080848837 50.8964285714319,130.80702268739697 50.34196428570431,130.99044921484892 49.956250000046566,131.1214681045676 49.401785714318976,131.22628318125498 48.77500000002328,131.48832073662197 48.34107142861467,131.5407282243541 47.15982142847497,131.85517298677587 46.75,131.85517298677587 45.61696428572759,131.6193394412112 44.67678571434226,131.7241543699056 43.92946428572759,131.82896926731337 42.9410714287078,132.1172100745316 42.29017857136205,132.27443223365117 41.83214285725262,132.40545064600883 41.01250000006985,132.5888763414696 40.55446428572759,132.71989463691716 40.09642857138533,132.90332016869797 39.63839285715949,133.03433834732277 38.62589285732247,133.6370213412447 37.179464285844006,134.0824820221751 36.26339285715949,134.4493315719301 35.44375000009313,134.7899772404635 34.45535714295693,135.2354364640778 32.936607142793946,135.9691327814071 32.30982142849825,136.30977698095376 31.24910714291036,136.86004768469138 30.429464285844006,137.67235048668226 30.091964285820723,137.9867897783697 29.46517857152503,138.35363526412402 28.621428571408615,138.5632610845205 28.332142857136205,139.3493568006379 27.44017857138533,139.68999773313408 26.548214285750873,140.52849708739086 25.318749999976717,141.3669944468711 24.450892857275903,143.04398318153108 23.31785714288708,144.17070550637436 22.57053571427241,144.4327334378322 22.136607142863795,144.9305859708693 21.702678571571596,145.1926133374218 20.78660714288708,146.26692350380472 19.557142857229337,147.26262268560822 19.14732142863795,147.9438889262965 18.689285714412108,148.8871784704097 18.014285714365542,149.90907262812834 17.48392857145518,150.48552443584776 16.833035714458674,151.50741395997466 16.447321428568102,152.3982895897352 15.82053571427241,153.1319501826365 15.579464285750873,153.6821946252894 15.579464285750873,153.83940716541838 15.651785714318976,153.81320508022327 15.67589285725262,153.7608009040996 15.70000000006985,153.6821946252894 15.67589285725262,153.5773862261849 15.772321428637952,153.4725777960266 15.483035714249127,153.86560924863443 15.290178571478464,154.38965050384286 15.145535714342259,155.38532674257294 14.663392857182771,155.83075993895181 14.253571428591385,156.43340395591804 14.036607142887078,156.72162464333815 13.867857142933644,157.76969788398128 13.699107142863795,158.2937333358568 13.409821428591385,158.71296113662538 13.313392857206054,159.57761690122425 13.385714285774156,159.9182382868603 13.16875000006985,160.46847213772708 13.0,161.1497128585761 13.16875000006985,161.51653423995594 13.192857143003494,161.9619596899429 13.048214285867289,163.14102434142842 13.072321428684518,164.26768243557308 13.120535714318976,165.34193447476719 13.241071428637952,166.3375797838089 13.313392857206054,166.59959123990848 13.55446428572759,167.22841794026317 13.675000000046566,167.6214340585284 13.964285714318976,168.66947489895392 14.639285714365542,170.0319233344926 15.12142857152503,170.94895297137555 15.892857142840512,171.60397268043016 16.302678571548313,172.12798757161363 16.712500000023283,172.41619542986155 17.676785714225844,173.1236137195956 18.424107142956927,173.33321886623162 19.07500000006985,173.3594195008627 20.328571428661235,173.43802139288164 20.714285714318976,173.33321886623162 21.365178571548313,172.99261043968727 21.750892857206054,172.7830050905759 22.787500000093132,171.99698392179562 23.221428571501747,171.4991696086945 23.84821428579744,170.92275215763948 24.28214285708964,170.47733802738367 24.71607142861467,169.979521568981 26.09017857152503,169.29829790795338 26.379464285681024,169.03628845713683 26.76517857145518,168.43366598142893 27.126785714412108,168.01444973872276 27.89821428572759,167.46422766384785 28.211607142933644,167.25461902850657 28.790178571478464,166.44238438960747 29.416964285774156,166.0755681329465 30.18839285708964,165.26333077796153 30.501785714412108,164.8179094986408 31.24910714291036,164.4510915519786 31.80357142863795,163.97946791694267 32.18928571429569,163.48164228440146 32.816071428591385,163.0362187542778 34.214285714318976,162.43358602371882 35.22678571427241,161.9619596899429 35.73303571424913,161.5427357525623 36.48035714298021,160.94010046930634 37.42053571424913,160.46847213772708 38.02321428572759,160.1278512836434 38.81875000009313,159.94443991823937 40.120535714318976,158.94877655542223 40.57857142854482,158.79156629374484 40.94017857150175,158.42474207721534 41.22946428577416,158.18892630786286 41.63928571424913,158.03171570730046 42.24196428572759,157.29806531127542 43.375,156.11898111907067 44.12232142861467,155.35912477233796 44.72500000009313,154.44205458648503 44.9901785714319,153.78700299316552 45.27946428570431,153.42017356926226 45.80982142861467,152.9747373269929 46.12321428570431,152.42449178005336 46.38839285715949,151.76943643772393 46.79821428575087,151.08817759042722 47.13571428565774,150.11869157629553 47.59375,148.96578581852373 47.93125000002328,148.3631290353078 48.41339285718277,147.5508508712228 48.991964285844006,146.4765446180245 49.25714285718277,145.97869426838588 49.66696428577416,144.4851390007243 50.0526785714319,143.90867738015368 50.63125000009313,142.91296872394742 50.94464285718277,142.1792868616467 51.61964285711292,140.92154297302477 52.535714285681024,139.63759145728545 52.969642857206054,138.9825123513292 53.813392857206054,137.80336689235992 54.63303571427241,136.72903092842898 55.40446428570431,135.838115693914 56.03125,135.1044191037654 57.284821428591385,133.9252606696682 58.05625000002328,133.24396733165486 59.06874999997672,132.30063592005172 59.71964285708964,131.82896926731337 60.563392857206054,131.25248694553738 61.527678571408615,130.4925769896654 62.34732142847497,129.8898886180832 63.09464285708964,129.28719921573065 64.05892857140861,128.71071273591951 65.2401785714319,128.08181731868535 66.2285714285681,127.4267167323269 66.97589285718277,127.0074517178582 66.78303571429569,126.58818620454986 66.37321428582072,126.5357779803453 65.86696428572759,126.61439031377085 65.21607142861467,126.77161492806044 64.80625000002328,126.8764312985586 63.28750000009313,127.2432883499132 62.540178571478464,127.47912482407992 61.04553571424913,127.95079729889403 59.984821428661235,128.23904127825517 59.50267857138533,128.47487708603148 58.51428571424913,128.9203442922735 57.47767857136205,129.18238356229267 56.97142857138533,129.31340312416432 55.741964285611175,129.57544210195192 54.39196428575087,129.8898886180832 53.69285714277066,130.02090791691444" stroke="#4dd2ff" stroke-linecap="round" stroke-linejoin="round" stroke-width="0.5"><title>2024-05-16 12.3km</title><desc>9223370320990891307</desc></polyline><polyline fill="none" points="79.46648793562781,173.3016208668123 80.16621983912773,173.43274111131905 81.03485254698899,173.03938023169758 81.32439678290393,172.88203575706575 82.0482573726913,172.4100019124162 82.45844504027627,172.1215364742966 82.91689008043613,171.51838070550002 83.88203753344715,170.6529814977839 84.21983914205339,170.3120660757122 84.99195710453205,169.70890721460455 86.15013404819183,169.15819604991702 86.99463806976564,168.1354444641329 87.86327077739406,167.47983291442506 88.44235924934037,166.7193219907931 88.90080428950023,166.24727990361862 89.43163538875524,165.95880942835356 89.9383378016064,165.59166484614252 90.13136729213875,165.11962125063292 90.44504021457396,164.8049251694756 91.28954423591495,164.4115546734829 91.69973190349992,163.96573424787493 92.27882037532981,163.36256454032264 93.24396782845724,162.7856186380086 94.16085790889338,162.41847075446276 94.76407506701071,162.18244691341533 95.6568364611594,161.36947469678125 96.47721179632936,160.81875051825773 97.22520107240416,160.45160058836336 97.90080428950023,160.08445027648122 99.10723860596772,159.55994916829513 99.7345844503725,159.0092221656232 100.6273458446376,158.58962006296497 101.3753351207124,158.06511673290515 101.906166219851,157.48816216937848 102.96782841824461,156.43915145515348 103.42627345852088,156.0195462962438 104.15013404830825,155.20655988092767 105.01876675605308,153.84283652633894 105.52546916890424,153.34455167816486 105.74262734584045,152.87249169920688 106.24932975880802,151.9021442034864 106.49061662203167,151.37763093254762 107.0455764074577,150.14502167658065 107.62466487940401,148.91240811441094 107.76943699736148,148.57147168798838 108.17962466494646,147.96827566501452 108.44504021457396,147.33885262836702 108.73458445048891,146.7881065502297 109.55495978554245,145.4505767810333 109.6273458446376,145.0047323977924 109.69973190361634,144.50643506739289 109.7962466487661,144.2441730319115 110.1099195710849,143.7458746272314 110.54423592495732,143.09021775930887 110.71313672931865,142.80172835142002 110.97855227882974,142.04116423608502 111.36461126012728,141.14946628859616 112.281501340447,139.8643682229449 112.93297587137204,138.9202115588414 113.07774798944592,138.63171874074033 113.72922252013814,137.87114563491195 114.26005361950956,137.18925111132558 114.83914209122304,136.40244810003787 115.75603217165917,135.32714781313553 115.94906166230794,135.06487895321334 116.38337801618036,134.69770222174702 116.76943699736148,134.2780712034728 117.30026809650008,133.75353172858013 118.02412868640386,133.07162924509612 118.60321715823375,132.52086089228396 119.4235924934037,131.8127288891992 119.6890080429148,131.6029117263388 120.79892761388328,130.84232346486533 121.42627345840447,130.34400612837635 121.71581769443583,130.10796082852175 122.89812332449947,129.29491469767527 124.00804289546795,128.66545834150747 124.5630026810104,128.35072974211653 125.6729222520953,127.64258936676197 126.97587131371256,126.85576505985227 126.83109919575509,126.59348990084254 126.27613941032905,126.5410348456353 125.93833780172281,126.61971742552123 125.02144772128668,126.8295375527232 123.8150134049356,127.03935755512794 123.28418230568059,127.22294995488483 122.46380697051063,127.43276972320746 121.98123324394692,127.61636191807338 120.46112600539345,127.93109117282438 119.27882037544623,128.35072974211653 117.71045576408505,129.00641400722088 116.1420911528403,129.39982398119173 114.52546916890424,129.79323351636413 113.1260053620208,130.18664261270897 111.58176943694707,130.63250572478864 110.66487935662735,130.84232346486533 110.35120643430855,130.999686687981 109.45844504027627,131.23573139109067 109.12064343167003,131.41932160648867 108.80697050946765,131.57668457223917 108.39678284188267,131.57668457223917 107.43163538887165,131.8127288891992 106.8766756033292,131.89141029308666 105.4530831099255,131.62913887860486 104.97050938336179,131.7078203234414 104.60857908858452,131.73404746776214 104.05361930304207,131.8127288891992 103.25737265415955,131.9700916794245 102.41286863270216,132.2848170492216 101.52010723866988,132.49463380637462 101.13404825737234,132.6519962923776 100.60321715823375,132.7306775090401 99.83109919575509,132.94049400099902 99.4691689008614,133.2027644405025 99.01072386058513,133.3601266105543 98.11796246643644,133.67485074009164 97.22520107240416,134.0682555071253 96.04289544234052,134.5141137127066 95.70509383373428,134.61902144385385 95.39142091164831,134.85506372488453 94.5951742627658,135.2222402925836 93.50938337796833,135.7467775834375 92.03753351210617,136.45490168879041 91.24128686322365,136.9007568776724 90.63806970510632,137.37283822809695 89.91420911531895,138.1858657396515 89.06970509386156,138.42190563396434 88.5147453083191,138.76285186913447 88.22520107240416,139.39229020674247 87.69436997326557,139.54964961568476 86.97050938336179,140.1528600329766 86.41554959781934,140.65116351272445 85.76407506712712,140.96588113729376 85.11260053620208,141.6739947659371 84.89544235926587,142.0936169863271 84.53351206437219,142.95908623954165 83.93029490613844,143.77210087658023 83.03753351210617,144.42775647726376 82.14477211795747,144.97850624009152 81.71045576408505,145.24076772970147 81.13136729225516,145.975098863506 80.4075067024678,146.6045243330882 79.92493297590408,147.15527069786913 79.08042895444669,148.0994053229224 78.42895442352165,149.46315087657422 77.7050938338507,150.40727932576556 76.95710455765948,151.19405110355 76.4504021446919,152.37420548070804 75.63002680963837,153.4232282799203 75.26809651474468,154.31489520706236 74.73726541548967,155.73106746008852 74.18230562994722,156.41292614737176 73.8445040214574,157.75041436063475 73.4825737264473,158.6158452090167 73.2654155496275,159.32392341527157 73.33780160860624,160.26802548018168 73.16890080436133,160.6089506050921 73.0,161.2907998667506 73.07238605897874,162.6282695918344 73.04825737257488,164.14930743252626 73.04825737257488,165.11962125063292 73.14477211795747,165.82768640716677 73.36193029489368,166.9553427976498 73.65147453080863,168.00432225165423 74.01340482570231,168.92217671623803 74.37533512059599,169.68268289294792 74.93029490613844,170.6529814977839 75.46112600539345,171.36103555286536 76.11260053620208,171.99041574267903 76.52278820378706,172.33132954358007 77.68096514744684,173.22294869672623 79.2975871313829,173.35406897042412 80.26273458451033,173.4589651543938 81.34852546919137,172.9344839230762 82.09651474526618,172.46245014853776 82.7962466487661,171.8068466365803 83.78552278818097,170.83655120403273 84.87131367297843,169.813804481877 85.18498659518082,169.57778558667633 86.02949061663821,169.31554218466044 86.6568364611594,168.52881080945372 87.38069705094676,167.79452661020332 88.27345844497904,167.06024088335107 88.58713136741426,166.53575014302623 89.52815013402142,165.95880942835356 90.10723860585131,165.40809241181705 90.51742627343629,164.8049251694756 91.62734584452119,164.2017568962474 91.77211796247866,163.88705999666126 92.71313672931865,163.15276613950846 93.53351206437219,162.73316896369215 93.91957104555331,162.6282695918344 95.31903485255316,161.84152330865618 95.97050938336179,161.13345015409868 97.00804289546795,160.68762558716116 97.5630026810104,160.32047552079894 98.21447721181903,160.03200020076474 98.84182305634022,159.87464992672903 99.87935656844638,159.03544728053384 100.19302949064877,158.82564630708657 100.96514745312743,158.45849430351518 101.906166219851,157.80286477549816 102.50938337796833,157.09478351697908 103.5951742627658,155.91464492856176 104.24664879357442,155.20655988092767 104.89812332438305,153.92151301697595 105.33243967825547,153.29210060051992 105.7667560322443,152.92494283913402 106.32171581778675,151.98082112689735 106.65951742627658,151.3251795625547 106.97319034847897,150.61708530469332 107.62466487940401,149.22711836948292 108.2520107239252,148.15185717248823 108.4691689008614,147.4962084927829 108.83109919575509,146.73565449789749 109.28954423603136,145.9488727778662 109.67560321721248,144.84737542213406 109.77211796259508,144.50643506739289 110.49597855238244,143.14267035361263 110.6890080429148,142.85418098859373 110.90616621996742,142.19852246347 111.50938337808475,141.0183340474032 112.23324396787211,139.96927436298574 112.90884718496818,138.998891377385 113.75335120654199,137.87114563491195 114.7667560322443,136.58603562632925 115.63538873998914,135.51073589903535 116.76943699736148,134.43543289383524 117.56568364612758,133.59616973399534 118.02412868640386,133.2289914737048 118.96514745312743,132.3634983477241 119.25469168904237,132.1536815126019 119.56836461124476,131.9176374237868 120.26809651474468,131.39309443873935 121.30563002685085,130.63250572478864 122.56032171589322,129.6620970533695 123.33243967837188,129.13755071398919 124.6112600537017,128.37695713617723 125.96246648789383,127.56390701505006 126.90348525485024,127.01313006161945 127.0,126.77708253264427 126.27613941032905,126.59348990084254 125.76943699736148,126.72462750473642 124.36997319047805,126.96067506889813 123.42895442363806,127.11804002386634 122.34316353895701,127.32785985461669 121.69168900814839,127.66881681338418 120.26809651474468,128.2458201466361 119.32707774813753,128.50809407688212 118.84450402157381,128.71791308079264 118.3619302950101,128.82282253587618 117.10723860596772,129.13755071398919 115.5630026810104,129.55718784790952 114.06702412874438,129.92436993055162 113.15013404830825,130.16041535325348 112.25737265415955,130.42268785988563 110.97855227882974,130.81609625415877 110.13404825748876,131.13082265367848 109.84450402157381,131.1832770263136 108.85522788204253,131.52423025819007 108.44504021457396,131.6029117263388 108.17962466494646,131.62913887860486 107.06970509386156,131.86518316037836 106.5147453083191,131.78650175067014 105.42895442363806,131.73404746776214 104.92225201067049,131.73404746776214 103.88471849868074,131.89141029308666 103.3297587132547,132.0225459272042 102.60589812335093,132.23236284041195 102.12332439678721,132.33727125026053 101.08579088479746,132.6782233665872 100.02412868628744,133.01917515337118 99.5174262735527,133.17653740532114 98.86595174262766,133.3601266105543 98.19034852553159,133.6486237400386 96.79088471841533,134.22561729111476 95.9222520107869,134.56656758210738 94.52278820367064,135.27469405677402 93.12332439690363,135.90413861855632 91.77211796247866,136.58603562632925 90.80697050946765,137.21547784816357 90.56568364612758,137.5039718245389 89.89008042903151,138.1858657396515 89.55227882030886,138.42190563396434 88.85254691692535,138.47435892239446 88.44235924934037,139.13002436922397 87.93565683648922,139.57587617699755 87.59785522788297,139.57587617699755 86.89812332438305,140.25776608719025 85.78820375329815,140.992107593338 84.87131367297843,142.19852246347 84.26809651474468,143.43115948268678 84.05093833780847,143.9294583318988 83.76139410189353,144.16549438319635 83.39946380699985,144.2441730319115 82.60321715823375,144.61133982703905 81.42091152817011,145.71283791973838 80.26273458451033,146.840558594733 79.44235924934037,147.62733832621598 78.67024128686171,148.99108570447424 77.94638069707435,150.19747322198236 77.12600536190439,150.95801975444192 76.69168900803197,152.03327239936334 75.82305630017072,153.26587505883072 75.29222520103212,154.3673461325816 74.93029490613844,155.1803344815562 74.44772117957473,156.0195462962438 74.10991957096849,157.0161077338562 74.0616621983936,157.35703600064153 73.41018766758498,158.87809656216996 73.36193029489368,159.63862438424258 73.33780160860624,160.16312537548947 73.07238605897874,160.84497549856314 73.21715817693621,161.73662367172074 73.14477211795747,163.15276613950846 73.04825737257488,164.07063322220347 73.12064343167003,164.4115546734829 73.12064343167003,164.96227324512438 73.16890080436133,165.67033871734748 73.36193029489368,166.82422014663462 73.79624664888252,168.29279105487512 74.47184986597858,169.7875801680202 74.83378016087227,170.44318743087933 75.4852546916809,171.33481135393959 76.71581769431941,172.4100019124162 77.68096514744684,173.14427650909056 79.03217158187181,173.2753968120669 79.34584450395778,173.3016208668123 80.26273458451033,173.40651706632343 81.54155495972373,172.75091530795908 82.60321715823375,172.09531233186135 82.8445040214574,171.96419159055222 82.96514745312743,171.33481135393959 83.18230562994722,171.15124190686038 83.52010723855346,170.88899967400357 84.34048257372342,170.18094467185438 84.91957104555331,169.70890721460455 85.30563002685085,169.47288824929274 86.31903485255316,168.8959523361409 86.39142091164831,168.8959523361409" stroke="#4dd2ff" stroke-linecap="round" stroke-linejoin="round" stroke-width="0.5"><title>2024-05-13 13.6km</title><desc>9223370321247039907</desc></polyline><polyline fill="none" points="171.8064297325909,165.14639810821973 170.5955138616264,155.26837219228037 171.20097179710865,134.85371518181637 168.17368212342262,130.24394084163941 161.21091586910188,125.30489155929536 155.15633651986718,125.9634317830205 150.61540200561285,129.58540125680156 147.58811233192682,144.40251812827773 147.2853833641857,164.48786373483017 151.2208599410951,171.07320303609595 163.93547657690942,172.71953632635996 168.4764110893011,170.08540276740678 171.50370076484978,153.62203238834627 172.1091586984694,135.51225397991948 169.08186902478337,128.26832179236226 158.48635516129434,124.97562140994705 150.61540200561285,128.59759169607423 147.58811233192682,137.15860054455698 147.2853833641857,145.39032414951362 147.89084129966795,160.53665543347597 148.7990282010287,168.43906849622726 152.73450477980077,172.39026971696876 165.44912141561508,172.71953632635996 170.5955138616264,165.80493238195777 171.8064297325909,148.3537408846896 172.41188766807318,135.51225397991948 169.3845979925245,127.9390518644359 164.84366348013282,125.30489155929536 153.64269168116152,126.62197190872394 149.7072151042521,130.24394084163941 147.58811233192682,146.0488613739144 146.98265439644456,151.31715562962927 146.98265439644456,162.84152737352997 148.49629923328757,167.4512676380109 157.27543929219246,174.36586899938993 167.26549522019923,171.73173642647453 169.99005592800677,167.4512676380109 172.41188766807318,154.60983634390868 172.71461663395166,138.80494649498723 171.50370076484978,132.21955900639296 166.9627662524581,125.9634317830205 159.69727103225887,124.31708103860728 150.61540200561285,128.59759169607423 147.58811233192682,133.2073677566368 148.1935702674091,145.39032414951362 147.58811233192682,164.8171309332829 155.15633651986718,173.0488029094413 165.1463924460113,173.0488029094413 170.5955138616264,167.4512676380109 171.8064297325909,154.93910428020172 172.71461663395166,134.85371518181637 167.26549522019923,126.29270185763016 160.0,124.31708103860728 151.82631787657738,128.26832179236226 148.1935702674091,134.85371518181637 148.49629923328757,154.28056838340126 149.7072151042521,168.76833539968356 155.15633651986718,173.0488029094413 165.44912141561508,172.71953632635996 170.89824283123016,167.4512676380109 172.41188766807318,153.29276435356587 173.32007457129657,144.07324940571561 170.89824283123016,129.91467106202617 165.75185038149357,125.30489155929536 158.48635516129434,124.31708103860728 150.61540200561285,129.91467106202617 148.1935702674091,141.76836765604094 147.89084129966795,162.51226002699696 150.00994407199323,169.42686913372017 155.7617944534868,173.3780694680754 166.35730831697583,172.71953632635996 170.29278489388525,169.75613596313633 173.0173456016928,157.24397914577276 173.0173456016928,152.63422821066342 173.32007457129657,136.17079267953523 169.3845979925245,127.60978191299364 160.30272896774113,124.64635123615153 151.52358890883625,128.59759169607423 148.1935702674091,135.84152334183455 147.58811233192682,154.93910428020172 147.89084129966795,166.46346655813977 153.3399627134204,172.71953632635996 160.90818690136075,174.36586899938993 167.56822418794036,171.73173642647453 172.41188766807318,162.51226002699696 172.71461663395166,141.76836765604094 170.89824283123016,130.24394084163941 163.33001864142716,124.97562140994705 154.85360755212605,125.63416168326512 148.1935702674091,133.86590680014342 147.58811233192682,153.95130039798096 147.2853833641857,164.15859651216306 148.7990282010287,168.76833539968356 159.69727103225887,174.03660251409747 166.9627662524581,172.061003083596 172.1091586984694,159.87812037277035 173.0173456016928,140.78056082432158 169.68732696026564,129.58540125680156 159.69727103225887,124.64635123615153 153.0372337475419,126.95124193420634 148.1935702674091,135.84152334183455 148.1935702674091,155.59764007851481 148.49629923328757,167.4512676380109 152.73450477980077,172.71953632635996 161.81637380458415,174.36586899938993 169.68732696026564,170.41466954885982 172.71461663395166,157.57324688485824 173.32007457129657,137.15860054455698 170.29278489388525,128.926861573942 162.7245607059449,124.97562140994705 153.94542064890265,126.62197190872394 148.7990282010287,132.21955900639296 147.89084129966795,147.69520400487818 147.58811233192682,166.1341994830873 151.2208599410951,171.73173642647453 157.88089722767472,174.03660251409747 168.77914005704224,171.73173642647453 173.0173456016928,163.82932926365174 173.0173456016928,145.06105550006032 173.0173456016928,134.19517628569156 163.93547657690942,124.97562140994705 155.4590654876083,125.9634317830205 151.52358890883625,128.926861573942 148.49629923328757,145.06105550006032 148.7990282010287,163.5000619913917 151.82631787657738,171.73173642647453 160.30272896774113,174.36586899938993 168.77914005704224,172.061003083596 173.0173456016928,163.82932926365174 173.62280353717506,143.08544308901764 173.62280353717506,138.80494649498723 172.71461663395166,131.89028937392868 169.08186902478337,128.26832179236226 158.78908413089812,124.64635123615153 150.00994407199323,130.24394084163941 147.58811233192682,143.74398065754212 147.58811233192682,162.84152737352997 151.2208599410951,171.40246974327601 157.5781682599336,174.36586899938993 166.9627662524581,173.70733600342646 173.0173456016928,164.48786373483017 173.32007457129657,142.75617426726967 174.22826147265732,135.1829845935572 166.9627662524581,125.9634317830205 157.5781682599336,124.64635123615153 149.7072151042521,130.9024803286884 148.7990282010287,147.03666702634655 148.49629923328757,166.46346655813977 150.61540200561285,171.07320303609595 157.27543929219246,175.0244018980302 164.84366348013282,174.69513546070084 170.5955138616264,170.41466954885982 173.62280353717506,158.23178228992037 173.9255325049162,135.51225397991948 170.29278489388525,127.60978191299364 162.4218317400664,124.64635123615153 153.64269168116152,127.28051193570718 148.7990282010287,136.50006199255586 149.10175716876984,154.93910428020172 149.10175716876984,166.1341994830873 154.85360755212605,173.3780694680754 163.93547657690942,175.35366830881685 170.29278489388525,172.061003083596 173.9255325049162,163.5000619913917 173.62280353717506,144.07324940571561 171.50370076484978,129.2561314275954 163.93547657690942,124.31708103860728 153.0372337475419,126.95124193420634 147.89084129966795,140.12202281248756 148.49629923328757,157.90251459903084 150.61540200561285,169.42686913372017 157.27543929219246,175.0244018980302 164.84366348013282,175.68293469655327 172.41188766807318,169.75613596313633 174.22826147265732,154.60983634390868 173.9255325049162,134.85371518181637 170.29278489388525,127.60978191299364 161.81637380458415,124.64635123615153 151.2208599410951,129.58540125680156 148.7990282010287,146.37812994979322 149.4044861383736,166.1341994830873 154.55087858438492,173.70733600342646 164.23820554465055,176.01220105960965 172.41188766807318,170.08540276740678 175.13644837588072,160.86592292762361 174.53099044039845,146.70739850006066 173.32007457129657,131.23175003496 166.35730831697583,124.31708103860728 159.0918130967766,124.64635123615153 149.7072151042521,132.21955900639296 148.7990282010287,137.15860054455698 148.1935702674091,152.96349629480392 148.49629923328757,166.79273360897787 154.85360755212605,174.03660251409747 161.513644836843,175.35366830881685 170.5955138616264,171.07320303609595 173.9255325049162,164.48786373483017 174.22826147265732,146.37812994979322 172.41188766807318,131.56101971655153 167.26549522019923,125.9634317830205 160.90818690136075,123.98781081545167 150.00994407199323,129.2561314275954 147.58811233192682,141.76836765604094 146.67992543056607,160.86592292762361 147.58811233192682,168.43906849622726 150.61540200561285,172.71953632635996 157.27543929219246,176.01220105960965 166.35730831697583,174.69513546070084 172.1091586984694,167.12200063536875 172.71461663395166,147.03666702634655 173.32007457129657,134.85371518181637 168.4764110893011,126.62197190872394 161.81637380458415,123.65854056854732 150.91813097521663,127.9390518644359 146.3771964609623,142.42690542154014 146.3771964609623,161.19519039685838 148.49629923328757,170.08540276740678 157.88089722767472,176.3414673972875 166.9627662524581,174.36586899938993 173.0173456016928,163.82932926365174 173.32007457129657,151.31715562962927 173.0173456016928,137.48786978423595 170.89824283123016,129.58540125680156 165.44912141561508,125.30489155929536 160.0,123.98781081545167 148.49629923328757,129.91467106202617 145.77173852734268,139.13421561103314 146.0744674950838,149.01227766717784 146.3771964609623,166.1341994830873 150.91813097521663,173.70733600342646 161.81637380458415,176.67073371144943 168.77914005704224,172.71953632635996 173.0173456016928,164.15859651216306 173.32007457129657,145.06105550006032 172.71461663395166,132.54882861394435 168.4764110893011,126.29270185763016 164.23820554465055,123.65854056854732 156.36725238896906,123.3292702967301 147.58811233192682,132.21955900639296 146.3771964609623,144.73178682662547 146.3771964609623,163.82932926365174 153.0372337475419,174.03660251409747 162.7245607059449,176.3414673972875 170.89824283123016,170.08540276740678 173.32007457129657,155.59764007851481 173.9255325049162,139.79275377001613 170.89824283123016,128.26832179236226 166.66003728471696,124.97562140994705 158.78908413089812,124.31708103860728 151.82631787657738,126.62197190872394 146.3771964609623,135.84152334183455 146.98265439644456,156.58544359216467 150.00994407199323,171.73173642647453 160.60545793361962,176.3414673972875 169.68732696026564,172.71953632635996 173.32007457129657,158.56104995612986 173.62280353717506,145.39032414951362 173.0173456016928,132.8780981975142 168.17368212342262,125.9634317830205 161.513644836843,123.0 150.61540200561285,128.26832179236226 146.0744674950838,137.48786978423595 144.86355162411928,155.26837219228037 145.77173852734268,168.10980156762525 152.43177581205964,175.0244018980302 166.0545793492347,176.01220105960965 172.1091586984694,171.07320303609595 173.9255325049162,163.5000619913917 173.9255325049162,153.29276435356587 173.9255325049162,137.48786978423595 170.89824283123016,127.9390518644359 161.81637380458415,123.65854056854732 152.73450477980077,126.62197190872394 147.58811233192682,144.07324940571561 146.98265439644456,160.86592292762361 148.49629923328757,170.74393630516715 153.94542064890265,175.35366830881685 165.44912141561508,175.68293469655327 171.20097179710865,171.40246974327601 173.32007457129657,157.57324688485824 173.32007457129657,142.42690542154014 173.32007457129657,135.51225397991948 165.75185038149357,125.9634317830205 158.18362619541585,123.98781081545167 147.58811233192682,132.54882861394435 146.67992543056607,145.06105550006032 146.67992543056607,154.60983634390868 146.3771964609623,167.12200063536875 151.82631787657738,174.36586899938993 161.513644836843,177.0 168.77914005704224,174.03660251409747 172.41188766807318,167.12200063536875 173.62280353717506,147.36593552841805 173.9255325049162,142.75617426726967 170.29278489388525,129.2561314275954 158.48635516129434,124.97562140994705 151.2208599410951,128.59759169607423 147.89084129966795,132.8780981975142 148.1935702674091,139.79275377001613 146.98265439644456,157.24397914577276 146.98265439644456,165.47566525707953 149.7072151042521,172.39026971696876 155.15633651986718,176.01220105960965 165.1463924460113,176.01220105960965 171.20097179710865,170.74393630516715 173.32007457129657,154.93910428020172 173.62280353717506,142.0976365513634 172.71461663395166,133.53663729061373 162.7245607059449,125.9634317830205 154.85360755212605,126.95124193420634 149.7072151042521,132.21955900639296 147.2853833641857,138.80494649498723 146.67992543056607,157.24397914577276 146.98265439644456,164.8171309332829 149.10175716876984,171.73173642647453 155.7617944534868,176.01220105960965 165.44912141561508,176.01220105960965 171.8064297325909,168.76833539968356 173.62280353717506,149.01227766717784 173.9255325049162,136.8293312806636 169.99005592800677,130.24394084163941 161.21091586910188,125.9634317830205 154.2481496166438,127.28051193570718 147.58811233192682,135.51225397991948 146.98265439644456,137.48786978423595" stroke="#4dd2ff" stroke-linecap="round" stroke-linejoin="round" stroke-width="0.5"><title>2024-05-10 12.2km</title><desc>9223370321510435007</desc></polyline><polyline fill="none" points="19.568872987409122,263.3618256680202 20.124329159152694,263.3618256680202 21.2110912342323,263.07310302596306 22.273703041137196,262.39066675206413 23.022361359559,261.65573390590725 24.15742397122085,260.6058271875081 25.24418604641687,259.6609084729862 26.137745974818245,259.2934394014301 26.862254024948925,258.3485171762877 28.142218246823177,257.3773444776016 29.035778175108135,256.3799210888683 30.243291592109017,255.51373533470905 30.79874776385259,254.72629189674626 31.933810375630856,254.07008769080858 32.77906976733357,253.15139975445345 34.276386404177174,252.49519262264948 35.67710196773987,251.60274896697956 36.98121645790525,250.71030305622844 37.584973166231066,250.36907314156997 38.961538461386226,249.87035190395545 40.14490160997957,248.92540446986095 41.47316636843607,248.13794634360238 41.93202146678232,247.69171929269214 43.09123434696812,246.5630248237576 44.08139534876682,245.48682441265555 44.854203935479745,244.35812289710157 45.43381037551444,243.41316071458277 45.796064400696196,243.28191576703102 46.4722719140118,241.94321451586438 47.05187835416291,240.55200979931396 47.679785330896266,239.1870489017747 48.45259391760919,237.87458152486943 49.17710196773987,236.45711127866525 49.87745974957943,235.09213455283316 50.21556350623723,233.93715012507164 51.06082289793994,232.4934142776474 51.64042933797464,231.36467123081093 51.978533094748855,230.5509240051033 52.558139534899965,229.81592489901232 53.37924865831155,228.6084230459237 54.39355992840137,227.24341597847524 55.48032200348098,225.93090420609224 56.61538461537566,224.69713869108818 57.8228980320273,223.59462117872317 58.9821109122131,222.38709804811515 60.310375670786016,221.3895758249855 61.56618962425273,220.5233042392647 62.91860465100035,219.52577674988424 64.343470483087,218.63324976485455 65.69588550983462,217.74072052323027 66.87924865819514,217.0581966394384 67.0,216.82193806447322 66.78264758491423,216.63818128578714 66.13059033977333,216.6644322600332 64.65742397133727,216.9531928478391 63.18425760266837,217.21570226817857 61.66279069765005,217.68821873285924 60.093023255700245,218.08198197028833 58.5715563504491,218.50199560605688 57.146690518711694,219.1057643320819 55.62522361346055,219.55202750931494 54.1762075133156,219.94578866788652 52.65474060806446,220.41830147837754 51.084973166231066,220.81206167067285 49.611806797795,221.17957078723703 48.16279069753364,221.59958073776215 47.10017889086157,221.78333493394894 45.77191413228866,221.65208194643492 44.661001788801514,221.67833254783181 43.09123434696812,222.0195901885454 41.956171735189855,222.3083463961084 40.45885509834625,222.8071065619588 39.033989266492426,223.33211650163867 37.802325581316836,223.80462477987749 36.40161001775414,224.38213403886766 35.000894454307854,225.090894111112 33.455277280765586,225.85215334460372 32.0545617173193,226.48215974480263 30.750447227153927,227.24341597847524 29.92933810374234,228.16217131604208 28.939177101943642,228.42467240194674 28.625223613460548,228.58217295983923 28.456171735189855,229.10717431193916 28.262969588395208,229.36967469530646 27.900715563446283,229.50092481373576 27.49016100168228,229.5534248474578 26.98300536663737,230.1571746742993 25.872093023150228,230.91842298445408 25.026833631447516,231.99466779490467 24.73703041137196,232.72966236574575 24.133273703046143,233.46465540662757 22.829159212764353,234.3571448995499 21.64579606440384,235.35463048680685 21.138640429242514,236.01086946800933 19.955277280765586,237.0345998435805 18.940966010675766,238.294571616163 18.50626118062064,239.42329251157935 17.78175313048996,240.2370192911767 17.008944543777034,241.05074419578887 16.356887298752554,242.46819600346498 15.53577817522455,243.46565867989557 15.149373881868087,244.85685191862285 14.44901610002853,245.80181023827754 14.062611806788482,247.16674556978978 13.386404293356463,248.7679129850585 13.458855098229833,249.68661232310114 13.169051878270693,250.21158230051515 13.0,250.8152968098875 13.193202146561816,252.36395105000702 13.096601073280908,253.96509490473545 13.21735241485294,255.4087429777428 13.555456171627156,257.0886169442674 13.748658318305388,257.29860062824446 14.014311269973405,258.63724367995746 14.521466905018315,259.68715624924516 15.173524150275625,260.8683041596378 16.356887298752554,262.0494481207279 17.612701252102852,263.09935054858215 18.60286225390155,263.20434061976266 19.18246869405266,263.2568356436677 20.38998211082071,263.30933065968566 21.790697674266994,262.5481521630718 22.80500894447323,261.8657148750499 23.553667262895033,260.9207995306642 24.6887298746733,259.79214733449044 25.75134168146178,259.3721828060807 26.306797853205353,259.0572090820933 27.15205724502448,257.95479883652297 28.04561717354227,257.4035924235359 28.552772808470763,256.6161531986145 29.73613595694769,255.7499680237088 30.388193202088587,254.80503631953616 31.547406082274392,254.1750804456533 32.030411448911764,253.54512344833347 33.21377459750511,252.73142733055283 34.56618962425273,252.20646109842346 35.870304114418104,251.26151991443476 37.31932021456305,250.36907314156997 38.74418604641687,249.76535786944441 39.61359570664354,249.1878901218297 40.04830053646583,248.7941615707823 41.376565295038745,247.9804545076331 41.85957066179253,247.50797857847647 43.139534883666784,246.3005372210173 44.17799642216414,245.11934059436317 44.97495527728461,243.83314421895193 45.43381037551444,243.1769197738613 46.06171735236421,242.4419469476561 46.52057245071046,241.49697963774088 47.00357781734783,240.34201615847996 47.60733452590648,238.8983064974018 48.38014311250299,237.50708978512557 49.12880143104121,236.16836664208677 49.68425760278478,234.75088954693638 50.31216457951814,233.46465540662757 50.89177101966925,232.5196640730428 51.42307692300528,231.233421805111 52.00268336315639,230.1571746742993 52.920393559732474,228.97592404708848 53.78980321995914,227.6896688695706 54.77996422175784,226.48215974480263 55.79427549196407,225.2746464901429 56.639534883666784,224.43463483380037 57.77459749544505,223.27961554282228 58.716457960545085,222.38709804811515 59.9722719140118,221.3895758249855 61.42128801427316,220.41830147837754 62.846153846010566,219.39452292298665 64.17441860458348,218.55449727544328 65.57513416802976,217.81947319416213 66.95169946330134,216.97944379868568 66.9275491948938,216.6644322600332 65.96153846150264,216.63818128578714 64.4400715562515,216.90069094035425 62.96690518781543,217.16320039972197 61.3729874775745,217.5832151286886 59.87567084073089,218.18698542605853 58.378354203887284,218.73825305665378 56.92933810362592,219.0532627447392 55.48032200348098,219.47327522494015 53.86225402506534,219.91953793761786 52.38908765639644,220.28704798335093 50.69856887299102,220.73330966735375 49.008050089352764,221.3370745772554 48.186940965941176,221.46832768191234 47.10017889086157,221.73083374480484 46.134168157354,221.46832768191234 44.70930232561659,221.52082891008467 43.477638640441,221.70458314727875 41.93202146678232,222.17709360376466 41.01431127008982,222.54460129933432 39.42039355984889,222.9383591201331 37.898926654597744,223.6471220907115 36.425760286161676,224.1983811953105 34.95259391760919,224.93339199581533 33.479427549173124,225.66840126612806 32.102862254017964,226.32465825011604 30.77459749544505,227.13841521623544 29.832737030345015,228.16217131604208 29.084078711923212,228.37217220038292 28.576923076878302,228.50342268965323 28.38372093020007,229.0546742118604 27.99731663672719,229.42217474852805 27.417710196692497,229.52717483154265 26.7656529515516,230.26217453877325 25.799642218044028,230.83967323534307 24.809481216361746,232.15216676038108 24.567978532984853,232.8609112352715 23.915921287960373,233.59590400298475 22.756708407774568,234.30464558006497 22.056350626051426,234.93463689874625 21.042039355961606,235.98461993222008 19.810375670786016,237.08709875721252 18.892665473977104,238.32082098029787 18.385509838932194,239.52828962076455 17.395348837133497,240.49951140073244 16.815742397098802,241.60197613039054 16.18783542024903,242.65193933979026 15.366726296837442,243.88564212192432 14.980322003597394,245.27683370612795 14.352415026864037,246.01180063266656 14.062611806788482,247.08799944404745 13.748658318305388,248.24294086181908 13.338103756657802,249.03039875405375 13.362254024948925,250.00159440314746 13.096601073280908,250.94653895797092 13.169051878270693,252.39019936847035 13.072450804989785,253.93884670335683 13.120751341688447,255.64497573699919 13.28980321995914,256.1436888210883 13.579606440034695,257.6135759203753 14.062611806788482,259.0834569031722 14.762969588511623,260.4220931909804 15.584078711923212,261.3407622179948 16.57423971372191,262.285676439089 17.709302325500175,263.2568356436677 18.844364937278442,263.283083152608" stroke="#4dd2ff" stroke-linecap="round" stroke-linejoin="round" stroke-width="0.5"><title>2024-04-26 13.1km</title><desc>9223370322705658065</desc></polyline><polyline fill="none" points="81.23728813568596,261.0219012919697 82.03211418387946,260.44600047930726 83.47725245333277,259.2418411926192 83.91079393413384,258.6921149325499 85.42818911687937,257.51412720116787 86.22301516518928,257.14764132580603 87.18644067808054,256.0220037535473 87.66815343452618,255.62933863792568 89.30597680655774,254.03249599246192 89.83586083864793,253.92778474645456 90.63068688672502,252.80213688587537 91.64228367537726,252.2524005769519 92.14808206970338,251.59795147160185 92.94290811789688,251.04821328350226 94.62890276545659,250.28904961331864 96.02586975926533,249.08485560826375 97.56735057989135,248.35186593749677 98.5789473685436,248.06390529242344 99.61462979495991,247.4094484053494 100.2649420161033,246.83352533885045 101.22836752899457,246.23142294440186 101.8786797503708,245.7602116568887 102.16770740412176,245.41989200160606 102.93844781455118,244.68689470426762 103.75735950050876,243.7968245068041 104.81712756468914,242.56642964784987 105.58786797511857,241.44074548006756 106.14183764508925,240.5506670793984 106.38269402319565,239.94855394458864 107.44246208749246,237.7757023332233 108.11685994651634,236.23113701221882 108.81534344342072,235.07925338018686 109.53791257808916,233.66557286435273 109.70651204290334,233.11580668672104 109.8991971454816,232.43514261109522 110.98305084742606,230.6549380394572 111.36842105269898,229.60775467584608 111.75379125785548,228.92708381963894 112.57270294381306,227.80135605460964 113.48795718117617,226.46618590055732 114.33095450501423,225.4451700138161 115.05352363968268,224.4503311740409 115.80017841223162,223.50784968040534 116.81177520065103,222.53918551650713 117.67885816236958,221.5966989074368 118.28099910798483,221.02073362655938 119.00356824265327,220.4185870983929 120.03925066906959,219.50227518816246 121.77341659239028,218.37651729103527 122.76092774304561,217.6958247233997 123.43532560218591,217.22457525174832 124.7600356824696,216.4129774608591 125.31400535244029,216.09881007182412 126.54237288131844,215.31339037269936 126.83140053518582,214.68505335174268 125.21766280115116,214.94686058006482 123.9652096342761,215.2610289970471 122.76092774304561,215.47047445268254 121.09901873336639,215.99408754653996 120.3041926851729,216.25589380142628 119.22033898311201,216.54388045694213 118.25691347010434,217.14603361178888 116.859946476412,217.38165847898927 116.01694915257394,217.59110267306096 114.90900981274899,217.82672724247095 112.83764495991636,218.45505865651648 110.91079393413384,218.97866731169051 109.73059768066742,219.47609481285326 108.74308653001208,219.6331770356337 107.44246208749246,220.02588228599052 105.78055307769682,219.92116092870128 104.47992863529362,219.97352161127492 102.86619090102613,220.28768554289127 100.7948260481935,220.88983229495352 100.1445138270501,221.07309414556948 98.6993755575968,221.67523955448996 97.61552185553592,222.04176234273473 96.62801070476416,222.3559244290227 94.99018733284902,223.16750852105906 94.05084745772183,223.66493010453996 92.87065120437182,224.2147110370861 91.37734165939037,224.97393091378035 90.6547725246055,225.62842949354672 90.22123104380444,226.12584760057507 89.089206066099,226.57090531126596 88.00535236403812,227.59191793383798 87.40321141853929,227.87989531783387 87.01784121326637,228.220231922518 86.36752899200656,228.74382605662686 85.11507582524791,229.97426920733415 84.56110615527723,231.04763099795673 83.57359500450548,232.22570724622346 82.6583407673752,232.6969366420526 81.64674397872295,233.58703489150503 80.80374665488489,234.39859309943859 79.98483496892732,235.28868704804336 78.949152542511,236.49292822135612 78.05798394302838,238.19456633747905 77.09455843013711,239.03229285145062 76.68510258710012,240.2365212244622 75.72167707420886,241.49310296296608 75.19179304200225,242.6973229223222 74.83050847472623,243.6921102180495 73.91525423736311,245.81256849769852 73.50579839444254,246.80734699527966 73.40945584315341,248.2209747644083 73.19268510281108,250.5508303740644 73.0,252.77595898590516 73.26494201621972,253.92778474645456 73.48171275656205,255.02725127746817 74.0838537021773,256.93822065441054 74.8786797503708,258.4565177014156 76.03479036584031,259.817743973661 76.9741302409675,260.5507097879308 77.768956289161,261.1789649866114 79.11775200720876,261.4145603972429 80.61106155230664,261.33602861114196 82.6342551294947,260.18422707141144 83.26048171287403,259.4774378986622 84.39250669057947,258.32563028263394 85.35593220347073,257.6973699958471 86.12667261378374,257.30470674758544 86.94558429974131,256.2314249695337 87.74041034805123,255.70787169609684 89.4745762712555,253.9801403733145 90.17305976815987,253.4304059027054 91.06422836752608,252.51417987863533 91.64228367537726,252.2524005769519 92.22033898311201,251.5455954906938 94.19536128477193,250.52465230674716 94.94201605720446,250.0534467623511 95.59232827834785,249.68695312540513 96.62801070476416,248.8754301436711 98.04906333633699,248.1162617908558 99.39785905450117,247.48798329601414 99.83140053530224,247.0953086676309 100.96342551300768,246.41467160815955 101.51739518297836,246.1267093794304 102.89027653890662,244.71307320549386 104.43175735953264,242.93293069361243 105.25066904549021,241.57163917276193 106.23818019626196,240.36741536465706 106.81623550411314,239.1631874392624 107.2497769849142,238.142208364181 107.75557537912391,236.75471923593432 108.57448706508148,235.3672246414062 109.20071364857722,234.08444175688783 109.6342551294947,233.24670347350184 109.8991971454816,232.30424552268232 110.52542372886091,231.30942606038298 110.91079393413384,230.57639939521323 111.17573595000431,229.63393429788994 112.52453166828491,227.72281677395222 113.0303300623782,227.0683220869978 113.99375557538588,225.70696924137883 115.07760927744675,224.34561113262316 115.65566458518151,223.5863899012329 116.3300624442054,222.90570740544354 117.26940231933258,222.09412270993926 118.69045495102182,220.65420977550093 119.89473684201948,219.76407883444335 121.21944692241959,218.76922394306166 122.30330062436406,217.9576297128806 123.12221231043804,217.38165847898927 124.15789473685436,216.83186687689158 125.79571810888592,215.83700370011502 126.78322925965767,215.28720968586276 126.85548617306631,214.71123408337007 125.77163247112185,214.81595699026366 124.61552185553592,215.02540271062753 123.45941123994999,215.3395710575278 122.54415700270329,215.60137779914658 121.24353256030008,215.99408754653996 119.84656556649134,216.57006105026812 119.0999107939424,216.62242223112844 117.29348795721307,217.40783901009127 115.80017841223162,217.7481857368548 113.53612845682073,218.24561497641844 111.1998215878848,218.9524868974113 110.23639607499354,219.2142909524846 108.95985727047082,219.6331770356337 107.65923282783478,219.92116092870128 106.4549509367207,219.8949805845623 105.78055307769682,219.81643954030005 104.72078501340002,219.92116092870128 103.44424620876089,220.20914458626066 102.48082069586962,220.34004617089522 101.78233719896525,220.60184919423773 100.74665477254894,220.88983229495352 99.56645851931535,221.3087163847813 98.36217662808485,221.8061405940971 96.62801070476416,222.3559244290227 95.30330062448047,223.03660798762576 94.50847457628697,223.455489523476 93.25602140952833,224.03145082163974 91.42551293491852,224.92157097478048 90.34165923297405,225.96876827429514 89.33006244432181,226.59708515906823 88.60749330965336,226.8850633565744 88.12578055320773,227.61809770579566 87.21052631596103,228.0893332672713 85.64495985733811,229.16270080336835 84.77787689573597,230.18370591118583 84.27207850140985,231.5712209281919 82.44157002691645,232.85401296717464 81.91168599482626,233.2728828250547 80.58697591454256,234.6865649172105 79.84032114199363,235.31486624776153 78.87689562910236,236.57146554617793 77.81712756468914,238.43017712089932 76.73327386274468,240.13180587720126 75.81801962538157,241.30985173865338 75.33630686905235,242.64496561832493 74.80642283684574,243.71828879317036 74.10793933994137,244.9225011447852 73.69848349690437,246.38849323350587 73.38537020538934,247.4094484053494 73.19268510281108,248.6660045546305 73.21677074045874,249.68695312540513 73.12042818916962,250.57700843946077 73.07225691364147,252.09533290259424 73.1685994649306,253.63982865933212 73.62622658349574,255.44609476756887 74.22836752911098,257.35706187266624 75.02319357730448,258.8230022151547 76.13113291724585,259.89627609815216 77.45584299741313,260.969546711538 78.05798394302838,261.33602861114196 79.76806422846857,261.4145603972429 80.37020517408382,261.4669149115798 81.71900089213159,260.7601283119875 82.44157002691645,260.26275911420817 82.97145405900665,259.71303444716614 84.65744870656636,258.06385529928957 85.2595896521816,257.6973699958471 86.36752899200656,257.0167534207867 86.94558429974131,256.2052473243384 88.05352363968268,255.34138394176261 88.80017841223162,254.4251628878701 90.12488849251531,253.50893945104326 91.37734165939037,252.40946818134398 91.9794826048892,251.80737531758496 92.60570918838494,251.15292538548238 91.47368421056308,251.49323950192775 90.6547725246055,252.17386674857698 90.07671721687075,252.56653571565403 88.75200713658705,253.3780501941219 88.00535236403812,254.346629543812 87.16235504020005,255.10578446972067 86.8492417485686,255.49845016893232 86.27118644071743,256.12671437708195 85.50044603040442,256.93822065441054 84.85013380926102,257.4355945456773 83.98305084742606,258.3518077702611 83.2845673506381,259.0847766344086 82.70651204290334,259.50361530075315 81.59857270307839,260.26275911420817 81.02051739522722,260.7339510032907 80.58697591454256,260.7601283119875 79.93666369316634,260.91719212330645 78.82872435334139,261.75486460118555 77.768956289161,262.5925350873731 76.85370205179788,263.2993180110352 75.76984834985342,264.0322765824385 74.27653880475555,265.0531806231302 74.92685102589894,264.86994165417855 76.5646743979305,263.66579748739605" stroke="#4dd2ff" stroke-linecap="round" stroke-linejoin="round" stroke-width="0.5"><title>2024-04-12 15.1km</title><desc>9223370323917503807</desc></polyline><polyline fill="none" points="139.5147453082027,263.39341200797935 140.76943699724507,263.31473984377226 141.05898123327643,263.1311713923642 142.2171581769362,262.3706725051161 142.91689008043613,261.715068700898 144.02680965140462,260.5612030476623 144.84718498657458,259.9055958822719 145.281501340447,259.74824998137774 146.0777479893295,259.1975387757411 146.53619302948937,258.62060230525094 146.8257372654043,258.33213371637976 147.11528150131926,258.0961137864506 147.54959785519168,257.86009369863314 147.93565683648922,257.5454000028258 148.8284182305215,256.47019442456076 149.14209115272388,256.15549948933767 149.74530831095763,255.89325349559658 150.13136729225516,255.42121021574712 150.61394101881888,254.76559350185562 151.43431635387242,254.39844761005952 152.3270777480211,253.5068059969053 153.14745308307465,252.9560850514972 154.42627345840447,252.43158811409376 155.58445040206425,251.64484124621958 156.28418230556417,250.9892175164423 157.0804289544467,250.72696768349851 157.80428954423405,250.2286924639193 159.1554959785426,249.62551625672495 159.56568364612758,249.3108152176137 159.9517426273087,249.10101436896366 161.4235924932873,248.18313418939942 162.1233243967872,247.47505356240436 162.84718498657458,246.74074622621993 163.42627345852088,246.13756405684398 164.0777479892131,245.50815547650564 164.80160857900046,244.40668775924132 165.04289544234052,243.67237403756008 165.50134048250038,243.436344302434 166.0321715817554,242.49222378310515 166.73190348525532,241.12848968416802 167.11796246643644,240.21058876503957 167.55227882042527,238.97797520284075 167.84182305634022,238.55836109278607 168.469168900745,237.53554960872862 168.6863270776812,237.06348176978645 169.43431635387242,235.8046311113576 169.67560321721248,235.22765639176941 169.74798927619122,234.5720021558518 170.0616621982772,234.04747788986424 170.3270777479047,233.68031043955125 170.56836461124476,233.26069002857548 170.76139410189353,232.7361638128641 171.09919571038336,231.7920146592951 171.9678284182446,230.50691869549337 172.52278820378706,229.87748222972732 173.05361930304207,229.06445846584393 173.84986595169175,227.96293940951 174.2841823056806,227.35972513534944 175.0321715817554,226.36310798776685 175.85254691680893,225.41894177687936 176.09383378003258,225.13044604170136 176.40750670235138,224.8681769867835 176.69705093838274,224.57968080116552 177.71045576408505,223.55682878711377 177.9517426271923,223.29455856216373 178.57908847171348,222.63888214662438 178.86863270774484,222.35038413770963 179.66487935651094,221.6947059670929 181.06434316351078,220.80298169888556 182.0294906165218,220.06861884414684 183.33243967825547,219.25557247147663 184.29758713126648,218.7572528005694 184.80428954423405,218.44252422466525 185.79356568364892,217.76061134660267 186.83109919563867,217.20983459803392 187.0,216.9213321483694 186.6863270776812,216.68528451400925 185.6729222519789,216.8688771321613 185.21447721181903,216.9213321483694 184.39410187664907,217.05246965470724 183.18766756018158,217.31474452119437 182.10187667550053,217.60324664902873 181.30563002673443,217.94420340500074 180.6541554959258,218.23270501798834 179.52010723866988,218.5998885476729 178.77211796247866,218.8359349006496 177.80697050935123,219.229345137981 177.30026809650008,219.30802713273442 175.70777479885146,219.64898224067292 175.2010723860003,219.70143684340292 173.72922252013814,220.17352791700978 172.04021447710693,220.64561835877248 171.02680965140462,220.90789055335335 170.66487935651094,220.9865721737442 170.08579088468105,221.1963897421665 169.41018766746856,221.32752565902774 168.97587131371256,221.45866152719827 168.08310991956387,221.6947059670929 167.16621983901132,222.0094316410541 165.64611260045785,221.6947059670929 164.70509383373428,221.87829597768723 164.2949061661493,221.87829597768723 162.94369973184075,222.14056725570117 162.05093833780847,222.5077467173105 160.72386058978736,222.9011528590927 159.92761394102126,223.13719633358414 159.17962466483004,223.3732396501291 158.3592493296601,223.68796382649452 157.7801608579466,223.9764607414254 157.44235924922395,224.1075956247514 156.47721179632936,224.4485460932774 156.06702412862796,224.57968080116552 155.15013404819183,225.07799224634073 154.57104557636194,225.31403426409815 153.24396782845724,225.96970570701524 152.375335120596,226.31065437570214 151.62734584440477,226.730283053912 150.92761394090485,227.22859146105475 150.51742627331987,227.49085876101162 149.98659517418128,228.30388615161064 148.9973190347664,228.61860592878656 148.61126005358528,228.9070988112071 148.36997319036163,229.5627635756682 147.69436997314915,229.79880259250058 146.68096514744684,230.55937168360106 145.69168900803197,231.18880693276878 144.89544235926587,232.2116368172865 144.38873994641472,233.39182146062376 143.61662198381964,234.09993035154184 142.36193029489368,234.93916867807275 141.75871313665994,235.28010867798002 140.9383378016064,236.27670063468395 140.23860589810647,236.93235170244589 139.9973190347664,237.1683857885946 139.12868632713798,238.24365018273238 138.64611260057427,239.45004048018018 138.01876675605308,240.39416913990863 137.3431635388406,240.91868397034705 137.00536193035077,241.5218750613567 136.61930294905324,242.43977256913786 136.281501340447,242.88560763988062 135.72654155490454,243.64614851921215 135.46112600527704,244.64271684529376 134.78552278818097,245.95398667023983 134.27882037532981,246.8194220852747 133.94101876672357,247.8946570684493 133.5790884718299,248.91743852407672 133.38605898129754,249.44194068471552 133.50670241296757,250.04511720567825 133.19302949053235,250.83186764002312 133.0482573726913,251.43504178521107 133.2654155495111,252.16933935301495 133.1689008042449,253.7690537640592 133.1689008042449,254.6869194143219 133.24128686322365,256.2603978322295 133.33780160848983,256.8897872350353 133.77211796247866,258.1223382308672 134.27882037532981,259.53845533769345 135.02680965140462,260.87589405450854 136.11260053620208,262.05598283110885 137.41554959781934,263.0000510114769 138.1394101876067,263.44586010777857 139.63538873987272,263.39341200797935 140.02144772117026,263.49830819971976 141.22788203740492,262.9738269294612 142.24128686334006,262.2920001129678 142.89276139403228,261.6626203439373 143.6890080429148,260.66610008111456 144.41286863270216,260.08916601134115 145.11260053620208,259.4860066572728 145.83646112598944,259.22376313831774 146.36729222524446,258.751724313217 147.06702412862796,257.833869234717 147.4530831099255,257.6502979325887 148.4664879356278,256.60131723145605 148.8766756032128,256.15549948933767 149.52815013402142,255.84080427340814 149.8900804289151,255.57855804584688 150.469168900745,254.71314411211642 151.38605898118112,254.2673239846772 152.03753351198975,253.48058120944188 152.97855227882974,253.060984345444 153.89544235914946,252.56271242152434 155.05361930280924,251.9070903970569 155.80160857911687,251.25146715453593 156.40482573735062,250.93676756546483 157.10455764085054,250.64829269557958 157.9490616620751,250.09756728919456 158.76943699736148,249.88776690827217 159.22788203752134,249.46816577229765 159.99999999988358,248.8125379983976 160.7962466487661,248.4191607493849 161.6890080429148,247.8422066574567 162.1715817694785,247.3701526079385 163.06434316351078,246.39981730066938 163.3780160858296,246.05888804569258 163.88471849868074,245.48193009456736 164.22252010717057,245.08854913251707 164.9222520106705,243.80350159996306 165.13941018772312,243.41011876662378 165.52546916890424,243.27899105803226 166.17694369971287,241.99393693503225 166.563002680894,241.33829527327907 166.8284182305215,241.07603826746345 167.28686327079777,239.60739543219097 167.50402144761756,239.0828786524653 167.91420911520254,238.32232793659205 168.4209115281701,237.378193732613 168.63806970510632,236.98480373530765 169.14477211795747,235.98821377879358 169.5308310991386,235.07029948625132 169.965147453011,233.94257294302224 170.49597855226602,233.02465332800057 170.8579088471597,232.18541044701124 171.05093833780847,231.66088263251004 171.46112600539345,230.97899530781433 171.87131367297843,230.21842712143552 172.78820375341456,228.93332542516873 173.0294906166382,228.53992601085338 173.3431635388406,228.12029948525014 173.97050938324537,227.35972513534944 174.7667560322443,226.36310798776685 175.34584450395778,225.6025298491004 176.60053619300015,224.65836160245817 177.32439678278752,223.84532580937957 177.97587131359614,223.1109692886821 178.98927613941487,222.3766112391604 179.71313672920223,221.77338741190033 180.09919571038336,221.4848886949767 181.54691688995808,220.43580046264105 182.58445040206425,219.67520954305655 183.38069705094676,219.15066312561976 184.73190348525532,218.31138723512413 185.16621983912773,218.04911310976604 185.74530831095763,217.6819290065614 186.80697050935123,217.05246965470724 186.83109919563867,216.58037440359476 186.3726541554788,216.58037440359476 185.69705093838274,216.73773955754586 185.3109919570852,216.79019459325355 183.93565683648922,217.07869715010747 183.11528150120284,217.2360620817053 181.59517426264938,217.7343839018722 180.3887399462983,218.23270501798834 179.03753351198975,218.54743378114654 178.43431635387242,218.8359349006496 176.76943699724507,219.30802713273442 175.152815013309,219.70143684340292 173.5603217157768,220.09484611530206 171.94369973195717,220.56693666233332 170.5442359248409,220.9603449688584 169.69973190349992,221.1963897421665 169.4825737264473,221.2488441148016 168.97587131371256,221.4324343575281 168.54155495972373,221.53734302471275 167.4075067024678,221.87829597768723 166.90080428950023,221.72093311726348 165.42895442352165,221.5635701866122 164.2949061661493,221.82584169865004 162.87131367297843,222.1667943727516 162.29222520103212,222.32415703425067 161.30294906161726,222.56020089486265 160.530831099255,222.84869873218122 159.4209115281701,223.18965041762567 158.96246648789383,223.3207855935034 157.7801608579466,223.89777978803613 156.3565683645429,224.3698652451567 155.36729222524446,224.92063081334345 153.87131367286202,225.49762239094707 152.906166219851,225.9959325394011 152.0616621983936,226.38933479087427 150.6863270777976,227.22859146105475 150.03485254687257,228.06784613447962 149.6729222519789,228.30388615161064 148.8766756032128,228.40879277521162 148.53887399460655,228.72351245881873 148.27345844497904,229.27427122942754 147.42895442352165,229.6938963822904 146.9705093833618,230.21842712143552 145.812332439702,230.95276884592022 145.11260053620208,231.71333544913796 144.436997319106,233.12955854774918 143.83378016087227,233.94257294302224 143.4959785521496,234.28351390603348 142.77211796247866,234.5720021558518 142.2171581769362,234.93916867807275 141.61394101881888,235.46369161840994 140.52815013402142,236.5389612080471 139.73190348525532,237.22083778629894 138.718498659553,238.74194232732407 138.16353887401056,239.84342772877426 137.84986595180817,240.2892660802463 136.812332439702,241.57432641182095 136.08847184979822,242.75447973638074 135.82305630028713,243.12163774340297 135.14745308319107,244.77384404704208 134.42359249317087,245.92776132145082 133.96514745312743,247.23902637098217 133.50670241296757,248.57651170156896 133.3136729222024,249.28459011839004 133.24128686322365,250.41226762667065 133.07238605897874,251.61861632039654 133.14477211795747,252.35291350624175 133.0965147453826,253.24455803487217 133.02412868628744,254.63447001288296 133.14477211795747,255.63100730697624 133.36193029489368,256.9160117691499 133.45844504015986,257.30937954669935 133.5308310991386,257.7289713594946 133.8445040214574,258.4894802486815 134.56836461124476,260.0104931106034 135.3887399462983,261.1643605642894 136.40214477223344,262.16087942026206 136.93297587137204,262.52801723693847 137.36729222512804,262.9738269294612 137.72922252002172,263.2098435975204 138.95978552266024,263.2098435975204 139.9973190347664,263.3409639004676 140.69705093826633,263.18361953110434 141.63806970510632,262.5804654652602 141.7345844503725,262.34444837633055" stroke="#4dd2ff" stroke-linecap="round" stroke-linejoin="round" stroke-width="0.5"><title>2024-04-08 13.3km</title><desc>9223370324272004907</desc></polyline></svg>