<?xml version="1.0" encoding="utf-8" ?>
<svg baseProfile="full" height="300mm" version="1.1" viewBox="0,0,200,300" width="200mm" xmlns="http://www.w3.org/2000/svg" xmlns:ev="http://www.w3.org/2001/xml-events" xmlns:xlink="http://www.w3.org/1999/xlink"><defs /><rect fill="#222222" height="300" width="200" x="0" y="0" /><text fill="#FFFFFF" style="font-size:12px; font-family:Arial; font-weight:bold;" x="10" y="20">Over 10km Runs</text><text fill="#FFFFFF" style="font-size:4px; font-family:Arial" x="10" y="280">ATHLETE</text><text fill="#FFFFFF" style="font-size:9px; font-family:Arial" x="10" y="290">lihsiaofei</text><text fill="#FFFFFF" style="font-size:4px; font-family:Arial" x="120" y="280">STATISTICS</text><text fill="#FFFFFF" style="font-size:3px; font-family:Arial" x="120" y="285">Number: 6</text><text fill="#FFFFFF" style="font-size:3px; font-family:Arial" x="120" y="290">Weekly: 1.5</text><text fill="#FFFFFF" style="font-size:3px; font-family:Arial" x="141" y="285">Total: 79.5 km</text><text fill="#FFFFFF" style="font-size:3px; font-family:Arial" x="141" y="290">Avg: 13.3 km</text><text fill="#FFFFFF" style="font-size:3px; font-family:Arial" x="167" y="285">Min: 12.2 km</text><text fill="#FFFFFF" style="font-size:3px; font-family:Arial" x="167" y="290">Max: 15.1 km</text><polyline fill="none" points="38.8785714287078,52.34031237810268 38.621428571408615,52.37525018246379 37.657142857206054,53.10894347217982 37.078571428661235,53.947448686434655 36.43571428582072,54.64620188871049 35.21428571443539,54.68113952153362 34.60357142868452,55.100390912935836 34.3785714287078,55.72926729885512 33.446428571478464,56.1135802314966 32.867857142933644,56.56776783752139 32.19285714300349,57.37132944987388 31.06785714288708,58.07007756116218 30.264285714365542,58.83869928351487 29.685714285704307,60.13137843614095 28.689285714412108,61.389116901525995 28.20714285725262,61.87823650689097 27.75714285718277,62.36735560311354 26.56785714288708,62.92634823266417 25.539285714388825,63.939520678977715 24.060714285820723,65.37193316934281 23.514285714365542,65.86104862956563 22.19642857159488,67.46813870081678 21.617857142933644,68.30661829563905 21.360714285750873,69.00535014865454 20.71785714291036,70.08838246797677 20.20357142877765,70.50762011506595 19.625000000116415,70.85698453543591 19.23928571434226,71.55571259694989 18.757142857299186,73.02303814527113 18.33928571443539,73.40733693665243 17.471428571501747,74.56023142568301 17.021428571431898,75.81793127939454 16.667857142863795,76.76120396130136 16.3785714287078,77.42498730644002 15.928571428637952,77.80928249887074 15.70357142877765,78.2634491394274 15.510714285890572,79.06697365926811 15.125000000116415,80.4644043352746 14.803571428754367,81.33779639808927 14.45000000006985,81.8618308568839 14.45000000006985,82.84002695034724 14.1285714287078,84.2025109740207 14.096428571618162,84.76147763626068 14.225000000093132,85.7047323716397 14.1285714287078,86.99733763877884 14.064285714528523,88.08032850452582 14.0,89.4777323868766 14.16071428579744,90.07162777904887 14.321428571594879,91.39915594286867 14.41785714298021,92.34239736016025 14.771428571548313,93.60004963955726 15.382142857182771,95.45158715051366 16.153571428731084,96.8839036191639 16.95714285725262,98.17647815006785 17.278571428731084,98.52582200788311 18.564285714528523,99.538917727652 19.689285714295693,100.37734012075816 20.30000000016298,100.93628755229292 21.971428571501747,101.11095848830882 23.73928571434226,101.2856293595105 24.960714285844006,100.65681391957332 25.63571428589057,100.34240588426474 26.728571428800933,99.538917727652 27.08214285725262,99.11970597039908 28.400000000023283,97.79219960665796 29.78214285732247,96.42975496739382 30.328571428661235,96.08040955211618 31.164285714388825,95.9756058769708 31.58214285725262,95.48652175048483 32.25714285718277,94.71795995230787 32.80357142863795,94.08913572845631 33.446428571478464,93.73978857396287 33.92857142863795,93.39044115989236 34.34642857138533,92.93628913364955 35.27857142861467,91.64370019579655 36.371428571408615,91.11967664092663 37.335714285844006,89.7572126648447 38.589285714318976,89.16331687552156 39.10357142868452,88.42967986455187 39.617857142933644,87.9405878878897 40.196428571478464,87.59123616444413 41.321428571478464,86.99733763877884 42.028571428731084,86.68292046844726 43.153571428731084,86.19382667442551 43.92500000016298,85.53005571159883 44.375000000116415,85.0758960916719 45.17857142863795,84.51692980335793 45.917857142863795,84.23744640991208 46.85000000009313,83.71341459933319 47.65357142861467,83.36405973450746 48.93928571429569,82.80509141055518 49.839285714318976,82.03650888006086 51.54285714298021,81.0233754424844 52.282142857206054,80.74388997192727 52.70000000006985,80.14998279538122 53.85714285715949,78.78748702560551 54.660714285913855,77.91409022416337 55.97857142868452,76.48171595661552 56.39642857154831,75.67818701744545 56.81428571429569,74.73491216209368 57.26428571424913,74.52529527057777 58.26071428565774,73.09291067608865 58.6464285714319,72.18456696430803 59.41785714298021,70.2281283919292 60.414285714388825,68.13193517012405 60.76785714295693,67.64282207304495 61.50714285718277,66.10560616882867 62.43928571441211,64.49851143854903 62.63214285718277,63.97445762096322 63.050000000046566,62.78660013756598 63.88571428577416,61.17949405775289 64.36785714281723,60.375938956975006 64.78571428568102,58.97844855254516 65.39642857154831,57.93032802204834 66.20000000018626,56.84726768467226 67.16428571427241,55.414829211105825 67.67857142875437,54.64620188871049 68.73928571434226,53.28363218187587 69.3178571430035,52.48006357962731 70.18571428570431,51.53674216277432 70.53928571427241,51.082549694081536 71.43928571429569,50.139225471706595 72.30714285722934,49.26577542925952 73.49642857140861,48.07788076586439 74.13928571436554,47.41405596956611 75.68214285711292,46.08640356344404 76.16428571438882,45.737020727829076 77.25714285718277,44.96837757501635 78.83214285725262,43.85034892629483 80.47142857150175,42.522686450654874 81.66071428579744,41.858853806043044 83.01071428565774,41.05526566551998 84.71428571431898,39.93722770555178 85.83928571420256,39.37820772783016 85.87142857140861,38.85412589472253 84.61785714293364,38.8890647017688 83.36428571422584,39.06375869814656 81.40357142861467,39.5179627846519 80.02142857154831,39.867350244749105 79.02500000002328,40.1468600257067 77.7071428571362,40.531185703061055 75.84285714291036,41.299836114718346 75.20000000006985,41.43959059991175 73.72142857150175,41.998608125024475 71.63214285718277,42.522686450654874 69.6714285715716,43.011825693945866 68.16071428568102,43.43108749721432 67.55000000004657,43.605779804755 67.00357142859139,43.81541048816871 65.75,44.0250410780136 64.52857142861467,44.40936358322506 63.789285714388825,44.65393228645553 63.27500000002328,44.82862413942348 62.53571428579744,44.96837757501635 61.70000000006985,45.317760982201435 61.121428571408615,45.38763763249153 59.54642857145518,45.80689731572056 59.0,45.80689731572056 57.489285714458674,45.4924525883107 56.23571428575087,45.63220582655049 55.23928571422584,45.771959023113595 53.921428571571596,46.156280099385185 53.05357142863795,46.36590964489733 52.44285714300349,46.54060086136451 51.35000000009313,46.785168455331586 50.73928571434226,46.95985951591865 50.128571428591385,47.2044268916361 49.51785714295693,47.379117796430364 48.167857143096626,48.18269512170809 46.239285714458674,48.776642696233466 45.01785714295693,49.26577542925952 43.92500000016298,49.71996965399012 42.6071428572759,50.313915285485564 40.582142857136205,51.292177041905234 39.746428571408615,51.74636930797715 38.33214285725262,52.48006357962731 37.239285714458674,53.56313398227212 36.78928571450524,53.98238637117902 35.953571428661235,54.4715136855084 34.828571428661235,54.75101477938006 34.44285714288708,55.799142400879646 33.253571428591385,56.25333031086484 32.06428571429569,57.37132944987388 30.425000000046566,58.48932592917117 29.267857142956927,60.7253109087178 27.75714285718277,62.227607341861585 26.760714285774156,62.57697791713872 26.182142857229337,63.24078129453119 25.603571428684518,63.59015111660119 24.38214285718277,65.02256467178813 22.742857142933644,66.35016358082066 22.19642857159488,67.25851856844383 21.58571428596042,68.51623796057538 20.685714285820723,69.87876350420993 19.978571428684518,70.64736591445399 19.11071428586729,72.00988527998561 18.596428571501747,73.19771945301909 17.760714285774156,74.17593357685837 17.439285714412108,74.90959283371922 17.439285714412108,75.11920955392998 17.535714285913855,75.0842734403268 17.567857143003494,75.01440120549523 17.600000000093132,74.90959283371922 17.567857143003494,74.76984830162837 17.696428571478464,74.63010372806457 17.310714285704307,75.1541456648556 17.05357142863795,75.85286733848625 16.860714285750873,77.18043565677362 16.21785714291036,77.77434658526909 15.67142857145518,78.57787194123375 15.382142857182771,78.96216619113693 15.15714285732247,80.3595971786417 14.932142857229337,81.05831111449515 14.546428571571596,81.61728151552961 14.41785714298021,82.7701558683184 14.514285714481957,83.22431771582342 14.225000000093132,83.95796285031247 14.0,84.8662838114542 14.225000000093132,85.35537898659823 14.257142857415602,85.94927958663902 14.064285714528523,87.52136578859063 14.096428571618162,89.0235765807738 14.16071428579744,90.45591263307142 14.321428571594879,91.78343971175491 14.41785714298021,92.13278831992648 14.739285714342259,92.97122392038 14.900000000139698,93.49524541138089 15.285714285681024,94.89263319864403 16.185714285820723,96.7092311126762 16.828571428661235,97.9319372951577 17.857142857159488,98.80529690725962 18.403571428731084,99.50398342884728 18.950000000186265,99.88826057317783 20.235714285750873,100.8314849594608 21.232142857275903,101.11095848830882 22.100000000093132,101.14589266781695 23.771428571548313,101.25069519053795 24.28571428579744,101.11095848830882 25.153571428731084,100.65681391957332 25.66785714298021,100.37734012075816 27.050000000046566,99.3293118957663 27.6285714287078,98.66555947827874 28.464285714318976,97.89700287688174 29.042857142863795,97.3031173698837 29.62142857152503,96.63936209201347 31.453571428661235,95.73106387729058 31.839285714318976,95.38171794288792 32.35357142868452,94.57822130859131 32.835714285844006,94.01926631829701 33.86428571434226,93.28563688514987 34.282142857206054,93.00615870466572 35.05357142863795,91.92317918615299 35.88928571436554,91.43409084394807 36.917857142863795,90.35110770398751 37.335714285844006,89.7572126648447 38.33214285725262,89.26812206933391 39.07142857159488,88.63929055596236 39.58571428572759,87.97552304589772 40.42142857145518,87.38162500571343 42.285714285913855,86.57811469832086 43.63571428577416,85.94927958663902 44.31071428582072,85.39031433674973 45.30714285734575,84.5868006257515 46.56071428582072,83.95796285031247 47.36428571434226,83.50380171157303 48.42500000016298,83.25925322435796 50.16071428579744,81.9317020738963 50.7714285714319,81.72208839168889 51.2535714287078,81.23298943630653 51.63928571436554,80.91856841050321 52.18571428570431,80.70895427642972 52.98928571434226,79.73075374838663 54.500000000116415,78.15864149210392 55.49642857152503,77.14549969646032 56.30000000016298,75.922739448637 56.65357142861467,75.04933732422069 57.03928571427241,74.56023142568301 57.74642857152503,73.96631643600995 58.16428571427241,73.23265570672811 58.51785714295693,72.3592485836707 59.06428571429569,71.45090345395147 59.51428571424913,70.15825543508981 60.125000000116415,68.62104775806074 60.57500000006985,67.8175053804298 61.21785714291036,66.73446782832616 61.989285714458674,65.30205949069932 62.34285714302678,64.63825902456301 62.88928571436554,62.64685200096574 63.40357142861467,61.87823650689097 64.17500000016298,60.55062496528262 64.59285714302678,59.572382482205285 65.49285714281723,57.8953906307288 66.71428571431898,56.183455276390305 67.29285714298021,55.31001646845834 68.4178571428638,53.73782252316596 69.51071428577416,52.30537457126775 70.53928571427241,51.11748759189504 71.375,50.139225471706595 73.04642857145518,48.56701422625338 74.07500000006985,47.658623108873144 75.42500000004657,46.400847893441096 76.2928571428638,45.771959023113595 77.41785714298021,45.00331592740258 78.70357142854482,43.990102652926 79.79642857133877,43.18651815748308 80.79285714274738,42.38293228766997 82.07857142854482,41.614283647882985 83.65357142849825,40.775756424933206 84.97142857150175,39.90228897644556 85.96785714291036,39.34326895716367 85.710714285844,38.78424827274284 85.16428571438882,38.714370640489506 84.48928571434226,38.81918708505691 83.62142857140861,39.028819904109696 83.07500000006985,39.1685750647448 81.05000000016298,39.65771779988427 80.05357142863795,39.97216643212596 78.06071428570431,40.601063065230846 76.64642857154831,40.9853883710166 76.00357142859139,41.299836114718346 74.68571428570431,41.89379238971742 73.30357142852154,42.2431780830957 72.62857142859139,42.417870832257904 70.98928571422584,42.767256135965 69.18928571429569,43.18651815748308 68.25714285718277,43.36121055591502" stroke="#4dd2ff" stroke-linecap="round" stroke-linejoin="round" stroke-width="0.5"><title>2024-05-16 12.3km</title><desc>9223370320990891307</desc></polyline><polyline fill="none" points="122.621983914054,101.0688278224261 123.55495978542604,101.24365481507266 124.71313672931865,100.71917364222463 125.09919571049977,100.5093810094113 126.06434316351078,99.88000254987855 126.61126005358528,99.49538196570938 127.22252010717057,98.69117427399033 128.50938337796833,97.53730866368278 128.95978552266024,97.08275476758718 129.98927613941487,96.27854295278667 131.53351206425577,95.54426139986026 132.65951742627658,94.18059261882445 133.81769436981995,93.30644388587098 134.58981233241502,92.29242932106717 135.2010723860003,91.66303987149149 135.90884718496818,91.27841257111868 136.58445040206425,90.78888646149426 136.8418230562238,90.15949500084389 137.26005361939315,89.73990022594808 138.3860589810647,89.21540623129113 138.93297587125562,88.62097899714718 139.70509383373428,87.81675272042048 140.99195710453205,87.0474915173254 142.21447721181903,86.55796100595035 143.01876675605308,86.24326255120104 144.20911528146826,85.15929959568894 145.30294906161726,84.4250006909715 146.30026809650008,83.93546745114145 147.2010723860003,83.44593370193616 148.80965147458483,82.74659889106988 149.64611260045785,82.01229622084065 150.83646112610586,81.45282675058115 151.83378016087227,80.75348897717777 152.54155495972373,79.98421622582828 153.95710455754306,78.58553527350887 154.56836461124476,78.02606172830565 155.5335120643722,76.94207984121749 156.69168900803197,75.12378203507978 157.36729222524446,74.45940223755315 157.65683646104299,73.82998893223703 158.33243967825547,72.53619227130548 158.65415549604222,71.83684124340652 159.39410187653266,70.19336223544087 160.16621983912773,68.54987748584244 160.3592493297765,68.0952955839748 160.906166219851,67.29103421999025 161.26005361927673,66.45180350448936 161.64611260057427,65.71747540027718 162.73994638072327,63.93410237468197 162.83646112610586,63.339643197046826 162.93297587137204,62.675246756494744 163.0616621982772,62.32556404254865 163.47989276144654,61.66116616962245 164.05898123327643,60.78695701240213 164.28418230556417,60.40230446853093 164.63806970510632,59.388218981417594 165.15281501342542,58.19928838478518 166.375335120596,56.48582429724047 167.24396782845724,55.22694874511217 167.436997319106,54.842291654320434 168.30563002673443,53.8281941798632 169.01340482593514,52.91900148172863 169.78552278818097,51.8699308000505 171.00804289546795,50.436197084171 171.2654155496275,50.086505270941416 171.8445040214574,49.596936295652995 172.3592493297765,49.03742827125825 173.06702412862796,48.3380423047638 174.0321715818718,47.42883899345179 174.80428954411764,46.69448118971195 175.89812332438305,45.75030518558924 176.2520107239252,45.47054896844202 177.7319034851389,44.456431286467705 178.56836461124476,43.792008171149064 178.9544235925423,43.47728110468597 180.530831099255,42.393219596880954 182.01072386058513,41.553944455314195 182.7506702413084,41.134306322812336 184.23056300275493,40.19011915565352 185.9678284182446,39.14102007981273 185.77479892759584,38.79131986777065 185.034852546989,38.72137979415129 184.58445040229708,38.826289900694974 183.36193029489368,39.10605007028789 181.75335120642558,39.38581007349421 181.0455764074577,39.63059993981733 179.9517426273087,39.91035963091417 179.30831099196803,40.15514922409784 177.281501340447,40.574788230413105 175.7050938338507,41.134306322812336 173.61394101870246,42.00855200961814 171.52278820378706,42.53309864155017 169.36729222512804,43.0576446884661 167.5013404826168,43.58219015024952 165.44235924922395,44.17667429969879 164.2198391421698,44.456431286467705 163.80160857900046,44.66624891728861 162.6112600537017,44.980975188082084 162.16085790877696,45.22576214198489 161.74262734595686,45.435579429613426 161.19571045588236,45.435579429613426 159.9088471850846,45.75030518558924 159.16890080436133,45.85521372410585 157.27077747986186,45.50551850476768 156.6273458445212,45.610427097883075 156.14477211795747,45.64539662367315 155.4048257372342,45.75030518558924 154.3431635388406,45.96012223922298 153.2171581768198,46.3797560656094 152.02680965152103,46.659511741803726 151.5120643430855,46.86932838984649 150.80428954423405,46.97423667871044 149.77479892747942,47.25399200129323 149.29222520103212,47.603685920650605 148.68096514733043,47.813502147386316 147.49061662191525,48.233134320093086 146.30026809650008,48.757674009451875 144.72386058967095,49.352151616913034 144.27345844497904,49.492028591776034 143.85522788204253,49.80675163315027 142.79356568364892,50.296320390101755 141.34584450395778,50.99570344455424 139.38337801606394,51.939868918358115 138.32171581767034,52.534342503524385 137.51742627343629,53.16378430410987 136.55227882030886,54.24782098620199 135.42627345852088,54.56254084527609 134.6863270777976,55.01713582550292 134.30026809650008,55.8563869423233 133.59249329764862,56.066199487569975 132.62734584440477,56.870480043959105 131.8873994636815,57.534884683642304 131.01876675605308,57.95450818302925 130.15013404819183,58.89865968792583 129.86058981227688,59.458155981759774 129.3780160858296,60.61211498605553 128.5737265413627,61.696134502097266 127.38337801606394,62.5703419696365 126.19302949064877,63.30467498677899 125.61394101881888,63.654356972896494 124.8418230562238,64.63346515133162 123.87667560321279,65.47269911077456 123.23324396787211,66.20702759712003 122.10723860585131,67.46587376386742 121.23860589799006,69.28420116874622 120.27345844497904,70.54303910100134 119.27613941021264,71.59206813803758 118.60053619288374,73.16560730760102 117.50670241273474,74.56430437322706 117.02412868628744,75.75319360941648 116.31635388731956,77.64142328008893 115.5764075065963,78.55056819645688 115.12600536178797,80.33388581417967 114.64343163522426,81.48779361200286 114.35388739942573,82.43189788699965 114.4504021446919,83.69070064020343 114.22520107228775,84.14526747341733 114.0,85.05439982228563 114.09651474526618,86.83769278906402 114.06434316339437,88.86574324336834 114.06434316339437,90.15949500084389 114.19302949053235,91.10358187620295 114.4825737264473,92.60712373018032 114.86863270774484,94.00576300217654 115.35120643419214,95.22956895496463 115.83378016075585,96.24357719058753 116.5737265413627,97.53730866368278 117.281501340447,98.48138073715381 118.15013404819183,99.32055432355264 118.69705093826633,99.77510605807765 120.24128686322365,100.96393159564468 122.39678284176625,101.13875862720306 123.68364611256402,101.27862020584871 125.13136729213875,100.57931189742521 126.12868632702157,99.94993353134487 127.0616621983936,99.0757955154404 128.38069705083035,97.78206827200484 129.8284182305215,96.41840597582632 130.246648793458,96.10371411553933 131.3726541554788,95.75405624619452 132.20911528146826,94.70508107924252 133.17426273447927,93.7260354802711 134.36461125989445,92.7469878444681 134.7828418230638,92.04766685736831 136.03753351198975,91.27841257111868 136.8096514744684,90.54412321571726 137.3565683645429,89.73990022594808 138.83646112598944,88.93567586163408 139.0294906166382,88.51607999554835 140.2841823056806,87.53702151932521 141.3780160858296,86.9775586182368 141.89276139403228,86.83769278906402 143.75871313677635,85.7886977448361 144.62734584440477,84.84460020545521 146.01072386046872,84.25016744949971 146.75067024119198,83.76063402771251 147.61930294905324,83.37600026768632 148.45576407504268,83.16619990230538 149.83914209110662,82.04726304070209 150.25737265415955,81.76752840945846 151.28686327079777,81.2779924046481 152.54155495972373,80.40381970064482 153.34584450395778,79.4597113559721 154.79356568364892,77.88619323805324 155.66219839139376,76.94207984121749 156.5308310991386,75.2286840226152 157.1099195709685,74.38946746735019 157.6890080429148,73.89992378550232 158.42895442363806,72.64109483585344 158.87935656832997,71.76690608341596 159.29758713126648,70.82278040624806 160.16621983912773,68.96949115928146 161.0026809652336,67.53580956329824 161.29222520103212,66.66161132371053 161.77479892759584,65.64753933052998 162.38605898129754,64.59849703713553 162.90080428950023,63.12983389614965 163.0294906166382,62.675246756494744 163.99463806976564,60.85689380482654 164.2520107239252,60.472241318115266 164.54155495984014,59.598029951244825 165.3458445040742,58.02444539649878 166.3109919570852,56.625699150637956 167.21179624658544,55.33185516981757 168.33780160860624,53.8281941798632 169.6890080429148,52.114714168419596 170.84718498657458,50.6809811987041 172.3592493297765,49.24724385840818 173.4209115280537,48.12822631196468 174.0321715818718,47.638655298243975 175.28686327079777,46.48466446361272 175.6729222520953,46.20490868345951 176.0911528149154,45.89018323170603 177.02412868628744,45.1907925849664 178.4075067024678,44.17667429969879 180.0804289544467,42.88279607114964 181.1099195710849,42.183400951937074 182.81501340481918,41.16927618155023 184.61662198381964,40.08520935339038 185.87131367309485,39.350840082159266 186.0,39.03611004349659 185.034852546989,38.79131986777065 184.3592493297765,38.966170006315224 182.49329758714885,39.280900091835065 181.23860589810647,39.49072003181209 179.79088471853174,39.770479806145886 178.9222520107869,40.22508908450254 177.02412868628744,40.994426862191176 175.76943699736148,41.34412543583312 175.1260053620208,41.62388410771382 174.48257372656371,41.76376338113914 172.8096514744684,42.183400951937074 170.7506702413084,42.74291713052662 168.75603217154276,43.23249324070639 167.5335120643722,43.547220470994944 166.3431635388406,43.89691714651417 164.63806970510632,44.421461672201985 163.51206434320193,44.841096871561604 163.1260053620208,44.911036035075085 161.80697050935123,45.365640344214626 161.26005361927673,45.47054896844202 160.906166219851,45.50551850476768 159.42627345840447,45.82024421382812 158.6863270776812,45.71533566751168 157.23860589810647,45.64539662367315 156.563002680894,45.64539662367315 155.17962466483004,45.85521372410585 154.4396782842232,46.030061236262554 153.47453083109576,46.309817120520165 152.8310991957551,46.449695000308566 151.44772117957473,46.90429782209685 150.03217158163898,47.3589002044755 149.35656836465932,47.56871654043789 148.48793565679807,47.813502147386316 147.58713136729784,48.19816498667933 145.72117962455377,48.96748972145724 144.563002680894,49.42209010946681 142.6970509381499,50.36625874234596 140.8310991957551,51.205518158036284 139.0294906166382,52.114714168419596 137.74262734584045,52.95397046417929 137.4209115281701,53.338629099336686 136.52010723866988,54.24782098620199 136.06970509374514,54.56254084527609 135.13672922248952,54.63247856317321 134.58981233241502,55.5066991589556 133.91420911520254,56.10116823599674 133.46380697039422,56.10116823599674 132.53083109902218,57.01035478289123 131.05093833769206,57.98947679111734 129.8284182305215,59.598029951244825 129.02412868628744,61.24154597692541 128.73458445025608,61.90594444249291 128.34852546919137,62.220659177575726 127.86595174251124,62.32556404254865 126.80428954423405,62.81511976936599 125.22788203752134,64.2837838929845 123.68364611256402,65.78741145963431 122.58981233241502,66.8364511016116 121.56032171577681,68.65478093927959 120.59517426264938,70.26329762928071 119.50134048238397,71.27735967256012 118.92225201067049,72.71102986580809 117.76407506689429,74.35450007842155 117.05630026804283,75.82312817676575 116.5737265413627,76.90711264204583 115.93029490602203,78.02606172830565 115.4798927612137,79.35481031180825 115.41554959781934,79.8093813341693 114.5469168900745,81.83746208288358 114.4825737264473,82.8514991789998 114.4504021446919,83.55083383395686 114.09651474526618,84.45996733140782 114.28954423579853,85.64883156225551 114.19302949053235,87.53702151932521 114.06434316339437,88.760844296281 114.16085790889338,89.21540623129113 114.16085790889338,89.94969766013674 114.22520107228775,90.8937849564536 114.4825737264473,92.43229352880735 115.0616621983936,94.39038807316683 115.96246648789383,96.38344022398815 116.44504021445755,97.25758324115304 117.31367292208597,98.44641513854731 118.95442359230947,99.88000254987855 120.24128686322365,100.85903534543468 122.04289544234052,101.0338624160504 122.46112600527704,101.0688278224261 123.68364611256402,101.20868942173547 125.3887399462983,100.33455374394543 126.80428954423405,99.4604164424527 127.12600536178797,99.28558878737385 127.28686327068135,98.44641513854731 127.5764075065963,98.20165587580414 128.0268096512882,97.85199956528959 129.12064343155362,96.90792622914887 129.89276139403228,96.27854295278667 130.40750670235138,95.96385099904728 131.75871313665994,95.19460311485454 131.85522788204253,95.19460311485454" stroke="#4dd2ff" stroke-linecap="round" stroke-linejoin="round" stroke-width="0.5"><title>2024-05-13 13.6km</title><desc>9223370321247039907</desc></polyline><polyline fill="none" points="65.74190630950034,170.19519747747108 64.12735181674361,157.02449625590816 64.93462906219065,129.80495357513428 60.89824282936752,123.65858778869733 51.614554492756724,117.0731887454167 43.54178202524781,117.95124237705022 37.48720267415047,122.7805350087583 33.45081644318998,142.53669083723798 33.04717781767249,169.3171516461298 38.29447992146015,178.0976040479727 55.24730210378766,180.29271510150284 61.30188145302236,176.78053702320904 65.3382676858455,154.82937651732937 66.14554493129253,130.68300530640408 62.109158700332046,121.02442905632779 47.98180688172579,116.63416187977418 37.48720267415047,121.46345559461042 33.45081644318998,132.87813405925408 33.04717781767249,143.85376553237438 33.854455064982176,164.04887391114607 35.06537093408406,174.58542466163635 40.312673039734364,179.85369295580313 57.26549521833658,180.29271510150284 64.12735181674361,171.07324317563325 65.74190630950034,147.80498784594238 66.54918355681002,130.68300530640408 62.51279732212424,120.58540248591453 56.45821797288954,117.0731887454167 41.523588908836246,118.82929587783292 36.276286805048585,123.65858778869733 33.45081644318998,144.73181516490877 32.64353919401765,151.75620750617236 32.64353919401765,167.1220364975743 34.661732310429215,173.26835685037076 46.367252388969064,182.48782533220947 59.687326960265636,178.97564856847748 63.32007456943393,173.26835685037076 66.54918355681002,156.14644845807925 66.95282217860222,135.07326199300587 65.3382676858455,126.29274534154683 59.28368833474815,117.95124237705022 49.59636137634516,115.75610805116594 37.48720267415047,121.46345559461042 33.45081644318998,127.60982367536053 34.25809368863702,143.85376553237438 33.45081644318998,169.7561745774001 43.54178202524781,180.73173721227795 56.86185659468174,180.73173721227795 64.12735181674361,173.26835685037076 65.74190630950034,156.58547237329185 66.95282217860222,129.80495357513428 59.687326960265636,118.39026914350688 50.0,115.75610805116594 39.101757168769836,121.02442905632779 34.25809368863702,129.80495357513428 34.661732310429215,155.70742451073602 36.276286805048585,175.02444719942287 43.54178202524781,180.73173721227795 57.26549521833658,180.29271510150284 64.53099044039845,173.26835685037076 66.54918355681002,154.39035247126594 67.7600994259119,142.0976658742875 64.53099044039845,123.21956141572446 57.669133841991425,117.0731887454167 47.98180688172579,115.75610805116594 37.48720267415047,123.21956141572446 34.25809368863702,139.0244902074337 33.854455064982176,166.6830133688636 36.67992542870343,175.90249217813835 44.34905927069485,181.17075929045677 58.47641108930111,180.29271510150284 63.723713191226125,176.34151461720467 67.35646080225706,159.65863886056468 67.35646080225706,153.5123042804189 67.7600994259119,131.56105690589175 62.51279732212424,120.1463758838363 50.4036386217922,116.19513498153538 38.698118545114994,121.46345559461042 34.25809368863702,131.12203112244606 33.45081644318998,156.58547237329185 33.854455064982176,171.95128874387592 41.1199502851814,180.29271510150284 51.21091586723924,182.48782533220947 60.090965582057834,178.97564856847748 66.54918355681002,166.6830133688636 66.95282217860222,139.0244902074337 64.53099044039845,123.65858778869733 54.440024856477976,116.63416187977418 43.138143403455615,117.51221557706594 34.25809368863702,128.4878757330589 33.45081644318998,155.26840053033084 33.04717781767249,168.8781286822632 35.06537093408406,175.02444719942287 49.59636137634516,182.04880335181952 59.28368833474815,179.4146707779728 66.14554493129253,163.17082716338336 67.35646080225706,137.70741443196312 62.916435945779085,122.7805350087583 49.59636137634516,116.19513498153538 40.71631166152656,119.26832257863134 34.25809368863702,131.12203112244606 34.25809368863702,157.4635201045312 34.661732310429215,173.26835685037076 40.312673039734364,180.29271510150284 52.421831738203764,182.48782533220947 62.916435945779085,177.21955939847976 66.95282217860222,160.09766251267865 67.7600994259119,132.87813405925408 63.723713191226125,121.90248209843412 53.63274760916829,116.63416187977418 41.92722753062844,118.82929587783292 35.06537093408406,126.29274534154683 33.854455064982176,146.92693867301568 33.45081644318998,171.51226597698405 38.29447992146015,178.97564856847748 47.17452963627875,182.04880335181952 61.70552007481456,178.97564856847748 67.35646080225706,168.43910568440333 67.35646080225706,143.41474066628143 67.35646080225706,128.92690171394497 55.24730210378766,116.63416187977418 43.945420648902655,117.95124237705022 38.698118545114994,121.90248209843412 34.661732310429215,143.41474066628143 35.06537093408406,168.0000826548785 39.101757168769836,178.97564856847748 50.4036386217922,182.48782533220947 61.70552007481456,179.4146707779728 67.35646080225706,168.43910568440333 68.16373804956675,140.78059078520164 68.16373804956675,135.07326199300587 66.95282217860222,125.85371916508302 62.109158700332046,121.02442905632779 48.385445507243276,116.19513498153538 36.67992542870343,123.65858778869733 33.45081644318998,141.6586408764124 33.45081644318998,167.1220364975743 38.29447992146015,178.53662632405758 46.770891012623906,182.48782533220947 59.28368833474815,181.60978133790195 67.35646080225706,169.3171516461298 67.7600994259119,140.34156568953767 68.97101529687643,130.24397945776582 59.28368833474815,117.95124237705022 46.770891012623906,116.19513498153538 36.276286805048585,124.5366404382512 35.06537093408406,146.04888936830685 34.661732310429215,171.95128874387592 37.48720267415047,178.0976040479727 46.367252388969064,183.36586919706315 56.45821797288954,182.92684728093445 64.12735181674361,177.21955939847976 68.16373804956675,160.9757097195834 68.56737667322159,130.68300530640408 63.723713191226125,120.1463758838363 53.22910898551345,116.19513498153538 41.523588908836246,119.70734924729913 35.06537093408406,132.00008265627548 35.4690095577389,156.58547237329185 35.4690095577389,171.51226597698405 43.138143403455615,181.17075929045677 55.24730210378766,183.80489107826725 63.723713191226125,179.4146707779728 68.56737667322159,168.0000826548785 68.16373804956675,142.0976658742875 65.3382676858455,122.34150856966153 55.24730210378766,115.75610805116594 40.71631166152656,119.26832257863134 33.854455064982176,136.8293637498282 34.661732310429215,160.53668613173068 37.48720267415047,175.90249217813835 46.367252388969064,183.36586919706315 56.45821797288954,184.2439129287377 66.54918355681002,176.34151461720467 68.97101529687643,156.14644845807925 68.56737667322159,129.80495357513428 63.723713191226125,120.1463758838363 52.421831738203764,116.19513498153538 38.29447992146015,122.7805350087583 35.06537093408406,145.17083993274719 35.87264818325639,171.51226597698405 42.73450477980077,181.60978133790195 55.65094072557986,184.6829347461462 66.54918355681002,176.78053702320904 70.18193116784096,164.48789723636582 69.37465392053127,145.60986466659233 67.7600994259119,124.97566671296954 58.47641108930111,115.75610805116594 48.78908412717283,116.19513498153538 36.276286805048585,126.29274534154683 35.06537093408406,132.87813405925408 34.25809368863702,153.9513283930719 34.661732310429215,172.39031147863716 43.138143403455615,182.04880335181952 52.01819311641157,183.80489107826725 64.12735181674361,178.0976040479727 68.56737667322159,169.3171516461298 68.97101529687643,145.17083993274719 66.54918355681002,125.4146929550916 59.687326960265636,117.95124237705022 51.21091586723924,115.31708108680323 36.67992542870343,122.34150856966153 33.45081644318998,139.0244902074337 32.23990057222545,164.48789723636582 33.45081644318998,174.58542466163635 37.48720267415047,180.29271510150284 46.367252388969064,184.6829347461462 58.47641108930111,182.92684728093445 66.14554493129253,172.82933418033645 66.95282217860222,146.04888936830685 67.7600994259119,129.80495357513428 61.30188145302236,118.82929587783292 52.421831738203764,114.87805409077555 37.890841299667954,120.58540248591453 31.83626194857061,139.90254056174308 31.83626194857061,164.92692052898929 34.661732310429215,176.78053702320904 47.17452963627875,185.12195652956143 59.28368833474815,182.48782533220947 67.35646080225706,168.43910568440333 67.7600994259119,151.75620750617236 67.35646080225706,133.31715971184894 64.53099044039845,122.7805350087583 57.26549521833658,117.0731887454167 50.0,115.31708108680323 34.661732310429215,123.21956141572446 31.02898470312357,135.5122874812223 31.432623324915767,148.68303688941523 31.83626194857061,171.51226597698405 37.890841299667954,181.60978133790195 52.421831738203764,185.56097828177735 61.70552007481456,180.29271510150284 67.35646080225706,168.8781286822632 67.7600994259119,143.41474066628143 66.95282217860222,126.7317714849487 61.30188145302236,118.39026914350688 55.65094072557986,114.87805409077555 45.15633651800454,114.43902706215158 33.45081644318998,126.29274534154683 31.83626194857061,142.97571576852351 31.83626194857061,168.43910568440333 40.71631166152656,182.04880335181952 53.63274760916829,185.12195652956143 64.53099044039845,176.78053702320904 67.7600994259119,157.4635201045312 68.56737667322159,136.3903383598663 64.53099044039845,121.02442905632779 58.88004971295595,116.63416187977418 48.385445507243276,115.75610805116594 39.101757168769836,118.82929587783292 31.83626194857061,131.12203112244606 32.64353919401765,158.78059145621955 36.67992542870343,178.97564856847748 50.80727724544704,185.12195652956143 62.916435945779085,180.29271510150284 67.7600994259119,161.41473327437416 68.16373804956675,143.85376553237438 67.35646080225706,127.17079759621993 60.89824282936752,117.95124237705022 52.01819311641157,114.0 37.48720267415047,121.02442905632779 31.432623324915767,133.31715971184894 29.818068832159042,157.02449625590816 31.02898470312357,174.14640208985656 39.909034414216876,183.36586919706315 58.07277246564627,184.6829347461462 66.14554493129253,178.0976040479727 68.56737667322159,168.0000826548785 68.56737667322159,154.39035247126594 68.56737667322159,133.31715971184894 64.53099044039845,120.58540248591453 52.421831738203764,114.87805409077555 40.312673039734364,118.82929587783292 33.45081644318998,142.0976658742875 32.64353919401765,164.48789723636582 34.661732310429215,177.65858174022287 41.92722753062844,183.80489107826725 57.26549521833658,184.2439129287377 64.93462906219065,178.53662632405758 67.7600994259119,160.09766251267865 67.7600994259119,139.90254056174308 67.7600994259119,130.68300530640408 57.669133841991425,117.95124237705022 47.57816825993359,115.31708108680323 33.45081644318998,126.7317714849487 32.23990057222545,143.41474066628143 32.23990057222545,156.14644845807925 31.83626194857061,172.82933418033645 39.101757168769836,182.48782533220947 52.01819311641157,186.0 61.70552007481456,182.04880335181952 66.54918355681002,172.82933418033645 68.16373804956675,146.48791403742507 68.56737667322159,140.34156568953767 63.723713191226125,122.34150856966153 47.98180688172579,116.63416187977418 38.29447992146015,121.46345559461042 33.854455064982176,127.17079759621993 34.25809368863702,136.3903383598663 32.64353919401765,159.65863886056468 32.64353919401765,170.63422034261748 36.276286805048585,179.85369295580313 43.54178202524781,184.6829347461462 56.86185659468174,184.6829347461462 64.93462906219065,177.65858174022287 67.7600994259119,156.58547237329185 68.16373804956675,139.46351540181786 66.95282217860222,128.04884972050786 53.63274760916829,117.95124237705022 43.138143403455615,119.26832257863134 36.276286805048585,126.29274534154683 33.04717781767249,135.07326199300587 32.23990057222545,159.65863886056468 32.64353919401765,169.7561745774001 35.4690095577389,178.97564856847748 44.34905927069485,184.6829347461462 57.26549521833658,184.6829347461462 65.74190630950034,175.02444719942287 68.16373804956675,148.68303688941523 68.56737667322159,132.43910837406293 63.32007456943393,123.65858778869733 51.614554492756724,117.95124237705022 42.33086615614593,119.70734924729913 33.45081644318998,130.68300530640408 32.64353919401765,133.31715971184894" stroke="#4dd2ff" stroke-linecap="round" stroke-linejoin="round" stroke-width="0.5"><title>2024-05-10 12.2km</title><desc>9223370321510435007</desc></polyline><polyline fill="none" points="122.7584973166231,181.14910089070327 123.49910554557573,181.14910089070327 124.94812164572068,180.76413736797986 126.36493738822173,179.85422233611462 127.36314847948961,178.8743118745333 128.87656529503874,177.47443625004962 130.3255813953001,176.21454463066766 131.5169946332462,175.72458586856374 132.4830053667538,174.46468956841272 134.18962432921398,173.1697926368215 135.38103756692726,171.83989478519652 136.99105545622297,170.68498044629814 137.7316636851756,169.63505586233805 139.24508050095756,168.7601169210975 140.37209302326664,167.535199672624 142.36851520556957,166.6602568302187 144.2361359570641,165.47033195599215 145.9749552772846,164.28040407499066 146.77996422175784,163.82543085544603 148.61538461525925,163.16046920532244 150.19320214667823,161.90053929318674 151.96422182477545,160.85059512482258 152.57602862245403,160.25562572359922 154.1216457959963,158.75069976504892 155.44186046510004,157.31576588356984 156.4722719141282,155.81083052951726 157.24508050084114,154.55088095279643 157.72808586759493,154.3758876893844 158.62969588546548,152.59095268783858 159.40250447229482,150.73601306576165 160.23971377452835,148.91606520238565 161.27012522367295,147.1661086998356 162.2361359570641,145.27614837157307 163.16994633281138,143.45617940381635 163.62075134168845,141.9162001667719 164.74776386399753,139.9912190368923 165.52057245082688,138.4862283077382 165.97137745970394,137.4012320068141 166.7441860465333,136.4212331986928 167.83899821108207,134.81123072793707 169.1914132379461,132.99122130466276 170.64042933797464,131.2412056081521 172.15384615387302,129.59618492148002 173.76386404281948,128.1261615716794 175.30948121636175,126.5161307308299 177.08050089445896,125.18610110000009 178.75491949915886,124.03107231901959 180.55813953478355,122.70103566651233 182.4579606441548,121.51099968646304 184.2611806797795,120.32096069765976 185.83899821108207,119.41092885259422 186.0,119.09591741929762 185.71019677992444,118.85090838104952 184.8407871198142,118.88590968007338 182.87656529515516,119.2709237971576 180.9123434703797,119.62093635761994 178.88372093020007,120.25095831046929 176.7906976743834,120.77597596042324 174.76207513408735,121.33599414143828 172.86225402506534,122.14101910946192 170.83363148476928,122.73603667912539 168.90161001787055,123.26105155717232 166.8729874775745,123.89106863786583 164.77996422175784,124.4160822275735 162.8157423970988,124.9060943830118 160.88372093020007,125.46610765036894 159.46690518781543,125.71111324528465 157.6958855097182,125.53610926194233 156.21466905192938,125.57111006378545 154.1216457959963,126.02612025139388 152.60822898033075,126.41112852815422 150.611806797795,127.07614208263112 148.71198568865657,127.77615533553762 147.0697674418334,128.40616637319908 145.20214669033885,129.17617871850962 143.33452593919355,130.12119214815903 141.27370304102078,131.13620445950073 139.40608228975907,131.97621299306047 137.66726296953857,132.99122130466276 136.57245080498978,134.21622842139914 135.25223613600247,134.56622986929142 134.83363148465287,134.77623061314807 134.60822898033075,135.47623241593828 134.3506261180155,135.82623292706558 133.86762075137813,136.00123308500042 133.32021466910373,136.07123312997282 132.6440071555553,136.87623289908515 131.16279069765005,137.89123064596788 130.03577817534097,139.32622372655896 129.6493738819845,140.306216487661 128.84436493751127,141.28620720884646 127.10554561717436,142.47619319942896 125.52772808587179,143.80617398244794 124.85152057243977,144.68115929071791 123.27370304102078,146.04613312482252 121.92128801427316,147.72609548823675 121.34168157423846,149.2310566821543 120.37567084073089,150.31602572157863 119.34525939170271,151.40099226107122 118.47584973170888,153.29092800462968 117.38103756704368,154.62087823988986 116.86583184252959,156.4758025581832 115.93202146678232,157.73574698437005 115.41681574238464,159.55566075976822 114.51520572451409,161.69055064677377 114.611806797795,162.9154830975167 114.22540250443853,163.61544306736323 114.0,164.4203957465361 114.25760286219884,166.48526806669543 114.12880143115763,168.62012653966667 114.28980321995914,170.5449906370195 114.74060822883621,172.78482259236625 114.99821109115146,173.06480083768838 115.35241502674762,174.8496582399821 116.02862254017964,176.24954166566022 116.8980322004063,177.8244055462128 118.47584973170888,179.39926416100934 120.15026833617594,180.7991340647859 121.47048300539609,180.93912082636962 122.24329159210902,181.00911419157637 123.85330948117189,181.07910754627665 125.7209302324336,180.06420288412482 127.07334525941405,179.15428650009562 128.07155635056552,177.89439937425777 129.58497316634748,176.3895297793497 131.00178890873212,175.82957707479363 131.74239713768475,175.40961210947717 132.86940966011025,173.93973178204033 134.06082289805636,173.20478989806725 134.73703041148838,172.15487093152478 136.31484794267453,170.99995736495475 137.1842576029012,169.74004842608701 138.72987477632705,168.90010726090986 139.37388193199877,168.06016459778766 140.95169946341775,166.97523644077592 142.75491949904244,166.27528146459372 144.49373881926294,165.0153598859324 146.42576028616168,163.82543085544603 148.3255813953001,163.02047715929803 149.4847942754859,162.250520162459 150.0644007154042,161.72554876108188 151.8354203935014,160.6406060102163 152.47942754917312,160.0106381046353 154.18604651163332,158.40071629468002 155.57066189625766,156.82578745918 156.63327370304614,155.11085895862198 157.24508050084114,154.23589303181507 158.0822898031911,153.25592926357058 158.6940966011025,151.99597285035998 159.3381037565414,150.45602154466906 160.14311270136386,148.53107532986905 161.1735241501592,146.67611971352017 162.1717352414271,144.89115552281146 162.91234347049613,143.00118606258184 163.74955277284607,141.28620720884646 164.522361359559,140.02621876407648 165.23076923075132,138.31122907350073 166.00357781758066,136.87623289908515 167.22719141305424,135.30123206280405 168.38640429335646,133.58622515946627 169.7066189624602,131.97621299306047 171.05903398932423,130.36619532020995 172.18604651163332,129.2461797784199 173.6994633274153,127.70615405711578 174.95527728076559,126.5161307308299 176.62969588546548,125.18610110000009 178.5617173523642,123.89106863786583 180.46153846150264,122.52603056401131 182.23255813948344,121.40599636727711 184.10017889086157,120.42596425890224 185.9355992844794,119.30592506492394 185.90339892660268,118.88590968007338 184.61538461537566,118.85090838104952 182.5867620750796,119.20092125379597 180.62254025042057,119.55093386632507 178.4973166368436,120.11095350494725 176.50089445442427,120.91598056809744 174.50447227188852,121.65100407553837 172.57245080498978,122.07101699302439 170.64042933797464,122.63103363328264 168.4830053667538,123.22605058352929 166.51878354197834,123.71606397780124 164.26475849736016,124.31107955647167 162.01073345250916,125.11609943633084 160.91592128796037,125.29110357590253 159.46690518781543,125.6411116597883 158.1788908765884,125.29110357590253 156.27906976744998,125.36110521346563 154.6368515206268,125.60611086306744 152.57602862245403,126.23612480502925 151.35241502686404,126.72613506577909 149.22719141317066,127.2511454935302 147.1985688728746,128.19616278764443 145.23434704821557,128.93117492710007 143.27012522355653,129.91118932780228 141.3059033988975,130.89120168818044 139.4704830053961,131.76621100018383 137.69946332729887,132.85122028834303 136.44364937394857,134.21622842139914 135.4454382826807,134.49622960053966 134.76923076913226,134.6712302529195 134.51162790693343,135.40623228249024 133.99642218241934,135.8962329980568 133.2236135957064,136.03623310872354 132.35420393547975,137.01623271839344 131.0661896241363,137.78623098047683 129.7459749552654,139.53622234717477 129.42397137731314,140.4812149803911 128.55456171743572,141.4612053373421 127.00894454377703,142.406194106763 126.07513416814618,143.24618253170047 124.72271914139856,144.64615990966558 123.08050089445896,146.11613167630276 121.85688729875255,147.76109464044566 121.18067978532054,149.37105282771518 119.8604651162168,150.6660152009863 119.08765652950387,152.13596817385405 118.25044722715393,153.53591911974945 117.15563506260514,155.18085616256576 116.64042933820747,157.03577827487607 115.80322003585752,158.01573417687905 115.41681574238464,159.4506659254257 114.99821109115146,160.99058781578788 114.45080500887707,162.04053167210077 114.48300536663737,163.33545920421602 114.12880143115763,164.59538527729455 114.22540250443853,166.52026582462713 114.09660107339732,168.5851289378188 114.16100178903434,170.85996764936135 114.38640429335646,171.52491842812742 114.77280858671293,173.48476789385313 115.41681574238464,175.444609204249 116.35062611813191,177.22945758799324 117.4454382826807,178.45434962399304 118.76565295166802,179.71423525214777 120.27906976744998,181.00911419157637 121.79248658311553,181.04411087019253" stroke="#4dd2ff" stroke-linecap="round" stroke-linejoin="round" stroke-width="0.5"><title>2024-04-26 13.1km</title><desc>9223370322705658065</desc></polyline><polyline fill="none" points="24.983050847542472,258.02920172261656 26.042818911839277,257.2613339724194 27.969669937738217,255.65578825681587 28.54772524535656,254.9228199100762 30.57091882242821,253.35216960153775 31.63068688684143,252.86352176775108 32.91525423747953,251.36267167140613 33.55753791274037,250.8391181839106 35.741302408627234,248.7099946566159 36.44781445141416,248.57037966192001 37.507582515710965,247.06951584783383 38.85637823387515,246.33653410259285 39.53077609289903,245.46393529544002 40.59054415707942,244.7309510446794 42.83853702060878,243.7187328177679 44.701159678865224,242.11314081100863 46.75646743981633,241.1358212500054 48.10526315798052,240.75187372326036 49.48617305990774,239.87926454047556 50.35325602139346,239.11136711845757 51.63782337203156,238.30856392584974 52.504906333750114,237.68028220918495 52.890276538790204,237.22652266881778 53.917930419323966,236.2491929390526 55.00981266738381,235.06243267576792 56.422836752957664,233.42190619715257 57.45049063349143,231.92099397341372 58.189116860041395,230.7342227725312 58.5102586975554,229.93140525944182 59.92328278336208,227.03426977765048 60.82247992872726,224.9748493496445 61.75379125785548,223.4390045069158 62.717216770746745,221.5540971524606 62.942016057204455,220.82107558232383 63.19892952719238,219.9135234814894 64.64406779664569,217.53991738593322 65.15789473685436,216.1436729011184 65.67172167706303,215.23611175952828 66.76360392512288,213.7351414061559 67.9839429082349,211.95491453408613 69.10793933994137,210.59356001843116 70.07136485283263,209.26710823204485 71.06690454948694,208.01046624052105 72.4157002675347,206.7189140220289 73.57181088312063,205.46226520990604 74.3746654773131,204.69431150206947 75.33809099020436,203.89144946451415 76.71900089201517,202.66970025090268 79.03122212307062,201.16868972138036 80.34790365735535,200.26109963122872 81.24710080295336,199.6327670023311 83.01338090992067,198.5506366144691 83.75200713647064,198.13174676243216 85.3898305085022,197.08452049692278 85.77520071354229,196.24673780234298 83.62355040141847,196.5958141067822 81.95361284562387,197.01470532940584 80.34790365735535,197.29396593690035 78.13202497770544,197.99211672871024 77.07225691352505,198.34119173520594 75.62711864407174,198.7251739425992 74.34255129343364,199.5280448157282 72.4799286351772,199.84221130533842 71.35593220347073,200.12147023074795 69.87867975025438,200.4356363232655 67.11685994639993,201.27341154203168 64.54772524535656,201.97155641557765 62.97413024085108,202.63479308379465 61.657448706566356,202.844236047531 59.92328278336208,203.36784304797766 57.70740410347935,203.2282145716017 55.973238180275075,203.29802881504293 53.821587867918424,203.71691405720776 51.059768064296804,204.51977639325196 50.19268510257825,204.76412552740658 48.26583407679573,205.56698607266298 46.82069580745883,206.0556831236463 45.504014272941276,206.4745659053733 43.320249777054414,207.55667802807875 42.06779661029577,208.2199068060727 40.494201605790295,208.95294804946752 38.503122212481685,209.9652412183641 37.53969669935759,210.83790599138592 36.961641391622834,211.5011301341001 35.452274754759856,212.09454041504068 34.00713648542296,213.45589057845064 33.20428189134691,213.8398604237882 32.690454950905405,214.29364256333793 31.82337198930327,214.99176807550248 30.15343443362508,216.6323589431122 29.41480820707511,218.06350799728534 28.098126672557555,219.63427632831736 26.87778768967837,220.26258218940347 25.528991971514188,221.44937985535944 24.404995539807715,222.53145746592782 23.313113291864283,223.71824939738144 21.932203390053473,225.3239042951609 20.7439785907045,227.59275511663873 19.459411240182817,228.70972380193416 18.913470116094686,230.31536163261626 17.628902765573002,231.99080395064084 16.92239072266966,233.59643056307686 16.440677966340445,234.9228136240563 15.220338983112015,237.7500913302647 14.6743978591403,239.07646266039228 14.545941124088131,240.96129968587775 14.256913470337167,244.06777383209555 14.0,247.03461198121659 14.353256021509878,248.57037966192001 14.642283675493672,250.03633503662422 15.44513826945331,252.58429420590983 16.504906333750114,254.6086902685347 18.046387154376134,256.4236586315383 19.29884032125119,257.40094638391747 20.358608385547996,258.2386199821194 22.157002676161937,258.55274719634326 24.148082069703378,258.448038148199 26.84567350591533,256.9123027618916 27.680642283754423,255.96991719820653 29.190008920733817,254.43417371017858 30.4745762712555,253.59649332778645 31.502230151672848,253.07294233012362 32.59411239961628,251.64189995935885 33.6538804640295,250.94382892810972 35.96610169496853,248.64018716441933 36.89741302409675,247.90720787030295 38.08563782332931,246.68557317150407 38.85637823387515,246.33653410259285 39.62711864418816,245.39412732093479 42.260481712874025,244.03286974233924 43.25602140952833,243.40459568315418 44.12310437113047,242.91593750054017 45.504014272941276,241.83390685822815 47.398751115077175,240.82168238778831 49.19714540592395,239.98397772802855 49.775200713658705,239.46041155682178 51.2845673506381,238.55289547753637 52.02319357718807,238.16894583922112 53.85370205179788,236.28409760730574 55.909009812632576,233.9105742581305 57.00089206069242,232.0955188969965 58.31757359497715,230.48988715285668 59.08831400540657,228.88424991903594 59.66636931314133,227.52294448556495 60.340767172165215,225.67295898124576 61.432649420108646,223.8229661885416 62.267618198064156,222.11258900916437 62.84567350591533,220.9956046313455 63.19892952719238,219.7389940302528 64.03389830514789,218.41256808053004 64.54772524535656,217.43519919359824 64.90098126663361,216.17857906385325 66.6993755575968,213.63042236526962 67.37377341650426,212.75776278265403 68.65834076714236,210.94262565515237 70.10347903659567,209.12748151016422 70.87421944690868,208.1151865349675 71.77341659227386,207.2076098739053 73.02586975914892,206.12549694659538 74.92060660128482,204.20561303399154 76.52631578943692,203.0187717792287 78.29259589652065,201.69229859075858 79.73773416585755,200.61017295051715 80.82961641380098,199.84221130533842 82.2105263157282,199.10915583584574 84.39429081173148,197.78267160014366 85.71097234613262,197.0496129145031 85.80731489742175,196.28164544448373 84.36217662808485,196.4212759870279 82.82069580745883,196.70053694749367 81.27921498659998,197.11942807669402 80.05887600360438,197.46850373217603 78.32471008040011,197.99211672871024 76.46208742191084,198.7600814003672 75.46654772525653,198.82989630819065 73.05798394279554,199.87711868010228 71.06690454948694,200.3309143157967 68.04817127564456,200.99415330190095 64.93309545051306,201.9366491965484 63.648528099874966,202.28572126998915 61.94647636055015,202.844236047531 60.21231043711305,203.2282145716017 58.60660124884453,203.19330744608305 57.70740410347935,203.0885860537528 56.29438001778908,203.2282145716017 54.59232827834785,203.6121927817003 53.307760927826166,203.7867282278894 52.37644959858153,204.1357989256503 50.995539696654305,204.51977639325196 49.42194469226524,205.07828851303202 47.81623550411314,205.74152079215855 45.504014272941276,206.4745659053733 43.73773416597396,207.382143983501 42.67796610167716,207.94065269795828 41.00802854588255,208.70860109553905 38.567350579891354,209.89542796640308 37.12221231055446,211.29169103238382 35.77341659239028,212.12944687876734 34.809991079499014,212.51341780877556 34.16770740412176,213.49079694104148 32.94736842112616,214.11911102302838 30.859946476412006,215.55026773782447 29.70383586094249,216.9116078815714 29.02943800180219,218.76162790425587 26.588760035810992,220.47201728954678 25.882247993024066,221.03051043342566 24.115967885940336,222.915419889614 23.12042818928603,223.75315499701537 21.835860838647932,225.42862072822754 20.422836752957664,227.90690282784635 18.97769848362077,230.17574116960168 17.757359500508755,231.74646898487117 17.115075825247914,233.52662082444294 16.408563782460988,234.95771839091321 15.477252453216352,236.5633348597039 14.931311329244636,238.51799097802723 14.513826940441504,239.87926454047556 14.256913470337167,241.55467273949762 14.289027653983794,242.91593750054017 14.160570918931626,244.10267791926162 14.096342551405542,246.12711053679232 14.22479928645771,248.18643821246224 14.83496877795551,250.59479302345426 15.637823372147977,253.14274916358409 16.697591436328366,255.09733628685353 18.174843889544718,256.52836813087924 19.941123996512033,257.9593956153549 20.7439785907045,258.448038148199 23.024085637996905,258.55274719634326 23.826940232072957,258.62255321542034 25.62533452291973,257.6801710826403 26.588760035810992,257.01701215229696 27.295272078597918,256.28404592955485 29.54326494212728,254.08514039905276 30.346119536203332,253.59649332778645 31.82337198930327,252.68900456104893 32.59411239961628,251.60699643247062 34.07136485283263,250.45517858900712 35.06690454960335,249.23355051715043 36.83318465668708,248.01191926805768 38.503122212481685,246.5459575751156 39.30597680655774,245.74316709014238 40.14094558439683,244.87056718065287 38.63157894730102,245.32431933589396 37.53969669935759,246.23182233143598 36.768956289161,246.75538095418597 35.002676182077266,247.8374002588389 34.00713648542296,249.12883939172025 32.88314005360007,250.14104595963727 32.46565566479694,250.6646002252237 31.6949152542511,251.50228583611897 30.667261373833753,252.58429420590983 29.800178412231617,253.247459394217 28.644067796645686,254.46907702702447 27.712756467517465,255.44636884587817 26.942016057204455,256.0048204009945 25.464763603988104,257.01701215229696 24.694023193675093,257.6452680043876 24.115967885940336,257.6801710826403 23.248884924221784,257.88958949776134 21.771632471121848,259.00648613492376 20.358608385547996,260.1233801165072 19.138269402319565,261.06575734802755 17.69313113298267,262.04303544326103 15.702051739674062,263.40424083085964 16.569134701159783,263.1599222055811 18.752899197279476,261.5543966498517" stroke="#4dd2ff" stroke-linecap="round" stroke-linejoin="round" stroke-width="0.5"><title>2024-04-12 15.1km</title><desc>9223370323917503807</desc></polyline><polyline fill="none" points="122.6863270776812,261.19121601060033 124.3592493297765,261.08631979164784 124.74530831107404,260.8415618564468 126.28954423603136,259.8275633401063 127.22252010728698,258.9534249344724 128.7024128686171,257.41493739685393 129.79624664888252,256.54079450963764 130.3753351207124,256.3309999751218 131.436997319106,255.59671836759662 132.0482573726913,254.82746974029578 132.43431635398883,254.4428449551342 132.82037533528637,254.12815171520924 133.39946380699985,253.81345826480538 133.91420911531895,253.39386667040526 135.10455764085054,251.96025923272828 135.52278820367064,251.54066598572535 136.3270777480211,251.19100466073724 136.84182305634022,250.56161362095736 137.4852546917973,249.68745800244506 138.5790884719463,249.19793014667812 139.76943699736148,248.00907466252102 140.86327077751048,247.27478006863385 142.56836461136118,246.57545081872377 144.11260053620208,245.52645499492064 145.04557640757412,244.65229002191336 146.10723860596772,244.3026235779398 147.07238605909515,243.63825661852024 148.87399463821203,242.83402167560416 149.42091152828652,242.4144202901225 149.93565683648922,242.13468582526548 151.89812332449947,240.9108455858368 152.8310991957551,239.9667380831961 153.7962466487661,238.9876616349211 154.56836461136118,238.18341874243924 155.4369973189896,237.3442073019687 156.40214477211703,235.87558367894962 156.72386058978736,234.89649871669826 157.33512064348906,234.58179240318714 158.04289544245694,233.3229650440917 158.97587131371256,231.50465291217552 159.49061662203167,230.28078502000426 160.06970509397797,228.63730027043493 160.4557640751591,228.07781479033292 161.29222520103212,226.71406614492298 161.58176943694707,226.08464235966676 162.5790884719463,224.40617481511435 162.90080428961664,223.63687518899678 162.99731903499924,222.76266954108723 163.41554959781934,222.06330385312322 163.76943699724507,221.5737472526962 164.09115281514823,221.01425337139517 164.34852546919137,220.3148850837897 164.7989276139997,219.0560195457074 165.95710455765948,217.34255826062872 166.69705093838274,216.50330963957822 167.40482573735062,215.41927795441006 168.4664879356278,213.95058587929816 169.04557640757412,213.1463001804077 170.04289544245694,211.81747731697396 171.13672922260594,210.55858903579065 171.45844504015986,210.173928055563 171.8766756033292,209.8242359823489 172.26273458451033,209.43957440153463 173.61394101881888,208.0757717161323 173.9356568363728,207.72607808286557 174.77211796236224,206.85184286214644 175.15817694365978,206.467178850231 176.2198391421698,205.59294128938927 178.08579088468105,204.40397559848498 179.3726541554788,203.42482512549032 181.1099195709685,202.34076329527306 182.39678284176625,201.67633706738707 183.07238605909515,201.25669896617183 184.3914209115319,200.34748179544113 185.77479892759584,199.61311279734946 186.0,199.22844286443433 185.58176943694707,198.91371268531657 184.23056300263852,199.1585028428235 183.61930294916965,199.22844286443433 182.52546916902065,199.40329287291388 180.91689008043613,199.75299269490642 179.4691689008614,200.13766219865647 178.40750670235138,200.59227120660944 177.53887399460655,200.97694002394564 176.02680965163745,201.46651806353475 175.0294906166382,201.78124653417035 173.74262734584045,202.3057935172692 173.06702412874438,202.4107028435974 170.94369973195717,202.86530965418206 170.26809651474468,202.93524912447901 168.30563002685085,203.56470388930757 166.05361930292565,204.19415781166754 164.7024128686171,204.5438540710893 164.2198391421698,204.6487628982868 163.44772117969114,204.9285196561832 162.5469168900745,205.10336754532182 161.9678284182446,205.278215369588 160.77747989282943,205.59294128938927 159.55495978554245,206.01257552136667 157.52815013402142,205.59294128938927 156.27345844509546,205.83772797021084 155.72654155502096,205.83772797021084 153.92493297590408,206.18742300756276 152.7345844503725,206.67699562301277 150.96514745312743,207.20153714541811 149.90348525473382,207.51626177807339 148.9061662197346,207.83098620013334 147.812332439702,208.25061843529693 147.04021447733976,208.6352809885284 146.58981233241502,208.81012749962974 145.3029490618501,209.26472812434076 144.75603217154276,209.43957440153463 143.5335120643722,210.10398966175853 142.76139410200994,210.41871235211147 140.99195710464846,211.29294094265788 139.83378016087227,211.74753916755435 138.83646112598944,212.30704407187295 137.9034852546174,212.97145528139663 137.3565683645429,213.32114501463366 136.64879356569145,214.40518153543235 135.32975871302187,214.82480790500995 134.81501340481918,215.20946508157067 134.49329758714885,216.0836847675091 133.59249329764862,216.39840345660923 132.24128686334006,217.41249557808624 130.9222520107869,218.25174257697654 129.8605898123933,219.61551575633348 129.18498659529723,221.18909528077347 128.1554959785426,222.13324046868365 126.48257372668013,223.2522249040485 125.67828418232966,223.70681157062063 124.58445040218066,225.03560084622586 123.65147453092504,225.90980226988904 123.32975871313829,226.2245143847831 122.17158176947851,227.65820024360437 121.52815013413783,229.26672064021113 120.69168900803197,230.5255588531436 119.79088471864816,231.22491196039482 119.34048257383984,232.0291667484271 118.82573726552073,233.2530300921644 118.37533512059599,233.84747685314505 117.63538873987272,234.86153135891072 117.281501340447,236.19028912702925 116.38069705094676,237.9386488936143 115.7050938338507,239.09256278033718 115.25469168892596,240.52620942456997 114.77211796247866,241.88991803207318 114.51474530843552,242.58925424626796 114.6756032173289,243.3934896075516 114.25737265415955,244.4424901866587 114.0643431636272,245.24672238025232 114.35388739954215,246.22578580398113 114.22520107240416,248.35873835204984 114.22520107240416,249.58255921906675 114.32171581778675,251.68053044294356 114.45040214480832,252.51971631337074 115.02949061675463,254.16311764111742 115.7050938338507,256.05127378358156 116.70241286873352,257.8345254059823 118.15013404842466,259.4079771080869 119.88739946391433,260.6667346819304 120.85254691692535,261.2611468103423 122.84718498669099,261.19121601060033 123.3619302950101,261.33107759960694 124.97050938336179,260.6317692392331 126.32171581778675,259.7226668172516 127.19034852553159,258.8834937918873 128.2520107239252,257.55480010810425 129.2171581769362,256.7855546817591 130.15013404830825,255.98134220967768 131.11528150143567,255.63168418439454 131.82305630040355,255.0022990842699 132.75603217165917,253.77849231293658 133.27077747997828,253.53373057674617 134.6219839141704,252.1350896419026 135.1689008042449,251.54066598572535 136.03753351210617,251.12107236450538 136.52010723866988,250.77141072775703 137.29222520114854,249.6175254827831 138.5147453083191,249.02309864619747 139.38337801606394,247.97410827921703 140.63806970510632,247.41464579387684 141.86058981227688,246.7502832286409 143.4048257372342,245.8761205293995 144.40214477211703,245.0019562059897 145.2064343164675,244.5823567539337 146.13941018783953,244.1977235940867 147.2654155496275,243.4634230522206 148.35924932989292,243.18368921100046 148.9705093834782,242.6242210296623 149.99999999988358,241.75005066450103 151.06166219851002,241.22554766578833 152.2520107239252,240.4562755432271 152.8954423593823,239.8268701438792 154.08579088479746,238.53308973420644 154.5040214478504,238.07851739422767 155.17962466494646,237.309240126051 155.63002680963837,236.78473217663122 156.5630026810104,235.0713354665786 156.85254691704176,234.54682502211654 157.36729222524446,234.37198807732784 158.2359249329893,232.6585825800139 158.7506702413084,231.78439369765692 159.10455764073413,231.43471768990275 159.71581769443583,229.4765272428922 160.00536193023436,228.7771715365816 160.55227882030886,227.76310391540756 161.22788203752134,226.50425831010216 161.5174262735527,225.97973831370473 162.19302949064877,224.650951705029 162.70777479896788,223.42706598163932 163.28686327079777,221.9234305906284 163.99463806976564,220.69953777064802 164.47721179621294,219.58054726262344 164.7345844504889,218.8811768433079 165.2815013405634,217.97199374370393 165.8284182306379,216.9579028285516 167.0509383379249,215.24443390019587 167.3726541554788,214.7199013477657 167.79088471853174,214.16039931363775 168.62734584440477,213.1463001804077 169.6890080430312,211.81747731697396 170.46112600527704,210.80337313210475 172.13404825737234,209.5444821365527 173.09919571049977,208.4604344124673 173.9678284182446,207.48129238488036 175.31903485266957,206.50214831883204 176.2841823056806,205.69784988250467 176.79892761388328,205.31318492660648 178.72922252013814,203.91440061683534 180.11260053620208,202.90027939071297 181.1742627345957,202.2008841674542 182.97587131371256,201.08184964681277 183.55495978554245,200.73215081298258 184.3270777480211,200.24257200871943 185.74262734584045,199.40329287291388 185.77479892759584,198.77383253807784 185.16353887401056,198.77383253807784 184.26273458451033,198.98365274333628 183.74798927619122,199.05359279093682 181.91420911531895,199.43826286678086 180.82037533505354,199.64808277558768 178.79356568364892,200.31251186915324 177.18498659518082,200.97694002394564 175.38337801606394,201.39657837484265 174.5790884719463,201.78124653417035 172.3592493297765,202.4107028435974 170.2037533512339,202.93524912447901 168.08042895433027,203.45979482034454 165.92493297590408,204.0892488830723 164.05898123327643,204.6137932917627 162.93297587137204,204.9285196561832 162.6434316354571,204.99845881969668 161.9678284182446,205.24324581000837 161.3887399462983,205.38312403293094 159.8766756033292,205.83772797021084 159.20107238611672,205.62791082295007 157.23860589810647,205.4180935821205 155.72654155502096,205.76778893149458 153.8284182306379,206.22239249697304 153.05630026815925,206.4322093789815 151.7372654156061,206.74693452642532 150.7077747990843,207.13159830955556 149.22788203763776,207.58620055677602 148.61662198393606,207.761047457956 147.04021447733976,208.53037305065664 145.14209115272388,209.15982032683678 143.82305630040355,209.89417441777186 141.8284182306379,210.66349652124336 140.54155495984014,211.327910052496 139.41554959793575,211.85244638778386 137.58176943706349,212.97145528139663 136.71313672920223,214.0904615126201 136.23056300275493,214.40518153543235 135.1689008042449,214.545057033567 134.718498659553,214.96468327837647 134.36461126012728,215.69902830588399 133.23860589810647,216.25852850967203 132.6273458446376,216.9579028285516 131.08310991968028,217.93702512784512 130.15013404830825,218.95111393212574 129.24932975880802,220.8394113969407 128.44504021457396,221.9234305906284 127.99463806964923,222.37801854134887 127.02949061663821,222.76266954108723 126.28954423603136,223.2522249040485 125.48525469179731,223.95158882447868 124.03753351210617,225.38528161071008 122.97587131371256,226.29445038171252 121.62466487940401,228.32258976972662 120.88471849868074,229.7912369716505 120.46648793586064,230.38568810696597 119.08310991968028,232.09910188239883 118.11796246655285,233.67263964848826 117.76407506712712,234.16218365781242 116.8632707776269,236.3651253959979 115.89812332438305,237.90368176187621 115.28686327079777,239.65203516127076 114.6756032173289,241.43534893536707 114.41823056305293,242.37945349115762 114.32171581778675,243.88302350221784 114.09651474538259,245.49148842715658 114.19302949064877,246.47055134162656 114.1286863272544,247.6594107131241 114.03217158175539,249.51262668380514 114.19302949064877,250.84134307591012 114.48257372668013,252.55468235883745 114.61126005358528,253.07917272890336 114.70777479896788,253.63862847926794 115.1260053620208,254.65264033153653 116.09115281503182,256.68065748075605 117.18498659518082,258.219147419004 118.5361930297222,259.547839226987 119.24396782857366,260.03735631587915 119.82305630028713,260.6317692392331 120.30563002685085,260.94645812996896 121.94638069695793,260.94645812996896 123.32975871313829,261.1212852005847 124.26273458451033,260.91149270811 125.5174262735527,260.1072872869845 125.64611260057427,259.7925978350686" stroke="#4dd2ff" stroke-linecap="round" stroke-linejoin="round" stroke-width="0.5"><title>2024-04-08 13.3km</title><desc>9223370324272004907</desc></polyline></svg>