<?xml version="1.0" encoding="utf-8" ?>
<svg baseProfile="full" height="300mm" version="1.1" viewBox="0,0,200,300" width="200mm" xmlns="http://www.w3.org/2000/svg" xmlns:ev="http://www.w3.org/2001/xml-events" xmlns:xlink="http://www.w3.org/1999/xlink"><defs /><rect fill="#222222" height="300" width="200" x="0" y="0" /><text fill="#FFFFFF" style="font-size:12px; font-family:Arial; font-weight:bold;" x="10" y="20">Over 10km Runs</text><text fill="#FFFFFF" style="font-size:4px; font-family:Arial" x="10" y="280">ATHLETE</text><text fill="#FFFFFF" style="font-size:9px; font-family:Arial" x="10" y="290">lihsiaofei</text><text fill="#FFFFFF" style="font-size:4px; font-family:Arial" x="120" y="280">STATISTICS</text><text fill="#FFFFFF" style="font-size:3px; font-family:Arial" x="120" y="285">Number: 10</text><text fill="#FFFFFF" style="font-size:3px; font-family:Arial" x="120" y="290">Weekly: 2.0</text><text fill="#FFFFFF" style="font-size:3px; font-family:Arial" x="141" y="285">Total: 123.7 km</text><text fill="#FFFFFF" style="font-size:3px; font-family:Arial" x="141" y="290">Avg: 12.4 km</text><text fill="#FFFFFF" style="font-size:3px; font-family:Arial" x="167" y="285">Min: 10.0 km</text><text fill="#FFFFFF" style="font-size:3px; font-family:Arial" x="167" y="290">Max: 15.1 km</text><polyline fill="none" points="80.04242965613957,83.36985245897085 80.98302813759074,83.05530424564495 81.77891916024964,82.6883309755649 82.52657436358277,82.11165792285465 83.05716837884393,81.48255897205672 84.23894595797174,80.27678284727153 85.13130861986428,79.64768062441726 85.78249218396377,79.43797963415273 86.50602947745938,78.54674903478008 87.54309959802777,77.7341544671799 88.12192943273112,77.15747331589228 89.0384100045776,76.13517259439686 89.37606074148789,76.00410818503588 89.95489057607483,75.55848882909049 90.12371594458818,75.0342300425109 90.70254577940796,74.56239646842005 91.40196516294964,74.3789054636145 91.9325591782108,73.64494048987399 92.24609200539999,73.35659668946755 92.89727556938305,73.01582643974689 93.23492630640976,72.80612150701927 94.56141134432983,72.28185862972168 95.81554265297018,71.31197025257279 97.04555605177302,70.65663875828614 97.55203215719666,70.3420792085526 97.93791871366557,70.13237268620287 98.29968736041337,70.18479932847549 99.0714604734676,69.68674591230229 99.8673514961265,69.00519799249014 100.95265743636992,68.37607566695078 101.53148727107327,68.03530060546473 102.3032603841275,67.24889536065166 103.0509155873442,66.46248836242012 103.46092005365063,66.0692842057324 103.82268870039843,65.7285069154168 104.76328718173318,64.47024945256999 105.1974095577607,63.31684283490176 105.51094238494989,63.290629004332004 105.75212148274295,63.028490591124864 106.08977221976966,62.39935760447406 106.47565877623856,61.53429791535018 106.9097811523825,60.8003062120988 107.48861098696943,59.253675836574985 107.97096918267198,58.257537427183706 108.69450647616759,56.97303900908446 108.93568557384424,56.39632391167106 109.68334077717736,54.849674221361056 109.73157659673598,54.27295565136592 110.40687807055656,53.329232320480514 110.96158999553882,52.07093061725027 111.49218401068356,51.10098665644182 112.28807503345888,49.84267700166674 112.91514068783727,48.92515671427827 113.80750334972981,47.85034419823205 114.5069227332715,46.90660367786768 115.5439928539563,45.622063910675934 116.6292987940833,44.52102609971189 117.15989280934446,43.94429063607822 118.02813756139949,43.26269296274404 118.87226440384984,42.34515555243706 119.69227333634626,41.74220109693124 120.99464046454523,40.82465972958016 121.983474765555,40.038193799817236 123.38231353275478,39.146863625210244 124.56409111211542,38.38660963662551 125.67351496207993,37.70500121865189 126.80705672164913,37.02339148276951 126.87941045104526,36.57772286600084 126.22822688706219,36.68258612061618 125.26351049577352,36.86609674117062 124.75703439034987,36.94474412073032 124.10585082625039,37.10203882722999 122.92407324700616,37.390412273525726 121.35640911129303,37.88851130695548 120.72934345691465,38.17688410994015 120.10227780265268,38.334178266639356 118.92050022329204,38.67498203218565 118.43814202770591,38.91092290764209 117.81107637332752,39.12064799768268 116.6292987940833,39.35658857485396 115.5439928539563,39.56631339984597 114.26574363559484,39.98576267543831 113.3733809737023,40.352780382178025 111.82983474759385,40.588720134837786 110.59982134879101,40.981952705042204 109.65922286745626,41.34896937475423 108.30861991958227,41.611123904935084 107.51272889680695,41.82084738870617 106.6203662349144,41.82084738870617 105.9209468512563,41.794631960074184 105.46270656550769,41.63733934718766 104.20857525675092,41.87327824017848 103.43680214381311,42.030570747796446 102.39973202312831,42.26650937757222 101.89325591782108,42.423801709664986 100.97677534609102,42.764601521979785 100.44618133094627,42.97432431965717 99.93970522552263,43.131616335973376 99.55381866905373,43.31512359980843 98.44439481908921,43.62970725825289 97.6726217061514,43.91807536527631 97.3108530594036,44.206443236529594 96.49084412679076,44.46859564201441 96.05672175076324,44.67831742609269 95.26083072798792,44.99289986831718 94.29611433669925,45.41234268795233 92.89727556938305,46.09393620569608 91.57079053146299,46.827958520530956 90.75078159896657,47.37847425378277 90.07548012502957,48.191138765367214 89.68959356856067,48.50571807342931 89.13488164357841,48.50571807342931 88.62840553827118,48.79408219267498 88.09781152301002,49.5805285917304 87.32603841007221,49.92132148667588 86.55426529701799,50.70776537168422 85.63778472528793,51.20584559161216 85.27601607865654,51.54663691564929 84.86601161235012,52.14957460522419 84.67306833399925,52.77872587781167 84.48012505588122,53.25058859566343 83.85305940150283,53.984596012713155 82.84010719077196,54.48267160420073 82.43010272446554,54.849674221361056 82.02009825815912,55.16424758924404 81.07949977670796,56.23903781230911 80.76596694951877,56.50118127223686 79.99419383646455,57.15653906951775 79.65654309955426,57.44489611449535 79.15006699413061,58.152680588827934 78.86065207689535,58.650750293338206 78.47476552031003,59.6731016933918 77.48593121930026,60.66923610432423 77.17239839211106,60.8003062120988 76.521214828128,62.45178539620247 76.01473872258794,63.107132135512074 75.5082626172807,63.972187966806814 75.36355515860487,64.36539446140523 74.59178204555064,65.99064332182752 74.27824921847787,66.33142035888159 74.15765966952313,66.96054633150925 73.91648057173006,67.95666015986353 73.65118356409948,68.50714291064651 73.43412237602752,68.95277117489604 73.41000446630642,69.84402601438342 73.09647163923364,70.91877150212531 73.19294327823445,71.94108734163456 73.09647163923364,73.01582643974689 73.0241179097211,73.72357966721756 73.0,74.98180412105285 73.14470745867584,75.9516824077291 73.3858865564689,77.07883490403765 73.6994193836581,78.07492015892058 74.10942384996451,79.22827851917828 74.95355069229845,80.69618370596436 75.60473425639793,81.45634649143904 76.28003573021851,82.13787035475252 77.48593121930026,83.0815166074608 78.16123269323725,83.29121543193469 78.66770879854448,83.26500308571849 79.12594908440951,83.29121543193469 80.18713711481541,83.42227713399916 80.8865564983571,83.18636603528284 81.48950424301438,82.8456052809197 82.35774899506941,82.19029521281482 83.22599374712445,81.29907156672562 83.61188030370977,80.93209646985633 83.85305940150283,80.69618370596436 84.4318892363226,80.19814513073652 85.32425189821515,79.49040489335312 86.07190710143186,79.22827851917828 86.84368021448608,78.2059837988636 87.15721304155886,77.8914309811953 87.42251004907303,77.68172894691816 88.0254577936139,77.36717566181323 88.26663689152338,76.89534520817688 89.4484144707676,75.89925662250607 89.88253684679512,75.68955340402317 90.26842340338044,75.00801708272775 90.72666368912905,74.58860946129425 91.69138008041773,73.95949709418346 92.72845020098612,73.09446575731272 93.57257704332005,72.62262958858628 94.51317552477121,72.25564546542591 95.79142474324908,71.46924963005586 96.41849039751105,70.78770515453652 97.50379633763805,70.3420792085526 98.13086199201643,70.02751937831636 99.02322465390898,69.63431919598952 99.50558284949511,69.34597211700748 100.08441268419847,68.84791751630837 101.16971862432547,68.16636797573301 102.01384546677582,67.48481711815111 103.0026797677856,66.59355631720973 103.3885663242545,66.14792507214588 103.84680661000311,65.62365229826537 104.69093345245346,64.57510441259365 105.02858418936376,64.02461552471505 105.34211701655295,63.290629004332004 105.70388566318434,63.107132135512074 106.18624385877047,62.37314370559761 106.49977668607607,61.61293979291804 107.15096025005914,60.302239543467294 107.56096471636556,59.253675836574985 107.7056721750414,58.676964468788356 108.45332737825811,57.602181675989414 108.95980348368175,56.71089589991607 109.39392585970927,55.84582225710619 109.75569450645708,55.216676456679124 110.21393479243852,53.74866522382945 110.79276462702546,52.75251126391231 111.05806163465604,52.20200392085826 111.44394819124136,51.3107044956414 112.09513175522443,50.15725483634742 112.86690486827865,49.16109073054395 113.035730236792,48.79408219267498 113.54220634209923,48.13870885336655 114.21750781615265,47.32604422100121 115.1581062974874,46.09393620569608 115.78517195174936,45.33369719731854 116.50870924512856,44.704532640316756 117.06342117011081,44.15401273200405 117.56989727565087,43.65592255041702 118.7757927646162,42.423801709664986 120.12639571237378,41.37518483650638 121.33229120145552,40.43142698396696 121.76641357759945,40.09062491636723 122.7070120589342,39.43523539887974 123.52702099154703,39.0682167368941 124.4676194729982,38.439040998899145 125.38410004461184,37.80986413793289 126.39705225545913,37.206901925907005 127.0,36.7088019294024 126.05940151854884,36.81366514507681 124.4676194729982,36.99717569738277 122.89995533716865,37.31176499338471 121.50111656985246,37.862295585888205 120.65698972763494,38.22931550332578 119.59580169711262,38.596335038600955 118.60696739621926,38.9371385507402 117.97990174195729,39.146863625210244 116.87047789199278,39.409019792830804 115.9298794104252,39.46145100297872 114.55515855294652,39.93333154331776 113.97632871824317,40.16927157659666 113.34926306386478,40.32656484437757 112.36042876285501,40.56250461455784 110.9133541759802,40.87709072913276 109.94863778469153,41.217892036540434 109.36980794998817,41.45383121017949 108.3568557392573,41.74220109693124 107.48861098696943,41.95192450276227 106.06565430993214,41.87327824017848 105.24564537743572,41.74220109693124 104.61857972305734,41.82084738870617 103.84680661000311,41.97813991969451 102.76150066987611,42.24029398206039 101.07324698532466,42.81703223314253 100.61500669934321,42.948108976735966 99.60205448861234,43.23647764130146 98.34792317997199,43.708353129040916 97.26261723984499,44.15401273200405 96.73202322470024,44.311304222123 96.05672175076324,44.599671771691646 94.8508262616815,45.17640616331482 93.69316659227479,45.753139611537335 92.89727556938305,46.146366421715356 92.41491737391334,46.40851738487254 91.73961589997634,46.749313345586415 91.2572577042738,47.090108976874035 90.75078159896657,47.352259238337865 90.50960250105709,47.71926927700406 90.07548012502957,48.16492381031276 89.37606074148789,48.55814793083118 88.86958463594783,48.61057778040413 88.3631085306406,49.52809888639604 87.63957123714499,49.71160282110213 86.84368021448608,50.47183239037986 86.14426083071157,50.89126869244501 85.49307726661209,51.38934865311603 84.84189370262902,52.4641503818857 84.64895042427815,52.88358431411325 84.31129968736786,53.591377943521366 83.90129522094503,53.93216696212767 83.22599374712445,54.35159914830001 82.6712818222586,54.58752953374642 81.87539079948328,55.11181871412555 81.51362215273548,55.55746390452259 81.15185350610409,56.003108531731414 80.16301920509432,56.99925330921542 79.63242518983316,57.523538904002635 79.101831174572,58.257537427183706 78.59535506926477,59.35853234754177 78.35417597135529,59.6731016933918 78.08887896384113,60.066312981187366 77.63063867809251,60.590594016277464 76.95533720415551,61.37701410750742 76.69004019640852,62.32071590219857 75.89414917374961,63.290629004332004" stroke="#4dd2ff" stroke-linecap="round" stroke-linejoin="round" stroke-width="0.5"><title>2024-05-24 12.1km</title><desc>9223370320293981307</desc></polyline><polyline fill="none" points="157.53887399460655,70.28113499539904 157.94906166230794,70.04510973350261 158.624664879404,69.88775947125396 159.2520107239252,69.44193334708689 159.8310991957551,68.94365642403136 160.43431635387242,68.57650455689873 161.03753351210617,68.31425298930844 161.59249329764862,67.94710046725231 162.05093833780847,67.44882143347058 162.5335120643722,66.92431642723386 162.99195710453205,66.42603594908724 163.47453083109576,65.92775476735551 163.95710455765948,65.45569826188148 164.41554959793575,64.87873945312458 164.72922252013814,64.32800516471616 165.01876675605308,63.672367986349855 165.5013404826168,63.2003084635071 165.88739946379792,62.72824830911122 166.17694369982928,62.17751066412893 166.5147453083191,61.54809516001842 166.7801608579466,60.94490424837568 166.99731903488282,60.289260783349164 167.23860589810647,59.68606771953637 167.50402144773398,59.10909947627806 167.81769436993636,58.50590439478401 168.2520107239252,57.90270828208304 168.56568364612758,57.29951113808784 168.85522788204253,56.670086931757396 169.21715817705262,56.066887680324726 169.48257372656371,55.48991351830773 169.65147453092504,54.88671224907739 169.8445040215738,54.2572837381158 170.20643431635108,53.68030661655939 170.52010723866988,53.07710225324263 170.83378016087227,52.526349542546086 171.05093833780847,51.92314320610603 171.31635388743598,51.34616226705839 171.67828418232966,50.74295391267515 172.04021447733976,50.16597104337416 172.52278820390347,49.64144034322817 172.90884718496818,49.06445567225455 173.29490616626572,48.51369669687119 173.68096514756326,47.93671018135501 174.09115281503182,47.38594944521901 174.52546916890424,46.88764137160615 174.91152815020178,46.38933259397163 175.2975871313829,45.91724994487595 175.75603217165917,45.44516666393611 176.1903485255316,44.92062894409173 176.64879356580786,44.448544329294236 177.08310991968028,43.976459082769 177.56568364612758,43.55682722205529 178.02412868640386,43.05851373902988 178.50670241285115,42.58642663215869 178.98927613953128,42.088111778197344 179.44772117969114,41.74715910409577 180.02680965152103,41.43243326630909 180.60589812335093,41.03902557404945 181.0643431636272,40.6193902187224 181.57104557647835,40.22598161967471 182.05361930304207,39.806345297023654 182.56032171589322,39.46539041728829 183.09115281503182,39.20311720852624 183.6219839141704,38.862161745666526 184.15281501342542,38.59988808835624 184.70777479896788,38.31138684009784 185.26273458451033,37.94420309190173 185.81769437005278,37.57701896148501 186.39678284188267,37.26228940254077 186.92761394102126,36.947559562831884 186.7345844504889,36.5803743947763 186.10723860596772,36.68528448182042 185.5040214478504,36.79019453760702 184.85254691692535,36.89510456219432 184.15281501342542,37.05246954062022 183.45308311004192,37.20983444881858 182.753351206542,37.3671992867603 182.10187667573337,37.52456405447447 181.42627345840447,37.786838511383394 180.77479892771225,38.07534018874867 180.1715817694785,38.31138684009784 179.49597855238244,38.46875118659227 178.86863270786125,38.626115462888265 178.3136729223188,38.78347966892761 177.75871313677635,38.91461645369418 177.1554959785426,39.07198053106549 176.57640750682913,39.255571865913225 176.02144772128668,39.41293579112971 175.44235924934037,39.570299646118656 174.83914209122304,39.72766343096737 174.21179624670185,39.91125442448538 173.56032171589322,40.068618057179265 172.98123324406333,40.22598161967471 172.3780160858296,40.409572353819385 171.7506702413084,40.6193902187224 171.09919571049977,40.80298074809252 170.49597855238244,40.98657118191477 169.86863270774484,41.14393433489022 169.28954423603136,41.37997893267311 168.71045576408505,41.51111475212383 168.08310991956387,41.64225052270922 167.50402144773398,41.799613383132964 166.85254691692535,41.7733862446039 166.24932975880802,41.64225052270922 165.62198391428683,41.56356906617293 165.04289544245694,41.64225052270922 164.41554959793575,41.69470481737517 163.69168900803197,41.82584051968297 163.0160857909359,42.061884661146905 162.38873994641472,42.27170154315536 161.7372654156061,42.48151830030838 161.13404825737234,42.66510786052095 160.50670241296757,42.822470264538424 159.87935656844638,43.00605964730494 159.2520107239252,43.24210299894912 158.6729222519789,43.504373204370495 158.06970509386156,43.740416222513886 157.41823056305293,44.0026860574726 156.83914209122304,44.23872874220251 156.30831099196803,44.47477126895683 155.80160857911687,44.71081363770645 155.24664879357442,44.973082751152106 154.66756032162812,45.26157855070778 154.04021447722334,45.5500741142605 153.46112600539345,45.838569441926666 152.88203753344715,46.12706453356077 152.30294906173367,46.41555938933743 151.69973190349992,46.67782723522396 151.19302949064877,47.04500189193641 150.7345844503725,47.41217616648646 150.32439678290393,47.93671018135501 149.8900804290315,48.35633683166816 149.3109919570852,48.51369669687119 148.70777479896788,48.69728311756626 148.44235924934037,49.300494969880674 147.86327077739406,49.61521378776524 147.28418230556417,49.90370579078444 146.84986595180817,50.428236100968206 146.31903485255316,50.79540685401298 145.76407506712712,51.05767144361744 145.40214477211703,51.451067962596426 145.06434316351078,51.92314320610603 144.82305630028713,52.44767051367671 144.60589812335093,53.05087595322402 144.1715817694785,53.49672278910293 143.76139410189353,53.995021527138306 143.20643431635108,54.33596236340236 142.67560321721248,54.65067668908159 142.19302949064877,55.07029535327456 141.7828418230638,55.48991351830773 141.34852546919137,55.93575727179996 140.91420911520254,56.40782651441987 140.45576407504268,56.80121706734644 139.99731903488282,57.22083317369106 139.58713136729784,57.6666747398267 139.2010723860003,58.16496758823632 138.88739946391433,58.663259732798906 138.6702412868617,59.21400286341668 138.42895442352165,59.79097093519522 138.06702412874438,60.289260783349164 137.58445040218066,60.65642127385945 137.1742627347121,61.076032795070205 136.93297587125562,61.5743208284548 136.73994638072327,62.12505941494601 136.37801608571317,62.649571555288276 135.9678284182446,63.1478573664499 135.63002680963837,63.61991695937468 135.36461126001086,64.24932876767707 135.24396782845724,64.87873945312458 135.00268096511718,65.45569826188148 134.6407506702235,65.92775476735551 134.30294906173367,66.42603594908724 134.13404825737234,67.02921749083907 134.0134048257023,67.55372234119568 133.86863270786125,67.99955085097463 133.69973190349992,68.4978291070438 133.38605898129754,69.10100710732513 133.36193029489368,69.80908431377611 133.28954423591495,70.49093509561499 133.04825737257488,71.04165976535296 133.04825737257488,71.59238357559661 133.09651474526618,72.16933140734909 133.07238605897874,72.82495279840077 133.09651474526618,73.45434818786453 133.09651474526618,74.05751771613723 133.12064343167003,74.66068621349405 133.09651474526618,75.26385367984767 133.14477211795747,75.86702011540183 133.24128686334006,76.47018552006921 133.36193029489368,77.04712537728483 133.530831099255,77.62406429130351 133.69973190349992,78.22722669303766 133.94101876684,78.83038806391414 134.18230562994722,79.3810997196997 134.47184986597858,79.95803481829353 134.76139410189353,80.48252045319532 135.09919571049977,81.00700530869653 135.436997319106,81.47904101226595 135.87131367286202,81.87240361628938 136.37801608571317,82.26576578186359 136.90884718496818,82.58045519873849 137.41554959781934,82.97381657519145 137.87399463821203,83.3147294135124 138.5013404826168,83.3147294135124 139.12868632702157,83.26228130600066 139.75603217154276,83.34095346435788 140.3109919570852,83.4196256052528 140.86595174262766,83.10493693663739 141.39678284176625,82.79024798737373 141.90348525473382,82.50178287079325 142.45844504027627,82.18709338383633 142.8927613941487,81.74128279695287 143.20643431635108,81.24302323936718 143.59249329764862,80.84965993388323 143.97855227882974,80.48252045319532 144.4369973189896,80.11538059060695 144.84718498657458,79.69579170853831 145.35388739954215,79.40732406280586 145.90884718496818,79.19752926324145 146.36729222524446,78.80416367793805 146.68096514744684,78.27967554880888 147.09115281503182,77.80763556616148 147.64611260057427,77.54539085857687 148.12868632713798,77.09957440843573 148.5147453083191,76.60130829771515 149.02144772117026,76.12926607017289 149.52815013402142,75.84079550919705 149.96246648801025,75.49987545135082 150.3002680966165,74.92293306469219 150.75871313677635,74.50333800920635 151.3136729222024,74.26731557128369 151.72386058978736,73.95261874180869 152.0616621983936,73.48057297136984 152.49597855226602,73.13965063344222 153.00268096511718,72.82495279840077 153.55764075065963,72.56270438813954 154.11260053620208,72.4315801099292 154.69168900803197,72.2217811634182 155.22252010717057,71.85463270693435 155.68096514744684,71.43503400319605 156.187667560298,71.01543480055989 156.718498659553,70.72696005934267 157.24932975880802,70.49093509561499 157.7801608579466,70.15000986942323 158.33512064348906,69.9402095664409 158.86595174262766,69.78285925736418 159.32439678290393,69.41570826337556 159.75871313665994,69.0223317744676 160.24128686322365,68.7076302675996 160.77211796247866,68.44537879744894 161.3270777480211,68.10445159490337 161.80965147458483,67.78974926943192 162.19571045588236,67.31769525495474 162.60589812335093,66.81941533237114 163.04021447733976,66.42603594908724 163.45040214492474,66.00643079017755 163.8605898123933,65.56059976210236 164.24664879357442,65.11476817072253 164.58445040218066,64.61648513728869 164.84986595180817,64.0657504395349 165.09115281514823,63.515014882199466 165.52546916890424,63.25275955276447 165.83914209122304,62.85937619314063 166.10455764073413,62.3610899746418 166.36997319036163,61.810351756517775 166.68364611268044,61.25961267875391 166.90080428961664,60.60396979862708 167.1420911528403,59.97455148753943 167.38337801618036,59.39758371587959 167.624664879404,58.846840871934546 167.9383378016064,58.32232307837694 168.30026809650008,57.7978045050404 168.5174262735527,57.247059163753875 168.80697050946765,56.670086931757396 169.1447721180739,56.171791972068604 169.38605898118112,55.64727020153077 169.5790884719463,55.07029535327456 169.74798927619122,54.44086716984748 170.08579088468105,53.83766410694807 170.44772117969114,53.23446001269622 170.7372654156061,52.683707547636004 170.97855227882974,52.15918059105752 171.14745308319107,51.608426447288366 171.436997319106,51.11012433824362 171.7506702413084,50.61182152523543 172.04021447733976,50.113518008438405 172.45040214492474,49.66766689677024 172.78820375341456,49.14313545569894 173.1260053620208,48.61860323467408 173.58445040218066,48.04161689072498 174.04289544245694,47.43840288571664 174.5013404826168,46.835187849152135 174.95978552277666,46.28442539324169 175.41823056305293,45.733662077371264 175.94906166230794,45.20912478651735 176.5040214478504,44.60590593778761 177.05898123339284,43.976459082769 177.6139410189353,43.47814619258861 178.1447721180739,42.95360554763465 178.74798927619122,42.429064122756245 179.3753351207124,41.90452191772056 180.05093833780847,41.45866043015849 180.67828418232966,40.96034398296615 181.35388739942573,40.4357995937462 182.00536193035077,39.85879986468353 182.68096514756326,39.41293579112971 183.45308311004192,39.04575318968273 184.15281501342542,38.65234283544123 184.90080428961664,38.20647723678849 185.60053619311657,37.786838511383394 186.30026809650008,37.3671992867603 186.92761394102126,36.97378706015297 186.75871313689277,36.5803743947763 185.84182305634022,36.711511998670176 184.8766756032128,36.86887705899426 183.8632707776269,37.05246954062022 182.8739946380956,37.26228940254077 181.90884718496818,37.55079150898382 180.99195710464846,37.91797566675814 180.31635388743598,38.232704640569864 179.61662198393606,38.494978570815874 178.96514745312743,38.7047975747264 178.2654155496275,38.862161745666526 177.56568364612758,39.07198053106549 176.84182305634022,39.255571865913225 176.23860589810647,39.41293579112971 175.63538873998914,39.544072341843275 175.00804289546795,39.72766343096737 174.38069705106318,39.91125442448538 173.80160857911687,40.068618057179265 173.1260053620208,40.252208873222116 172.47453083109576,40.4357995937462 171.847184986691,40.6193902187224 171.19571045576595,40.80298074809252 170.59249329764862,40.96034398296615 169.94101876672357,41.14393433489022 169.33780160860624,41.35375176297384 168.6863270777976,41.51111475212383 168.08310991956387,41.64225052270922 167.4557640751591,41.82584051968297 166.75603217165917,41.82584051968297 166.0321715817554,41.69470481737517 165.4048257372342,41.61602337253862 164.753351206542,41.74715910409577 164.15013404830825,41.799613383132964 163.49865951749962,41.93074904649984 162.87131367297843,42.114338893356035 162.2198391421698,42.324155744194286 161.66487935662735,42.48151830030838 161.0616621983936,42.691334932722384 160.45844504027627,42.87492438365007 159.85522788204253,43.03228669415694 159.32439678290393,43.21587596763857 158.79356568376534,43.39946514554322 158.28686327091418,43.63550823397236 157.7801608579466,43.89777814690024 157.20107238611672,44.08136696991278 156.6702412868617,44.31740960199386 156.13941018772312,44.579679007903906 155.63270777475554,44.81572130648419 155.1260053620208,44.999309651815565 154.5951742627658,45.28780542986351 154.06434316351078,45.5500741142605 153.55764075065963,45.78611576350522 153.19571045588236,45.94347677528276 152.906166219851,46.07461089809658 152.56836461136118,46.23197178114788" stroke="#4dd2ff" stroke-linecap="round" stroke-linejoin="round" stroke-width="0.5"><title>2024-05-21 10.0km</title><desc>9223370320557594807</desc></polyline><polyline fill="none" points="91.65892857150175,106.75523428356973 91.46607142861467,106.78143763681874 90.74285714281723,107.33170760411303 90.30892857140861,107.96058651481871 89.82678571436554,108.48465141654015 88.91071428579744,108.51085464112111 88.45267857145518,108.8252931846946 88.28392857150175,109.29695047411951 87.58482142852154,109.5851851736079 87.15089285722934,109.92582587813376 86.64464285725262,110.52849708739086 85.8008928571362,111.05255817086436 85.19821428577416,111.62902446262888 84.76428571424913,112.59853382708388 84.01696428575087,113.54183767613722 83.65535714291036,113.90867738015368 83.31785714288708,114.27551670229877 82.4258928571362,114.69476117449813 81.65446428582072,115.45464050921146 80.54553571436554,116.52894987698528 80.13571428577416,116.89578647215967 79.14732142863795,118.10110402561259 78.71339285711292,118.72996372170746 78.52053571434226,119.25401261149091 78.03839285718277,120.06628685095347 77.65267857152503,120.38071508629946 77.21875,120.64273840154056 76.92946428572759,121.16678444770514 76.56785714288708,122.26727860892424 76.25446428579744,122.55550270248204 75.6035714285681,123.42017356926226 75.26607142854482,124.36344845953863 75.00089285708964,125.07090297096875 74.78392857150175,125.56874047982274 74.44642857136205,125.85696187414578 74.27767857152503,126.19758685454144 74.13303571438882,126.80023024443653 73.84375,127.84830325143412 73.60267857159488,128.50334729856695 73.33750000002328,128.89637314266292 73.33750000002328,129.63002021276043 73.09642857150175,130.65188323051552 73.07232142868452,131.07110822715913 73.16875000006985,131.77854927870794 73.09642857150175,132.7480032290623 73.04821428586729,133.5602463783871 73.0,134.60829929015017 73.12053571431898,135.05372083425755 73.24107142863795,136.04936695712968 73.31339285720605,136.75679802009836 73.57857142866123,137.70003722963156 74.03660714288708,139.0886903628707 74.61517857154831,140.1629277143511 75.21785714291036,141.13235861252178 75.45892857154831,141.39436650590505 76.42321428586729,142.154188295739 77.26696428575087,142.7830050905759 77.72500000009313,143.20221566420514 78.97857142868452,143.33321886623162 80.30446428572759,143.4642220196256 81.22053571441211,142.99261043968727 81.72678571438882,142.75680441319128 82.5464285715716,142.154188295739 82.81160714291036,141.8397794777993 83.80000000004657,140.84414970496437 84.83660714293364,139.8223162255308 85.24642857140861,139.5603071640653 85.87321428570431,139.48170440772083 86.18660714291036,139.1148913128418 86.69285714288708,138.5384699642018 87.10267857147846,138.0668517963204 87.58482142852154,137.80484143045032 87.94642857147846,137.54283086990472 88.2598214285681,137.20221685021534 88.9589285714319,136.23277514681104 89.77857142861467,135.8397574806877 90.50178571441211,134.8179094986408 91.44196428579744,134.37248765662662 91.82767857145518,133.8222598984139 92.21339285722934,133.45544091588818 92.64732142863795,133.193427123304 93.49107142852154,132.7480032290623 94.02142857154831,132.5121903513209 94.86517857154831,132.14537000580458 95.44375000009313,131.64754178369185 95.78125,131.3069220687321 96.38392857147846,130.8876973525039 96.93839285720605,130.67808480741223 97.63750000006985,130.28506094950717 98.2401785714319,130.0230448008515 99.20446428575087,129.60381855789456 99.87946428568102,129.02738166000927 101.15714285720605,128.2675315818633 101.71160714281723,128.0579174789309 102.02500000002328,127.61248709651409 102.89285714284051,126.59061526917503 103.49553571443539,125.93556766808615 104.48392857145518,124.86128696743981 104.79732142866123,124.25864026305499 105.11071428575087,123.55118412154843 105.44821428565774,123.39397145292605 106.19553571427241,122.31968300705194 106.48482142854482,121.6384252232092 107.06339285720605,120.17109629392507 107.81071428570431,118.59895137758576 108.07589285715949,118.23211655477644 108.63035714288708,117.07920462661423 109.32946428575087,115.87388357889722 109.47410714288708,115.48084321571514 109.78749999997672,114.58995010316721 110.41428571427241,113.38462054330739 110.77589285711292,112.78195421770215 111.08928571431898,111.73383641437977 111.54732142854482,110.9477460165217 112.15000000002328,110.13545076348237 112.87321428570431,109.06112190833664 113.25892857147846,108.48465141654015 114.05446428572759,107.46272413639235 114.48839285725262,106.86004768469138 115.13928571424913,106.15255662205163 115.40446428570431,105.81191227055388 116.07946428575087,105.1044191037654 116.7303571428638,104.44933157193009 117.62232142861467,103.55841057439102 118.10446428565774,103.06054197714548 119.2616071428638,102.06480267256848 119.62321428570431,101.8027655458427 120.44285714288708,101.22628318125498 121.62410714291036,100.3877616946993 122.8535714285681,99.39201483799843 123.74553571431898,98.89414035450318 124.75803571427241,98.29144924913999 126.03571428568102,97.45292077914928 126.87946428568102,97.03365579585079 126.90357142861467,96.6405944210419 125.96339285722934,96.66679852630477 125.02321428561118,96.79781902360264 123.5526785714319,97.1384720884962 122.51607142854482,97.40051268355455 121.76874999993015,97.61014501928003 120.78035714279395,97.89838927728124 119.38214285718277,98.47487708603148 118.90000000002328,98.57969294991926 117.7910714285681,98.99895609376836 116.22410714288708,99.39201483799843 114.75357142859139,99.75886927044485 113.62053571420256,100.07331562289619 113.16249999997672,100.20433485356625 112.75267857150175,100.36155786609743 111.8125,100.51878080848837 110.8964285714319,100.80702268739697 110.34196428570431,100.99044921484892 109.95625000004657,101.12146810456761 109.40178571431898,101.22628318125498 108.77500000002328,101.48832073662197 108.34107142861467,101.5407282243541 107.15982142847497,101.85517298677587 106.75,101.85517298677587 105.61696428572759,101.6193394412112 104.67678571434226,101.72415436990559 103.92946428572759,101.82896926731337 102.9410714287078,102.11721007453161 102.29017857136205,102.27443223365117 101.83214285725262,102.40545064600883 101.01250000006985,102.58887634146959 100.55446428572759,102.71989463691716 100.09642857138533,102.90332016869797 99.63839285715949,103.03433834732277 98.62589285732247,103.63702134124469 97.179464285844,104.0824820221751 96.26339285715949,104.44933157193009 95.44375000009313,104.78997724046349 94.45535714295693,105.2354364640778 92.93660714279395,105.9691327814071 92.30982142849825,106.30977698095376 91.24910714291036,106.86004768469138 90.429464285844,107.67235048668226 90.09196428582072,107.98678977836971 89.46517857152503,108.35363526412402 88.62142857140861,108.56326108452049 88.3321428571362,109.3493568006379 87.44017857138533,109.68999773313408 86.54821428575087,110.52849708739086 85.31874999997672,111.3669944468711 84.4508928572759,113.04398318153108 83.31785714288708,114.17070550637436 82.57053571427241,114.43273343783221 82.1366071428638,114.93058597086929 81.7026785715716,115.19261333742179 80.78660714288708,116.26692350380472 79.55714285722934,117.26262268560822 79.14732142863795,117.9438889262965 78.68928571441211,118.88717847040971 78.01428571436554,119.90907262812834 77.48392857145518,120.48552443584776 76.83303571445867,121.50741395997466 76.4473214285681,122.39828958973521 75.82053571427241,123.1319501826365 75.57946428575087,123.68219462528941 75.57946428575087,123.83940716541838 75.65178571431898,123.81320508022327 75.67589285725262,123.7608009040996 75.70000000006985,123.68219462528941 75.67589285725262,123.5773862261849 75.77232142863795,123.4725777960266 75.48303571424913,123.86560924863443 75.29017857147846,124.38965050384286 75.14553571434226,125.38532674257294 74.66339285718277,125.83075993895181 74.25357142859139,126.43340395591804 74.03660714288708,126.72162464333815 73.86785714293364,127.76969788398128 73.6991071428638,128.2937333358568 73.40982142859139,128.71296113662538 73.31339285720605,129.57761690122425 73.38571428577416,129.9182382868603 73.16875000006985,130.46847213772708 73.0,131.1497128585761 73.16875000006985,131.51653423995594 73.1928571430035,131.9619596899429 73.04821428586729,133.14102434142842 73.07232142868452,134.26768243557308 73.12053571431898,135.34193447476719 73.24107142863795,136.3375797838089 73.31339285720605,136.59959123990848 73.55446428572759,137.22841794026317 73.67500000004657,137.6214340585284 73.96428571431898,138.66947489895392 74.63928571436554,140.0319233344926 75.12142857152503,140.94895297137555 75.89285714284051,141.60397268043016 76.30267857154831,142.12798757161363 76.71250000002328,142.41619542986155 77.67678571422584,143.1236137195956 78.42410714295693,143.33321886623162 79.07500000006985,143.3594195008627 80.32857142866123,143.43802139288164 80.71428571431898,143.33321886623162 81.36517857154831,142.99261043968727 81.75089285720605,142.7830050905759 82.78750000009313,141.99698392179562 83.22142857150175,141.4991696086945 83.84821428579744,140.92275215763948 84.28214285708964,140.47733802738367 84.71607142861467,139.979521568981 86.09017857152503,139.29829790795338 86.37946428568102,139.03628845713683 86.76517857145518,138.43366598142893 87.12678571441211,138.01444973872276 87.89821428572759,137.46422766384785 88.21160714293364,137.25461902850657 88.79017857147846,136.44238438960747 89.41696428577416,136.0755681329465 90.18839285708964,135.26333077796153 90.50178571441211,134.8179094986408 91.24910714291036,134.4510915519786 91.80357142863795,133.97946791694267 92.18928571429569,133.48164228440146 92.81607142859139,133.0362187542778 94.21428571431898,132.43358602371882 95.22678571427241,131.9619596899429 95.73303571424913,131.5427357525623 96.48035714298021,130.94010046930634 97.42053571424913,130.46847213772708 98.02321428572759,130.1278512836434 98.81875000009313,129.94443991823937 100.12053571431898,128.94877655542223 100.57857142854482,128.79156629374484 100.94017857150175,128.42474207721534 101.22946428577416,128.18892630786286 101.63928571424913,128.03171570730046 102.24196428572759,127.29806531127542 103.375,126.11898111907067 104.12232142861467,125.35912477233796 104.72500000009313,124.44205458648503 104.9901785714319,123.78700299316552 105.27946428570431,123.42017356926226 105.80982142861467,122.97473732699291 106.12321428570431,122.42449178005336 106.38839285715949,121.76943643772393 106.79821428575087,121.08817759042722 107.13571428565774,120.11869157629553 107.59375,118.96578581852373 107.93125000002328,118.3631290353078 108.41339285718277,117.55085087122279 108.991964285844,116.47654461802449 109.25714285718277,115.97869426838588 109.66696428577416,114.4851390007243 110.0526785714319,113.90867738015368 110.63125000009313,112.91296872394742 110.94464285718277,112.17928686164669 111.61964285711292,110.92154297302477 112.53571428568102,109.63759145728545 112.96964285720605,108.9825123513292 113.81339285720605,107.80336689235992 114.63303571427241,106.72903092842898 115.40446428570431,105.838115693914 116.03125,105.1044191037654 117.28482142859139,103.9252606696682 118.05625000002328,103.24396733165486 119.06874999997672,102.30063592005172 119.71964285708964,101.82896926731337 120.56339285720605,101.25248694553738 121.52767857140861,100.4925769896654 122.34732142847497,99.8898886180832 123.09464285708964,99.28719921573065 124.05892857140861,98.71071273591951 125.2401785714319,98.08181731868535 126.2285714285681,97.4267167323269 126.97589285718277,97.0074517178582 126.78303571429569,96.58818620454986 126.37321428582072,96.5357779803453 125.86696428572759,96.61439031377085 125.21607142861467,96.77161492806044 124.80625000002328,96.8764312985586 123.28750000009313,97.2432883499132 122.54017857147846,97.47912482407992 121.04553571424913,97.95079729889403 119.98482142866123,98.23904127825517 119.50267857138533,98.47487708603148 118.51428571424913,98.92034429227351 117.47767857136205,99.18238356229267 116.97142857138533,99.31340312416432 115.74196428561118,99.57544210195192 114.39196428575087,99.8898886180832 113.69285714277066,100.02090791691444" stroke="#4dd2ff" stroke-linecap="round" stroke-linejoin="round" stroke-width="0.5"><title>2024-05-16 12.3km</title><desc>9223370320990891307</desc></polyline><polyline fill="none" points="139.4664879356278,143.3016208668123 140.16621983912773,143.43274111131905 141.034852546989,143.03938023169758 141.32439678290393,142.88203575706575 142.0482573726913,142.4100019124162 142.45844504027627,142.1215364742966 142.91689008043613,141.51838070550002 143.88203753344715,140.6529814977839 144.2198391420534,140.3120660757122 144.99195710453205,139.70890721460455 146.15013404819183,139.15819604991702 146.99463806976564,138.1354444641329 147.86327077739406,137.47983291442506 148.44235924934037,136.7193219907931 148.90080428950023,136.24727990361862 149.43163538875524,135.95880942835356 149.9383378016064,135.59166484614252 150.13136729213875,135.11962125063292 150.44504021457396,134.8049251694756 151.28954423591495,134.4115546734829 151.69973190349992,133.96573424787493 152.27882037532981,133.36256454032264 153.24396782845724,132.7856186380086 154.16085790889338,132.41847075446276 154.7640750670107,132.18244691341533 155.6568364611594,131.36947469678125 156.47721179632936,130.81875051825773 157.22520107240416,130.45160058836336 157.90080428950023,130.08445027648122 159.10723860596772,129.55994916829513 159.7345844503725,129.0092221656232 160.6273458446376,128.58962006296497 161.3753351207124,128.06511673290515 161.906166219851,127.48816216937848 162.9678284182446,126.43915145515348 163.42627345852088,126.01954629624379 164.15013404830825,125.20655988092767 165.01876675605308,123.84283652633894 165.52546916890424,123.34455167816486 165.74262734584045,122.87249169920688 166.24932975880802,121.90214420348639 166.49061662203167,121.37763093254762 167.0455764074577,120.14502167658065 167.624664879404,118.91240811441094 167.76943699736148,118.57147168798838 168.17962466494646,117.96827566501452 168.44504021457396,117.33885262836702 168.7345844504889,116.78810655022971 169.55495978554245,115.4505767810333 169.6273458446376,115.0047323977924 169.69973190361634,114.50643506739289 169.7962466487661,114.24417303191149 170.1099195710849,113.74587462723139 170.54423592495732,113.09021775930887 170.71313672931865,112.80172835142002 170.97855227882974,112.04116423608502 171.36461126012728,111.14946628859616 172.281501340447,109.8643682229449 172.93297587137204,108.9202115588414 173.07774798944592,108.63171874074033 173.72922252013814,107.87114563491195 174.26005361950956,107.18925111132558 174.83914209122304,106.40244810003787 175.75603217165917,105.32714781313553 175.94906166230794,105.06487895321334 176.38337801618036,104.69770222174702 176.76943699736148,104.27807120347279 177.30026809650008,103.75353172858013 178.02412868640386,103.07162924509612 178.60321715823375,102.52086089228396 179.4235924934037,101.8127288891992 179.6890080429148,101.60291172633879 180.79892761388328,100.84232346486533 181.42627345840447,100.34400612837635 181.71581769443583,100.10796082852175 182.89812332449947,99.29491469767527 184.00804289546795,98.66545834150747 184.5630026810104,98.35072974211653 185.6729222520953,97.64258936676197 186.97587131371256,96.85576505985227 186.8310991957551,96.59348990084254 186.27613941032905,96.5410348456353 185.9383378017228,96.61971742552123 185.02144772128668,96.8295375527232 183.8150134049356,97.03935755512794 183.2841823056806,97.22294995488483 182.46380697051063,97.43276972320746 181.98123324394692,97.61636191807338 180.46112600539345,97.93109117282438 179.27882037544623,98.35072974211653 177.71045576408505,99.00641400722088 176.1420911528403,99.39982398119173 174.52546916890424,99.79323351636413 173.1260053620208,100.18664261270897 171.58176943694707,100.63250572478864 170.66487935662735,100.84232346486533 170.35120643430855,100.99968668798101 169.45844504027627,101.23573139109067 169.12064343167003,101.41932160648867 168.80697050946765,101.57668457223917 168.39678284188267,101.57668457223917 167.43163538887165,101.8127288891992 166.8766756033292,101.89141029308666 165.4530831099255,101.62913887860486 164.9705093833618,101.70782032344141 164.60857908858452,101.73404746776214 164.05361930304207,101.8127288891992 163.25737265415955,101.97009167942451 162.41286863270216,102.2848170492216 161.52010723866988,102.49463380637462 161.13404825737234,102.65199629237759 160.60321715823375,102.7306775090401 159.8310991957551,102.94049400099902 159.4691689008614,103.2027644405025 159.01072386058513,103.36012661055429 158.11796246643644,103.67485074009164 157.22520107240416,104.06825550712529 156.04289544234052,104.5141137127066 155.70509383373428,104.61902144385385 155.3914209116483,104.85506372488453 154.5951742627658,105.22224029258359 153.50938337796833,105.7467775834375 152.03753351210617,106.45490168879041 151.24128686322365,106.90075687767239 150.63806970510632,107.37283822809695 149.91420911531895,108.18586573965149 149.06970509386156,108.42190563396434 148.5147453083191,108.76285186913447 148.22520107240416,109.39229020674247 147.69436997326557,109.54964961568476 146.9705093833618,110.1528600329766 146.41554959781934,110.65116351272445 145.76407506712712,110.96588113729376 145.11260053620208,111.6739947659371 144.89544235926587,112.0936169863271 144.5335120643722,112.95908623954165 143.93029490613844,113.77210087658023 143.03753351210617,114.42775647726376 142.14477211795747,114.97850624009152 141.71045576408505,115.24076772970147 141.13136729225516,115.97509886350599 140.4075067024678,116.6045243330882 139.92493297590408,117.15527069786913 139.0804289544467,118.0994053229224 138.42895442352165,119.46315087657422 137.7050938338507,120.40727932576556 136.95710455765948,121.19405110355001 136.4504021446919,122.37420548070804 135.63002680963837,123.4232282799203 135.26809651474468,124.31489520706236 134.73726541548967,125.73106746008852 134.18230562994722,126.41292614737176 133.8445040214574,127.75041436063475 133.4825737264473,128.6158452090167 133.2654155496275,129.32392341527157 133.33780160860624,130.26802548018168 133.16890080436133,130.6089506050921 133.0,131.2907998667506 133.07238605897874,132.6282695918344 133.04825737257488,134.14930743252626 133.04825737257488,135.11962125063292 133.14477211795747,135.82768640716677 133.36193029489368,136.9553427976498 133.65147453080863,138.00432225165423 134.0134048257023,138.92217671623803 134.375335120596,139.68268289294792 134.93029490613844,140.6529814977839 135.46112600539345,141.36103555286536 136.11260053620208,141.99041574267903 136.52278820378706,142.33132954358007 137.68096514744684,143.22294869672623 139.2975871313829,143.35406897042412 140.26273458451033,143.4589651543938 141.34852546919137,142.9344839230762 142.09651474526618,142.46245014853776 142.7962466487661,141.8068466365803 143.78552278818097,140.83655120403273 144.87131367297843,139.813804481877 145.18498659518082,139.57778558667633 146.0294906166382,139.31554218466044 146.6568364611594,138.52881080945372 147.38069705094676,137.79452661020332 148.27345844497904,137.06024088335107 148.58713136741426,136.53575014302623 149.52815013402142,135.95880942835356 150.1072386058513,135.40809241181705 150.51742627343629,134.8049251694756 151.6273458445212,134.2017568962474 151.77211796247866,133.88705999666126 152.71313672931865,133.15276613950846 153.5335120643722,132.73316896369215 153.9195710455533,132.6282695918344 155.31903485255316,131.84152330865618 155.9705093833618,131.13345015409868 157.00804289546795,130.68762558716116 157.5630026810104,130.32047552079894 158.21447721181903,130.03200020076474 158.84182305634022,129.87464992672903 159.87935656844638,129.03544728053384 160.19302949064877,128.82564630708657 160.96514745312743,128.45849430351518 161.906166219851,127.80286477549816 162.50938337796833,127.09478351697908 163.5951742627658,125.91464492856176 164.24664879357442,125.20655988092767 164.89812332438305,123.92151301697595 165.33243967825547,123.29210060051992 165.7667560322443,122.92494283913402 166.32171581778675,121.98082112689735 166.65951742627658,121.3251795625547 166.97319034847897,120.61708530469332 167.624664879404,119.22711836948292 168.2520107239252,118.15185717248823 168.4691689008614,117.4962084927829 168.8310991957551,116.73565449789749 169.28954423603136,115.9488727778662 169.67560321721248,114.84737542213406 169.77211796259508,114.50643506739289 170.49597855238244,113.14267035361263 170.6890080429148,112.85418098859373 170.90616621996742,112.19852246347 171.50938337808475,111.01833404740319 172.2332439678721,109.96927436298574 172.90884718496818,108.99889137738501 173.753351206542,107.87114563491195 174.7667560322443,106.58603562632925 175.63538873998914,105.51073589903535 176.76943699736148,104.43543289383524 177.56568364612758,103.59616973399534 178.02412868640386,103.22899147370481 178.96514745312743,102.36349834772409 179.25469168904237,102.1536815126019 179.56836461124476,101.9176374237868 180.26809651474468,101.39309443873935 181.30563002685085,100.63250572478864 182.56032171589322,99.66209705336951 183.33243967837188,99.13755071398919 184.6112600537017,98.37695713617723 185.96246648789383,97.56390701505006 186.90348525485024,97.01313006161945 187.0,96.77708253264427 186.27613941032905,96.59348990084254 185.76943699736148,96.72462750473642 184.36997319047805,96.96067506889813 183.42895442363806,97.11804002386634 182.34316353895701,97.32785985461669 181.6916890081484,97.66881681338418 180.26809651474468,98.2458201466361 179.32707774813753,98.50809407688212 178.8445040215738,98.71791308079264 178.3619302950101,98.82282253587618 177.10723860596772,99.13755071398919 175.5630026810104,99.55718784790952 174.06702412874438,99.92436993055162 173.15013404830825,100.16041535325348 172.25737265415955,100.42268785988563 170.97855227882974,100.81609625415877 170.13404825748876,101.13082265367848 169.8445040215738,101.18327702631359 168.85522788204253,101.52423025819007 168.44504021457396,101.60291172633879 168.17962466494646,101.62913887860486 167.06970509386156,101.86518316037836 166.5147453083191,101.78650175067014 165.42895442363806,101.73404746776214 164.9222520106705,101.73404746776214 163.88471849868074,101.89141029308666 163.3297587132547,102.02254592720419 162.60589812335093,102.23236284041195 162.1233243967872,102.33727125026053 161.08579088479746,102.67822336658719 160.02412868628744,103.01917515337118 159.5174262735527,103.17653740532114 158.86595174262766,103.36012661055429 158.1903485255316,103.6486237400386 156.79088471841533,104.22561729111476 155.9222520107869,104.56656758210738 154.52278820367064,105.27469405677402 153.12332439690363,105.90413861855632 151.77211796247866,106.58603562632925 150.80697050946765,107.21547784816357 150.56568364612758,107.5039718245389 149.8900804290315,108.18586573965149 149.55227882030886,108.42190563396434 148.85254691692535,108.47435892239446 148.44235924934037,109.13002436922397 147.93565683648922,109.57587617699755 147.59785522788297,109.57587617699755 146.89812332438305,110.25776608719025 145.78820375329815,110.992107593338 144.87131367297843,112.19852246347 144.26809651474468,113.43115948268678 144.05093833780847,113.92945833189879 143.76139410189353,114.16549438319635 143.39946380699985,114.24417303191149 142.60321715823375,114.61133982703905 141.4209115281701,115.71283791973838 140.26273458451033,116.84055859473301 139.44235924934037,117.62733832621598 138.6702412868617,118.99108570447424 137.94638069707435,120.19747322198236 137.1260053619044,120.95801975444192 136.69168900803197,122.03327239936334 135.82305630017072,123.26587505883072 135.29222520103212,124.36734613258159 134.93029490613844,125.1803344815562 134.44772117957473,126.01954629624379 134.1099195709685,127.01610773385619 134.0616621983936,127.35703600064153 133.41018766758498,128.87809656216996 133.36193029489368,129.63862438424258 133.33780160860624,130.16312537548947 133.07238605897874,130.84497549856314 133.2171581769362,131.73662367172074 133.14477211795747,133.15276613950846 133.04825737257488,134.07063322220347 133.12064343167003,134.4115546734829 133.12064343167003,134.96227324512438 133.16890080436133,135.67033871734748 133.36193029489368,136.82422014663462 133.79624664888252,138.29279105487512 134.47184986597858,139.7875801680202 134.83378016087227,140.44318743087933 135.4852546916809,141.33481135393959 136.7158176943194,142.4100019124162 137.68096514744684,143.14427650909056 139.0321715818718,143.2753968120669 139.34584450395778,143.3016208668123 140.26273458451033,143.40651706632343 141.54155495972373,142.75091530795908 142.60321715823375,142.09531233186135 142.8445040214574,141.96419159055222 142.96514745312743,141.33481135393959 143.18230562994722,141.15124190686038 143.52010723855346,140.88899967400357 144.34048257372342,140.18094467185438 144.9195710455533,139.70890721460455 145.30563002685085,139.47288824929274 146.31903485255316,138.8959523361409 146.3914209116483,138.8959523361409" stroke="#4dd2ff" stroke-linecap="round" stroke-linejoin="round" stroke-width="0.5"><title>2024-05-13 13.6km</title><desc>9223370321247039907</desc></polyline><polyline fill="none" points="51.806429732590914,195.14639810821973 50.59551386162639,185.26837219228037 51.20097179710865,164.85371518181637 48.17368212342262,160.24394084163941 41.21091586910188,155.30489155929536 35.15633651986718,155.9634317830205 30.61540200561285,159.58540125680156 27.588112331926823,174.40251812827773 27.28538336418569,194.48786373483017 31.220859941095114,201.07320303609595 43.93547657690942,202.71953632635996 48.47641108930111,200.08540276740678 51.50370076484978,183.62203238834627 52.1091586984694,165.51225397991948 49.08186902478337,158.26832179236226 38.48635516129434,154.97562140994705 30.61540200561285,158.59759169607423 27.588112331926823,167.15860054455698 27.28538336418569,175.39032414951362 27.890841299667954,190.53665543347597 28.799028201028705,198.43906849622726 32.73450477980077,202.39026971696876 45.44912141561508,202.71953632635996 50.59551386162639,195.80493238195777 51.806429732590914,178.3537408846896 52.41188766807318,165.51225397991948 49.384597992524505,157.9390518644359 44.84366348013282,155.30489155929536 33.64269168116152,156.62197190872394 29.7072151042521,160.24394084163941 27.588112331926823,176.0488613739144 26.98265439644456,181.31715562962927 26.98265439644456,192.84152737352997 28.496299233287573,197.4512676380109 37.27543929219246,204.36586899938993 47.26549522019923,201.73173642647453 49.99005592800677,197.4512676380109 52.41188766807318,184.60983634390868 52.714616633951664,168.80494649498723 51.50370076484978,162.21955900639296 46.962766252458096,155.9634317830205 39.69727103225887,154.31708103860728 30.61540200561285,158.59759169607423 27.588112331926823,163.2073677566368 28.193570267409086,175.39032414951362 27.588112331926823,194.8171309332829 35.15633651986718,203.0488029094413 45.146392446011305,203.0488029094413 50.59551386162639,197.4512676380109 51.806429732590914,184.93910428020172 52.714616633951664,164.85371518181637 47.26549522019923,156.29270185763016 40.0,154.31708103860728 31.826317876577377,158.26832179236226 28.193570267409086,164.85371518181637 28.496299233287573,184.28056838340126 29.7072151042521,198.76833539968356 35.15633651986718,203.0488029094413 45.44912141561508,202.71953632635996 50.898242831230164,197.4512676380109 52.41188766807318,183.29276435356587 53.32007457129657,174.07324940571561 50.898242831230164,159.91467106202617 45.75185038149357,155.30489155929536 38.48635516129434,154.31708103860728 30.61540200561285,159.91467106202617 28.193570267409086,171.76836765604094 27.890841299667954,192.51226002699696 30.00994407199323,199.42686913372017 35.7617944534868,203.3780694680754 46.35730831697583,202.71953632635996 50.292784893885255,199.75613596313633 53.017345601692796,187.24397914577276 53.017345601692796,182.63422821066342 53.32007457129657,166.17079267953523 49.384597992524505,157.60978191299364 40.30272896774113,154.64635123615153 31.523588908836246,158.59759169607423 28.193570267409086,165.84152334183455 27.588112331926823,184.93910428020172 27.890841299667954,196.46346655813977 33.33996271342039,202.71953632635996 40.90818690136075,204.36586899938993 47.56822418794036,201.73173642647453 52.41188766807318,192.51226002699696 52.714616633951664,171.76836765604094 50.898242831230164,160.24394084163941 43.33001864142716,154.97562140994705 34.85360755212605,155.63416168326512 28.193570267409086,163.86590680014342 27.588112331926823,183.95130039798096 27.28538336418569,194.15859651216306 28.799028201028705,198.76833539968356 39.69727103225887,204.03660251409747 46.962766252458096,202.061003083596 52.1091586984694,189.87812037277035 53.017345601692796,170.78056082432158 49.687326960265636,159.58540125680156 39.69727103225887,154.64635123615153 33.037233747541904,156.95124193420634 28.193570267409086,165.84152334183455 28.193570267409086,185.59764007851481 28.496299233287573,197.4512676380109 32.73450477980077,202.71953632635996 41.816373804584146,204.36586899938993 49.687326960265636,200.41466954885982 52.714616633951664,187.57324688485824 53.32007457129657,167.15860054455698 50.292784893885255,158.926861573942 42.724560705944896,154.97562140994705 33.945420648902655,156.62197190872394 28.799028201028705,162.21955900639296 27.890841299667954,177.69520400487818 27.588112331926823,196.1341994830873 31.220859941095114,201.73173642647453 37.88089722767472,204.03660251409747 48.77914005704224,201.73173642647453 53.017345601692796,193.82932926365174 53.017345601692796,175.06105550006032 53.017345601692796,164.19517628569156 43.93547657690942,154.97562140994705 35.459065487608314,155.9634317830205 31.523588908836246,158.926861573942 28.496299233287573,175.06105550006032 28.799028201028705,193.5000619913917 31.826317876577377,201.73173642647453 40.30272896774113,204.36586899938993 48.77914005704224,202.061003083596 53.017345601692796,193.82932926365174 53.62280353717506,173.08544308901764 53.62280353717506,168.80494649498723 52.714616633951664,161.89028937392868 49.08186902478337,158.26832179236226 38.78908413089812,154.64635123615153 30.00994407199323,160.24394084163941 27.588112331926823,173.74398065754212 27.588112331926823,192.84152737352997 31.220859941095114,201.40246974327601 37.57816825993359,204.36586899938993 46.962766252458096,203.70733600342646 53.017345601692796,194.48786373483017 53.32007457129657,172.75617426726967 54.22826147265732,165.1829845935572 46.962766252458096,155.9634317830205 37.57816825993359,154.64635123615153 29.7072151042521,160.9024803286884 28.799028201028705,177.03666702634655 28.496299233287573,196.46346655813977 30.61540200561285,201.07320303609595 37.27543929219246,205.0244018980302 44.84366348013282,204.69513546070084 50.59551386162639,200.41466954885982 53.62280353717506,188.23178228992037 53.92553250491619,165.51225397991948 50.292784893885255,157.60978191299364 42.42183174006641,154.64635123615153 33.64269168116152,157.28051193570718 28.799028201028705,166.50006199255586 29.101757168769836,184.93910428020172 29.101757168769836,196.1341994830873 34.85360755212605,203.3780694680754 43.93547657690942,205.35366830881685 50.292784893885255,202.061003083596 53.92553250491619,193.5000619913917 53.62280353717506,174.07324940571561 51.50370076484978,159.2561314275954 43.93547657690942,154.31708103860728 33.037233747541904,156.95124193420634 27.890841299667954,170.12202281248756 28.496299233287573,187.90251459903084 30.61540200561285,199.42686913372017 37.27543929219246,205.0244018980302 44.84366348013282,205.68293469655327 52.41188766807318,199.75613596313633 54.22826147265732,184.60983634390868 53.92553250491619,164.85371518181637 50.292784893885255,157.60978191299364 41.816373804584146,154.64635123615153 31.220859941095114,159.58540125680156 28.799028201028705,176.37812994979322 29.404486138373613,196.1341994830873 34.55087858438492,203.70733600342646 44.238205544650555,206.01220105960965 52.41188766807318,200.08540276740678 55.13644837588072,190.86592292762361 54.530990440398455,176.70739850006066 53.32007457129657,161.23175003496 46.35730831697583,154.31708103860728 39.091813096776605,154.64635123615153 29.7072151042521,162.21955900639296 28.799028201028705,167.15860054455698 28.193570267409086,182.96349629480392 28.496299233287573,196.79273360897787 34.85360755212605,204.03660251409747 41.513644836843014,205.35366830881685 50.59551386162639,201.07320303609595 53.92553250491619,194.48786373483017 54.22826147265732,176.37812994979322 52.41188766807318,161.56101971655153 47.26549522019923,155.9634317830205 40.90818690136075,153.98781081545167 30.00994407199323,159.2561314275954 27.588112331926823,171.76836765604094 26.679925430566072,190.86592292762361 27.588112331926823,198.43906849622726 30.61540200561285,202.71953632635996 37.27543929219246,206.01220105960965 46.35730831697583,204.69513546070084 52.1091586984694,197.12200063536875 52.714616633951664,177.03666702634655 53.32007457129657,164.85371518181637 48.47641108930111,156.62197190872394 41.816373804584146,153.65854056854732 30.918130975216627,157.9390518644359 26.377196460962296,172.42690542154014 26.377196460962296,191.19519039685838 28.496299233287573,200.08540276740678 37.88089722767472,206.3414673972875 46.962766252458096,204.36586899938993 53.017345601692796,193.82932926365174 53.32007457129657,181.31715562962927 53.017345601692796,167.48786978423595 50.898242831230164,159.58540125680156 45.44912141561508,155.30489155929536 40.0,153.98781081545167 28.496299233287573,159.91467106202617 25.771738527342677,169.13421561103314 26.07446749508381,179.01227766717784 26.377196460962296,196.1341994830873 30.918130975216627,203.70733600342646 41.816373804584146,206.67073371144943 48.77914005704224,202.71953632635996 53.017345601692796,194.15859651216306 53.32007457129657,175.06105550006032 52.714616633951664,162.54882861394435 48.47641108930111,156.29270185763016 44.238205544650555,153.65854056854732 36.367252388969064,153.3292702967301 27.588112331926823,162.21955900639296 26.377196460962296,174.73178682662547 26.377196460962296,193.82932926365174 33.037233747541904,204.03660251409747 42.724560705944896,206.3414673972875 50.898242831230164,200.08540276740678 53.32007457129657,185.59764007851481 53.92553250491619,169.79275377001613 50.898242831230164,158.26832179236226 46.660037284716964,154.97562140994705 38.78908413089812,154.31708103860728 31.826317876577377,156.62197190872394 26.377196460962296,165.84152334183455 26.98265439644456,186.58544359216467 30.00994407199323,201.73173642647453 40.60545793361962,206.3414673972875 49.687326960265636,202.71953632635996 53.32007457129657,188.56104995612986 53.62280353717506,175.39032414951362 53.017345601692796,162.8780981975142 48.17368212342262,155.9634317830205 41.513644836843014,153.0 30.61540200561285,158.26832179236226 26.07446749508381,167.48786978423595 24.86355162411928,185.26837219228037 25.771738527342677,198.10980156762525 32.43177581205964,205.0244018980302 46.0545793492347,206.01220105960965 52.1091586984694,201.07320303609595 53.92553250491619,193.5000619913917 53.92553250491619,183.29276435356587 53.92553250491619,167.48786978423595 50.898242831230164,157.9390518644359 41.816373804584146,153.65854056854732 32.73450477980077,156.62197190872394 27.588112331926823,174.07324940571561 26.98265439644456,190.86592292762361 28.496299233287573,200.74393630516715 33.945420648902655,205.35366830881685 45.44912141561508,205.68293469655327 51.20097179710865,201.40246974327601 53.32007457129657,187.57324688485824 53.32007457129657,172.42690542154014 53.32007457129657,165.51225397991948 45.75185038149357,155.9634317830205 38.183626195415854,153.98781081545167 27.588112331926823,162.54882861394435 26.679925430566072,175.06105550006032 26.679925430566072,184.60983634390868 26.377196460962296,197.12200063536875 31.826317876577377,204.36586899938993 41.513644836843014,207.0 48.77914005704224,204.03660251409747 52.41188766807318,197.12200063536875 53.62280353717506,177.36593552841805 53.92553250491619,172.75617426726967 50.292784893885255,159.2561314275954 38.48635516129434,154.97562140994705 31.220859941095114,158.59759169607423 27.890841299667954,162.8780981975142 28.193570267409086,169.79275377001613 26.98265439644456,187.24397914577276 26.98265439644456,195.47566525707953 29.7072151042521,202.39026971696876 35.15633651986718,206.01220105960965 45.146392446011305,206.01220105960965 51.20097179710865,200.74393630516715 53.32007457129657,184.93910428020172 53.62280353717506,172.0976365513634 52.714616633951664,163.53663729061373 42.724560705944896,155.9634317830205 34.85360755212605,156.95124193420634 29.7072151042521,162.21955900639296 27.28538336418569,168.80494649498723 26.679925430566072,187.24397914577276 26.98265439644456,194.8171309332829 29.101757168769836,201.73173642647453 35.7617944534868,206.01220105960965 45.44912141561508,206.01220105960965 51.806429732590914,198.76833539968356 53.62280353717506,179.01227766717784 53.92553250491619,166.8293312806636 49.99005592800677,160.24394084163941 41.21091586910188,155.9634317830205 34.248149616643786,157.28051193570718 27.588112331926823,165.51225397991948 26.98265439644456,167.48786978423595" stroke="#4dd2ff" stroke-linecap="round" stroke-linejoin="round" stroke-width="0.5"><title>2024-05-10 12.2km</title><desc>9223370321510435007</desc></polyline><polyline fill="none" points="79.56887298740912,203.36182566802017 80.1243291591527,203.36182566802017 81.2110912342323,203.07310302596306 82.2737030411372,202.39066675206413 83.022361359559,201.65573390590725 84.15742397122085,200.6058271875081 85.24418604641687,199.6609084729862 86.13774597481824,199.29343940143008 86.86225402494892,198.34851717628771 88.14221824682318,197.37734447760158 89.03577817510813,196.3799210888683 90.24329159210902,195.51373533470905 90.79874776385259,194.72629189674626 91.93381037563086,194.07008769080858 92.77906976733357,193.15139975445345 94.27638640417717,192.49519262264948 95.67710196773987,191.60274896697956 96.98121645790525,190.71030305622844 97.58497316623107,190.36907314156997 98.96153846138623,189.87035190395545 100.14490160997957,188.92540446986095 101.47316636843607,188.13794634360238 101.93202146678232,187.69171929269214 103.09123434696812,186.5630248237576 104.08139534876682,185.48682441265555 104.85420393547975,184.35812289710157 105.43381037551444,183.41316071458277 105.7960644006962,183.28191576703102 106.4722719140118,181.94321451586438 107.05187835416291,180.55200979931396 107.67978533089627,179.1870489017747 108.45259391760919,177.87458152486943 109.17710196773987,176.45711127866525 109.87745974957943,175.09213455283316 110.21556350623723,173.93715012507164 111.06082289793994,172.4934142776474 111.64042933797464,171.36467123081093 111.97853309474885,170.5509240051033 112.55813953489996,169.81592489901232 113.37924865831155,168.6084230459237 114.39355992840137,167.24341597847524 115.48032200348098,165.93090420609224 116.61538461537566,164.69713869108818 117.8228980320273,163.59462117872317 118.9821109122131,162.38709804811515 120.31037567078602,161.3895758249855 121.56618962425273,160.5233042392647 122.91860465100035,159.52577674988424 124.343470483087,158.63324976485455 125.69588550983462,157.74072052323027 126.87924865819514,157.0581966394384 127.0,156.82193806447322 126.78264758491423,156.63818128578714 126.13059033977333,156.6644322600332 124.65742397133727,156.9531928478391 123.18425760266837,157.21570226817857 121.66279069765005,157.68821873285924 120.09302325570025,158.08198197028833 118.5715563504491,158.50199560605688 117.1466905187117,159.1057643320819 115.62522361346055,159.55202750931494 114.1762075133156,159.94578866788652 112.65474060806446,160.41830147837754 111.08497316623107,160.81206167067285 109.611806797795,161.17957078723703 108.16279069753364,161.59958073776215 107.10017889086157,161.78333493394894 105.77191413228866,161.65208194643492 104.66100178880151,161.67833254783181 103.09123434696812,162.0195901885454 101.95617173518986,162.3083463961084 100.45885509834625,162.8071065619588 99.03398926649243,163.33211650163867 97.80232558131684,163.80462477987749 96.40161001775414,164.38213403886766 95.00089445430785,165.090894111112 93.45527728076559,165.85215334460372 92.0545617173193,166.48215974480263 90.75044722715393,167.24341597847524 89.92933810374234,168.16217131604208 88.93917710194364,168.42467240194674 88.62522361346055,168.58217295983923 88.45617173518986,169.10717431193916 88.26296958839521,169.36967469530646 87.90071556344628,169.50092481373576 87.49016100168228,169.5534248474578 86.98300536663737,170.1571746742993 85.87209302315023,170.91842298445408 85.02683363144752,171.99466779490467 84.73703041137196,172.72966236574575 84.13327370304614,173.46465540662757 82.82915921276435,174.3571448995499 81.64579606440384,175.35463048680685 81.13864042924251,176.01086946800933 79.95527728076559,177.0345998435805 78.94096601067577,178.294571616163 78.50626118062064,179.42329251157935 77.78175313048996,180.2370192911767 77.00894454377703,181.05074419578887 76.35688729875255,182.46819600346498 75.53577817522455,183.46565867989557 75.14937388186809,184.85685191862285 74.44901610002853,185.80181023827754 74.06261180678848,187.16674556978978 73.38640429335646,188.7679129850585 73.45885509822983,189.68661232310114 73.1690518782707,190.21158230051515 73.0,190.8152968098875 73.19320214656182,192.36395105000702 73.09660107328091,193.96509490473545 73.21735241485294,195.4087429777428 73.55545617162716,197.08861694426741 73.74865831830539,197.29860062824446 74.0143112699734,198.63724367995746 74.52146690501831,199.68715624924516 75.17352415027563,200.86830415963777 76.35688729875255,202.0494481207279 77.61270125210285,203.09935054858215 78.60286225390155,203.20434061976266 79.18246869405266,203.25683564366773 80.38998211082071,203.30933065968566 81.790697674267,202.5481521630718 82.80500894447323,201.8657148750499 83.55366726289503,200.92079953066423 84.6887298746733,199.79214733449044 85.75134168146178,199.37218280608067 86.30679785320535,199.05720908209332 87.15205724502448,197.95479883652297 88.04561717354227,197.40359242353588 88.55277280847076,196.61615319861448 89.73613595694769,195.7499680237088 90.38819320208859,194.80503631953616 91.54740608227439,194.1750804456533 92.03041144891176,193.54512344833347 93.21377459750511,192.73142733055283 94.56618962425273,192.20646109842346 95.8703041144181,191.26151991443476 97.31932021456305,190.36907314156997 98.74418604641687,189.76535786944441 99.61359570664354,189.1878901218297 100.04830053646583,188.7941615707823 101.37656529503874,187.9804545076331 101.85957066179253,187.50797857847647 103.13953488366678,186.3005372210173 104.17799642216414,185.11934059436317 104.97495527728461,183.83314421895193 105.43381037551444,183.1769197738613 106.06171735236421,182.4419469476561 106.52057245071046,181.49697963774088 107.00357781734783,180.34201615847996 107.60733452590648,178.8983064974018 108.38014311250299,177.50708978512557 109.12880143104121,176.16836664208677 109.68425760278478,174.75088954693638 110.31216457951814,173.46465540662757 110.89177101966925,172.5196640730428 111.42307692300528,171.233421805111 112.0026833631564,170.1571746742993 112.92039355973247,168.97592404708848 113.78980321995914,167.6896688695706 114.77996422175784,166.48215974480263 115.79427549196407,165.2746464901429 116.63953488366678,164.43463483380037 117.77459749544505,163.27961554282228 118.71645796054509,162.38709804811515 119.9722719140118,161.3895758249855 121.42128801427316,160.41830147837754 122.84615384601057,159.39452292298665 124.17441860458348,158.55449727544328 125.57513416802976,157.81947319416213 126.95169946330134,156.97944379868568 126.9275491948938,156.6644322600332 125.96153846150264,156.63818128578714 124.4400715562515,156.90069094035425 122.96690518781543,157.16320039972197 121.3729874775745,157.5832151286886 119.87567084073089,158.18698542605853 118.37835420388728,158.73825305665378 116.92933810362592,159.0532627447392 115.48032200348098,159.47327522494015 113.86225402506534,159.91953793761786 112.38908765639644,160.28704798335093 110.69856887299102,160.73330966735375 109.00805008935276,161.3370745772554 108.18694096594118,161.46832768191234 107.10017889086157,161.73083374480484 106.134168157354,161.46832768191234 104.70930232561659,161.52082891008467 103.477638640441,161.70458314727875 101.93202146678232,162.17709360376466 101.01431127008982,162.54460129933432 99.42039355984889,162.9383591201331 97.89892665459774,163.6471220907115 96.42576028616168,164.1983811953105 94.95259391760919,164.93339199581533 93.47942754917312,165.66840126612806 92.10286225401796,166.32465825011604 90.77459749544505,167.13841521623544 89.83273703034502,168.16217131604208 89.08407871192321,168.37217220038292 88.5769230768783,168.50342268965323 88.38372093020007,169.0546742118604 87.99731663672719,169.42217474852805 87.4177101966925,169.52717483154265 86.7656529515516,170.26217453877325 85.79964221804403,170.83967323534307 84.80948121636175,172.15216676038108 84.56797853298485,172.8609112352715 83.91592128796037,173.59590400298475 82.75670840777457,174.30464558006497 82.05635062605143,174.93463689874625 81.0420393559616,175.98461993222008 79.81037567078602,177.08709875721252 78.8926654739771,178.32082098029787 78.3855098389322,179.52828962076455 77.3953488371335,180.49951140073244 76.8157423970988,181.60197613039054 76.18783542024903,182.65193933979026 75.36672629683744,183.88564212192432 74.9803220035974,185.27683370612795 74.35241502686404,186.01180063266656 74.06261180678848,187.08799944404745 73.74865831830539,188.24294086181908 73.3381037566578,189.03039875405375 73.36225402494892,190.00159440314746 73.09660107328091,190.94653895797092 73.1690518782707,192.39019936847035 73.07245080498978,193.93884670335683 73.12075134168845,195.64497573699919 73.28980321995914,196.1436888210883 73.5796064400347,197.6135759203753 74.06261180678848,199.0834569031722 74.76296958851162,200.42209319098038 75.58407871192321,201.34076221799478 76.57423971372191,202.285676439089 77.70930232550018,203.25683564366773 78.84436493727844,203.28308315260801" stroke="#4dd2ff" stroke-linecap="round" stroke-linejoin="round" stroke-width="0.5"><title>2024-04-26 13.1km</title><desc>9223370322705658065</desc></polyline><polyline fill="none" points="141.23728813568596,201.0219012919697 142.03211418387946,200.44600047930726 143.47725245333277,199.24184119261918 143.91079393413384,198.69211493254988 145.42818911687937,197.51412720116787 146.22301516518928,197.14764132580603 147.18644067808054,196.02200375354732 147.66815343452618,195.62933863792568 149.30597680655774,194.03249599246192 149.83586083864793,193.92778474645456 150.63068688672502,192.80213688587537 151.64228367537726,192.2524005769519 152.14808206970338,191.59795147160185 152.94290811789688,191.04821328350226 154.6289027654566,190.28904961331864 156.02586975926533,189.08485560826375 157.56735057989135,188.35186593749677 158.5789473685436,188.06390529242344 159.6146297949599,187.4094484053494 160.2649420161033,186.83352533885045 161.22836752899457,186.23142294440186 161.8786797503708,185.7602116568887 162.16770740412176,185.41989200160606 162.93844781455118,184.68689470426762 163.75735950050876,183.7968245068041 164.81712756468914,182.56642964784987 165.58786797511857,181.44074548006756 166.14183764508925,180.5506670793984 166.38269402319565,179.94855394458864 167.44246208749246,177.7757023332233 168.11685994651634,176.23113701221882 168.81534344342072,175.07925338018686 169.53791257808916,173.66557286435273 169.70651204290334,173.11580668672104 169.8991971454816,172.43514261109522 170.98305084742606,170.6549380394572 171.36842105269898,169.60775467584608 171.75379125785548,168.92708381963894 172.57270294381306,167.80135605460964 173.48795718117617,166.46618590055732 174.33095450501423,165.4451700138161 175.05352363968268,164.4503311740409 175.80017841223162,163.50784968040534 176.81177520065103,162.53918551650713 177.67885816236958,161.5966989074368 178.28099910798483,161.02073362655938 179.00356824265327,160.4185870983929 180.0392506690696,159.50227518816246 181.77341659239028,158.37651729103527 182.7609277430456,157.6958247233997 183.4353256021859,157.22457525174832 184.7600356824696,156.4129774608591 185.3140053524403,156.09881007182412 186.54237288131844,155.31339037269936 186.83140053518582,154.68505335174268 185.21766280115116,154.94686058006482 183.9652096342761,155.2610289970471 182.7609277430456,155.47047445268254 181.0990187333664,155.99408754653996 180.3041926851729,156.25589380142628 179.22033898311201,156.54388045694213 178.25691347010434,157.14603361178888 176.859946476412,157.38165847898927 176.01694915257394,157.59110267306096 174.909009812749,157.82672724247095 172.83764495991636,158.45505865651648 170.91079393413384,158.97866731169051 169.73059768066742,159.47609481285326 168.74308653001208,159.6331770356337 167.44246208749246,160.02588228599052 165.78055307769682,159.92116092870128 164.47992863529362,159.97352161127492 162.86619090102613,160.28768554289127 160.7948260481935,160.88983229495352 160.1445138270501,161.07309414556948 158.6993755575968,161.67523955448996 157.61552185553592,162.04176234273473 156.62801070476416,162.3559244290227 154.99018733284902,163.16750852105906 154.05084745772183,163.66493010453996 152.87065120437182,164.2147110370861 151.37734165939037,164.97393091378035 150.6547725246055,165.62842949354672 150.22123104380444,166.12584760057507 149.089206066099,166.57090531126596 148.00535236403812,167.59191793383798 147.40321141853929,167.87989531783387 147.01784121326637,168.220231922518 146.36752899200656,168.74382605662686 145.1150758252479,169.97426920733415 144.56110615527723,171.04763099795673 143.57359500450548,172.22570724622346 142.6583407673752,172.6969366420526 141.64674397872295,173.58703489150503 140.8037466548849,174.39859309943859 139.98483496892732,175.28868704804336 138.949152542511,176.49292822135612 138.05798394302838,178.19456633747905 137.0945584301371,179.03229285145062 136.68510258710012,180.2365212244622 135.72167707420886,181.49310296296608 135.19179304200225,182.6973229223222 134.83050847472623,183.6921102180495 133.91525423736311,185.81256849769852 133.50579839444254,186.80734699527966 133.4094558431534,188.2209747644083 133.19268510281108,190.5508303740644 133.0,192.77595898590516 133.26494201621972,193.92778474645456 133.48171275656205,195.02725127746817 134.0838537021773,196.93822065441054 134.8786797503708,198.45651770141558 136.0347903658403,199.81774397366098 136.9741302409675,200.55070978793083 137.768956289161,201.1789649866114 139.11775200720876,201.4145603972429 140.61106155230664,201.33602861114196 142.6342551294947,200.18422707141144 143.26048171287403,199.47743789866217 144.39250669057947,198.32563028263394 145.35593220347073,197.6973699958471 146.12667261378374,197.30470674758544 146.9455842997413,196.2314249695337 147.74041034805123,195.70787169609684 149.4745762712555,193.9801403733145 150.17305976815987,193.4304059027054 151.06422836752608,192.51417987863533 151.64228367537726,192.2524005769519 152.22033898311201,191.5455954906938 154.19536128477193,190.52465230674716 154.94201605720446,190.0534467623511 155.59232827834785,189.68695312540513 156.62801070476416,188.8754301436711 158.04906333633699,188.1162617908558 159.39785905450117,187.48798329601414 159.83140053530224,187.0953086676309 160.96342551300768,186.41467160815955 161.51739518297836,186.1267093794304 162.89027653890662,184.71307320549386 164.43175735953264,182.93293069361243 165.2506690454902,181.57163917276193 166.23818019626196,180.36741536465706 166.81623550411314,179.1631874392624 167.2497769849142,178.142208364181 167.7555753791239,176.75471923593432 168.57448706508148,175.3672246414062 169.20071364857722,174.08444175688783 169.6342551294947,173.24670347350184 169.8991971454816,172.30424552268232 170.52542372886091,171.30942606038298 170.91079393413384,170.57639939521323 171.1757359500043,169.63393429788994 172.5245316682849,167.72281677395222 173.0303300623782,167.0683220869978 173.99375557538588,165.70696924137883 175.07760927744675,164.34561113262316 175.6556645851815,163.5863899012329 176.3300624442054,162.90570740544354 177.26940231933258,162.09412270993926 178.69045495102182,160.65420977550093 179.89473684201948,159.76407883444335 181.2194469224196,158.76922394306166 182.30330062436406,157.9576297128806 183.12221231043804,157.38165847898927 184.15789473685436,156.83186687689158 185.79571810888592,155.83700370011502 186.78322925965767,155.28720968586276 186.8554861730663,154.71123408337007 185.77163247112185,154.81595699026366 184.61552185553592,155.02540271062753 183.45941123995,155.3395710575278 182.5441570027033,155.60137779914658 181.24353256030008,155.99408754653996 179.84656556649134,156.57006105026812 179.0999107939424,156.62242223112844 177.29348795721307,157.40783901009127 175.80017841223162,157.7481857368548 173.53612845682073,158.24561497641844 171.1998215878848,158.9524868974113 170.23639607499354,159.2142909524846 168.95985727047082,159.6331770356337 167.65923282783478,159.92116092870128 166.4549509367207,159.8949805845623 165.78055307769682,159.81643954030005 164.72078501340002,159.92116092870128 163.4442462087609,160.20914458626066 162.48082069586962,160.34004617089522 161.78233719896525,160.60184919423773 160.74665477254894,160.88983229495352 159.56645851931535,161.3087163847813 158.36217662808485,161.8061405940971 156.62801070476416,162.3559244290227 155.30330062448047,163.03660798762576 154.50847457628697,163.455489523476 153.25602140952833,164.03145082163974 151.42551293491852,164.92157097478048 150.34165923297405,165.96876827429514 149.3300624443218,166.59708515906823 148.60749330965336,166.8850633565744 148.12578055320773,167.61809770579566 147.21052631596103,168.0893332672713 145.6449598573381,169.16270080336835 144.77787689573597,170.18370591118583 144.27207850140985,171.5712209281919 142.44157002691645,172.85401296717464 141.91168599482626,173.2728828250547 140.58697591454256,174.6865649172105 139.84032114199363,175.31486624776153 138.87689562910236,176.57146554617793 137.81712756468914,178.43017712089932 136.73327386274468,180.13180587720126 135.81801962538157,181.30985173865338 135.33630686905235,182.64496561832493 134.80642283684574,183.71828879317036 134.10793933994137,184.9225011447852 133.69848349690437,186.38849323350587 133.38537020538934,187.4094484053494 133.19268510281108,188.6660045546305 133.21677074045874,189.68695312540513 133.12042818916962,190.57700843946077 133.07225691364147,192.09533290259424 133.1685994649306,193.63982865933212 133.62622658349574,195.44609476756887 134.22836752911098,197.35706187266624 135.02319357730448,198.8230022151547 136.13113291724585,199.89627609815216 137.45584299741313,200.969546711538 138.05798394302838,201.33602861114196 139.76806422846857,201.4145603972429 140.37020517408382,201.4669149115798 141.7190008921316,200.7601283119875 142.44157002691645,200.26275911420817 142.97145405900665,199.71303444716614 144.65744870656636,198.06385529928957 145.2595896521816,197.6973699958471 146.36752899200656,197.0167534207867 146.9455842997413,196.20524732433842 148.05352363968268,195.34138394176261 148.80017841223162,194.4251628878701 150.1248884925153,193.50893945104326 151.37734165939037,192.40946818134398 151.9794826048892,191.80737531758496 152.60570918838494,191.15292538548238 151.47368421056308,191.49323950192775 150.6547725246055,192.17386674857698 150.07671721687075,192.56653571565403 148.75200713658705,193.3780501941219 148.00535236403812,194.346629543812 147.16235504020005,195.10578446972067 146.8492417485686,195.49845016893232 146.27118644071743,196.12671437708195 145.50044603040442,196.93822065441054 144.85013380926102,197.4355945456773 143.98305084742606,198.35180777026108 143.2845673506381,199.08477663440863 142.70651204290334,199.50361530075315 141.5985727030784,200.26275911420817 141.02051739522722,200.7339510032907 140.58697591454256,200.7601283119875 139.93666369316634,200.91719212330645 138.82872435334139,201.75486460118555 137.768956289161,202.5925350873731 136.85370205179788,203.2993180110352 135.76984834985342,204.0322765824385 134.27653880475555,205.05318062313017 134.92685102589894,204.86994165417855 136.5646743979305,203.66579748739605" stroke="#4dd2ff" stroke-linecap="round" stroke-linejoin="round" stroke-width="0.5"><title>2024-04-12 15.1km</title><desc>9223370323917503807</desc></polyline><polyline fill="none" points="19.51474530820269,263.39341200797935 20.769436997245066,263.31473984377226 21.058981233276427,263.1311713923642 22.21715817693621,262.3706725051161 22.916890080436133,261.715068700898 24.02680965140462,260.5612030476623 24.847184986574575,259.9055958822719 25.281501340446994,259.74824998137774 26.07774798932951,259.1975387757411 26.536193029489368,258.62060230525094 26.825737265404314,258.33213371637976 27.11528150131926,258.0961137864506 27.549597855191678,257.86009369863314 27.935656836489215,257.5454000028258 28.828418230521493,256.47019442456076 29.14209115272388,256.15549948933767 29.745308310957626,255.89325349559658 30.131367292255163,255.42121021574712 30.613941018818878,254.76559350185562 31.43431635387242,254.39844761005952 32.32707774802111,253.5068059969053 33.14745308307465,252.9560850514972 34.42627345840447,252.43158811409376 35.58445040206425,251.64484124621958 36.28418230556417,250.9892175164423 37.08042895444669,250.72696768349851 37.80428954423405,250.2286924639193 39.1554959785426,249.62551625672495 39.56568364612758,249.3108152176137 39.951742627308704,249.10101436896366 41.42359249328729,248.18313418939942 42.12332439678721,247.47505356240436 42.847184986574575,246.74074622621993 43.42627345852088,246.13756405684398 44.077747989213094,245.50815547650564 44.80160857900046,244.40668775924132 45.04289544234052,243.67237403756008 45.50134048250038,243.436344302434 46.03217158175539,242.49222378310515 46.731903485255316,241.12848968416802 47.11796246643644,240.21058876503957 47.55227882042527,238.97797520284075 47.84182305634022,238.55836109278607 48.46916890074499,237.53554960872862 48.6863270776812,237.06348176978645 49.43431635387242,235.8046311113576 49.67560321721248,235.22765639176941 49.74798927619122,234.5720021558518 50.06166219827719,234.04747788986424 50.327077747904696,233.68031043955125 50.56836461124476,233.26069002857548 50.76139410189353,232.7361638128641 51.099195710383356,231.7920146592951 51.96782841824461,230.50691869549337 52.52278820378706,229.87748222972732 53.05361930304207,229.06445846584393 53.849865951691754,227.96293940951 54.28418230568059,227.35972513534944 55.03217158175539,226.36310798776685 55.85254691680893,225.41894177687936 56.09383378003258,225.13044604170136 56.407506702351384,224.8681769867835 56.697050938382745,224.57968080116552 57.710455764085054,223.55682878711377 57.95174262719229,223.29455856216373 58.579088471713476,222.63888214662438 58.86863270774484,222.35038413770963 59.66487935651094,221.6947059670929 61.064343163510785,220.80298169888556 62.0294906165218,220.06861884414684 63.33243967825547,219.25557247147663 64.29758713126648,218.7572528005694 64.80428954423405,218.44252422466525 65.79356568364892,217.76061134660267 66.83109919563867,217.20983459803392 67.0,216.9213321483694 66.6863270776812,216.68528451400925 65.67292225197889,216.8688771321613 65.21447721181903,216.9213321483694 64.39410187664907,217.05246965470724 63.18766756018158,217.31474452119437 62.101876675500534,217.60324664902873 61.305630026734434,217.94420340500074 60.65415549592581,218.23270501798834 59.52010723866988,218.5998885476729 58.77211796247866,218.8359349006496 57.80697050935123,219.229345137981 57.300268096500076,219.30802713273442 55.70777479885146,219.64898224067292 55.201072386000305,219.70143684340292 53.72922252013814,220.17352791700978 52.04021447710693,220.64561835877248 51.02680965140462,220.90789055335335 50.66487935651094,220.9865721737442 50.085790884681046,221.1963897421665 49.41018766746856,221.32752565902774 48.97587131371256,221.45866152719827 48.08310991956387,221.6947059670929 47.16621983901132,222.0094316410541 45.646112600457855,221.6947059670929 44.70509383373428,221.87829597768723 44.2949061661493,221.87829597768723 42.94369973184075,222.14056725570117 42.050938337808475,222.5077467173105 40.723860589787364,222.9011528590927 39.927613941021264,223.13719633358414 39.179624664830044,223.3732396501291 38.35924932966009,223.68796382649452 37.78016085794661,223.9764607414254 37.442359249223955,224.1075956247514 36.47721179632936,224.4485460932774 36.06702412862796,224.57968080116552 35.15013404819183,225.07799224634073 34.57104557636194,225.31403426409815 33.243967828457244,225.96970570701524 32.37533512059599,226.31065437570214 31.627345844404772,226.730283053912 30.92761394090485,227.22859146105475 30.51742627331987,227.49085876101162 29.986595174181275,228.30388615161064 28.997319034766406,228.61860592878656 28.611260053585283,228.9070988112071 28.369973190361634,229.5627635756682 27.69436997314915,229.79880259250058 26.68096514744684,230.55937168360106 25.69168900803197,231.18880693276878 24.89544235926587,232.2116368172865 24.388739946414717,233.39182146062376 23.61662198381964,234.09993035154184 22.361930294893682,234.93916867807275 21.758713136659935,235.28010867798002 20.938337801606394,236.27670063468395 20.23860589810647,236.93235170244589 19.997319034766406,237.1683857885946 19.128686327137984,238.24365018273238 18.64611260057427,239.45004048018018 18.018766756053083,240.39416913990863 17.3431635388406,240.91868397034705 17.005361930350773,241.5218750613567 16.619302949053235,242.43977256913786 16.281501340446994,242.88560763988062 15.726541554904543,243.64614851921215 15.461126005277038,244.64271684529376 14.78552278818097,245.95398667023983 14.278820375329815,246.8194220852747 13.941018766723573,247.8946570684493 13.579088471829891,248.91743852407672 13.386058981297538,249.44194068471552 13.50670241296757,250.04511720567825 13.193029490532354,250.83186764002312 13.048257372691296,251.43504178521107 13.26541554951109,252.16933935301495 13.168900804244913,253.7690537640592 13.168900804244913,254.6869194143219 13.24128686322365,256.2603978322295 13.337801608489826,256.8897872350353 13.77211796247866,258.1223382308672 14.278820375329815,259.53845533769345 15.02680965140462,260.87589405450854 16.11260053620208,262.05598283110885 17.415549597819336,263.0000510114769 18.1394101876067,263.44586010777857 19.635388739872724,263.39341200797935 20.02144772117026,263.49830819971976 21.227882037404925,262.9738269294612 22.241286863340065,262.2920001129678 22.892761394032277,261.6626203439373 23.689008042914793,260.66610008111456 24.412868632702157,260.08916601134115 25.11260053620208,259.4860066572728 25.836461125989445,259.22376313831774 26.367292225244455,258.751724313217 27.067024128627963,257.833869234717 27.4530831099255,257.6502979325887 28.46648793562781,256.60131723145605 28.87667560321279,256.15549948933767 29.528150134021416,255.84080427340814 29.8900804289151,255.57855804584688 30.46916890074499,254.71314411211642 31.386058981181122,254.2673239846772 32.03753351198975,253.48058120944188 32.97855227882974,253.060984345444 33.895442359149456,252.56271242152434 35.05361930280924,251.9070903970569 35.80160857911687,251.25146715453593 36.40482573735062,250.93676756546483 37.104557640850544,250.64829269557958 37.94906166207511,250.09756728919456 38.76943699736148,249.88776690827217 39.22788203752134,249.46816577229765 39.999999999883585,248.8125379983976 40.7962466487661,248.4191607493849 41.68900804291479,247.8422066574567 42.17158176947851,247.3701526079385 43.064343163510785,246.39981730066938 43.378016085829586,246.05888804569258 43.88471849868074,245.48193009456736 44.22252010717057,245.08854913251707 44.92225201067049,243.80350159996306 45.139410187723115,243.41011876662378 45.52546916890424,243.27899105803226 46.176943699712865,241.99393693503225 46.56300268089399,241.33829527327907 46.82841823052149,241.07603826746345 47.28686327079777,239.60739543219097 47.50402144761756,239.0828786524653 47.91420911520254,238.32232793659205 48.42091152817011,237.378193732613 48.63806970510632,236.98480373530765 49.14477211795747,235.98821377879358 49.530831099138595,235.07029948625132 49.965147453011014,233.94257294302224 50.495978552266024,233.02465332800057 50.857908847159706,232.18541044701124 51.050938337808475,231.66088263251004 51.46112600539345,230.97899530781433 51.87131367297843,230.21842712143552 52.788203753414564,228.93332542516873 53.02949061663821,228.53992601085338 53.3431635388406,228.12029948525014 53.97050938324537,227.35972513534944 54.7667560322443,226.36310798776685 55.34584450395778,225.6025298491004 56.60053619300015,224.65836160245817 57.32439678278752,223.84532580937957 57.975871313596144,223.1109692886821 58.98927613941487,222.3766112391604 59.71313672920223,221.77338741190033 60.099195710383356,221.4848886949767 61.546916889958084,220.43580046264105 62.58445040206425,219.67520954305655 63.380697050946765,219.15066312561976 64.73190348525532,218.31138723512413 65.16621983912773,218.04911310976604 65.74530831095763,217.6819290065614 66.80697050935123,217.05246965470724 66.83109919563867,216.58037440359476 66.37265415547881,216.58037440359476 65.69705093838274,216.73773955754586 65.3109919570852,216.79019459325355 63.935656836489215,217.07869715010747 63.115281501202844,217.2360620817053 61.59517426264938,217.7343839018722 60.3887399462983,218.23270501798834 59.03753351198975,218.54743378114654 58.43431635387242,218.8359349006496 56.769436997245066,219.30802713273442 55.15281501330901,219.70143684340292 53.56032171577681,220.09484611530206 51.94369973195717,220.56693666233332 50.544235924840905,220.9603449688584 49.699731903499924,221.1963897421665 49.4825737264473,221.2488441148016 48.97587131371256,221.4324343575281 48.541554959723726,221.53734302471275 47.4075067024678,221.87829597768723 46.90080428950023,221.72093311726348 45.428954423521645,221.5635701866122 44.2949061661493,221.82584169865004 42.87131367297843,222.1667943727516 42.292225201032124,222.32415703425067 41.302949061617255,222.56020089486265 40.53083109925501,222.84869873218122 39.42091152817011,223.18965041762567 38.962466487893835,223.3207855935034 37.78016085794661,223.89777978803613 36.35656836454291,224.3698652451567 35.367292225244455,224.92063081334345 33.871313672862016,225.49762239094707 32.906166219851,225.9959325394011 32.061662198393606,226.38933479087427 30.686327077797614,227.22859146105475 30.03485254687257,228.06784613447962 29.67292225197889,228.30388615161064 28.87667560321279,228.40879277521162 28.538873994606547,228.72351245881873 28.273458444979042,229.27427122942754 27.428954423521645,229.6938963822904 26.970509383361787,230.21842712143552 25.812332439702004,230.95276884592022 25.11260053620208,231.71333544913796 24.436997319106013,233.12955854774918 23.833780160872266,233.94257294302224 23.49597855214961,234.28351390603348 22.77211796247866,234.5720021558518 22.21715817693621,234.93916867807275 21.613941018818878,235.46369161840994 20.528150134021416,236.5389612080471 19.731903485255316,237.22083778629894 18.718498659553006,238.74194232732407 18.163538874010555,239.84342772877426 17.84986595180817,240.2892660802463 16.812332439702004,241.57432641182095 16.088471849798225,242.75447973638074 15.823056300287135,243.12163774340297 15.147453083191067,244.77384404704208 14.423592493170872,245.92776132145082 13.965147453127429,247.23902637098217 13.50670241296757,248.57651170156896 13.313672922202386,249.28459011839004 13.24128686322365,250.41226762667065 13.072386058978736,251.61861632039654 13.144772117957473,252.35291350624175 13.096514745382592,253.24455803487217 13.02412868628744,254.63447001288296 13.144772117957473,255.63100730697624 13.361930294893682,256.9160117691499 13.458445040159859,257.30937954669935 13.530831099138595,257.7289713594946 13.844504021457396,258.4894802486815 14.56836461124476,260.0104931106034 15.388739946298301,261.1643605642894 16.40214477223344,262.16087942026206 16.932975871372037,262.52801723693847 17.36729222512804,262.9738269294612 17.72922252002172,263.2098435975204 18.95978552266024,263.2098435975204 19.997319034766406,263.3409639004676 20.69705093826633,263.18361953110434 21.638069705106318,262.5804654652602 21.734584450372495,262.34444837633055" stroke="#4dd2ff" stroke-linecap="round" stroke-linejoin="round" stroke-width="0.5"><title>2024-04-08 13.3km</title><desc>9223370324272004907</desc></polyline></svg>