<?xml version="1.0" encoding="utf-8" ?>
<svg baseProfile="full" height="200mm" version="1.1" viewBox="0,0,200,200" width="200mm" xmlns="http://www.w3.org/2000/svg" xmlns:ev="http://www.w3.org/2001/xml-events" xmlns:xlink="http://www.w3.org/1999/xlink"><defs /><rect fill="#1a1a1a" height="200" width="200" x="0" y="0" /><text alignment-baseline="middle" fill="#e1ed5e" style="dominant-baseline: central; font-size:9.0px; font-family:Arial;" text-anchor="middle" x="100.0" y="100.0">2024</text><line stroke="#e1ed5e" stroke-width="0.3" x1="100.0" x2="100.0" y1="15.0" y2="10.0" /><path d="M 100.0 14.0 a86.0,86.0 0 0,1 42.35913384403234,11.155469271406648" fill="none" id="id1" stroke="none" /><text fill="#e1ed5e" style="font-size:6.75px; font-family:Arial;" text-anchor="middle"><textPath startOffset="22.145653131862478" xlink:href="#id1">January</textPath></text><line stroke="#e1ed5e" stroke-width="0.3" x1="143.13028292997686" x2="145.6673583964461" y1="26.7553504044142" y2="22.446841604673864" /><path d="M 143.63769802327073 25.89364864446614 a86.0,86.0 0 0,1 29.32050498858742,28.57503671076993" fill="none" id="id2" stroke="none" /><text fill="#e1ed5e" style="font-size:6.75px; font-family:Arial;" text-anchor="middle"><textPath startOffset="20.669276256404974" xlink:href="#id2">February</textPath></text><line stroke="#e1ed5e" stroke-width="0.3" x1="172.87174338648825" x2="177.1583165268699" y1="56.24261187166439" y2="53.66864786411523" /><path d="M 173.72905801456457 55.72781907015455 a86.0,86.0 0 0,1 12.242430191666344,42.057860355516425" fill="none" id="id3" stroke="none" /><text fill="#e1ed5e" style="font-size:6.75px; font-family:Arial;" text-anchor="middle"><textPath startOffset="22.145653131862474" xlink:href="#id3">March</textPath></text><line stroke="#e1ed5e" stroke-width="0.3" x1="184.99686870605535" x2="189.99668451229388" y1="99.2704041080226" y2="99.22748670261217" /><path d="M 185.99683186730306 99.26182062694052 a86.0,86.0 0 0,1 -10.086455211305974,41.156179273409016" fill="none" id="id4" stroke="none" /><text fill="#e1ed5e" style="font-size:6.75px; font-family:Arial;" text-anchor="middle"><textPath startOffset="21.40746469413373" xlink:href="#id4">April</textPath></text><path d="M 120.99922638620191 100.18025310272382 l 37.68169446968235 0.3234520271906057 a58.68308266743026,58.68308266743026 0 0,0 -0.017293536718494828,1.0072618156151043 l -37.670589501365185 -0.9702607587747811" fill="#edff1a" stroke="none" /><path d="M 120.99303781780057 100.54070618675476 l 27.939047862834265 0.7196107663209278 a48.948313636725004,48.948313636725004 0 0,0 -0.02884527153481109,0.8397986077839587 l -27.922577904302607 -1.1991156386689972" fill="#ff4206" stroke="none" /><path d="M 120.96210409425399 101.26102812881392 l 40.0066595987675 2.406701296162243 a61.078984809755404,61.078984809755404 0 0,0 -0.07194534001202135,1.046069453943119 l -39.95945029759041 -3.0931141742597057" fill="#bfff1e" stroke="none" /><path d="M 120.86939407059847 102.33845913500097 l 55.25958911182564 6.191952220452931 a76.6054175517833,76.6054175517833 0 0,0 -0.1576536346569247,1.3055982535097972 l -55.14515339090905 -7.139644150886137" fill="#3effb5" stroke="none" /><path d="M 120.77682067341334 103.0534771498775 l 27.652482520803364 4.0639626650244365 a48.94951845928742,48.94951845928742 0 0,0 -0.12931648784150457,0.8303046173315615 l -27.578644540823593 -4.538055464287448" fill="#ff4206" stroke="none" /><path d="M 120.7213421655516 103.40968896794604 l 27.711686016171267 4.55994738842769 a49.08434905857871,49.08434905857871 0 0,0 -0.1439461235736879,0.8302429885792826 l -27.629325075105346 -5.034983409927561" fill="#ff4506" stroke="none" /><path d="M 120.65975698304385 103.76489593502545 l 61.97927094913153 11.294687805076347 a84.0,84.0 0 0,0 -0.27069483087136303,1.4163897398667418 l -61.776249825978006 -12.356980109976403" fill="#4dd2ff" stroke="none" /><path d="M 120.35273937422433 105.17358676015961 l 24.362512001986275 6.1928552820428076 a46.137291970123805,46.137291970123805 0 0,0 -0.20170898714480073,0.7659218788680607 l -24.252613534036744 -6.610157665283672" fill="#ff0000" stroke="none" /><path d="M 120.26092885502905 105.52220625578681 l 26.892311750772066 7.329619152471455 a48.87328018409369,48.87328018409369 0 0,0 -0.2275668111267735,0.807554331273744 l -26.762526447570714 -7.790181407648208" fill="#ff4006" stroke="none" /><path d="M 120.16314734710363 105.8691983318838 l 28.15136505113311 8.194452083994534 a50.31976124048491,50.31976124048491 0 0,0 -0.24854051487627693,0.8273105406015452 l -28.006548216253204 -8.676500228186804" fill="#ff6109" stroke="none" /><path d="M 119.71291397450082 107.23885506374661 l 26.63959918663819 9.782429818230817 a49.37893898603937,49.37893898603937 0 0,0 -0.29902313832490884,0.7931944004927789 l -26.46774536449884 -10.238292498917755" fill="#ff4c07" stroke="none" /><path d="M 119.58574465831526 107.57618678355244 l 25.730588860508444 9.953144527248948 a48.58855358819717,48.58855358819717 0 0,0 -0.3075917474044953,0.7753321372604334 l -25.555938438137826 -10.393377681722946" fill="#ff3a05" stroke="none" /><path d="M 119.31412917781788 108.2440532568976 l 26.200935890983754 11.18362152790748 a49.48793485044004,49.48793485044004 0 0,0 -0.3402086210169211,0.778463903312486 l -26.005093387949866 -11.631747500995811" fill="#ff4e07" stroke="none" /><path d="M 119.16976305983485 108.57439118712176 l 49.88511298461877 22.312976524999034 a75.64790406679234,75.64790406679234 0 0,0 -0.540398133865392,1.1808674488314654 l -49.49473038589832 -23.16603295604519" fill="#3cffa4" stroke="none" /><path d="M 118.70294669586154 109.54985784667822 l 24.822306792342374 12.674446714108296 a48.87092596240636,48.87092596240636 0 0,0 -0.38792328665027637,0.7438940517545182 l -24.601075436717146 -13.098687008967318" fill="#ff4006" stroke="none" /><line stroke="#e1ed5e" stroke-width="0.3" x1="174.33088141563837" x2="178.70328620479359" y1="141.23008692659167" y2="143.65538615756765" /><path d="M 175.20536237346943 141.71514677278685 a86.0,86.0 0 0,1 -30.301960400862466,31.631185727798858" fill="none" id="id5" stroke="none" /><text fill="#e1ed5e" style="font-size:6.75px; font-family:Arial;" text-anchor="middle"><textPath startOffset="22.145653131862474" xlink:href="#id5">May</textPath></text><path d="M 117.21940702142032 112.02048342749411 l 21.128396912904673 14.749261959204198 a46.76722500484807,46.76722500484807 0 0,0 -0.4651889136745167,0.6543464642869091 l -20.872092900700196 -15.10978565020061" fill="#ff0f01" stroke="none" /><path d="M 116.79662413953412 112.60449989151573 l 22.061068316695707 16.555036946383975 a48.58187781080276,48.58187781080276 0 0,0 -0.5062879950147132,0.6627472375372411 l -21.77362834432669 -16.931305097162095" fill="#ff3905" stroke="none" /><path d="M 116.57777611688842 112.89097897827486 l 40.379181195316015 31.399095528771745 a72.15057647797428,72.15057647797428 0 0,0 -0.7686907622231509,0.9712156669229396 l -39.8342240024513 -32.08763113960937" fill="#35ff64" stroke="none" /><path d="M 116.35404254752997 113.17365903436017 l 22.541940846006934 18.158191885275667 a49.9457946798385,49.9457946798385 0 0,0 -0.5435842971300725,0.6630844569283109 l -22.226909729638233 -18.542478623902472" fill="#ff5908" stroke="none" /><line stroke="#e1ed5e" stroke-width="0.3" x1="143.1302829299769" x2="145.66735839644613" y1="173.24464959558577" y2="177.55315839532614" /><path d="M 143.63769802327073 174.10635135553383 a86.0,86.0 0 0,1 -40.68552437913181,11.842963189579606" fill="none" id="id6" stroke="none" /><text fill="#e1ed5e" style="font-size:6.75px; font-family:Arial;" text-anchor="middle"><textPath startOffset="21.407464694133747" xlink:href="#id6">June</textPath></text><line stroke="#e1ed5e" stroke-width="0.3" x1="101.45913802915013" x2="101.54496967792366" y1="184.9874750549273" y2="189.98673829345242" /><path d="M 101.47630435890484 185.9873277026323 a86.0,86.0 0 0,1 -42.54439059252881,-10.42667462771756" fill="none" id="id7" stroke="none" /><text fill="#e1ed5e" style="font-size:6.75px; font-family:Arial;" text-anchor="middle"><textPath startOffset="22.145653131862474" xlink:href="#id7">July</textPath></text><line stroke="#e1ed5e" stroke-width="0.3" x1="58.13341422392154" x2="55.67067388415222" y1="173.97424548756322" y2="178.32567169271397" /><path d="M 57.64086615596768 174.84453072859336 a86.0,86.0 0 0,1 -31.369924170532247,-30.572349798747897" fill="none" id="id8" stroke="none" /><text fill="#e1ed5e" style="font-size:6.75px; font-family:Arial;" text-anchor="middle"><textPath startOffset="22.145653131862474" xlink:href="#id8">August</textPath></text><line stroke="#e1ed5e" stroke-width="0.3" x1="26.387840678322732" x2="22.057713659400548" y1="142.50000000000003" y2="145.00000000000006" /><path d="M 25.521815274538298 143.00000000000003 a86.0,86.0 0 0,1 -11.493303480769221,-40.785679425670985" fill="none" id="id9" stroke="none" /><text fill="#e1ed5e" style="font-size:6.75px; font-family:Arial;" text-anchor="middle"><textPath startOffset="21.40746469413373" xlink:href="#id9">September</textPath></text><line stroke="#e1ed5e" stroke-width="0.3" x1="15.003131293944662" x2="10.003315487706104" y1="100.72959589197737" y2="100.7725132973878" /><path d="M 14.003168132696942 100.73817937305945 a86.0,86.0 0 0,1 10.791469493833604,-42.45332614584628" fill="none" id="id10" stroke="none" /><text fill="#e1ed5e" style="font-size:6.75px; font-family:Arial;" text-anchor="middle"><textPath startOffset="22.145653131862435" xlink:href="#id10">October</textPath></text><line stroke="#e1ed5e" stroke-width="0.3" x1="26.387840678322718" x2="22.05771365940052" y1="57.49999999999999" y2="54.99999999999999" /><path d="M 25.521815274538284 56.99999999999999 a86.0,86.0 0 0,1 29.574782752854787,-30.34633250058573" fill="none" id="id11" stroke="none" /><text fill="#e1ed5e" style="font-size:6.75px; font-family:Arial;" text-anchor="middle"><textPath startOffset="21.40746469413373" xlink:href="#id11">November</textPath></text><line stroke="#e1ed5e" stroke-width="0.3" x1="56.869717070023135" x2="54.33264160355391" y1="26.7553504044142" y2="22.446841604673864" /><path d="M 56.362301976729285 25.89364864446614 a86.0,86.0 0 0,1 42.16139366436587,-11.88097634709845" fill="none" id="id12" stroke="none" /><text fill="#e1ed5e" style="font-size:6.75px; font-family:Arial;" text-anchor="middle"><textPath startOffset="22.145653131862474" xlink:href="#id12">December</textPath></text></svg>